<?xml version="1.0" encoding="utf-8"?>
<!-- Generator: Adobe Illustrator 19.1.0, SVG Export Plug-In . SVG Version: 6.00 Build 0)  -->
<svg version="1.1" xmlns="http://www.w3.org/2000/svg" xmlns:xlink="http://www.w3.org/1999/xlink" x="0px" y="0px"
	 viewBox="0 0 990 846" style="enable-background:new 0 0 990 846;" xml:space="preserve">
<style type="text/css">
	.st0{fill:#222222;}
	.st1{display:none;}
	.st2{display:inline;fill:none;stroke:#000000;stroke-width:2;stroke-miterlimit:10;}
</style>
<g id="Layer_1">
	<g>
		<path class="st0" d="M927,252v-83.7c0-6.8-4.5-12.3-10-12.3H266l-6.9-30.7c0,0,0.6,2.7-1.6-7S252,108,252,108H68.4
			c-3,0-5.4,4.3-5.4,9.6v50.7v16.8V252H927z"/>
	</g>
	<path class="st0" d="M927,738H59c-2.8,0-5-2.1-5-4.6L36,305.6c0-2.5,2.2-4.6,5-4.6h908c2.8,0,5,2.1,5,4.6l-22,427.8
		C932,735.9,929.8,738,927,738z"/>
</g>
<g id="Layer_2" class="st1">
	<path class="st2" d="M876,164H196.1l-6.9-24.9c0,0,0.6,2.2-1.6-5.7s-5.5-8.4-5.5-8.4H27.4c-3,0-5.4,3.5-5.4,7.8V174v13.6v542.6
		c0,5.5,4.5,10,10,10h844c5.5,0,10-4.5,10-10V174C886,168.5,881.5,164,876,164z"/>
</g>
</svg>
