<?xml version="1.0" encoding="utf-8"?>
<!-- Generator: Adobe Illustrator 19.1.0, SVG Export Plug-In . SVG Version: 6.00 Build 0)  -->
<svg version="1.1" xmlns="http://www.w3.org/2000/svg" xmlns:xlink="http://www.w3.org/1999/xlink" x="0px" y="0px"
	 viewBox="0 0 936 837" style="enable-background:new 0 0 936 837;" xml:space="preserve">
<style type="text/css">
	.st0{display:none;}
	.st1{display:inline;fill:none;stroke:#222222;stroke-width:72;stroke-miterlimit:10;}
	.st2{display:inline;fill:#222222;}
	.st3{fill:none;stroke:#222222;stroke-width:72;stroke-miterlimit:10;}
	.st4{fill:#222222;}
</style>
<g id="Layer_1" class="st0">
	<path class="st1" d="M99,323.5v-179c0-55,45-100,100-100h196c55,0,100,45,100,100v179"/>
	<path class="st2" d="M560,324H34c-13.8,0-25,11.2-25,25v454c0,13.8,11.2,25,25,25h526c13.8,0,25-11.2,25-25V349
		C585,335.2,573.8,324,560,324z M351,711H243l30.3-113.5c-17.9-8.8-30.3-27.2-30.3-48.5c0-29.8,24.2-54,54-54s54,24.2,54,54
		c0,21.3-12.3,39.7-30.3,48.5L351,711z"/>
</g>
<g id="Layer_2">
	<path class="st3" d="M495,324V145c0-55,45-100,100-100h196c55,0,100,45,100,100v179"/>
	<path class="st4" d="M560,324H34c-13.8,0-25,11.2-25,25v454c0,13.8,11.2,25,25,25h526c13.8,0,25-11.2,25-25V349
		C585,335.2,573.8,324,560,324z M351,711H243l30.3-113.5c-17.9-8.8-30.3-27.2-30.3-48.5c0-29.8,24.2-54,54-54s54,24.2,54,54
		c0,21.3-12.3,39.7-30.3,48.5L351,711z"/>
</g>
</svg>
