<?xml version="1.0" encoding="utf-8"?>
<!-- Generator: Adobe Illustrator 19.2.1, SVG Export Plug-In . SVG Version: 6.00 Build 0)  -->
<svg version="1.1" id="Layer_1" xmlns="http://www.w3.org/2000/svg" xmlns:xlink="http://www.w3.org/1999/xlink" x="0px" y="0px"
	 viewBox="0 0 295.8 318.2" style="enable-background:new 0 0 295.8 318.2;" xml:space="preserve">
<style type="text/css">
	.st0{fill:#222222;stroke:#010101;stroke-linecap:round;stroke-linejoin:round;}
</style>
<g id="Refresh_1">
	<path class="st0" d="M253.5,195c-11.6,47-53.7,81.3-104,81.5c-59.4,0.3-107.8-47.8-108.1-107.2S88.9,61.5,148.3,61.2
		c13.5-0.1,26.3,2.4,38.1,6.8l-18.8,42.5l109.5-17.4L216.8,0l-13.5,30.3c-17-6.7-35.6-10.2-54.9-10.1C66.1,20.5-0.3,87.5,0,169.8
		s67.3,148.8,149.6,148.4c73.3-0.3,134-53.2,146.2-123.2L253.5,195L253.5,195z"/>
</g>
</svg>
