<?xml version="1.0" encoding="utf-8"?>
<!-- Generator: Adobe Illustrator 19.2.1, SVG Export Plug-In . SVG Version: 6.00 Build 0)  -->
<svg version="1.1" id="Layer_1" xmlns="http://www.w3.org/2000/svg" xmlns:xlink="http://www.w3.org/1999/xlink" x="0px" y="0px"
	 viewBox="0 0 297 297" style="enable-background:new 0 0 297 297;" xml:space="preserve">
<style type="text/css">
	.st0{display:none;}
	.st1{display:inline;fill:#FFFFFF;stroke:#000000;stroke-miterlimit:10;}
	.st2{display:inline;fill:#FE0000;stroke:#000000;stroke-miterlimit:10;}
	.st3{display:inline;fill:#222222;stroke:#000000;stroke-linecap:round;stroke-linejoin:round;}
	.st4{display:inline;fill:#222222;stroke:#000000;stroke-miterlimit:10;}
	.st5{display:inline;}
	.st6{fill:#222222;stroke:#000000;stroke-miterlimit:10;}
	.st7{fill:#222222;}
	.st8{fill:#48BD1F;}
	.st9{fill:none;stroke:#000000;stroke-miterlimit:10;}
</style>
<g id="Background" class="st0">
</g>
<g id="Layer_1_1_" class="st0">
	<polygon class="st1" points="821.7,200.8 701.7,200.8 701.7,80.8 644.7,80.8 644.7,200.8 524.7,200.8 524.7,257.8 644.7,257.8 
		644.7,377.8 701.7,377.8 701.7,257.8 821.7,257.8 	"/>
	<rect x="890" y="221.7" class="st1" width="296.8" height="56.8"/>
	<rect x="1009.9" y="101.7" class="st1" width="56.8" height="296.8"/>
</g>
<g id="Remove_Red" class="st0">
	<polygon class="st2" points="-34.9,104.1 -119.8,189 -204.7,104.1 -245,144.4 -160.1,229.3 -245,314.2 -204.7,354.5 -119.8,269.6 
		-34.9,354.5 5.4,314.2 -79.5,229.3 5.4,144.4 	"/>
</g>
<g id="Refresh_1" class="st0">
	<path class="st3" d="M-373.2,646.8c-11.6,47-53.7,81.3-104,81.5c-59.4,0.3-107.8-47.8-108.1-107.2s47.5-107.8,106.9-108.1
		c13.5-0.1,26.3,2.4,38.1,6.8l-18.8,42.5l109.5-17.4l-60.3-93.1l-13.5,30.3c-17-6.7-35.6-10.2-54.9-10.1
		c-82.3,0.3-148.7,67.3-148.4,149.6s67.3,148.8,149.6,148.4c73.3-0.3,134-53.2,146.2-123.2L-373.2,646.8L-373.2,646.8z"/>
</g>
<g id="Remove_dg" class="st0">
	<polygon class="st4" points="-22.9,476.1 -107.8,561 -192.7,476.1 -233,516.4 -148.1,601.3 -233,686.2 -192.7,726.5 -107.8,641.6 
		-22.9,726.5 17.4,686.2 -67.5,601.3 17.4,516.4 	"/>
</g>
<g id="Refresh_2" class="st0">
	<g class="st5">
		<path class="st6" d="M-589.9,267c12.1,62.8,66.4,110.7,132.1,111.6c28.5,0.4,55-8.1,77.1-22.9l-19.6-30c-16.3,11-36,17.2-57.1,17
			c-46-0.6-84.5-32.4-96-75.2l36.5,0.5l-54-78.8l-55.9,77.4L-589.9,267z"/>
		<path class="st6" d="M-329.9,211c-12.9-62.7-67.8-109.8-133.6-109.8c-28.5,0-54.9,8.8-76.8,24l20,29.7
			c16.2-11.2,35.7-17.7,56.8-17.7c46,0,84.9,31.2,97,73.9H-403l55,78l54.9-78.1L-329.9,211z"/>
	</g>
</g>
<g id="Add_DG">
	<polygon class="st7" points="297,120 177,120 177,0 120,0 120,120 0,120 0,177 120,177 120,297 177,297 177,177 297,177 	"/>
</g>
<g id="Add_Green" class="st0">
	<g id="XMLID_2_" class="st5">
		<g>
			<polygon class="st8" points="292.7,629.4 292.7,749.4 235.7,749.4 235.7,629.4 115.7,629.4 115.7,572.4 235.7,572.4 235.7,452.4 
				292.7,452.4 292.7,572.4 412.7,572.4 412.7,629.4 			"/>
		</g>
		<g>
			<polygon class="st9" points="412.7,572.4 292.7,572.4 292.7,452.4 235.7,452.4 235.7,572.4 115.7,572.4 115.7,629.4 235.7,629.4 
				235.7,749.4 292.7,749.4 292.7,629.4 412.7,629.4 			"/>
		</g>
	</g>
</g>
</svg>
