<svg id="Eye_Open" data-name="Eye Open" xmlns="http://www.w3.org/2000/svg" viewBox="0 0 215.9 143.76"><title>eye</title><path d="M468.18,287.64c-59.39,0-107.7-32.13-107.7-71.63s48.31-71.63,107.7-71.63,107.7,32.13,107.7,71.63S527.56,287.64,468.18,287.64Zm-48-122.54a103.29,103.29,0,0,0-21.31,10.7C382.19,186.93,373,201.22,373,216s9.21,29.08,25.93,40.21c18.32,12.2,42.92,18.92,69.26,18.92s50.95-6.72,69.26-18.92c16.72-11.14,25.93-25.42,25.93-40.21s-9.21-29.08-25.93-40.21A103.46,103.46,0,0,0,515.82,165l-1-.36.7.76a55,55,0,0,1,14.88,37.31c0,31.75-28,57.58-62.35,57.58s-62.35-25.83-62.35-57.58a55,55,0,0,1,14.77-37.19l.7-.76Z" transform="translate(-360.23 -144.13)"/><path d="M468.18,144.63c59.25,0,107.45,32,107.45,71.38s-48.2,71.38-107.45,71.38-107.45-32-107.45-71.38,48.2-71.38,107.45-71.38M468.07,260c-34.24,0-62.1-25.72-62.1-57.33a54.79,54.79,0,0,1,14.7-37l1.4-1.53-1.94.72a103.53,103.53,0,0,0-21.36,10.73c-16.8,11.18-26,25.54-26,40.42s9.25,29.24,26,40.42c18.36,12.22,43,19,69.4,19s51-6.73,69.4-19c16.8-11.18,26-25.54,26-40.42s-9.25-29.24-26-40.42a103.7,103.7,0,0,0-21.68-10.85L514,164l1.41,1.52a54.79,54.79,0,0,1,14.81,37.14c0,31.61-27.86,57.33-62.1,57.33m.1-115.88c-59.62,0-107.95,32.18-107.95,71.88s48.33,71.88,107.95,71.88S576.12,255.71,576.12,216s-48.33-71.88-107.95-71.88Zm-.1,116.38c34.57,0,62.6-25.89,62.6-57.83a55.07,55.07,0,0,0-14.94-37.48A103.13,103.13,0,0,1,537.3,176c16.65,11.09,25.82,25.29,25.82,40S554,244.93,537.3,256c-18.28,12.17-42.83,18.87-69.13,18.87s-50.85-6.7-69.13-18.87c-16.65-11.09-25.82-25.29-25.82-40s9.17-28.92,25.82-40a103,103,0,0,1,21.25-10.68,55.05,55.05,0,0,0-14.83,37.36c0,31.94,28,57.83,62.6,57.83Z" transform="translate(-360.23 -144.13)"/></svg>