<?xml version="1.0" encoding="utf-8"?>
<!-- Generator: Adobe Illustrator 19.2.1, SVG Export Plug-In . SVG Version: 6.00 Build 0)  -->
<svg version="1.1" id="Layer_1" xmlns="http://www.w3.org/2000/svg" xmlns:xlink="http://www.w3.org/1999/xlink" x="0px" y="0px"
	 viewBox="0 0 333.7 277.4" style="enable-background:new 0 0 333.7 277.4;" xml:space="preserve">
<style type="text/css">
	.st0{display:none;}
	.st1{display:inline;fill:#FFFFFF;stroke:#000000;stroke-miterlimit:10;}
	.st2{display:inline;fill:#FE0000;stroke:#000000;stroke-miterlimit:10;}
	.st3{display:inline;fill:#222222;stroke:#000000;stroke-linecap:round;stroke-linejoin:round;}
	.st4{display:inline;fill:#222222;stroke:#000000;stroke-miterlimit:10;}
	.st5{fill:#222222;stroke:#000000;stroke-miterlimit:10;}
	.st6{display:inline;}
	.st7{fill:#48BD1F;}
	.st8{fill:none;stroke:#000000;stroke-miterlimit:10;}
</style>
<g id="Background" class="st0">
</g>
<g id="Layer_1_1_" class="st0">
	<polygon class="st1" points="1288.9,89.3 1168.9,89.3 1168.9,-30.7 1111.9,-30.7 1111.9,89.3 991.9,89.3 991.9,146.3 1111.9,146.3 
		1111.9,266.3 1168.9,266.3 1168.9,146.3 1288.9,146.3 	"/>
	<rect x="1357.2" y="110.2" class="st1" width="296.8" height="56.8"/>
	<rect x="1477.1" y="-9.8" class="st1" width="56.8" height="296.8"/>
</g>
<g id="Remove_Red" class="st0">
	<polygon class="st2" points="432.3,-7.4 347.4,77.5 262.5,-7.4 222.2,32.9 307.1,117.8 222.2,202.7 262.5,243 347.4,158.1 
		432.3,243 472.6,202.7 387.7,117.8 472.6,32.9 	"/>
</g>
<g id="Refresh_1" class="st0">
	<path class="st3" d="M94,535.3c-11.6,47-53.7,81.3-104,81.5c-59.4,0.3-107.8-47.8-108.1-107.2s47.5-107.8,106.9-108.1
		c13.5-0.1,26.3,2.4,38.1,6.8L8.1,450.8l109.5-17.4l-60.3-93.1l-13.5,30.3c-17-6.7-35.6-10.2-54.9-10.1
		c-82.3,0.3-148.7,67.3-148.4,149.6c0.3,82.3,67.3,148.8,149.6,148.4c73.3-0.3,134-53.2,146.2-123.2H94L94,535.3z"/>
</g>
<g id="Remove_dg" class="st0">
	<polygon class="st4" points="444.3,364.6 359.4,449.5 274.5,364.6 234.2,404.9 319.1,489.8 234.2,574.7 274.5,615 359.4,530.1 
		444.3,615 484.6,574.7 399.7,489.8 484.6,404.9 	"/>
</g>
<g id="Refresh_2">
	<g>
		<path class="st5" d="M36.9,165.8C49,228.6,103.3,276.5,169,277.4c28.5,0.4,55-8.1,77.1-22.9l-19.6-30c-16.3,11-36,17.2-57.1,17
			c-46-0.6-84.5-32.4-96-75.2l36.5,0.5L55.9,88L0,165.4L36.9,165.8z"/>
		<path class="st5" d="M296.9,109.8C284,47.1,229.1,0,163.3,0c-28.5,0-54.9,8.8-76.8,24l20,29.7C122.7,42.5,142.2,36,163.3,36
			c46,0,84.9,31.2,97,73.9h-36.5l55,78l54.9-78.1L296.9,109.8z"/>
	</g>
</g>
<g id="Add_DG" class="st0">
	<polygon class="st4" points="897.9,110.3 777.9,110.3 777.9,-9.7 720.9,-9.7 720.9,110.3 600.9,110.3 600.9,167.3 720.9,167.3 
		720.9,287.3 777.9,287.3 777.9,167.3 897.9,167.3 	"/>
</g>
<g id="Add_Green" class="st0">
	<g id="XMLID_2_" class="st6">
		<g>
			<polygon class="st7" points="759.9,517.9 759.9,637.9 702.9,637.9 702.9,517.9 582.9,517.9 582.9,460.9 702.9,460.9 702.9,340.9 
				759.9,340.9 759.9,460.9 879.9,460.9 879.9,517.9 			"/>
		</g>
		<g>
			<polygon class="st8" points="879.9,460.9 759.9,460.9 759.9,340.9 702.9,340.9 702.9,460.9 582.9,460.9 582.9,517.9 702.9,517.9 
				702.9,637.9 759.9,637.9 759.9,517.9 879.9,517.9 			"/>
		</g>
	</g>
</g>
</svg>
