<?xml version="1.0" encoding="utf-8"?>
<!-- Generator: Adobe Illustrator 19.2.1, SVG Export Plug-In . SVG Version: 6.00 Build 0)  -->
<svg version="1.1" xmlns="http://www.w3.org/2000/svg" xmlns:xlink="http://www.w3.org/1999/xlink" x="0px" y="0px"
	 viewBox="0 0 612 792" style="enable-background:new 0 0 612 792;" xml:space="preserve">
<style type="text/css">
	.st0{display:none;}
	.st1{display:inline;fill:#E6E7E8;stroke:#000000;stroke-miterlimit:10;}
	.st2{display:inline;}
	.st3{font-family:'HelveticaNeue-Bold';}
	.st4{font-size:18px;}
	.st5{font-family:'HelveticaNeue';}
	.st6{font-size:11.5768px;}
	.st7{font-size:12px;}
	.st8{fill:none;stroke:#000000;stroke-miterlimit:10;}
	.st9{font-size:9.3973px;}
	.st10{display:inline;fill:none;stroke:#000000;stroke-width:2;stroke-miterlimit:10;}
	.st11{font-size:9px;}
	.st12{display:inline;fill:none;stroke:#000000;stroke-miterlimit:10;}
	.st13{fill:#E6E7E8;stroke:#000000;stroke-miterlimit:10;}
	.st14{fill:none;stroke:#000000;stroke-width:2;stroke-miterlimit:10;}
	.st15{font-size:6.861px;}
</style>
<g id="Layer_2" class="st0">
	<rect x="34.9" y="37.8" class="st1" width="537.9" height="164.5"/>
	<text transform="matrix(1 0 0 1 45.6999 63.4245)" class="st2 st3 st4">Super Awesome SDB</text>
	<text transform="matrix(0.9504 0 0 1 48.7004 82.9369)" class="st2"><tspan x="0" y="0" class="st5 st6">Lorem ipsum dolor sit amet, consectetur adipiscing elit. Sed non fringilla lectus. Sed sit amet nunc dui.</tspan><tspan x="0" y="13.9" class="st5 st6"> Aliquam in commodo mi. Pellentesque eget imperdiet nisl. Nulla et lectus efficitur quam luctus placerat</tspan><tspan x="0" y="27.8" class="st5 st6">. Duis laoreet, felis id efficitur fringilla, diam odio ultricies tortor, non commodo ex augue a elit. </tspan><tspan x="0" y="41.7" class="st5 st6">Duis sagittis sagittis vehicula. Duis varius, odio vitae hendrerit dapibus, justo nunc condimentum nisi, </tspan><tspan x="0" y="55.6" class="st5 st6">ac vulputate ligula enim at justo. Nam a turpis nec mi vivevrra eleifend et sit amet magna. Duis tincidunt</tspan><tspan x="0" y="69.5" class="st5 st6"> urna ipsum, consequat cursus nunc fringilla euismod. Nunc velit mi, fermentum nvec mi vel, </tspan></text>
	<text transform="matrix(1 0 0 1 47.9856 174.4989)" class="st2"><tspan x="0" y="0" class="st3 st7">OWNER</tspan><tspan x="46" y="0" class="st5 st7">: Lst-Groups.Care.Bears</tspan></text>
	<g class="st2">
		<rect x="537.4" y="46.2" class="st8" width="21.5" height="19.2"/>
		<rect x="515.9" y="46.2" class="st8" width="21.5" height="19.2"/>
		<text transform="matrix(1.1166 0 0 1 524.0334 58.9506)" class="st3 st9">/</text>
		<text transform="matrix(1.1166 0 0 1 545.4866 58.9506)" class="st3 st9">X</text>
	</g>
	<text transform="matrix(1 0 0 1 48.1272 194.1826)" class="st2 st3 st7">PERMISSIONS</text>
	<polyline class="st10" points="142.7,185 137,190 142.7,195.3 	"/>
	<text transform="matrix(1 0 0 1 51.953 263.5584)" class="st2 st3 st11">Add New Child Path</text>
	<polyline class="st12" points="34.9,202.3 35.3,225.3 572.3,225.3 572.8,202.3 	"/>
	<text transform="matrix(1 0 0 1 43.7156 216.7924)" class="st2 st3 st11">apps/super_awesome_sdb</text>
	<line class="st12" x1="37.4" y1="258.8" x2="47" y2="258.8"/>
	<line class="st12" x1="42.3" y1="253.8" x2="42.3" y2="263.6"/>
	<path class="st12" d="M132,248.3"/>
	<rect x="35.3" y="225.3" class="st12" width="537.1" height="20.5"/>
	<text transform="matrix(1 0 0 1 44.7001 239.1354)" class="st2 st3 st11">/</text>
	<polyline class="st10" points="566.2,230.4 560.5,235.4 566.2,240.7 	"/>
</g>
<g id="Layer_4">
	<rect x="37.7" y="24" class="st13" width="537.9" height="142"/>
	<text transform="matrix(1 0 0 1 48.5591 49.5653)" class="st3 st4">Super Awesome SDB</text>
	<text transform="matrix(0.9504 0 0 1 51.5596 87.0776)"><tspan x="0" y="0" class="st5 st6">Lorem ipsum dolor sit amet, consectetur adipiscing elit. Sed non fringilla lectus. Sed sit amet nunc dui.</tspan><tspan x="0" y="13.9" class="st5 st6"> Aliquam in commodo mi. Pellentesque eget imperdiet nisl. Nulla et lectus efficitur quam luctus placerat</tspan><tspan x="0" y="27.8" class="st5 st6">. Duis laoreet, felis id efficitur fringilla, diam odio ultricies tortor, non commodo ex augue a elit. </tspan><tspan x="0" y="41.7" class="st5 st6">Duis sagittis sagittis vehicula. Duis varius, odio vitae hendrerit dapibus, justo nunc condimentum nisi, </tspan><tspan x="0" y="55.6" class="st5 st6">ac vulputate ligula enim at justo. Nam a turpis nec mi vivevrra eleifend et sit amet magna. Duis tincidunt</tspan><tspan x="0" y="69.5" class="st5 st6"> urna ipsum, consequat cursus nunc fringilla euismod. Nunc velit mi, fermentum nvec mi vel, </tspan></text>
	<text transform="matrix(1 0 0 1 48.9521 69.0776)"><tspan x="0" y="0" class="st3 st7">OWNER</tspan><tspan x="46" y="0" class="st5 st7">: Lst-Groups.Care.Bears</tspan></text>
	<g>
		<rect x="540.2" y="32.4" class="st8" width="21.5" height="19.2"/>
		<rect x="518.8" y="32.4" class="st8" width="21.5" height="19.2"/>
		<text transform="matrix(1.1166 0 0 1 526.8926 45.0913)" class="st3 st9">/</text>
		<text transform="matrix(1.1166 0 0 1 548.3457 45.0913)" class="st3 st9">X</text>
	</g>
	<text transform="matrix(1 0 0 1 53.0653 454.6037)" class="st3 st11">Add New Child Path</text>
	<polygon class="st8" points="575.6,191.5 575.2,214.4 38.1,214.4 37.7,191.5 	"/>
	<text transform="matrix(1 0 0 1 46.5747 205.9331)" class="st3 st11">apps/super_awesome_sdb</text>
	<line class="st8" x1="38.6" y1="449.8" x2="48.1" y2="449.8"/>
	<line class="st8" x1="43.4" y1="444.8" x2="43.4" y2="454.6"/>
	<path class="st8" d="M134.9,237.4"/>
	<rect x="38.1" y="214.4" class="st8" width="537.1" height="20.5"/>
	<text transform="matrix(1 0 0 1 47.5592 228.2761)" class="st3 st11">/</text>
	<polyline class="st14" points="569,219.5 563.4,224.5 569,229.8 	"/>
	<path class="st8" d="M134.5,257.9"/>
	<rect x="38.1" y="234.9" class="st8" width="537.1" height="20.5"/>
	<text transform="matrix(1 0 0 1 48.143 248.7893)" class="st3 st11">/secret_two</text>
	<polyline class="st14" points="561,242.5 566.1,248 571.3,242.3 	"/>
	<path class="st8" d="M134.5,439.4"/>
	<rect x="38.1" y="416.4" class="st8" width="537.1" height="20.5"/>
	<text transform="matrix(1 0 0 1 48.143 430.2954)" class="st3 st7">/sub_dir/</text>
	<polyline class="st14" points="563.8,432 569,426.7 563,421.8 	"/>
	<rect x="121.6" y="263.4" class="st8" width="269.3" height="15.2"/>
	<text transform="matrix(1 0 0 1 127.6841 277.4243)" class="st3 st7">***************</text>
	<g>
		<rect x="432.5" y="263.6" class="st8" width="16.1" height="14"/>
		<rect x="416.4" y="263.6" class="st8" width="16.1" height="14"/>
		<text transform="matrix(1.147 0 0 1 422.4746 272.9358)" class="st3 st15">/</text>
		<text transform="matrix(1.147 0 0 1 438.5645 272.9358)" class="st3 st15">X</text>
	</g>
	<polyline class="st8" points="416.4,263.6 402.1,263.6 402.1,277.4 416.4,277.7 	"/>
	<path class="st8" d="M410.5,274.7h-3.2c-2.1,0-3.8-1.7-3.8-3.8v0c0-2.1,1.7-3.8,3.8-3.8h3.2c2.1,0,3.8,1.7,3.8,3.8v0
		C414.3,273,412.6,274.7,410.5,274.7z"/>
	<g>
		<g>
			<path d="M408.9,273.4c3.2,0,3.2-5,0-5C405.7,268.4,405.7,273.4,408.9,273.4L408.9,273.4z"/>
		</g>
	</g>
	<rect x="122.3" y="288.8" class="st8" width="269.3" height="15.2"/>
	<text transform="matrix(1 0 0 1 127.3457 302.9115)" class="st3 st7">***************</text>
	<g>
		<rect x="432.1" y="289.1" class="st8" width="16.1" height="14"/>
		<rect x="416.1" y="289.1" class="st8" width="16.1" height="14"/>
		<text transform="matrix(1.147 0 0 1 422.1363 298.4229)" class="st3 st15">/</text>
		<text transform="matrix(1.147 0 0 1 438.2262 298.4229)" class="st3 st15">X</text>
	</g>
	<polyline class="st8" points="416.1,289.1 401.7,289.1 401.7,302.9 416.1,303.1 	"/>
	<path class="st8" d="M410.2,300.2H407c-2.1,0-3.8-1.7-3.8-3.8l0,0c0-2.1,1.7-3.8,3.8-3.8h3.2c2.1,0,3.8,1.7,3.8,3.8l0,0
		C414,298.5,412.3,300.2,410.2,300.2z"/>
	<g>
		<g>
			<path d="M408.6,298.9c3.2,0,3.2-5,0-5C405.4,293.9,405.4,298.9,408.6,298.9L408.6,298.9z"/>
		</g>
	</g>
	<rect x="122.5" y="313.9" class="st8" width="269.3" height="74.1"/>
	<text transform="matrix(1 0 0 1 128.5663 332.9694)"><tspan x="0" y="0" class="st3 st7">*****************************************************</tspan><tspan x="0" y="14.4" class="st3 st7">*****************************************************</tspan><tspan x="0" y="28.8" class="st3 st7">*****************************************************</tspan><tspan x="0" y="43.2" class="st3 st7">*****************************************************</tspan></text>
	<g>
		<rect x="433.4" y="373.2" class="st8" width="16.1" height="14"/>
		<rect x="417.3" y="373.2" class="st8" width="16.1" height="14"/>
		<text transform="matrix(1.147 0 0 1 423.3569 382.4808)" class="st3 st15">/</text>
		<text transform="matrix(1.147 0 0 1 439.4467 382.4808)" class="st3 st15">X</text>
	</g>
	<polyline class="st8" points="417.3,373.2 403,373.2 403,387 417.3,387.2 	"/>
	<path class="st8" d="M411.4,384.2h-3.2c-2.1,0-3.8-1.7-3.8-3.8v0c0-2.1,1.7-3.8,3.8-3.8h3.2c2.1,0,3.8,1.7,3.8,3.8v0
		C415.2,382.5,413.5,384.2,411.4,384.2z"/>
	<g>
		<g>
			<path d="M409.8,383c3.2,0,3.2-5,0-5C406.6,378,406.6,383,409.8,383L409.8,383z"/>
		</g>
	</g>
	<line class="st8" x1="61.2" y1="403.4" x2="70.8" y2="403.4"/>
	<line class="st8" x1="66.1" y1="398.3" x2="66.1" y2="408.2"/>
	<text transform="matrix(1 0 0 1 74.4341 406.522)" class="st3 st11">Add New Key Value Pair</text>
	<line class="st8" x1="37.7" y1="166" x2="37.7" y2="191.5"/>
	<line class="st8" x1="575.6" y1="166" x2="575.6" y2="191.5"/>
	<polyline class="st14" points="569,173.6 563.3,178.6 569,183.9 	"/>
	<text transform="matrix(1 0 0 1 48.5591 181.7766)" class="st3 st11">PERMISSIONS</text>
	<rect x="48.6" y="263.4" class="st8" width="61.7" height="15.2"/>
	<rect x="48.6" y="288.5" class="st8" width="61.7" height="15.2"/>
	<rect x="48.6" y="314.3" class="st8" width="61.7" height="15.2"/>
	<text transform="matrix(1 0 0 1 53.4131 273.9546)" class="st3 st11">Key 1</text>
	<text transform="matrix(1 0 0 1 52.5596 299.1856)" class="st3 st11">Key 2</text>
	<text transform="matrix(1 0 0 1 53.4131 325.2049)" class="st3 st11">Key 3</text>
</g>
</svg>
