<?xml version="1.0" encoding="utf-8"?>
<!-- Generator: Adobe Illustrator 19.2.1, SVG Export Plug-In . SVG Version: 6.00 Build 0)  -->
<svg version="1.1" id="Layer_1" xmlns="http://www.w3.org/2000/svg" xmlns:xlink="http://www.w3.org/1999/xlink" x="0px" y="0px"
	 viewBox="0 0 297 297" style="enable-background:new 0 0 297 297;" xml:space="preserve">
<style type="text/css">
	.st0{display:none;}
	.st1{display:inline;fill:#FFFFFF;stroke:#000000;stroke-miterlimit:10;}
	.st2{display:inline;fill:#FE0000;stroke:#000000;stroke-miterlimit:10;}
	.st3{display:inline;fill:#222222;stroke:#000000;stroke-linecap:round;stroke-linejoin:round;}
	.st4{display:inline;fill:#222222;stroke:#000000;stroke-miterlimit:10;}
	.st5{display:inline;}
	.st6{fill:#222222;stroke:#000000;stroke-miterlimit:10;}
	.st7{fill:#48BD1F;}
</style>
<g id="Background" class="st0">
</g>
<g id="Layer_1_1_" class="st0">
	<polygon class="st1" points="706,-251.6 586,-251.6 586,-371.6 529,-371.6 529,-251.6 409,-251.6 409,-194.6 529,-194.6 529,-74.6 
		586,-74.6 586,-194.6 706,-194.6 	"/>
	<rect x="774.3" y="-230.7" class="st1" width="296.8" height="56.8"/>
	<rect x="894.2" y="-350.7" class="st1" width="56.8" height="296.8"/>
</g>
<g id="Remove_Red" class="st0">
	<polygon class="st2" points="-150.6,-348.3 -235.5,-263.4 -320.4,-348.3 -360.7,-308 -275.8,-223.1 -360.7,-138.2 -320.4,-97.9 
		-235.5,-182.8 -150.6,-97.9 -110.3,-138.2 -195.2,-223.1 -110.3,-308 	"/>
</g>
<g id="Refresh_1" class="st0">
	<path class="st3" d="M-488.9,194.4c-11.6,47-53.7,81.3-104,81.5c-59.4,0.3-107.8-47.8-108.1-107.2s47.5-107.8,106.9-108.1
		c13.5-0.1,26.3,2.4,38.1,6.8l-18.8,42.5l109.5-17.4l-60.3-93.1l-13.5,30.3c-17-6.7-35.6-10.2-54.9-10.1
		c-82.3,0.3-148.7,67.3-148.4,149.6c0.3,82.3,67.3,148.8,149.6,148.4c73.3-0.3,134-53.2,146.2-123.2L-488.9,194.4L-488.9,194.4z"/>
</g>
<g id="Remove_dg" class="st0">
	<polygon class="st4" points="-138.6,23.7 -223.5,108.6 -308.4,23.7 -348.7,64 -263.8,148.9 -348.7,233.8 -308.4,274.1 
		-223.5,189.2 -138.6,274.1 -98.3,233.8 -183.2,148.9 -98.3,64 	"/>
</g>
<g id="Refresh_2" class="st0">
	<g class="st5">
		<path class="st6" d="M-705.6-185.4c12.1,62.8,66.4,110.7,132.1,111.6c28.5,0.4,55-8.1,77.1-22.9l-19.6-30
			c-16.3,11-36,17.2-57.1,17c-46-0.6-84.5-32.4-96-75.2l36.5,0.5l-54-78.8l-55.9,77.4L-705.6-185.4z"/>
		<path class="st6" d="M-445.6-241.4c-12.9-62.7-67.8-109.8-133.6-109.8c-28.5,0-54.9,8.8-76.8,24l20,29.7
			c16.2-11.2,35.7-17.7,56.8-17.7c46,0,84.9,31.2,97,73.9h-36.5l55,78l54.9-78.1L-445.6-241.4z"/>
	</g>
</g>
<g id="Add_DG" class="st0">
	<polygon class="st4" points="315,-230.6 195,-230.6 195,-350.6 138,-350.6 138,-230.6 18,-230.6 18,-173.6 138,-173.6 138,-53.6 
		195,-53.6 195,-173.6 315,-173.6 	"/>
</g>
<g id="Add_Green">
	<g id="XMLID_2_">
		<g>
			<polygon class="st7" points="177,177 177,297 120,297 120,177 0,177 0,120 120,120 120,0 177,0 177,120 297,120 297,177 			"/>
		</g>
	</g>
</g>
</svg>
