<?xml version="1.0" encoding="utf-8"?>
<!-- Generator: Adobe Illustrator 19.2.1, SVG Export Plug-In . SVG Version: 6.00 Build 0)  -->
<svg version="1.1" id="Layer_1" xmlns="http://www.w3.org/2000/svg" xmlns:xlink="http://www.w3.org/1999/xlink" x="0px" y="0px"
	 viewBox="0 0 324.3 267.5" style="enable-background:new 0 0 324.3 267.5;" xml:space="preserve">
<style type="text/css">
	.st0{display:none;}
	.st1{display:inline;}
	.st2{fill:none;stroke:#000000;stroke-width:0.25;stroke-miterlimit:10;}
	.st3{display:inline;fill:none;stroke:#000000;stroke-width:0.25;stroke-miterlimit:10;}
	.st4{display:inline;fill:none;stroke:#222222;stroke-width:0.25;stroke-miterlimit:10;}
	.st5{fill:none;stroke:#222222;stroke-width:0.25;stroke-miterlimit:10;}
	.st6{display:inline;fill:none;stroke:#000000;stroke-width:0.5;stroke-linecap:round;stroke-linejoin:round;}
	.st7{fill:none;stroke:#000000;stroke-width:0.5;stroke-linecap:round;stroke-linejoin:round;}
	.st8{fill:#222222;}
	.st9{fill:#F5F5F6;}
	.st10{fill:#F5F6F5;}
</style>
<g id="Originial" class="st0">
	<g id="XMLID_2_" class="st1">
		<g>
			<polygon class="st2" points="422.2,514.8 376.2,495.2 396,524.9 			"/>
			<polygon class="st2" points="448.3,514.8 494.3,495.2 474.5,524.9 			"/>
			<path class="st2" d="M435.3,640.1c1.5,0,2.9-0.4,4.4-0.7c7.4-1.9,14.9-3.7,22.3-5.6c0.6-0.2,1.3-0.3,1.7-0.8
				c0.3-0.3,0.4-0.8,0.6-1.2c7.3-25.4,14.3-51.1,22.4-76.3c0.8-2.8,1.6-5.6,3-8.1c1.8-3.4,4.5-6.2,7.1-9
				c10.7-11.2,21.3-22.4,31.9-33.6c-5.6-7.5-11.2-15.1-16.8-22.6c-0.8-1.1-1.6-2.2-2-3.5c-1.3-4,1.7-7.9,3.4-11.8
				c3-6.7,2.5-14.4,1.9-21.7c-1.3-16.1-2.6-32.2-3.9-48.4c-13.3,12.9-26.7,25.8-40.1,38.8c-0.9,0.9-1.9,1.8-3.1,2.3
				c-1.7,0.7-3.7,0.5-5.5,0.2c-8.8-1.2-17.9-3-26.9-3.1c-9.3-0.2-18.5,1.8-27.7,3.1c-1.8,0.3-3.8,0.5-5.5-0.2
				c-1.2-0.5-2.1-1.4-3.1-2.3c-13.3-12.9-26.7-25.8-40.1-38.8c-1.3,16.1-2.6,32.2-3.9,48.4c-0.6,7.3-1.1,15,1.9,21.7
				c1.7,3.8,4.6,7.8,3.4,11.8c-0.4,1.3-1.2,2.4-2,3.5c-5.6,7.5-11.2,15.1-16.8,22.6c10.7,11.2,21.3,22.4,31.9,33.6
				c2.6,2.8,5.3,5.6,7.1,9c1.3,2.5,2.2,5.3,3,8.1c3.1,12.9,7.6,25.6,11.3,38.4c3.7,12.6,7.5,25.3,11.1,38c0.1,0.5,0.3,1,0.7,1.4
				c0.3,0.3,0.8,0.4,1.3,0.6c7.6,1.9,15.3,3.8,22.9,5.8c1.2,0.3,2.5,0.6,3.8,0.7C435.1,640.1,435.2,640.1,435.3,640.1z"/>
		</g>
	</g>
	<line class="st3" x1="550.3" y1="547.6" x2="550.3" y2="547.6"/>
	<line class="st3" x1="551.3" y1="547.6" x2="551.3" y2="547.6"/>
	<path class="st3" d="M484.1,574c2.5-8.3,4.5-17,8.6-24.6c2.8-5.1,6.6-8.9,10.4-13.1c2.8-3.2,5.8-6.3,8.8-9.5
		c6.8-7.4,13.6-14.8,20.5-22.1l-19.9-26.4c-0.1-0.3,5.3-4.3,5.9-4.9c4.5-4.5,7.5-11,10.8-16.4c3.5-5.6,7-11.2,10.5-16.8
		c4.4-7,8.8-14.1,13.2-21.1l8.5,49.2l46.9,8.7l2.1,8.4c0.6,0.1,1.2,0.3,1.8,0.4c5.4,1.1,10.8,2.3,16.2,3.4
		c7.4,1.6,14.8,3.1,22.2,4.7c3.1,0.7,6.2,1.3,9.3,2c1.2,0.2,2.3,0.5,3.5,0.7c1,0.2,2.7,0.9,3.7,0.6c0.5-0.2,0.9-0.5,1.4-0.8
		c0.6-0.4,1.2-0.9,1.8-1.3c0.2-0.1,0.4-0.3,0.6-0.3s0.4,0.1,0.6,0.1c3.6,1.5,7.2,3,10.8,4.6c0.1,0,0.2,0.1,0.2,0.1
		c0.1,0.1,0,0.2,0,0.3c-0.2,2.1-0.4,4.2-0.6,6.3c0,0.6-0.1,1.1-0.3,1.6c-0.2,0.5-0.5,1-0.7,1.5c-0.7,1.2-1.5,2.5-2.2,3.7
		c-0.2,0.3-1.2,2.5-1.5,2.6c-0.6,0.1-1.2,0.1-1.8,0.2l-4.9,10.3l-4-9.3c-0.7,0.1-1.4,0.2-2.2,0.3c-0.9,3.1-3.1,10.1-3.3,10
		c-0.2-0.1-2.9-6.1-4.3-9.1c-0.7,0.1-1.3,0.2-2,0.2l-2.8,9.4l-4.7-8.5c-0.4,0-0.8,0.1-1.2,0.1l-3.3,8.3l-5.1-7.3
		c-0.5,0.1-1,0.1-1.6,0.2l-3.6,7.2l-3.8-6.3c-4.2,0.5-8.4,1-12.6,1.5c-0.1,0-0.2,0-0.3,0.1c-0.1,0.1-0.1,0.3-0.1,0.4
		c0,3.7-0.1,7.4-0.1,11c0,0.1,0,0.3,0.1,0.4c0.1,0.1,0.2,0.1,0.3,0.1c3.5,0.5,6.9,1.1,10.4,1.6l3.2-6.4l3,7.4
		c0.9,0.1,1.7,0.3,2.6,0.4l3-7.8l4.1,8.9c0.8,0.1,1.6,0.2,2.4,0.4l2.7-9.3l3.7,10.3c0.6,0.1,1.2,0.2,1.9,0.3l3.3-10l3.4,10.9
		c0.5,0.1,1,0.1,1.5,0.2l4.7-10.3l2.9,11.4c0.2,0,0.4,0.1,0.6,0.1c0.3,0.1,0.5,0.1,0.7,0.3c0.1,0.2,0.2,0.4,0.3,0.6
		c0.9,3.8,0.8,7.9-0.1,11.7c0,0.2-0.1,0.3-0.2,0.4c-0.1,0.1-0.3,0.1-0.5,0.1c-12.4,0.2-24.8,0.4-37.1,0.6
		c-6.6,0.1-13.2,0.1-19.8,0.1c-9.9,0-19.7,2.7-29.2,5.1c-6,1.5-12,3.1-18,4.6c-1.5,0.4-2.9,0.7-4.3,1.3c-0.9,0.4-1.8,0.9-2.7,1.4
		c-3.4,2.2-6,5.5-8.9,8.3c-2.4,2.2-4.7,4.4-7,6.6c-5.2,4.9-10.3,9.8-15.5,14.7c-6.1,5.8-12.3,11.6-18.4,17.4
		c-0.1,0.1-0.2,0.2-0.3,0.2c0,0,0,0-0.1,0c-0.2,0-0.3,0-0.5-0.1c-3.7-1.8-7.3-3.5-11-5.2c-7-3.3-14.1-6.6-21.1-9.8
		C478.6,592.1,481.4,583.1,484.1,574z"/>
	<line class="st3" x1="320.1" y1="547.6" x2="320.1" y2="547.6"/>
	<line class="st3" x1="319.1" y1="547.6" x2="319.1" y2="547.6"/>
	<path class="st3" d="M386.3,574c-2.5-8.3-4.5-17-8.6-24.6c-2.8-5.1-6.6-8.9-10.4-13.1c-2.8-3.2-5.8-6.3-8.8-9.5
		c-6.8-7.4-13.6-14.8-20.5-22.1l19.9-26.4c0.1-0.3-5.3-4.3-5.9-4.9c-4.5-4.5-7.5-11-10.8-16.4c-3.5-5.6-7-11.2-10.5-16.8
		c-4.4-7-8.8-14.1-13.2-21.1l-8.5,49.2l-46.9,8.7l-2.1,8.4c-0.6,0.1-1.2,0.3-1.8,0.4c-5.4,1.1-10.8,2.3-16.2,3.4
		c-7.4,1.6-14.8,3.1-22.2,4.7c-3.1,0.7-6.2,1.3-9.3,2c-1.2,0.2-2.3,0.5-3.5,0.7c-1,0.2-2.7,0.9-3.7,0.6c-0.5-0.2-0.9-0.5-1.4-0.8
		c-0.6-0.4-1.2-0.9-1.8-1.3c-0.2-0.1-0.4-0.3-0.6-0.3s-0.4,0.1-0.6,0.1c-3.6,1.5-7.2,3-10.8,4.6c-0.1,0-0.2,0.1-0.2,0.1
		c-0.1,0.1,0,0.2,0,0.3c0.2,2.1,0.4,4.2,0.6,6.3c0,0.6,0.1,1.1,0.3,1.6c0.2,0.5,0.5,1,0.7,1.5c0.7,1.2,1.5,2.5,2.2,3.7
		c0.2,0.3,1.2,2.5,1.5,2.6c0.6,0.1,1.2,0.1,1.8,0.2l4.9,10.3l4-9.3c0.7,0.1,1.4,0.2,2.2,0.3c0.9,3.1,3.1,10.1,3.3,10
		c0.2-0.1,2.9-6.1,4.3-9.1c0.7,0.1,1.3,0.2,2,0.2l2.8,9.4l4.7-8.5c0.4,0,0.8,0.1,1.2,0.1l3.3,8.3l5.1-7.3c0.5,0.1,1,0.1,1.6,0.2
		l3.6,7.2l3.8-6.3c4.2,0.5,8.4,1,12.6,1.5c0.1,0,0.2,0,0.3,0.1c0.1,0.1,0.1,0.3,0.1,0.4c0,3.7,0.1,7.4,0.1,11c0,0.1,0,0.3-0.1,0.4
		c-0.1,0.1-0.2,0.1-0.3,0.1c-3.5,0.5-6.9,1.1-10.4,1.6l-3.2-6.4l-3,7.4c-0.9,0.1-1.7,0.3-2.6,0.4l-3-7.8l-4.1,8.9
		c-0.8,0.1-1.6,0.2-2.4,0.4l-2.7-9.3l-3.7,10.3c-0.6,0.1-1.2,0.2-1.9,0.3l-3.3-10l-3.4,10.9c-0.5,0.1-1,0.1-1.5,0.2l-4.7-10.3
		l-2.9,11.4c-0.2,0-0.4,0.1-0.6,0.1c-0.3,0.1-0.5,0.1-0.7,0.3c-0.1,0.2-0.2,0.4-0.3,0.6c-0.9,3.8-0.8,7.9,0.1,11.7
		c0,0.2,0.1,0.3,0.2,0.4c0.1,0.1,0.3,0.1,0.5,0.1c12.4,0.2,24.8,0.4,37.1,0.6c6.6,0.1,13.2,0.1,19.8,0.1c9.9,0,19.7,2.7,29.2,5.1
		c6,1.5,12,3.1,18,4.6c1.5,0.4,2.9,0.7,4.3,1.3c0.9,0.4,1.8,0.9,2.7,1.4c3.4,2.2,6,5.5,8.9,8.3c2.4,2.2,4.7,4.4,7,6.6
		c5.2,4.9,10.3,9.8,15.5,14.7c6.1,5.8,12.3,11.6,18.4,17.4c0.1,0.1,0.2,0.2,0.3,0.2c0,0,0,0,0.1,0c0.2,0,0.3,0,0.5-0.1
		c3.7-1.8,7.3-3.5,11-5.2c7-3.3,14.1-6.6,21.1-9.8C391.8,592.1,389.1,583.1,386.3,574z"/>
	<polygon class="st3" points="597.9,490.7 560.2,483.2 579.1,501.5 	"/>
	<polygon class="st3" points="272.6,490.7 310.2,483.2 291.3,501.5 	"/>
	<polygon class="st3" points="557.3,562.8 532.9,538.6 543.1,512.9 541.1,512.9 530.6,539.1 554.8,563.3 556,564.5 558,563.5 	"/>
	<polygon class="st3" points="454.9,621.8 435.3,613.5 415.6,621.8 415.6,623.7 435.3,615.3 454.9,623.7 	"/>
	<polygon class="st3" points="313.2,562.8 337.5,538.6 327.3,512.9 329.3,512.9 339.8,539.1 315.7,563.3 314.4,564.5 312.4,563.5 	
		"/>
</g>
<g id="Base_Shapes" class="st0">
	<g id="XMLID_1_" class="st1">
		<g>
			<polygon class="st2" points="374.9,477.2 334,459.8 351.6,486.2 			"/>
			<polygon class="st2" points="398.1,477.2 439,459.8 421.4,486.2 			"/>
			<path class="st2" d="M386.5,588.6c1.3,0,2.6-0.3,3.9-0.7c6.6-1.7,13.2-3.3,19.8-5c0.5-0.1,1.1-0.3,1.5-0.7
				c0.3-0.3,0.4-0.7,0.5-1.1c6.5-22.6,12.8-45.4,20-67.8c0.7-2.5,1.5-5,2.7-7.2c1.6-3,4-5.5,6.3-8c9.5-10,18.9-19.9,28.4-29.9
				c-5-6.7-10-13.4-14.9-20.1c-0.7-1-1.4-2-1.8-3.1c-1.1-3.6,1.5-7.1,3-10.5c2.7-5.9,2.2-12.8,1.7-19.3c-1.2-14.3-2.3-28.7-3.5-43
				c-11.9,11.5-23.7,23-35.6,34.5c-0.8,0.8-1.7,1.6-2.7,2.1c-1.5,0.7-3.2,0.4-4.9,0.2c-7.8-1.1-15.9-2.6-23.9-2.8
				c-8.2-0.2-16.5,1.6-24.6,2.8c-1.6,0.2-3.3,0.4-4.9-0.2c-1-0.4-1.9-1.3-2.7-2.1c-11.9-11.5-23.7-23-35.6-34.5
				c-1.2,14.3-2.3,28.7-3.5,43c-0.5,6.5-1,13.4,1.7,19.3c1.5,3.4,4.1,6.9,3,10.5c-0.4,1.2-1.1,2.1-1.8,3.1c-5,6.7-10,13.4-14.9,20.1
				c9.5,10,18.9,19.9,28.4,29.9c2.3,2.5,4.7,5,6.3,8c1.2,2.3,1.9,4.7,2.7,7.2c2.8,11.5,6.7,22.8,10.1,34.1
				c3.3,11.2,6.7,22.5,9.9,33.7c0.1,0.4,0.3,0.9,0.6,1.2c0.3,0.3,0.7,0.4,1.1,0.5c6.8,1.7,13.6,3.4,20.3,5.1
				c1.1,0.3,2.2,0.6,3.3,0.6C386.4,588.6,386.4,588.6,386.5,588.6z"/>
		</g>
	</g>
	<polygon class="st3" points="404,572.4 386.5,565 369,572.4 369,574.1 386.5,566.6 404,574.1 	"/>
</g>
<g id="option_2_-_no_color" class="st0">
	<polygon class="st4" points="524.1,594.7 562.9,580.6 543.5,606.2 	"/>
	<g class="st1">
		<polygon class="st5" points="518.7,640.5 507.7,640.3 502.3,657.1 498.2,640.4 493.8,639.2 491,663.4 505.3,670 510.3,651.5 
			514.4,670.1 518.7,670.1 523,670.1 527.1,651.5 532.1,670 546.4,663.4 543.6,639.2 539.3,640.4 535.1,657.1 529.7,640.3 		"/>
	</g>
	<path class="st4" d="M576.9,585.8c-0.8-1.4-1.6-2.8-2-4.4c0,0,0,0-0.1-0.4c-0.4-2.2-0.4-4.5-0.2-6.7c0.5-5.1,0.9-10.2,1.4-15.4
		c0.4-4.7-0.5-9.7-0.8-14.4c-0.8-10.3-1.6-20.6-2.4-30.9c-0.1-1.7-0.4-3.5-0.4-5.3c-11.4,15.8-22.7,38.6-34.1,54.5c0,0,0,0.1-0.1,0
		c-8.2-2.4-16.8-3.3-25.2-2.6c-5.7,6-11.4,12-17.1,18c-2.6,2.8-5.3,5.6-7.1,9c-1.3,2.5-2.2,5.3-3,8.1c-4.5,14-8.6,28.1-12.7,42.2
		c1.2,1.8,2.3,3.6,3.2,5.6c1.5,3.4,2.4,7.2,3.2,10.9c1,4.6,2.1,9.3,3.1,13.9c0.2,1.1,0.5,2.3,1.2,3.1c0.6,0.8,1.5,1.3,2.3,1.7
		c10.1,5.2,21.1,7.8,32.2,7.9c10.9,0.1,21.8-2.3,31.8-7.1c1-0.5,2-1,2.7-2c0.7-0.9,1-2.2,1.2-3.3c1.1-4.7,2.1-9.5,3.2-14.2
		c0.8-3.8,1.7-7.5,3.2-11c1.3-3,3.2-5.6,5-8.3c7.2-10.5,14.4-21,21.6-31.4C583.6,597.6,580.2,591.7,576.9,585.8z"/>
	<path class="st4" d="M485.9,595.4c0.8-2.8,1.6-5.6,3-8.1c1.8-3.4,4.5-6.2,7.1-9"/>
	<path class="st4" d="M488.8,587.3c-1.3,2.5-2.2,5.3-3,8.1c-0.2,0.6-0.4,1.2-0.6,1.8l6.8,9l19.4-11.5l-22.2-8.1
		C489.1,586.8,489,587.1,488.8,587.3z"/>
	<g id="XMLID_3_" class="st1">
		<g>
			<polygon class="st5" points="419.4,553.8 373.5,534.2 393.3,564 			"/>
			<polygon class="st5" points="445.6,553.8 491.6,534.2 471.8,564 			"/>
			<path class="st5" d="M432.5,679.1c1.5,0,2.9-0.4,4.4-0.7c7.4-1.9,14.9-3.7,22.3-5.6c0.6-0.2,1.3-0.3,1.7-0.8
				c0.3-0.4,0.4-0.8,0.6-1.3c7.3-25.4,14.3-51.1,22.4-76.3c0.8-2.8,1.6-5.6,3-8.1c1.8-3.4,4.5-6.2,7.1-9
				c10.7-11.2,21.3-22.4,31.9-33.6c-5.6-7.5-11.2-15-16.8-22.6c-0.8-1.1-1.6-2.2-2-3.5c-1.3-4,1.7-8,3.4-11.8
				c3-6.6,2.5-14.4,1.9-21.7c-1.3-16.1-2.6-32.3-3.9-48.4c-13.3,12.9-26.7,25.8-40.1,38.8c-0.9,0.9-1.9,1.8-3.1,2.3
				c-1.7,0.7-3.7,0.5-5.5,0.2c-8.8-1.2-17.9-2.9-26.9-3.1c-9.3-0.2-18.5,1.8-27.7,3.1c-1.8,0.3-3.8,0.5-5.5-0.2
				c-1.2-0.5-2.1-1.4-3.1-2.3c-13.3-12.9-26.7-25.8-40.1-38.8c-1.3,16.1-2.6,32.2-3.9,48.4c-0.6,7.3-1.1,15,1.9,21.7
				c1.7,3.8,4.6,7.8,3.4,11.8c-0.4,1.3-1.2,2.4-2,3.5c-5.6,7.5-11.2,15.1-16.8,22.6c10.7,11.2,21.3,22.4,31.9,33.6
				c2.6,2.8,5.3,5.6,7.1,9c1.3,2.5,2.2,5.3,3,8.1c3.1,12.9,7.6,25.6,11.3,38.4c3.7,12.6,7.5,25.3,11.1,38c0.1,0.5,0.3,1,0.7,1.4
				c0.3,0.3,0.8,0.4,1.3,0.6c7.6,1.9,15.3,3.8,22.9,5.8c1.2,0.3,2.5,0.6,3.8,0.7C432.3,679.1,432.4,679.1,432.5,679.1z"/>
		</g>
	</g>
	<polygon class="st4" points="452.2,660.8 432.5,652.5 412.9,660.8 412.9,662.7 432.5,654.4 452.2,662.7 	"/>
	<polygon class="st4" points="530,625.7 517.5,620.4 505,625.7 505,626.9 517.5,621.6 530,626.9 	"/>
	<polygon class="st4" points="340.9,594.7 302.2,580.6 321.5,606.2 	"/>
	<g class="st1">
		<polygon class="st5" points="346.3,640.5 357.3,640.3 362.7,657.1 366.9,640.4 371.2,639.2 374,663.4 359.8,670 354.8,651.5 
			350.7,670.1 346.3,670.1 342,670.1 337.9,651.5 332.9,670 318.6,663.4 321.4,639.2 325.8,640.4 330,657.1 335.4,640.3 		"/>
	</g>
	<path class="st4" d="M288.2,585.8c0.8-1.4,1.6-2.8,2-4.4c0,0,0,0,0.1-0.4c0.4-2.2,0.4-4.5,0.2-6.7c-0.5-5.1-0.9-10.2-1.4-15.4
		c-0.4-4.7,0.5-9.7,0.8-14.4c0.8-10.3,1.6-20.6,2.4-30.9c0.1-1.7,0.4-3.5,0.4-5.3c11.4,15.8,22.7,38.6,34.1,54.5c0,0,0,0.1,0.1,0
		c8.2-2.4,16.8-3.3,25.2-2.6c5.7,6,11.4,12,17.1,18c2.6,2.8,5.3,5.6,7.1,9c1.3,2.5,2.2,5.3,3,8.1c4.5,14,8.6,28.1,12.7,42.2
		c-1.2,1.8-2.3,3.6-3.2,5.6c-1.5,3.4-2.4,7.2-3.2,10.9c-1,4.6-2.1,9.3-3.1,13.9c-0.2,1.1-0.5,2.3-1.2,3.1c-0.6,0.8-1.5,1.3-2.3,1.7
		c-10.1,5.2-21.1,7.8-32.2,7.9c-10.9,0.1-21.8-2.3-31.8-7.1c-1-0.5-2-1-2.7-2c-0.7-0.9-1-2.2-1.2-3.3c-1.1-4.7-2.1-9.5-3.2-14.2
		c-0.8-3.8-1.7-7.5-3.2-11c-1.3-3-3.2-5.6-5-8.3c-7.2-10.5-14.4-21-21.6-31.4C281.4,597.6,284.8,591.7,288.2,585.8z"/>
	<path class="st4" d="M376.2,587.3c1.3,2.5,2.2,5.3,3,8.1c0.2,0.6,0.4,1.2,0.6,1.8l-6.8,9l-19.4-11.5l22.2-8.1
		C375.9,586.8,376.1,587.1,376.2,587.3z"/>
	<polygon class="st4" points="335,625.7 347.5,620.4 360,625.7 360,626.9 347.5,621.6 335,626.9 	"/>
</g>
<g id="Option_3" class="st0">
	<polygon class="st6" points="412.3,563.3 366.3,543.7 386.1,573.4 	"/>
	<polygon class="st6" points="438.4,563.3 484.4,543.7 464.6,573.4 	"/>
	<path class="st6" d="M425.3,688.6c1.5,0,2.9-0.4,4.4-0.7c7.4-1.9,14.9-3.8,22.3-5.6c0.6-0.2,1.2-0.3,1.7-0.8
		c0.3-0.3,0.4-0.8,0.6-1.2c7.3-25.4,14.3-51.1,22.4-76.3c0.8-2.8,1.6-5.6,3-8.1c1.8-3.4,4.5-6.2,7.1-9
		c10.6-11.2,21.3-22.4,31.9-33.6c-5.6-7.5-11.2-15-16.8-22.6c-0.8-1.1-1.6-2.2-2-3.5c-1.3-4,1.7-8,3.4-11.8c3-6.7,2.5-14.4,1.9-21.7
		c-1.3-16.1-2.6-32.3-3.9-48.4c-13.4,12.9-26.7,25.8-40.1,38.8c-0.9,0.9-1.9,1.8-3.1,2.3c-1.7,0.7-3.6,0.5-5.5,0.2
		c-8.8-1.2-17.9-3-26.9-3.1c-9.3-0.2-18.5,1.8-27.7,3.1c-1.8,0.3-3.8,0.5-5.5-0.2c-1.2-0.5-2.1-1.4-3.1-2.3
		c-13.4-12.9-26.7-25.8-40.1-38.8c-1.3,16.1-2.6,32.3-3.9,48.4c-0.6,7.3-1.1,15,1.9,21.7c1.7,3.8,4.6,7.8,3.4,11.8
		c-0.4,1.3-1.2,2.4-2,3.5c-5.6,7.5-11.2,15-16.8,22.6c10.6,11.2,21.3,22.4,31.9,33.6c2.6,2.8,5.3,5.6,7.1,9c1.3,2.5,2.2,5.3,3,8.1
		c3.1,12.9,7.6,25.6,11.3,38.4c3.7,12.6,7.5,25.3,11.1,38c0.1,0.5,0.3,1,0.7,1.4c0.3,0.3,0.8,0.4,1.3,0.6c7.6,1.9,15.3,3.8,22.9,5.8
		c1.2,0.3,2.5,0.6,3.8,0.7C425.1,688.6,425.2,688.6,425.3,688.6z"/>
	<polygon class="st3" points="445,670.3 425.3,661.9 405.7,670.3 405.7,672.2 425.3,663.8 445,672.2 	"/>
	<polygon class="st6" points="334,601.3 302,587.6 315.7,608.3 	"/>
	<polygon class="st3" points="356.8,675.7 343.1,669.9 329.4,675.7 329.4,677.1 343.1,671.3 356.8,677.1 	"/>
	<path class="st6" d="M372.1,604c-0.8-2.8-1.6-5.6-3-8.1c-1.8-3.4-4.5-6.2-7.1-9c-10.7-11.2-21.3-22.4-31.9-33.6
		c1.8-2.4,3.6-4.8,5.4-7.2c-3.8,0.5-7.6,1.2-11.4,1.7c-1.3,0.2-2.6,0.4-3.8-0.2c-0.8-0.3-1.5-1-2.1-1.6c-9.3-9-18.6-18-27.9-27
		c-0.9,11.2-1.8,22.5-2.7,33.7c-0.4,5.1-0.8,10.5,1.3,15.1c1.2,2.7,3.2,5.4,2.4,8.2c-0.3,0.9-0.9,1.7-1.4,2.4
		c-3.9,5.2-7.8,10.5-11.7,15.7c7.4,7.8,14.8,15.6,22.2,23.4c1.8,1.9,3.7,3.9,4.9,6.2c0.9,1.8,1.5,3.7,2.1,5.6
		c2.2,9,5.3,17.8,7.9,26.7c2.6,8.8,5.2,17.6,7.8,26.4c0.1,0.4,0.2,0.7,0.5,1c0.2,0.2,0.6,0.3,0.9,0.4c5.3,1.3,10.6,2.7,15.9,4
		c0.9,0.2,1.7,0.4,2.6,0.5c0.1,0,0.1,0,0.2,0c1,0,2-0.3,3-0.5c5.2-1.3,10.3-2.6,15.5-3.9c0.4-0.1,0.9-0.2,1.2-0.6
		c0.2-0.2,0.3-0.6,0.4-0.9c5.1-17.7,10-35.6,15.6-53.1c0.1-0.3,0.2-0.7,0.3-1C376.6,620.4,374.1,612.3,372.1,604z"/>
	<path class="st6" d="M371.9,604c-0.8-2.8-1.6-5.6-3-8.1c-0.3-0.5-0.5-1-0.8-1.4l-15.9,6.8l18.2,7l1.8-2.8
		C372.1,605,372,604.5,371.9,604z"/>
	<polygon class="st6" points="516.9,601.3 548.9,587.6 535.2,608.3 	"/>
	<polygon class="st3" points="494.1,675.7 507.8,669.9 521.5,675.7 521.5,677.1 507.8,671.3 494.1,677.1 	"/>
	<path class="st6" d="M478.8,604c0.8-2.8,1.6-5.6,3-8.1c1.8-3.4,4.5-6.2,7.1-9c10.7-11.2,21.3-22.4,31.9-33.6
		c-1.8-2.4-3.6-4.8-5.4-7.2c3.8,0.5,7.6,1.2,11.4,1.7c1.3,0.2,2.6,0.4,3.8-0.2c0.8-0.3,1.5-1,2.1-1.6c9.3-9,18.6-18,27.9-27
		c0.9,11.2,1.8,22.5,2.7,33.7c0.4,5.1,0.8,10.5-1.3,15.1c-1.2,2.7-3.2,5.4-2.4,8.2c0.3,0.9,0.9,1.7,1.4,2.4
		c3.9,5.2,7.8,10.5,11.7,15.7c-7.4,7.8-14.8,15.6-22.2,23.4c-1.8,1.9-3.7,3.9-4.9,6.2c-0.9,1.8-1.5,3.7-2.1,5.6
		c-2.2,9-5.3,17.8-7.9,26.7c-2.6,8.8-5.2,17.6-7.8,26.4c-0.1,0.4-0.2,0.7-0.5,1c-0.2,0.2-0.6,0.3-0.9,0.4c-5.3,1.3-10.6,2.7-15.9,4
		c-0.9,0.2-1.7,0.4-2.6,0.5c-0.1,0-0.1,0-0.2,0c-1,0-2-0.3-3-0.5c-5.2-1.3-10.3-2.6-15.5-3.9c-0.4-0.1-0.9-0.2-1.2-0.6
		c-0.2-0.2-0.3-0.6-0.4-0.9c-5.1-17.7-10-35.6-15.6-53.1c-0.1-0.3-0.2-0.7-0.3-1C474.3,620.4,476.8,612.3,478.8,604z"/>
	<path class="st6" d="M479,604c0.8-2.8,1.6-5.6,3-8.1c0.3-0.5,0.5-1,0.8-1.4l15.9,6.8l-18.2,7l-1.8-2.8
		C478.8,605,478.9,604.5,479,604z"/>
</g>
<g id="The_IAN" class="st0">
	<polygon class="st6" points="278.4,502.5 245.1,488.4 259.4,509.9 	"/>
	<polygon class="st3" points="303,579.9 288.8,573.9 274.6,579.9 274.6,581.3 288.8,575.2 303,581.3 	"/>
	<g class="st1">
		<polygon class="st7" points="340.2,497.4 302.3,481.3 318.6,505.8 		"/>
		<polygon class="st7" points="361.8,497.4 399.7,481.3 383.4,505.8 		"/>
		<path class="st7" d="M351,600.8c1.2,0,2.4-0.3,3.6-0.6c6.1-1.5,12.3-3.1,18.4-4.6c0.5-0.1,1-0.3,1.4-0.7c0.2-0.3,0.4-0.7,0.5-1
			c6-21,11.8-42.2,18.5-62.9c0.7-2.3,1.4-4.6,2.5-6.7c1.5-2.8,3.7-5.1,5.8-7.4c8.8-9.2,17.6-18.5,26.3-27.7
			c-4.6-6.2-9.2-12.4-13.8-18.6c-0.7-0.9-1.3-1.8-1.7-2.9c-1-3.3,1.4-6.6,2.8-9.7c2.5-5.5,2-11.9,1.6-17.9
			c-1.1-13.3-2.2-26.6-3.2-39.9c-11,10.7-22,21.3-33,32c-0.8,0.7-1.6,1.5-2.5,1.9c-1.4,0.6-3,0.4-4.5,0.2c-7.2-1-14.7-2.4-22.2-2.6
			c-7.6-0.2-15.3,1.5-22.8,2.6c-1.5,0.2-3.1,0.4-4.5-0.2c-1-0.4-1.8-1.2-2.5-1.9c-11-10.7-22-21.3-33-32
			c-1.1,13.3-2.2,26.6-3.2,39.9c-0.5,6-0.9,12.4,1.6,17.9c1.4,3.1,3.8,6.4,2.8,9.7c-0.3,1.1-1,2-1.7,2.9
			c-4.6,6.2-9.2,12.4-13.8,18.6c8.8,9.2,17.6,18.5,26.3,27.7c2.2,2.3,4.4,4.6,5.8,7.4c1.1,2.1,1.8,4.4,2.5,6.7
			c2.6,10.7,6.2,21.1,9.3,31.6c3.1,10.4,6.2,20.8,9.2,31.3c0.1,0.4,0.3,0.9,0.6,1.2c0.3,0.3,0.7,0.4,1,0.5
			c6.3,1.6,12.6,3.2,18.9,4.8c1,0.3,2.1,0.5,3.1,0.5C350.9,600.8,350.9,600.8,351,600.8z"/>
		<polygon class="st2" points="367.2,585.7 351,578.8 334.8,585.7 334.8,587.3 351,580.4 367.2,587.3 		"/>
	</g>
	<g class="st1">
		<path class="st7" d="M314.5,562.3c-3.1-10.5-6.8-21-9.3-31.6c-0.7-2.3-1.4-4.6-2.5-6.7c-1.5-2.8-3.7-5.1-5.8-7.4
			c-8.8-9.2-17.6-18.5-26.3-27.7c4.6-6.2,9.2-12.4,13.8-18.6c0.7-0.9,1.3-1.8,1.7-2.9c1-3.3-1.4-6.6-2.8-9.7
			c-1.7-3.9-2-8.2-1.9-12.5c-4.4,0.5-8.9,1.3-13.3,1.9c-1.3,0.2-2.7,0.4-4-0.2c-0.9-0.4-1.5-1-2.2-1.7c-9.7-9.3-19.3-18.7-29-28
			c-0.9,11.7-1.9,23.3-2.8,35c-0.4,5.3-0.8,10.9,1.4,15.7c1.2,2.8,3.4,5.6,2.4,8.5c-0.3,0.9-0.9,1.7-1.5,2.5
			c-4,5.4-8.1,10.9-12.1,16.3c7.7,8.1,15.4,16.2,23.1,24.3c1.9,2,3.8,4,5.1,6.5c1,1.8,1.6,3.9,2.2,5.9c2.3,9.3,5.5,18.5,8.2,27.7
			c2.7,9.1,5.4,18.3,8.1,27.4c0.1,0.4,0.2,0.8,0.5,1c0.2,0.2,0.6,0.3,0.9,0.4c5.5,1.4,11,2.8,16.5,4.2c0.9,0.2,1.8,0.5,2.7,0.5
			c0.1,0,0.1,0,0.2,0c1.1,0,2.1-0.3,3.2-0.5c5.4-1.4,10.7-2.7,16.1-4.1c0.4-0.1,0.9-0.2,1.2-0.6c0.2-0.3,0.3-0.6,0.4-0.9
			c2.2-7.5,4.3-15.1,6.5-22.6C314.9,563.7,314.7,563,314.5,562.3z"/>
	</g>
	<polygon class="st6" points="423.4,502.5 456.6,488.4 442.3,509.9 	"/>
	<polygon class="st3" points="399.7,579.9 413.9,573.9 428.1,579.9 428.1,581.3 413.9,575.2 399.7,581.3 	"/>
	<g class="st1">
		<path class="st7" d="M387.2,562.3c3.1-10.5,6.8-21,9.3-31.6c0.7-2.3,1.4-4.6,2.5-6.7c1.5-2.8,3.7-5.1,5.8-7.4
			c8.8-9.2,17.6-18.5,26.3-27.7c-4.6-6.2-9.2-12.4-13.8-18.6c-0.7-0.9-1.3-1.8-1.7-2.9c-1-3.3,1.4-6.6,2.8-9.7
			c1.7-3.9,2-8.2,1.9-12.5c4.4,0.5,8.9,1.3,13.3,1.9c1.3,0.2,2.7,0.4,4-0.2c0.9-0.4,1.5-1,2.2-1.7c9.7-9.3,19.3-18.7,29-28
			c0.9,11.7,1.9,23.3,2.8,35c0.4,5.3,0.8,10.9-1.4,15.7c-1.2,2.8-3.4,5.6-2.4,8.5c0.3,0.9,0.9,1.7,1.5,2.5c4,5.4,8.1,10.9,12.1,16.3
			c-7.7,8.1-15.4,16.2-23.1,24.3c-1.9,2-3.8,4-5.1,6.5c-1,1.8-1.6,3.9-2.2,5.9c-2.3,9.3-5.5,18.5-8.2,27.7
			c-2.7,9.1-5.4,18.3-8.1,27.4c-0.1,0.4-0.2,0.8-0.5,1c-0.2,0.2-0.6,0.3-0.9,0.4c-5.5,1.4-11,2.8-16.5,4.2c-0.9,0.2-1.8,0.5-2.7,0.5
			c-0.1,0-0.1,0-0.2,0c-1.1,0-2.1-0.3-3.2-0.5c-5.4-1.4-10.7-2.7-16.1-4.1c-0.4-0.1-0.9-0.2-1.2-0.6c-0.2-0.3-0.3-0.6-0.4-0.9
			c-2.2-7.5-4.3-15.1-6.5-22.6C386.8,563.7,387,563,387.2,562.3z"/>
	</g>
</g>
<g id="Layer_9" class="st0">
	<polygon class="st3" points="290.6,403.7 328.2,396.2 309.3,414.5 	"/>
	<path class="st3" d="M374.3,463.9c8-7.8,4.4-4.6,8.5-8.2c3.7-3.2,7.4-6.4,11.2-9.6c4.8-4,9.6-8,14.4-12c-0.1-0.3,5.3-4.3,5.9-4.9
		c0.8-0.8,1.5-1.6,2.2-2.5c-1.4-1.4-3-2.9-4.4-4.2c-8.7-8.4-4.8-5-9.1-8.7c-3.7-3.2-7.4-6.4-11.2-9.6c-4.8-4-9.6-8-14.4-12
		c0.1-0.3-5.3-4.3-5.9-4.9c-4.5-4.5-7.5-11-10.8-16.4c-3.5-5.6-7-11.2-10.5-16.8c-4.4-7-8.8-14.1-13.2-21.1l-8.5,49.2l-46.9,8.7
		l-2.1,8.4c-0.6,0.1-1.2,0.3-1.8,0.4c-5.4,1.1-10.8,2.3-16.2,3.4c-7.4,1.6-14.8,3.1-22.2,4.7c-3.1,0.7-6.2,1.3-9.3,2
		c-1.2,0.2-2.3,0.5-3.5,0.7c-1,0.2-2.7,0.9-3.7,0.6c-0.5-0.2-0.9-0.5-1.4-0.8c-0.6-0.4-1.2-0.9-1.8-1.3c-0.2-0.1-0.4-0.3-0.6-0.3
		s-0.4,0.1-0.6,0.1c-3.6,1.5-7.2,3-10.8,4.6c-0.1,0-0.2,0.1-0.2,0.1c-0.1,0.1,0,0.2,0,0.3c0.2,2.1,0.4,4.2,0.6,6.3
		c0,0.6,0.1,1.1,0.3,1.6c0.2,0.5,0.5,1,0.7,1.5c0.7,1.2,1.5,2.5,2.2,3.7c0.2,0.3,1.2,2.5,1.5,2.6c0.6,0.1,1.2,0.1,1.8,0.2l4.9,10.3
		l4-9.3c0.7,0.1,1.4,0.2,2.2,0.3c0.9,3.1,3.1,10.1,3.2,10c0.2-0.1,2.9-6.1,4.3-9.1c0.7,0.1,1.3,0.2,2,0.2l2.8,9.4l4.7-8.5
		c0.4,0,0.8,0.1,1.2,0.1l3.3,8.3l5.1-7.3c0.5,0.1,1,0.1,1.6,0.2l3.6,7.2l3.8-6.3c4.2,0.5,8.4,1,12.6,1.5c0.1,0,0.2,0,0.3,0.1
		c0.1,0.1,0.1,0.3,0.1,0.4c0,3.7,0.1,7.4,0.1,11c0,0.1,0,0.3-0.1,0.4c-0.1,0.1-0.2,0.1-0.3,0.1c-3.5,0.5-6.9,1.1-10.4,1.6l-3.2-6.4
		l-3,7.4c-0.9,0.1-1.7,0.3-2.6,0.4l-3-7.8l-4.1,8.9c-0.8,0.1-1.6,0.2-2.4,0.4l-2.7-9.3l-3.7,10.3c-0.6,0.1-1.2,0.2-1.9,0.3l-3.3-10
		l-3.4,10.9c-0.5,0.1-1,0.1-1.5,0.2l-4.7-10.3l-2.9,11.4c-0.2,0-0.4,0.1-0.6,0.1c-0.3,0.1-0.5,0.1-0.7,0.3c-0.1,0.2-0.2,0.4-0.3,0.6
		c-0.9,3.8-0.8,7.9,0.1,11.7c0,0.2,0.1,0.3,0.2,0.4c0.1,0.1,0.3,0.1,0.5,0.1c12.4,0.2,24.8,0.4,37.1,0.6c6.6,0.1,13.2,0.1,19.8,0.1
		c9.1,0,18.1,2.3,26.8,4.5l32.6-6l9.4-50.6L374.3,463.9z"/>
	<polygon class="st3" points="302.3,494 340,486.5 321.1,504.8 	"/>
	<polygon class="st3" points="342.9,566.1 367.3,541.9 357.1,516.2 359.1,516.2 369.6,542.4 345.4,566.6 344.2,567.8 342.2,566.8 	
		"/>
	<polygon class="st3" points="495.1,447.9 457.4,440.5 476.3,458.8 	"/>
	<polygon class="st3" points="454.5,520.1 430.2,495.9 440.3,470.2 438.4,470.2 427.8,496.4 452,520.6 453.3,521.7 455.3,520.7 	"/>
	<path class="st3" d="M579.6,456.6c0-0.1-0.1-0.1-0.2-0.1c-3.6-1.5-7.2-3-10.8-4.6c-0.2-0.1-0.4-0.2-0.6-0.1c-0.2,0-0.4,0.2-0.6,0.3
		c-0.6,0.4-1.2,0.9-1.8,1.3c-0.4,0.3-0.9,0.6-1.4,0.8c-1,0.3-2.6-0.4-3.7-0.6c-1.2-0.2-2.3-0.5-3.5-0.7c-3.1-0.7-6.2-1.3-9.3-2
		c-7.4-1.6-14.8-3.1-22.2-4.7c-5.4-1.1-10.8-2.3-16.2-3.4c-0.6-0.1-1.2-0.3-1.8-0.4l-2.1-8.4l-46.9-8.7l-8.5-49.2
		c-4.4,7-8.8,14.1-13.2,21.1c-3.5,5.6-7,11.2-10.5,16.8c-3.4,5.4-6.3,11.9-10.8,16.4c-0.6,0.6-6,4.7-5.9,4.9c-4.8,4-9.6,8-14.4,12
		c-3.8,3.1-7.5,6.4-11.2,9.6c-4.2,3.6-0.5,0.4-8.5,8.2c2.1,3.7,4.4,7.4,7.3,10.3c0.6,0.6,6,4.7,5.9,4.9c4.8,4,9.6,8,14.4,12
		c3.8,3.1,7.5,6.4,11.2,9.6c4.3,3.7,0.3,0.3,9.1,8.7c3,2.9,6.9,6.4,7.9,7.9c3.5,5.3,7.4,11.3,11.6,17.7c1.1-1.1,1.9-2,2.7-2.8
		c2.9-2.7,6.9-5.1,10.3-7.3c0.9-0.6,1.7-1,2.7-1.4c1.4-0.6,2.9-1,4.3-1.3c6-1.5,12-3.1,18-4.6c9.5-2.4,19.3-5.1,29.2-5.1
		c6.6,0,13.2,0,19.8-0.1c12.4-0.1,24.8-0.4,37.1-0.6c0.2,0,0.4,0,0.5-0.1s0.2-0.3,0.2-0.4c0.9-3.8,0.9-7.9,0.1-11.7
		c0-0.2-0.1-0.4-0.3-0.6c-0.2-0.2-0.5-0.3-0.7-0.3s-0.4-0.1-0.6-0.1l-2.9-11.4l-4.7,10.3c-0.5-0.1-1-0.1-1.5-0.2l-3.4-10.9l-3.3,10
		c-0.6-0.1-1.2-0.2-1.9-0.3l-3.7-10.3l-2.7,9.3c-0.8-0.1-1.6-0.2-2.4-0.4l-4.1-8.9l-3,7.8c-0.9-0.1-1.7-0.3-2.6-0.4l-3-7.4l-3.2,6.4
		c-3.5-0.5-6.9-1.1-10.4-1.6c-0.1,0-0.3,0-0.3-0.1c-0.1-0.1-0.1-0.2-0.1-0.4c0-3.7,0.1-7.4,0.1-11c0-0.1,0-0.3,0.1-0.4
		c0.1-0.1,0.2-0.1,0.3-0.1c4.2-0.5,8.4-1,12.6-1.5l3.8,6.3l3.6-7.2c0.5-0.1,1-0.1,1.6-0.2l5.1,7.3l3.3-8.3c0.4,0,0.8-0.1,1.2-0.1
		l4.7,8.5l2.8-9.4c0.7-0.1,1.3-0.2,2-0.2c1.4,3.1,4.1,9,4.3,9.1c0.2,0.1,2.3-6.9,3.3-10c0.7-0.1,1.4-0.2,2.2-0.3l4,9.3l4.9-10.3
		c0.6-0.1,1.2-0.1,1.8-0.2c0.3,0,1.3-2.3,1.5-2.6c0.7-1.2,1.5-2.5,2.2-3.7c0.3-0.5,0.6-1,0.7-1.5c0.2-0.5,0.2-1.1,0.3-1.6
		c0.2-2.1,0.4-4.2,0.6-6.3C579.7,456.8,579.7,456.7,579.6,456.6z"/>
	<path class="st3" d="M402.3,616.5c-3.7,1.7-14.8,4.5-18.5,6.3c-0.1,0.1-0.3,0.1-0.5,0.1c0,0,0,0-0.1,0s-0.2-0.1-0.3-0.2
		c-6.1-5.8-6.4-13.9-10.9-21.6c-3.6-6.2-9.3-10.8-14.5-15.7c-3.4-3.2-5-5.2-6.6-6.6c-2.9-2.7-6.9-5.1-10.3-7.3
		c-0.9-0.6-1.7-1-2.7-1.4c-1.4-0.6-2.9-1-4.3-1.3c-6-1.5-12-3.1-18-4.6c-9.5-2.4-19.3-5.1-29.2-5.1c-6.6,0-13.2,0-19.8-0.1
		c-12.4-0.1-24.8-0.4-37.1-0.6c-0.2,0-0.4,0-0.5-0.1s-0.2-0.3-0.2-0.4c-0.9-3.8-0.9-7.9-0.1-11.7c0-0.2,0.1-0.4,0.3-0.6
		c0.2-0.2,0.5-0.3,0.7-0.3s0.4-0.1,0.6-0.1l2.9-11.4l4.7,10.3c0.5-0.1,1-0.1,1.5-0.2l3.4-10.9l3.3,10c0.6-0.1,1.2-0.2,1.9-0.3
		l3.7-10.3l2.7,9.3c0.8-0.1,1.6-0.2,2.4-0.4l4.1-8.9l3,7.8c0.9-0.1,1.7-0.3,2.6-0.4l3-7.4l3.2,6.4c3.5-0.5,6.9-1.1,10.4-1.6
		c0.1,0,0.3,0,0.3-0.1c0.1-0.1,0.1-0.2,0.1-0.4c0-3.7-0.1-7.4-0.1-11c0-0.1,0-0.3-0.1-0.4c-0.1-0.1-0.2-0.1-0.3-0.1
		c-4.2-0.5-8.4-1-12.6-1.5l-3.8,6.3l-3.6-7.2c-0.5-0.1-1-0.1-1.6-0.2l-5.1,7.3l-3.3-8.3c-0.4,0-0.8-0.1-1.2-0.1l-4.7,8.5l-2.8-9.4
		c-0.7-0.1-1.3-0.2-2-0.2c-1.4,3.1-4.1,9-4.3,9.1c-0.2,0.1-2.3-6.9-3.3-10c-0.7-0.1-1.4-0.2-2.2-0.3l-4,9.3l-4.9-10.3
		c-0.6-0.1-1.2-0.1-1.8-0.2c-0.3,0-1.3-2.3-1.5-2.6c-0.7-1.2-1.5-2.5-2.2-3.7c-0.3-0.5-0.6-1-0.7-1.5c-0.2-0.5-0.2-1.1-0.3-1.6
		c-0.2-2.1-0.4-4.2-0.6-6.3c0-0.1,0-0.2,0-0.3s0.1-0.1,0.2-0.1c3.6-1.5,7.2-3,10.8-4.6c0.2-0.1,0.4-0.2,0.6-0.1
		c0.2,0,0.4,0.2,0.6,0.3c0.6,0.4,1.2,0.9,1.8,1.3c0.4,0.3,0.9,0.6,1.4,0.8c1,0.3,2.6-0.4,3.7-0.6c1.2-0.2,2.3-0.5,3.5-0.7
		c3.1-0.7,6.2-1.3,9.3-2c7.4-1.6,14.8-3.1,22.2-4.7c5.4-1.1,10.8-2.3,16.2-3.4c0.6-0.1,1.2-0.3,1.8-0.4l2.1-8.4l46.9-8.7l8.5-49.2
		c4.4,7,8.8,14.1,13.2,21.1c3.5,5.6,7,11.2,10.5,16.8c3.4,5.4,6.3,11.9,10.8,16.4c0.6,0.6,6,4.7,5.9,4.9c4.8,4,9.6,8,14.4,12
		c3.8,3.1,7.5,6.4,11.2,9.6c4.3,3.7,0.3,0.3,9.1,8.7c3,2.9,6.9,6.4,7.9,7.9c14.2,21.7,36.6,55.7,49,78.5
		c-0.4-0.7-46.4,9.4-49.3,10.7C420.4,611.4,410.8,612.9,402.3,616.5z"/>
</g>
<g id="Layer_2" class="st0">
	<g class="st1">
		<rect x="-1297" y="-282.7" class="st8" width="2087.8" height="1215.8"/>
		<path d="M792,934h-2090.2V-283.5H792V934z M-1295.8,932.3H789.7V-281.8h-2085.5V932.3z"/>
	</g>
</g>
<g id="Layer_13" class="st0">
	<g id="XMLID_5_" class="st1">
		<g>
			<path class="st9" d="M1.4,449.9c0.1,0.1,0,0.2,0,0.3c-0.2,2.1-0.4,4.2-0.6,6.3c0,0.6-0.1,1.1-0.3,1.6c-0.2,0.5-0.5,1-0.7,1.5
				c-0.7,1.2-1.5,2.5-2.2,3.7c-0.2,0.3-1.2,2.5-1.5,2.6c-0.6,0.1-1.2,0.1-1.8,0.2l-4.9,10.3l-4-9.3c-0.7,0.1-1.4,0.2-2.1,0.3
				c-0.9,3.1-3.1,10.1-3.3,10c-0.2-0.1-2.9-6.1-4.3-9.1c-0.7,0.1-1.3,0.2-2,0.2l-2.8,9.4l-4.7-8.5c-0.4,0-0.8,0.1-1.2,0.1l-3.3,8.3
				l-5.1-7.4c-0.5,0.1-1,0.1-1.6,0.2l-3.6,7.2l-3.8-6.3c-4.2,0.5-8.4,1-12.6,1.5c-0.1,0-0.2,0-0.3,0.1c-0.1,0.1-0.1,0.2-0.1,0.4
				c0,3.7-0.1,7.4-0.1,11.1c0,0.1,0,0.3,0.1,0.4c0.1,0.1,0.2,0.1,0.3,0.1c3.5,0.5,6.9,1.1,10.3,1.6l3.2-6.4l3,7.4
				c0.9,0.1,1.7,0.3,2.6,0.4l3-7.8l4.1,8.9c0.8,0.1,1.6,0.2,2.4,0.4l2.7-9.3l3.7,10.3c0.6,0.1,1.2,0.2,1.9,0.3l3.3-10l3.4,10.9
				c0.5,0.1,1,0.1,1.5,0.2l4.7-10.2l2.9,11.4c0.2,0,0.4,0.1,0.6,0.1c0.3,0.1,0.5,0.1,0.7,0.3c0.1,0.2,0.2,0.4,0.3,0.6
				c0.9,3.9,0.8,7.9-0.1,11.7c0,0.2-0.1,0.3-0.2,0.4c-0.1,0.1-0.3,0.1-0.5,0.1c-12.4,0.2-24.8,0.4-37.1,0.6
				c-6.6,0.1-13.2,0.1-19.8,0.1c-9.9,0-19.7,2.7-29.2,5.1c-6,1.5-12,3.1-18,4.6c-1.5,0.4-2.9,0.7-4.3,1.3c-0.9,0.4-1.8,0.9-2.7,1.4
				c-3.4,2.2-7.4,4.6-10.3,7.3c-1.5,1.4-3.2,3.4-6.6,6.6c-5.2,4.9-10.9,9.5-14.5,15.7c-4.5,7.8-4.8,15.8-10.9,21.6
				c-0.1,0.1-0.2,0.2-0.3,0.2c0,0,0,0-0.1,0c-0.2,0-0.3,0-0.5-0.1c-3-1.5-11.1-3.6-15.9-5.3c1.9-6.8,3.9-13.6,5.9-20.4
				c1.1-0.2,1.8-0.2,1.9-0.2c-0.4-0.7-0.8-1.4-1.2-2.1c2.4-7.9,4.8-15.9,7.3-23.7c0.8-2.7,1.6-5.4,2.9-7.9c1.8-3.3,4.4-6.1,6.9-8.7
				c3-3.1,5.9-6.2,8.9-9.4l21.6,21.6l1.2,1.1l2-1l-0.7-0.7l-22.7-22.5c7-7.3,13.9-14.6,20.9-21.9c-5.5-7.3-10.9-14.7-16.4-22
				c-0.8-1.1-1.6-2.1-2-3.4c-1.2-3.9,1.6-7.8,3.3-11.5c2.9-6.5,2.4-14,1.8-21.1c-0.6-7-1.1-14-1.7-20.9c0.1-0.1,0.1-0.2,0.2-0.3
				c4.4-7,8.8-14.1,13.2-21.1l8.5,49.2l46.9,8.7l2.1,8.4c0.6,0.1,1.2,0.3,1.8,0.4c5.4,1.1,10.8,2.3,16.2,3.4
				c7.4,1.6,14.8,3.1,22.2,4.7c3.1,0.7,6.2,1.3,9.3,2c1.1,0.2,2.3,0.5,3.5,0.7c1,0.2,2.7,0.9,3.7,0.6c0.5-0.2,0.9-0.5,1.4-0.8
				c0.6-0.4,1.2-0.9,1.8-1.3c0.2-0.1,0.4-0.3,0.6-0.3s0.4,0.1,0.6,0.1c3.6,1.5,7.2,3.1,10.8,4.6C1.2,449.8,1.3,449.9,1.4,449.9z
				 M-102.9,453.1l18.8-10.9l-37.7-7.5L-102.9,453.1z"/>
			<path class="st9" d="M-143,447.9c5.5,7.3,10.9,14.7,16.4,22c-6.9,7.3-13.9,14.6-20.9,21.9l-1.6-1.6l10.2-25.7h-2l-10.5,26.2
				l2.6,2.6c-3,3.1-5.9,6.2-8.9,9.4c-2.6,2.7-5.2,5.4-6.9,8.7c-1.3,2.5-2.1,5.2-2.9,7.9c-2.5,7.9-5,15.8-7.3,23.7
				c-11-19.6-28.5-46.7-41.9-67.3c2-3.1,4-6.1,5.8-8.8c1-1.5,4.9-5,7.9-7.9c8.7-8.4,4.8-5,9.1-8.7c3.7-3.2,7.4-6.4,11.2-9.6
				c4.8-4,9.6-8,14.4-12c-0.1-0.2,5.3-4.3,5.9-4.9c4.5-4.5,7.5-11,10.8-16.4c3.4-5.5,6.9-11,10.3-16.5c0.6,7,1.1,14,1.7,20.9
				c0.6,7.1,1.1,14.7-1.8,21.1c-1.7,3.7-4.5,7.6-3.3,11.5C-144.6,445.7-143.8,446.8-143,447.9z M-179.4,489.6l19.3-29l-44.8,19.1
				L-179.4,489.6z"/>
			<path class="st9" d="M-138.9,464.5l-10.2,25.7l1.6,1.6c-0.5,0.5-0.9,1-1.4,1.5l-2.6-2.6l10.5-26.2H-138.9z"/>
			<path class="st9" d="M-143.7,364.7c0.7,8.7,1.4,17.5,2.1,26.2c-3.4,5.5-6.9,11-10.3,16.5c-3.4,5.4-6.3,11.9-10.8,16.4
				c-0.6,0.6-6,4.7-5.9,4.9c-4.8,4-9.6,8-14.4,12c-3.8,3.1-7.5,6.4-11.2,9.6c-4.3,3.7-0.3,0.3-9.1,8.7c-3,2.9-6.9,6.4-7.9,7.9
				c-1.8,2.8-3.7,5.7-5.8,8.8c-2.1-3.2-4.1-6.2-5.9-9.1c-1-1.5-4.9-5-7.9-7.9c-8.7-8.4-4.8-5-9.1-8.7c-3.7-3.2-7.4-6.4-11.2-9.6
				c-4.8-4-9.6-8-14.4-12c0.1-0.2-5.3-4.3-5.9-4.9c-4.5-4.5-7.5-11-10.8-16.4c-3.5-5.6-7-11.2-10.5-16.9c-0.3-0.6-0.7-1.1-1-1.7
				c0.6-8,1.3-16,1.9-24c13,12.6,26,25.2,39,37.8c0.9,0.9,1.8,1.8,3,2.3c1.7,0.7,3.6,0.5,5.3,0.2c8.9-1.2,17.9-3.2,27-3.1
				c8.8,0.2,17.7,1.9,26.2,3.1c1.8,0.2,3.7,0.5,5.3-0.2c1.1-0.5,2.1-1.4,3-2.3C-169.7,389.9-156.7,377.3-143.7,364.7z"/>
			<path class="st9" d="M-174.9,543c-0.2,0.8-0.5,1.5-0.7,2.3c-6.8,1.1-30.8,6.3-41.9,9c-13.4-3.2-42.1-9.4-42.6-8.9l0,0
				c10.9-19.9,29.3-48.3,43.3-69.6C-203.4,496.3-185.9,523.4-174.9,543z"/>
			<path class="st9" d="M-175.6,545.3c-2,6.8-4,13.6-5.9,20.4c-1-0.4-1.9-0.7-2.6-1c-8.5-3.6-18.2-5.1-26.7-8.7
				c-0.6-0.3-3.1-0.9-6.7-1.8C-206.3,551.6-182.4,546.4-175.6,545.3z"/>
			<path class="st9" d="M-184.1,564.7c0.7,0.3,1.5,0.6,2.6,1c-2.7,9.3-5.3,18.6-8,27.9c-0.1,0.4-0.3,0.9-0.5,1.2
				c-0.4,0.5-1,0.6-1.6,0.8c-7.2,1.8-14.5,3.7-21.7,5.5c-1.4,0.4-2.8,0.7-4.3,0.7c-0.1,0-0.2,0-0.3,0c-1.2,0-2.5-0.3-3.7-0.6
				c-7.4-1.9-14.9-3.7-22.3-5.6c-0.4-0.1-0.9-0.2-1.2-0.6c-0.4-0.3-0.5-0.9-0.7-1.4c-2.6-9.2-5.4-18.5-8.1-27.7
				c1.7-0.6,3.2-1.1,4.2-1.5c8.5-3.6,18.2-5.1,26.7-8.7c0.6-0.2,2.6-0.8,5.6-1.5c3.6,0.9,6.1,1.5,6.7,1.8
				C-202.3,559.6-192.6,561.2-184.1,564.7z M-198.4,585.2v-1.9l-19.2-8.1l-19.2,8.1v1.9l19.2-8.2L-198.4,585.2z"/>
			<path class="st9" d="M-222.8,466.7c1.9,2.8,3.8,5.9,5.9,9.1c-13.9,21.4-32.4,49.8-43.3,69.6c-2.7-8.7-5.4-17.3-7.6-26.1
				c-0.8-2.7-1.6-5.4-2.9-7.9c-1.8-3.3-4.3-6.1-6.9-8.7c-2.8-2.9-5.6-5.8-8.3-8.8l3.4-3.4l-10.5-26.2h-2l10.2,25.7l-2.5,2.5
				c-7.1-7.5-14.3-15-21.4-22.5c5.5-7.3,10.9-14.7,16.4-22c0.8-1.1,1.6-2.1,2-3.4c1.2-3.9-1.6-7.8-3.3-11.5
				c-2.9-6.5-2.4-14-1.8-21.1c0.6-7.7,1.2-15.5,1.9-23.2c0.3,0.6,0.7,1.1,1,1.7c3.5,5.6,7,11.2,10.5,16.9
				c3.4,5.4,6.3,11.9,10.8,16.4c0.6,0.6,6,4.7,5.9,4.9c4.8,4,9.6,8,14.4,12c3.8,3.1,7.5,6.4,11.2,9.6c4.3,3.7,0.3,0.3,9.1,8.7
				C-227.7,461.7-223.7,465.2-222.8,466.7z M-255.9,489.6l25.5-9.9l-44.8-19.1L-255.9,489.6z"/>
			<path class="st9" d="M-217.5,554.3c-3,0.7-5,1.3-5.6,1.5c-8.5,3.6-18.2,5.1-26.7,8.7c-1,0.4-2.4,1-4.2,1.5
				c-0.9-3.1-1.8-6.2-2.8-9.3c-1.1-3.8-2.3-7.5-3.5-11.3C-259.5,544.9-230.9,551.1-217.5,554.3z"/>
			<path class="st9" d="M-260.1,545.4c1.2,3.8,2.4,7.5,3.5,11.3c0.9,3.1,1.8,6.2,2.8,9.3c-4.8,1.6-11.6,3.5-14.3,4.8
				c-0.1,0.1-0.3,0.1-0.5,0.1c0,0,0,0-0.1,0s-0.2-0.1-0.3-0.2c-6.1-5.8-6.4-13.9-10.9-21.6c-3.6-6.2-9.3-10.8-14.5-15.7
				c-3.4-3.2-5-5.2-6.6-6.6c-2.9-2.7-6.9-5.1-10.3-7.3c-0.8-0.6-1.7-1-2.7-1.4c-1.4-0.6-2.9-1-4.3-1.3c-6-1.5-12-3.1-18-4.6
				c-9.5-2.4-19.3-5.1-29.2-5.1c-6.6,0-13.2,0-19.8-0.1c-12.4-0.1-24.8-0.4-37.1-0.6c-0.2,0-0.4,0-0.5-0.1s-0.2-0.3-0.2-0.4
				c-0.9-3.8-0.9-7.9-0.1-11.7c0-0.2,0.1-0.4,0.2-0.6c0.2-0.2,0.5-0.3,0.7-0.3s0.4-0.1,0.6-0.1l2.9-11.4l4.7,10.2
				c0.5-0.1,1-0.1,1.5-0.2l3.4-10.9l3.3,10c0.6-0.1,1.2-0.2,1.9-0.3l3.7-10.3l2.7,9.3c0.8-0.1,1.6-0.2,2.4-0.4l4.1-8.9l3,7.8
				c0.9-0.1,1.7-0.3,2.6-0.4l3-7.4l3.2,6.5c3.5-0.5,6.9-1.1,10.4-1.6c0.1,0,0.3,0,0.3-0.1c0.1-0.1,0.1-0.2,0.1-0.4
				c0-3.7-0.1-7.4-0.1-11c0-0.1,0-0.3-0.1-0.4c-0.1-0.1-0.2-0.1-0.3-0.1c-4.2-0.5-8.4-1-12.6-1.5l-3.8,6.3l-3.6-7.2
				c-0.5-0.1-1-0.1-1.6-0.2l-5.1,7.4l-3.3-8.3c-0.4-0.1-0.8-0.1-1.2-0.1l-4.7,8.5l-2.8-9.4c-0.7-0.1-1.3-0.2-2-0.2
				c-1.4,3.1-4.1,9-4.3,9.1s-2.3-6.9-3.3-10c-0.7-0.1-1.4-0.2-2.2-0.2l-4,9.3l-4.9-10.3c-0.6-0.1-1.2-0.1-1.8-0.2
				c-0.3,0-1.3-2.3-1.5-2.6c-0.7-1.2-1.5-2.5-2.2-3.7c-0.3-0.5-0.6-1-0.7-1.5c-0.2-0.5-0.2-1.1-0.3-1.6c-0.2-2.1-0.4-4.2-0.6-6.3
				c0-0.1,0-0.2,0-0.3s0.1-0.1,0.2-0.1c3.6-1.5,7.2-3.1,10.8-4.6c0.2-0.1,0.4-0.1,0.6-0.1c0.2,0,0.4,0.1,0.6,0.3
				c0.6,0.4,1.2,0.9,1.8,1.3c0.4,0.3,0.9,0.6,1.4,0.8c1,0.3,2.6-0.4,3.7-0.6c1.1-0.2,2.3-0.5,3.5-0.7c3.1-0.7,6.2-1.3,9.3-2
				c7.4-1.6,14.8-3.1,22.2-4.7c5.4-1.1,10.8-2.3,16.1-3.4c0.6-0.1,1.2-0.3,1.8-0.4l2.1-8.4l46.9-8.7l8.5-49.2
				c4.1,6.5,8.1,13,12.2,19.4c-0.6,7.7-1.3,15.5-1.9,23.2c-0.6,7.1-1.1,14.7,1.8,21.1c1.7,3.7,4.5,7.6,3.3,11.5
				c-0.4,1.3-1.2,2.4-2,3.4c-5.4,7.3-10.9,14.7-16.4,22c7.1,7.5,14.3,15,21.4,22.5l-21.8,21.7l-0.8,0.7l2,1l1.2-1.1l20.7-20.8
				c2.8,2.9,5.6,5.8,8.3,8.8c2.6,2.7,5.2,5.4,6.9,8.7c1.3,2.5,2.1,5.2,2.9,7.9C-265.5,528-262.8,536.7-260.1,545.4L-260.1,545.4z
				 M-330.9,452.8l18.9-18.3l-37.7,7.5L-330.9,452.8z"/>
			<path class="st9" d="M-292.9,464.2l10.5,26.2l-3.4,3.4c-0.5-0.5-0.9-1-1.4-1.5l2.5-2.5l-10.2-25.7L-292.9,464.2L-292.9,464.2z"/>
		</g>
		<g>
			<polygon class="st2" points="-349.7,442 -312,434.5 -330.9,452.8 			"/>
			<polygon class="st2" points="-285.8,493.9 -306.6,514.6 -307.8,515.8 -309.8,514.8 -309,514.1 -287.2,492.4 -284.7,489.9 
				-294.9,464.2 -292.9,464.2 -282.4,490.4 			"/>
			<path class="st2" d="M-217.5,554.3c-3,0.7-5,1.3-5.6,1.5c-8.5,3.6-18.2,5.1-26.7,8.7c-1,0.4-2.4,1-4.2,1.5
				c-4.8,1.6-11.6,3.5-14.3,4.8c-0.1,0.1-0.3,0.1-0.5,0.1c0,0,0,0-0.1,0s-0.2-0.1-0.3-0.2c-6.1-5.8-6.4-13.9-10.9-21.6
				c-3.6-6.2-9.3-10.8-14.5-15.7c-3.4-3.2-5-5.2-6.6-6.6c-2.9-2.7-6.9-5.1-10.3-7.3c-0.8-0.6-1.7-1-2.7-1.4c-1.4-0.6-2.9-1-4.3-1.3
				c-6-1.5-12-3.1-18-4.6c-9.5-2.4-19.3-5.1-29.2-5.1c-6.6,0-13.2,0-19.8-0.1c-12.4-0.1-24.8-0.4-37.1-0.6c-0.2,0-0.4,0-0.5-0.1
				s-0.2-0.3-0.2-0.4c-0.9-3.8-0.9-7.9-0.1-11.7c0-0.2,0.1-0.4,0.2-0.6c0.2-0.2,0.5-0.3,0.7-0.3s0.4-0.1,0.6-0.1l2.9-11.4l4.7,10.2
				c0.5-0.1,1-0.1,1.5-0.2l3.4-10.9l3.3,10c0.6-0.1,1.2-0.2,1.9-0.3l3.7-10.3l2.7,9.3c0.8-0.1,1.6-0.2,2.4-0.4l4.1-8.9l3,7.8
				c0.9-0.1,1.7-0.3,2.6-0.4l3-7.4l3.2,6.5c3.5-0.5,6.9-1.1,10.4-1.6c0.1,0,0.3,0,0.3-0.1c0.1-0.1,0.1-0.2,0.1-0.4
				c0-3.7-0.1-7.4-0.1-11c0-0.1,0-0.3-0.1-0.4c-0.1-0.1-0.2-0.1-0.3-0.1c-4.2-0.5-8.4-1-12.6-1.5l-3.8,6.3l-3.6-7.2
				c-0.5-0.1-1-0.1-1.6-0.2l-5.1,7.4l-3.3-8.3c-0.4-0.1-0.8-0.1-1.2-0.1l-4.7,8.5l-2.8-9.4c-0.7-0.1-1.3-0.2-2-0.2
				c-1.4,3.1-4.1,9-4.3,9.1s-2.3-6.9-3.3-10c-0.7-0.1-1.4-0.2-2.2-0.2l-4,9.3l-4.9-10.3c-0.6-0.1-1.2-0.1-1.8-0.2
				c-0.3,0-1.3-2.3-1.5-2.6c-0.7-1.2-1.5-2.5-2.2-3.7c-0.3-0.5-0.6-1-0.7-1.5c-0.2-0.5-0.2-1.1-0.3-1.6c-0.2-2.1-0.4-4.2-0.6-6.3
				c0-0.1,0-0.2,0-0.3s0.1-0.1,0.2-0.1c3.6-1.5,7.2-3.1,10.8-4.6c0.2-0.1,0.4-0.1,0.6-0.1c0.2,0,0.4,0.1,0.6,0.3
				c0.6,0.4,1.2,0.9,1.8,1.3c0.4,0.3,0.9,0.6,1.4,0.8c1,0.3,2.6-0.4,3.7-0.6c1.1-0.2,2.3-0.5,3.5-0.7c3.1-0.7,6.2-1.3,9.3-2
				c7.4-1.6,14.8-3.1,22.2-4.7c5.4-1.1,10.8-2.3,16.1-3.4c0.6-0.1,1.2-0.3,1.8-0.4l2.1-8.4l46.9-8.7l8.5-49.2
				c4.1,6.5,8.1,13,12.2,19.4c0.3,0.6,0.7,1.1,1,1.7c3.5,5.6,7,11.2,10.5,16.9c3.4,5.4,6.3,11.9,10.8,16.4c0.6,0.6,6,4.7,5.9,4.9
				c4.8,4,9.6,8,14.4,12c3.8,3.1,7.5,6.4,11.2,9.6c4.3,3.7,0.3,0.3,9.1,8.7c3,2.9,6.9,6.4,7.9,7.9c1.9,2.8,3.8,5.9,5.9,9.1
				c13.4,20.6,31,47.6,41.9,67.3c0.4,0.7,0.8,1.4,1.2,2.1c0-0.1-0.7,0-1.9,0.2C-182.4,546.4-206.3,551.6-217.5,554.3z"/>
			<polygon class="st2" points="-84.1,442.2 -121.8,434.8 -102.9,453.1 			"/>
			<polygon class="st2" points="-148.9,493.3 -127.2,514.9 -126,516 -124,515 -124.8,514.4 -147.5,491.8 -149.1,490.2 -138.9,464.5 
				-140.9,464.5 -151.4,490.7 			"/>
			<path class="st2" d="M-260.1,545.4L-260.1,545.4c0.6-0.5,29.2,5.7,42.6,8.9c3.6,0.9,6.1,1.5,6.7,1.8c8.5,3.6,18.2,5.1,26.7,8.7
				c0.7,0.3,1.5,0.6,2.6,1c4.8,1.7,12.9,3.8,15.9,5.3c0.1,0.1,0.3,0.1,0.5,0.1c0,0,0,0,0.1,0s0.2-0.1,0.3-0.2
				c6.1-5.8,6.4-13.9,10.9-21.6c3.6-6.2,9.3-10.8,14.5-15.7c3.4-3.2,5-5.2,6.6-6.6c2.9-2.7,6.9-5.1,10.3-7.3c0.8-0.6,1.7-1,2.7-1.4
				c1.4-0.6,2.9-1,4.3-1.3c6-1.5,12-3.1,18-4.6c9.5-2.4,19.3-5.1,29.2-5.1c6.6,0,13.2,0,19.8-0.1c12.4-0.1,24.8-0.4,37.1-0.6
				c0.2,0,0.4,0,0.5-0.1s0.2-0.3,0.2-0.4c0.9-3.8,0.9-7.9,0.1-11.7c0-0.2-0.1-0.4-0.3-0.6c-0.2-0.2-0.5-0.3-0.7-0.3
				s-0.4-0.1-0.6-0.1l-2.9-11.4l-4.7,10.2c-0.5-0.1-1-0.1-1.5-0.2l-3.4-10.9l-3.3,10c-0.6-0.1-1.2-0.2-1.9-0.3l-3.7-10.3l-2.7,9.3
				c-0.8-0.1-1.6-0.2-2.4-0.4l-4.1-8.9l-3,7.8c-0.9-0.1-1.7-0.3-2.6-0.4l-3-7.4l-3.2,6.4c-3.5-0.5-6.9-1.1-10.3-1.6
				c-0.1,0-0.3-0.1-0.3-0.1c-0.1-0.1-0.1-0.2-0.1-0.4c0-3.7,0.1-7.4,0.1-11.1c0-0.1,0-0.3,0.1-0.4c0.1-0.1,0.2-0.1,0.3-0.1
				c4.2-0.5,8.4-1,12.6-1.5l3.8,6.3l3.6-7.2c0.5-0.1,1-0.1,1.6-0.2l5.1,7.4l3.3-8.3c0.4-0.1,0.8-0.1,1.2-0.1l4.7,8.5l2.8-9.4
				c0.7-0.1,1.3-0.2,2-0.2c1.4,3.1,4.1,9,4.3,9.1c0.2,0.1,2.3-6.9,3.3-10c0.7-0.1,1.4-0.2,2.1-0.3l4,9.3l4.9-10.3
				c0.6-0.1,1.2-0.1,1.8-0.2c0.3,0,1.3-2.3,1.5-2.6c0.7-1.2,1.5-2.5,2.2-3.7c0.3-0.5,0.6-0.9,0.7-1.5c0.2-0.5,0.2-1.1,0.3-1.6
				c0.2-2.1,0.4-4.2,0.6-6.3c0-0.1,0-0.2,0-0.3s-0.1-0.1-0.2-0.1c-3.6-1.5-7.2-3.1-10.8-4.6c-0.2-0.1-0.4-0.2-0.6-0.1
				c-0.2,0-0.4,0.2-0.6,0.3c-0.6,0.4-1.2,0.9-1.8,1.3c-0.4,0.3-0.9,0.6-1.4,0.8c-1,0.3-2.6-0.4-3.7-0.6c-1.2-0.2-2.3-0.5-3.5-0.7
				c-3.1-0.6-6.2-1.3-9.3-2c-7.4-1.6-14.8-3.1-22.2-4.7c-5.4-1.1-10.8-2.3-16.2-3.4c-0.6-0.1-1.2-0.2-1.8-0.4l-2.1-8.4l-46.9-8.7
				l-8.5-49.2c-4.4,7-8.8,14.1-13.2,21.1c-0.1,0.1-0.1,0.2-0.2,0.3c-3.4,5.5-6.9,11-10.3,16.5c-3.4,5.4-6.3,11.9-10.8,16.4
				c-0.6,0.6-6,4.7-5.9,4.9c-4.8,4-9.6,8-14.4,12c-3.8,3.1-7.5,6.4-11.2,9.6c-4.3,3.7-0.3,0.3-9.1,8.7c-3,2.9-6.9,6.4-7.9,7.9
				c-1.8,2.8-3.7,5.7-5.8,8.8C-230.8,497.1-249.2,525.5-260.1,545.4"/>
			<polygon class="st2" points="-230.4,479.7 -275.2,460.6 -255.9,489.6 			"/>
			<polygon class="st2" points="-204.9,479.7 -160.1,460.6 -179.4,489.6 			"/>
			<path class="st2" d="M-253.9,566c2.7,9.2,5.5,18.4,8.1,27.7c0.1,0.5,0.3,1,0.7,1.4c0.3,0.3,0.8,0.4,1.2,0.6
				c7.4,1.9,14.9,3.7,22.3,5.6c1.2,0.3,2.4,0.6,3.7,0.6c0.1,0,0.2,0,0.3,0c1.4,0,2.9-0.4,4.3-0.7c7.2-1.8,14.5-3.7,21.7-5.5
				c0.6-0.1,1.2-0.3,1.6-0.8c0.3-0.3,0.4-0.8,0.5-1.2c2.7-9.3,5.3-18.6,8-27.9c1.9-6.8,3.9-13.6,5.9-20.4c0.2-0.8,0.4-1.5,0.7-2.3
				c2.4-7.9,4.8-15.9,7.3-23.7c0.8-2.7,1.6-5.4,2.9-7.9c1.8-3.3,4.4-6.1,6.9-8.7c3-3.1,5.9-6.2,8.9-9.4c0.5-0.5,0.9-1,1.4-1.5
				c7-7.3,13.9-14.6,20.9-21.9c-5.5-7.3-10.9-14.7-16.4-22c-0.8-1.1-1.6-2.1-2-3.4c-1.2-3.9,1.6-7.8,3.3-11.5
				c2.9-6.5,2.4-14,1.8-21.1c-0.6-7-1.1-14-1.7-20.9c-0.7-8.7-1.4-17.5-2.1-26.2c-13,12.6-26,25.2-39,37.8c-0.9,0.9-1.8,1.8-3,2.3
				c-1.7,0.7-3.6,0.5-5.3,0.2c-8.6-1.2-17.4-2.9-26.2-3.1c-9-0.2-18,1.8-27,3.1c-1.8,0.2-3.7,0.5-5.3-0.2c-1.1-0.5-2.1-1.4-3-2.3
				c-13-12.6-26-25.2-39-37.8c-0.6,8-1.3,16-1.9,24c-0.6,7.7-1.3,15.5-1.9,23.2c-0.6,7.1-1.1,14.7,1.8,21.1
				c1.7,3.7,4.5,7.6,3.3,11.5c-0.4,1.3-1.2,2.4-2,3.4c-5.4,7.3-10.9,14.7-16.4,22c7.1,7.5,14.3,15,21.4,22.5c0.5,0.5,0.9,1,1.4,1.5
				c2.8,2.9,5.6,5.8,8.3,8.8c2.6,2.7,5.2,5.4,6.9,8.7c1.3,2.5,2.1,5.2,2.9,7.9c2.1,8.8,4.9,17.4,7.6,26.1l0,0
				c1.2,3.8,2.4,7.5,3.5,11.3C-255.7,559.8-254.8,562.9-253.9,566z"/>
			<polygon class="st2" points="-198.4,583.3 -217.6,575.2 -236.8,583.3 -236.8,585.2 -217.6,577 -198.4,585.2 			"/>
		</g>
	</g>
	<polygon class="st3" points="-1030.3,533.9 -992.7,526.4 -1011.6,544.7 	"/>
	<polygon class="st3" points="-989.7,606 -965.4,581.8 -975.6,556.1 -973.6,556.1 -963.1,582.3 -987.3,606.5 -988.5,607.7 
		-990.5,606.7 	"/>
	<path class="st3" d="M-930.4,656.4c-3.7,1.7-14.8,4.5-18.5,6.3c-0.1,0.1-0.3,0.1-0.5,0.1c0,0,0,0-0.1,0s-0.2-0.1-0.3-0.2
		c-6.1-5.8-6.4-13.9-10.9-21.6c-3.6-6.2-9.3-10.8-14.5-15.7c-3.4-3.2-5-5.2-6.6-6.6c-2.9-2.7-6.9-5.1-10.3-7.3
		c-0.9-0.6-1.7-1-2.7-1.4c-1.4-0.6-2.9-1-4.3-1.3c-6-1.5-12-3.1-18-4.6c-9.5-2.4-19.3-5.1-29.2-5.1c-6.6,0-13.2,0-19.8-0.1
		c-12.4-0.1-24.8-0.4-37.1-0.6c-0.2,0-0.4,0-0.5-0.1c-0.1-0.1-0.2-0.3-0.2-0.4c-0.9-3.8-0.9-7.9-0.1-11.7c0-0.2,0.1-0.4,0.3-0.6
		c0.2-0.2,0.5-0.3,0.7-0.3s0.4-0.1,0.6-0.1l2.9-11.4l4.7,10.3c0.5-0.1,1-0.1,1.5-0.2l3.4-10.9l3.3,10c0.6-0.1,1.2-0.2,1.9-0.3
		l3.7-10.3l2.7,9.3c0.8-0.1,1.6-0.2,2.4-0.4l4.1-8.9l3,7.8c0.9-0.1,1.7-0.3,2.6-0.4l3-7.4l3.2,6.4c3.5-0.5,6.9-1.1,10.4-1.6
		c0.1,0,0.3,0,0.3-0.1c0.1-0.1,0.1-0.2,0.1-0.4c0-3.7-0.1-7.4-0.1-11c0-0.1,0-0.3-0.1-0.4c-0.1-0.1-0.2-0.1-0.3-0.1
		c-4.2-0.5-8.4-1-12.6-1.5l-3.8,6.3l-3.6-7.2c-0.5-0.1-1-0.1-1.6-0.2l-5.1,7.3l-3.3-8.3c-0.4,0-0.8-0.1-1.2-0.1l-4.7,8.5l-2.8-9.4
		c-0.7-0.1-1.3-0.2-2-0.2c-1.4,3.1-4.1,9-4.3,9.1c-0.2,0.1-2.3-6.9-3.3-10c-0.7-0.1-1.4-0.2-2.2-0.3l-4,9.3l-4.9-10.3
		c-0.6-0.1-1.2-0.1-1.8-0.2c-0.3,0-1.3-2.3-1.5-2.6c-0.7-1.2-1.5-2.5-2.2-3.7c-0.3-0.5-0.6-1-0.7-1.5c-0.2-0.5-0.2-1.1-0.3-1.6
		c-0.2-2.1-0.4-4.2-0.6-6.3c0-0.1,0-0.2,0-0.3s0.1-0.1,0.2-0.1c3.6-1.5,7.2-3,10.8-4.6c0.2-0.1,0.4-0.2,0.6-0.1
		c0.2,0,0.4,0.2,0.6,0.3c0.6,0.4,1.2,0.9,1.8,1.3c0.4,0.3,0.9,0.6,1.4,0.8c1,0.3,2.6-0.4,3.7-0.6c1.2-0.2,2.3-0.5,3.5-0.7
		c3.1-0.7,6.2-1.3,9.3-2c7.4-1.6,14.8-3.1,22.2-4.7c5.4-1.1,10.8-2.3,16.2-3.4c0.6-0.1,1.2-0.3,1.8-0.4l2.1-8.4l46.9-8.7l8.5-49.2
		c4.4,7,8.8,14.1,13.2,21.1c3.5,5.6,7,11.2,10.5,16.8c3.4,5.4,6.3,11.9,10.8,16.4c0.6,0.6,6,4.7,5.9,4.9c4.8,4,9.6,8,14.4,12
		c3.8,3.1,7.5,6.4,11.2,9.6c4.3,3.7,0.3,0.3,9.1,8.7c3,2.9,6.9,6.4,7.9,7.9c14.2,21.7,36.6,55.7,49,78.5
		c-0.4-0.7-46.4,9.4-49.3,10.7C-912.2,651.3-921.9,652.8-930.4,656.4z"/>
	<polygon class="st3" points="-764.8,534.1 -802.5,526.7 -783.6,545 	"/>
	<polygon class="st3" points="-805.5,606.3 -829.8,582.1 -819.6,556.4 -821.6,556.4 -832.1,582.6 -807.9,606.8 -806.7,607.9 
		-804.7,606.9 	"/>
	<path class="st3" d="M-864.8,656.6c3.7,1.7,14.8,4.5,18.5,6.3c0.1,0.1,0.3,0.1,0.5,0.1c0,0,0,0,0.1,0c0.1,0,0.2-0.1,0.3-0.2
		c6.1-5.8,6.4-13.9,10.9-21.6c3.6-6.2,9.3-10.8,14.5-15.7c3.4-3.2,5-5.2,6.6-6.6c2.9-2.7,6.9-5.1,10.3-7.3c0.9-0.6,1.7-1,2.7-1.4
		c1.4-0.6,2.9-1,4.3-1.3c6-1.5,12-3.1,18-4.6c9.5-2.4,19.3-5.1,29.2-5.1c6.6,0,13.2,0,19.8-0.1c12.4-0.1,24.8-0.4,37.1-0.6
		c0.2,0,0.4,0,0.5-0.1s0.2-0.3,0.2-0.4c0.9-3.8,0.9-7.9,0.1-11.7c0-0.2-0.1-0.4-0.3-0.6c-0.2-0.2-0.5-0.3-0.7-0.3s-0.4-0.1-0.6-0.1
		l-2.9-11.4l-4.7,10.3c-0.5-0.1-1-0.1-1.5-0.2l-3.4-10.9l-3.3,10c-0.6-0.1-1.2-0.2-1.9-0.3l-3.7-10.3l-2.7,9.3
		c-0.8-0.1-1.6-0.2-2.4-0.4l-4.1-8.9l-3,7.8c-0.9-0.1-1.7-0.3-2.6-0.4l-3-7.4l-3.2,6.4c-3.5-0.5-6.9-1.1-10.4-1.6
		c-0.1,0-0.3,0-0.3-0.1c-0.1-0.1-0.1-0.2-0.1-0.4c0-3.7,0.1-7.4,0.1-11c0-0.1,0-0.3,0.1-0.4c0.1-0.1,0.2-0.1,0.3-0.1
		c4.2-0.5,8.4-1,12.6-1.5l3.8,6.3l3.6-7.2c0.5-0.1,1-0.1,1.6-0.2l5.1,7.3l3.3-8.3c0.4,0,0.8-0.1,1.2-0.1l4.7,8.5l2.8-9.4
		c0.7-0.1,1.3-0.2,2-0.2c1.4,3.1,4.1,9,4.3,9.1s2.3-6.9,3.3-10c0.7-0.1,1.4-0.2,2.2-0.3l4,9.3l4.9-10.3c0.6-0.1,1.2-0.1,1.8-0.2
		c0.3,0,1.3-2.3,1.5-2.6c0.7-1.2,1.5-2.5,2.2-3.7c0.3-0.5,0.6-1,0.7-1.5c0.2-0.5,0.2-1.1,0.3-1.6c0.2-2.1,0.4-4.2,0.6-6.3
		c0-0.1,0-0.2,0-0.3s-0.1-0.1-0.2-0.1c-3.6-1.5-7.2-3-10.8-4.6c-0.2-0.1-0.4-0.2-0.6-0.1c-0.2,0-0.4,0.2-0.6,0.3
		c-0.6,0.4-1.2,0.9-1.8,1.3c-0.4,0.3-0.9,0.6-1.4,0.8c-1,0.3-2.6-0.4-3.7-0.6c-1.2-0.2-2.3-0.5-3.5-0.7c-3.1-0.7-6.2-1.3-9.3-2
		c-7.4-1.6-14.8-3.1-22.2-4.7c-5.4-1.1-10.8-2.3-16.2-3.4c-0.6-0.1-1.2-0.3-1.8-0.4l-2.1-8.4l-46.9-8.7l-8.5-49.2
		c-4.4,7-8.8,14.1-13.2,21.1c-3.5,5.6-7,11.2-10.5,16.8c-3.4,5.4-6.3,11.9-10.8,16.4c-0.6,0.6-6,4.7-5.9,4.9c-4.8,4-9.6,8-14.4,12
		c-3.8,3.1-7.5,6.4-11.2,9.6c-4.3,3.7-0.3,0.3-9.1,8.7c-3,2.9-6.9,6.4-7.9,7.9c-14.2,21.7-36.6,55.7-49,78.5
		c0.4-0.7,46.4,9.4,49.3,10.7C-882.9,651.5-873.3,653.1-864.8,656.6z"/>
	<g id="XMLID_8_" class="st1">
		<g>
			<polygon class="st2" points="-911.1,571.6 -955.9,552.5 -936.6,581.5 			"/>
			<polygon class="st2" points="-885.6,571.6 -840.8,552.5 -860,581.5 			"/>
			<path class="st2" d="M-898.3,693.7c1.4,0,2.9-0.4,4.3-0.7c7.2-1.8,14.5-3.7,21.7-5.5c0.6-0.2,1.2-0.3,1.6-0.8
				c0.3-0.3,0.4-0.8,0.5-1.2c7.1-24.8,14-49.8,21.9-74.4c0.8-2.7,1.6-5.4,2.9-7.9c1.8-3.3,4.4-6.1,6.9-8.7
				c10.4-10.9,20.8-21.8,31.1-32.8c-5.5-7.3-10.9-14.7-16.4-22c-0.8-1.1-1.6-2.1-2-3.4c-1.2-3.9,1.6-7.7,3.3-11.5
				c2.9-6.5,2.4-14,1.8-21.2c-1.3-15.7-2.5-31.4-3.8-47.2c-13,12.6-26,25.2-39,37.8c-0.9,0.9-1.8,1.8-3,2.3
				c-1.7,0.7-3.6,0.5-5.3,0.2c-8.6-1.2-17.4-2.9-26.2-3.1c-9-0.2-18,1.8-27,3.1c-1.8,0.2-3.7,0.5-5.3-0.2c-1.1-0.5-2.1-1.4-3-2.3
				c-13-12.6-26-25.2-39-37.8c-1.3,15.7-2.6,31.4-3.8,47.2c-0.6,7.1-1.1,14.7,1.8,21.2c1.7,3.7,4.5,7.6,3.3,11.5
				c-0.4,1.3-1.2,2.4-2,3.4c-5.5,7.3-10.9,14.7-16.4,22c10.4,10.9,20.8,21.8,31.1,32.8c2.6,2.7,5.2,5.4,6.9,8.7
				c1.3,2.5,2.1,5.2,2.9,7.9c3,12.6,7.4,25,11,37.4c3.6,12.3,7.3,24.6,10.9,37c0.1,0.5,0.3,1,0.7,1.4c0.3,0.3,0.8,0.4,1.2,0.5
				c7.4,1.9,14.9,3.7,22.3,5.6c1.2,0.3,2.4,0.6,3.7,0.6C-898.5,693.7-898.4,693.7-898.3,693.7z"/>
		</g>
	</g>
	<polygon class="st3" points="-879.1,675.2 -898.3,667.1 -917.5,675.2 -917.5,677 -898.3,668.9 -879.1,677 	"/>
</g>
<g id="Layer_11" class="st0">
	<g id="XMLID_7_" class="st1">
		<g>
			<path class="st10" d="M-442.9,446.1l22.6,21.9l22.4-13L-442.9,446.1z M-465.6,481.5l-12.6,31.3l28.9,28.9l1.5,1.4l2.4-1.2
				l-0.9-0.8l-29-28.8l12.1-30.7h-2.4V481.5z M-441.4,428l56,10.4l2.6,10c0.7,0.2,1.4,0.3,2.2,0.5c6.4,1.4,12.9,2.7,19.3,4.1
				c8.8,1.9,17.7,3.7,26.5,5.6c3.7,0.8,7.4,1.6,11.1,2.3c1.4,0.3,2.7,0.6,4.1,0.9c1.2,0.3,3.2,1.1,4.4,0.7c0.6-0.2,1.1-0.6,1.6-0.9
				c0.7-0.5,1.5-1.1,2.2-1.6c0.2-0.2,0.4-0.3,0.7-0.3c0.2,0,0.5,0.1,0.7,0.2c4.3,1.8,8.6,3.6,12.9,5.5c0.1,0,0.2,0.1,0.3,0.2
				s0.1,0.2,0,0.3c-0.2,2.5-0.5,5-0.7,7.5c-0.1,0.7-0.1,1.3-0.3,2c-0.2,0.6-0.5,1.2-0.9,1.8c-0.9,1.5-1.8,3-2.6,4.4
				c-0.2,0.4-1.4,3-1.8,3.1c-0.7,0.1-1.4,0.2-2.1,0.3l-5.9,12.3l-4.8-11.1c-0.9,0.1-1.7,0.2-2.6,0.3c-1.1,3.7-3.6,12.1-3.9,12
				c-0.2-0.1-3.4-7.2-5.1-10.9c-0.8,0.1-1.6,0.2-2.4,0.3l-3.3,11.2l-5.6-10.1c-0.5,0.1-1,0.1-1.5,0.2l-3.9,10l-6-8.8
				c-0.6,0.1-1.2,0.2-1.9,0.2l-4.3,8.5l-4.5-7.5c-5,0.6-10,1.2-15,1.8c-0.1,0-0.3,0-0.4,0.1c-0.1,0.1-0.1,0.3-0.1,0.5
				c-0.1,4.4-0.1,8.8-0.1,13.2c0,0.1,0,0.3,0.1,0.4c0.1,0.1,0.3,0.1,0.4,0.2c4.1,0.6,8.2,1.3,12.4,1.9l3.9-7.7l3.6,8.9
				c1,0.2,2,0.3,3.1,0.5l3.5-9.3l4.9,10.7c0.9,0.1,1.9,0.3,2.8,0.4l3.2-11.1l4.4,12.3c0.7,0.1,1.5,0.2,2.2,0.3l4-11.9l4.1,13
				c0.6,0.1,1.2,0.1,1.8,0.2l5.6-12.2l3.4,13.5c0.2,0.1,0.5,0.1,0.7,0.1c0.3,0.1,0.6,0.1,0.9,0.4c0.2,0.2,0.2,0.5,0.3,0.7
				c1,4.6,1,9.4-0.1,14c0,0.2-0.1,0.4-0.2,0.5c-0.2,0.1-0.4,0.1-0.6,0.1c-14.8,0.2-29.5,0.5-44.3,0.7c-7.9,0.1-15.7,0.1-23.6,0.2
				c-11.8,0-23.5,3.2-34.8,6.1c-7.2,1.8-14.3,3.7-21.5,5.5c-1.7,0.4-3.5,0.9-5.2,1.6c-1.1,0.5-2.2,1.1-3.2,1.7
				c-4.1,2.6-7.1,6.6-10.6,9.9c-2.8,2.6-5.6,5.3-8.4,7.9c-6.2,5.8-12.3,11.7-18.5,17.5c-7.3,6.9-14.6,13.9-21.9,20.8
				c-0.1,0.1-0.3,0.2-0.4,0.3c0,0,0,0-0.1,0c-0.2,0-0.4-0.1-0.6-0.1c-4.4-2.1-8.7-4.2-13.1-6.2c-8.4-3.9-16.8-7.8-25.2-11.8
				c3.3-10.8,6.6-21.6,9.9-32.4c3-9.9,5.4-20.2,10.3-29.4c3.3-6.1,7.9-10.6,12.4-15.7c3.4-3.9,7-7.5,10.4-11.3
				c8.1-8.8,16.3-17.6,24.4-26.4l-23.7-31.5c-0.2-0.3,6.3-5.1,7-5.9c5.3-5.4,8.9-13.2,12.9-19.6c4.2-6.7,8.4-13.4,12.6-20.1
				c5.2-8.4,10.5-16.8,15.7-25.2L-441.4,428z"/>
			<path class="st10" d="M-634.7,389.2c1.1,1.1,2.3,2.2,3.7,2.8c2,0.9,4.3,0.6,6.5,0.3c10.9-1.5,22-4,33-3.7
				c10.8,0.2,21.6,2.3,32.1,3.7c2.2,0.3,4.5,0.6,6.5-0.3c1.4-0.6,2.6-1.7,3.7-2.8c15.9-15.4,31.9-30.8,47.8-46.3
				c1.6,19.2,3.1,38.5,4.7,57.7c0.7,8.7,1.3,18-2.3,25.9c-2.1,4.5-5.5,9.3-4,14c0.5,1.6,1.5,2.9,2.4,4.2c6.7,9,13.4,17.9,20,26.9
				c-12.7,13.4-25.4,26.7-38.1,40.1c-3.1,3.3-6.3,6.6-8.5,10.7c-1.6,3-2.6,6.4-3.6,9.7c-9.7,30-18,60.7-26.8,91
				c-0.2,0.5-0.3,1.1-0.7,1.5c-0.5,0.6-1.3,0.8-2,1c-8.9,2.2-17.7,4.5-26.6,6.7c-1.7,0.4-3.5,0.9-5.2,0.9c-0.1,0-0.2,0-0.3,0
				c-1.5,0-3-0.4-4.5-0.8c-9.1-2.3-18.2-4.6-27.3-6.9c-0.5-0.1-1.1-0.3-1.5-0.7s-0.6-1.1-0.8-1.7c-4.3-15.1-8.9-30.2-13.3-45.3
				c-4.5-15.2-9.8-30.4-13.5-45.8c-1-3.3-2-6.6-3.6-9.7c-2.1-4.1-5.3-7.4-8.5-10.7c-12.7-13.4-25.4-26.7-38.1-40.1
				c6.7-9,13.4-18,20-26.9c1-1.3,1.9-2.6,2.4-4.2c1.5-4.8-2-9.5-4-14c-3.6-7.9-3-17.1-2.3-25.9c1.6-19.2,3.1-38.5,4.7-57.7
				C-666.6,358.4-650.6,373.8-634.7,389.2z M-591.9,601.5l-23.5,10v2.3l23.5-10l23.5,10v-2.3L-591.9,601.5z M-662.4,460.4l23.6,35.4
				l31.2-12.1L-662.4,460.4z M-576.3,483.8l31.2,12.1l23.6-35.4L-576.3,483.8z"/>
			<path class="st10" d="M-738.5,541.8l2.4,1.2l1.5-1.4l28.8-28.9l-12.6-31.2h-2.4l12.1,30.7l-29,28.8L-738.5,541.8z M-786.1,455
				l22.4,13l22.6-21.9L-786.1,455z M-845,488.6l-5.6,10.1l-3.3-11.2c-0.8-0.1-1.6-0.2-2.4-0.3c-1.7,3.7-4.9,10.7-5.1,10.9
				c-0.2,0.2-2.8-8.3-3.9-12c-0.9-0.1-1.7-0.2-2.6-0.3l-4.8,11.1l-5.8-12.3c-0.7-0.1-1.4-0.2-2.1-0.3c-0.4,0-1.6-2.7-1.8-3.1
				c-0.9-1.5-1.8-3-2.6-4.4c-0.3-0.6-0.7-1.1-0.9-1.8c-0.2-0.6-0.3-1.3-0.3-2c-0.2-2.5-0.5-5-0.7-7.5c0-0.1,0-0.2,0-0.3
				c0.1-0.1,0.2-0.1,0.2-0.2c4.3-1.8,8.6-3.6,12.9-5.5c0.2-0.1,0.4-0.2,0.7-0.2c0.3,0,0.5,0.2,0.7,0.3c0.7,0.5,1.5,1.1,2.2,1.6
				c0.5,0.4,1,0.7,1.6,0.9c1.1,0.3,3.1-0.5,4.4-0.7c1.4-0.3,2.7-0.6,4.1-0.9c3.7-0.8,7.4-1.6,11.1-2.3c8.8-1.9,17.7-3.7,26.5-5.6
				c6.4-1.4,12.8-2.7,19.3-4.1c0.7-0.1,1.4-0.3,2.2-0.5l2.6-10l56-10.4l10.1-58.7c5.2,8.4,10.5,16.8,15.7,25.2
				c4.2,6.7,8.4,13.4,12.6,20.1c4,6.4,7.6,14.2,12.9,19.6c0.7,0.7,7.2,5.6,7,5.9l-23.7,31.5c8.1,8.8,16.3,17.6,24.4,26.4
				c3.5,3.8,7.1,7.4,10.5,11.3c4.5,5.1,9.1,9.6,12.4,15.7c4.9,9.1,7.3,19.5,10.3,29.4c3.3,10.8,6.6,21.6,9.9,32.4
				c-8.4,3.9-16.8,7.8-25.2,11.8c-4.4,2-8.8,4.1-13.1,6.2c-0.2,0.1-0.4,0.2-0.6,0.1h-0.1c-0.2-0.1-0.3-0.2-0.4-0.3
				c-7.3-6.9-14.6-13.9-22-20.8c-6.2-5.8-12.3-11.7-18.5-17.5c-2.8-2.6-5.5-5.3-8.4-7.9c-3.5-3.2-6.5-7.2-10.6-9.9
				c-1-0.7-2.1-1.3-3.2-1.7c-1.6-0.7-3.4-1.2-5.2-1.6c-7.2-1.8-14.3-3.7-21.5-5.5c-11.3-2.9-23-6.1-34.8-6.1c-7.8,0-15.7,0-23.6-0.2
				c-14.8-0.2-29.6-0.4-44.3-0.7c-0.2,0-0.4,0-0.6-0.1c-0.1-0.1-0.2-0.3-0.2-0.5c-1.1-4.6-1.1-9.4-0.1-14c0.1-0.3,0.1-0.5,0.3-0.7
				c0.2-0.2,0.5-0.3,0.9-0.4c0.2-0.1,0.5-0.1,0.7-0.1l3.4-13.5l5.6,12.2c0.6-0.1,1.2-0.1,1.8-0.2l4.1-13l4,11.9
				c0.7-0.1,1.5-0.2,2.2-0.3l4.4-12.3l3.2,11.1c0.9-0.1,1.9-0.3,2.8-0.4l4.9-10.7l3.5,9.3c1-0.2,2-0.3,3.1-0.5l3.6-8.9l3.9,7.7
				c4.1-0.6,8.2-1.3,12.3-1.9c0.2,0,0.3-0.1,0.4-0.2c0.1-0.1,0.1-0.3,0.1-0.4c0-4.4-0.1-8.8-0.1-13.2c0-0.2,0-0.4-0.1-0.5
				s-0.2-0.1-0.4-0.1c-5-0.6-10-1.2-15-1.8l-4.5,7.5l-4.3-8.5c-0.6-0.1-1.3-0.2-1.9-0.2l-6,8.8l-3.9-10
				C-844.1,488.8-844.6,488.7-845,488.6z"/>
		</g>
		<g>
			<polygon class="st2" points="-607.5,483.8 -662.4,460.4 -638.8,495.8 			"/>
			<polygon class="st2" points="-576.3,483.8 -521.5,460.4 -545.1,495.8 			"/>
			<path class="st2" d="M-591.9,633.3c1.8,0,3.5-0.5,5.2-0.9c8.9-2.2,17.7-4.5,26.6-6.7c0.7-0.2,1.5-0.4,2-1c0.4-0.4,0.5-1,0.7-1.5
				c8.7-30.3,17.1-61,26.8-91c1-3.3,2-6.6,3.6-9.7c2.1-4.1,5.3-7.4,8.5-10.7c12.7-13.4,25.4-26.7,38.1-40.1c-6.7-9-13.4-18-20-26.9
				c-1-1.3-1.9-2.6-2.4-4.2c-1.5-4.8,2-9.5,4-14c3.6-7.9,3-17.1,2.3-25.9c-1.6-19.2-3.1-38.5-4.7-57.7
				c-15.9,15.4-31.9,30.8-47.8,46.3c-1.1,1.1-2.3,2.2-3.7,2.8c-2,0.9-4.3,0.6-6.5,0.3c-10.5-1.5-21.3-3.5-32.1-3.7
				c-11.1-0.2-22.1,2.2-33,3.7c-2.2,0.3-4.5,0.6-6.5-0.3c-1.4-0.6-2.5-1.7-3.7-2.8c-15.9-15.4-31.9-30.8-47.8-46.3
				c-1.6,19.2-3.1,38.5-4.7,57.7c-0.7,8.7-1.3,18,2.3,25.9c2.1,4.5,5.5,9.3,4,14c-0.5,1.6-1.5,2.9-2.4,4.2c-6.7,9-13.4,17.9-20,26.9
				c12.7,13.4,25.4,26.7,38.1,40.1c3.1,3.3,6.3,6.6,8.5,10.7c1.6,3,2.6,6.4,3.6,9.7c3.7,15.4,9,30.6,13.5,45.8
				c4.5,15.1,9,30.2,13.3,45.3c0.2,0.6,0.4,1.2,0.8,1.7c0.4,0.4,1,0.5,1.5,0.7c9.1,2.3,18.2,4.6,27.3,6.9c1.5,0.4,3,0.7,4.5,0.8
				C-592.2,633.3-592.1,633.3-591.9,633.3z"/>
			<path class="st2" d="M-533.7,554.4c3-9.9,5.4-20.2,10.3-29.4c3.3-6.1,7.9-10.6,12.4-15.7c3.4-3.9,7-7.5,10.4-11.3
				c8.1-8.8,16.3-17.6,24.4-26.4l-23.7-31.5c-0.2-0.3,6.3-5.1,7-5.9c5.3-5.4,8.9-13.2,12.9-19.6c4.2-6.7,8.4-13.4,12.6-20.1
				c5.2-8.4,10.5-16.8,15.7-25.2l10.1,58.7l56,10.4l2.6,10c0.7,0.2,1.4,0.3,2.2,0.5c6.4,1.4,12.9,2.7,19.3,4.1
				c8.8,1.9,17.7,3.7,26.5,5.6c3.7,0.8,7.4,1.6,11.1,2.3c1.4,0.3,2.7,0.6,4.1,0.9c1.2,0.3,3.2,1.1,4.4,0.7c0.6-0.2,1.1-0.6,1.6-0.9
				c0.7-0.5,1.5-1.1,2.2-1.6c0.2-0.2,0.4-0.3,0.7-0.3c0.2,0,0.5,0.1,0.7,0.2c4.3,1.8,8.6,3.6,12.9,5.5c0.1,0,0.2,0.1,0.3,0.2
				s0.1,0.2,0,0.3c-0.2,2.5-0.5,5-0.7,7.5c-0.1,0.7-0.1,1.3-0.3,2c-0.2,0.6-0.5,1.2-0.9,1.8c-0.9,1.5-1.8,3-2.6,4.4
				c-0.2,0.4-1.4,3-1.8,3.1c-0.7,0.1-1.4,0.2-2.1,0.3l-5.9,12.3l-4.8-11.1c-0.9,0.1-1.7,0.2-2.6,0.3c-1.1,3.7-3.6,12.1-3.9,12
				c-0.2-0.1-3.4-7.2-5.1-10.9c-0.8,0.1-1.6,0.2-2.4,0.3l-3.3,11.2L-339,489c-0.5,0.1-1,0.1-1.5,0.2l-3.9,10l-6-8.8
				c-0.6,0.1-1.2,0.2-1.9,0.2l-4.3,8.5l-4.5-7.5c-5,0.6-10,1.2-15,1.8c-0.1,0-0.3,0-0.4,0.1c-0.1,0.1-0.1,0.3-0.1,0.5
				c-0.1,4.4-0.1,8.8-0.1,13.2c0,0.1,0,0.3,0.1,0.4c0.1,0.1,0.3,0.1,0.4,0.2c4.1,0.6,8.2,1.3,12.4,1.9l3.9-7.7l3.6,8.9
				c1,0.2,2,0.3,3.1,0.5l3.5-9.3l4.9,10.7c0.9,0.1,1.9,0.3,2.8,0.4l3.2-11.1l4.4,12.3c0.7,0.1,1.5,0.2,2.2,0.3l4-11.9l4.1,13
				c0.6,0.1,1.2,0.1,1.8,0.2l5.6-12.2l3.4,13.5c0.2,0.1,0.5,0.1,0.7,0.1c0.3,0.1,0.6,0.1,0.9,0.4c0.2,0.2,0.2,0.5,0.3,0.7
				c1,4.6,1,9.4-0.1,14c0,0.2-0.1,0.4-0.2,0.5c-0.2,0.1-0.4,0.1-0.6,0.1c-14.8,0.2-29.5,0.5-44.3,0.7c-7.9,0.1-15.7,0.1-23.6,0.2
				c-11.8,0-23.5,3.2-34.8,6.1c-7.2,1.8-14.3,3.7-21.5,5.5c-1.7,0.4-3.5,0.9-5.2,1.6c-1.1,0.5-2.2,1.1-3.2,1.7
				c-4.1,2.6-7.1,6.6-10.6,9.9c-2.8,2.6-5.6,5.3-8.4,7.9c-6.2,5.8-12.3,11.7-18.5,17.5c-7.3,6.9-14.6,13.9-21.9,20.8
				c-0.1,0.1-0.3,0.2-0.4,0.3c0,0,0,0-0.1,0c-0.2,0-0.4-0.1-0.6-0.1c-4.4-2.1-8.7-4.2-13.1-6.2c-8.4-3.9-16.8-7.8-25.2-11.8
				C-540.2,576-536.9,565.2-533.7,554.4z"/>
			<path class="st2" d="M-650.3,554.4c-3-9.9-5.4-20.2-10.3-29.4c-3.3-6.1-7.9-10.6-12.4-15.7c-3.4-3.9-7-7.5-10.5-11.3
				c-8.1-8.8-16.3-17.6-24.4-26.4l23.7-31.5c0.2-0.3-6.3-5.1-7-5.9c-5.3-5.4-8.9-13.2-12.9-19.6c-4.2-6.7-8.4-13.4-12.6-20.1
				c-5.2-8.4-10.5-16.8-15.7-25.2l-10.1,58.7l-56,10.4l-2.6,10c-0.7,0.2-1.4,0.3-2.2,0.5c-6.4,1.4-12.8,2.7-19.3,4.1
				c-8.8,1.9-17.7,3.7-26.5,5.6c-3.7,0.8-7.4,1.6-11.1,2.3c-1.4,0.3-2.7,0.6-4.1,0.9c-1.2,0.3-3.2,1.1-4.4,0.7
				c-0.6-0.2-1.1-0.6-1.6-0.9c-0.7-0.5-1.5-1.1-2.2-1.6c-0.2-0.2-0.4-0.3-0.7-0.3c-0.2,0-0.5,0.1-0.7,0.2c-4.3,1.8-8.6,3.6-12.9,5.5
				c-0.1,0-0.2,0.1-0.2,0.2c-0.1,0.1-0.1,0.2,0,0.3c0.2,2.5,0.4,5,0.7,7.5c0.1,0.7,0.1,1.3,0.3,2c0.2,0.6,0.5,1.2,0.9,1.8
				c0.9,1.5,1.8,3,2.6,4.4c0.2,0.4,1.4,3,1.8,3.1c0.7,0.1,1.4,0.2,2.1,0.3l5.8,12.3l4.8-11.1c0.9,0.1,1.7,0.2,2.6,0.3
				c1.1,3.7,3.6,12.1,3.9,12c0.2-0.1,3.4-7.2,5.1-10.9c0.8,0.1,1.6,0.2,2.4,0.3l3.3,11.2l5.6-10.1c0.5,0.1,1,0.1,1.5,0.2l3.9,10
				l6-8.8c0.6,0.1,1.3,0.2,1.9,0.2l4.3,8.5l4.5-7.5c5,0.6,10,1.2,15,1.8c0.1,0,0.3,0,0.4,0.1c0.1,0.1,0.1,0.3,0.1,0.5
				c0,4.4,0.1,8.8,0.1,13.2c0,0.1,0,0.3-0.1,0.4c-0.1,0.1-0.3,0.1-0.4,0.2c-4.1,0.6-8.2,1.3-12.3,1.9l-3.9-7.7l-3.6,8.9
				c-1,0.2-2,0.3-3.1,0.5l-3.5-9.3l-4.9,10.7c-0.9,0.1-1.9,0.3-2.8,0.4l-3.2-11.1l-4.4,12.3c-0.8,0.1-1.5,0.2-2.2,0.3l-4-11.9
				l-4.1,13c-0.6,0.1-1.2,0.1-1.8,0.2l-5.6-12.2l-3.4,13.5c-0.2,0.1-0.5,0.1-0.7,0.1c-0.3,0.1-0.7,0.1-0.9,0.4
				c-0.2,0.2-0.2,0.5-0.3,0.7c-1,4.6-1,9.4,0.1,14c0.1,0.2,0.1,0.4,0.2,0.5c0.2,0.1,0.4,0.1,0.6,0.1c14.8,0.2,29.5,0.5,44.3,0.7
				c7.9,0.1,15.7,0.1,23.6,0.2c11.8,0,23.5,3.2,34.8,6.1c7.2,1.8,14.3,3.7,21.5,5.5c1.8,0.4,3.5,0.9,5.2,1.6
				c1.1,0.5,2.2,1.1,3.2,1.7c4.1,2.6,7.1,6.6,10.6,9.9c2.8,2.6,5.6,5.3,8.4,7.9c6.2,5.8,12.3,11.7,18.5,17.5
				c7.3,6.9,14.6,13.9,22,20.8c0.1,0.1,0.2,0.2,0.4,0.3h0.1c0.2,0,0.4-0.1,0.6-0.1c4.4-2.1,8.7-4.2,13.1-6.2
				c8.4-3.9,16.8-7.8,25.2-11.8C-643.8,576-647,565.2-650.3,554.4z"/>
			<polygon class="st2" points="-397.9,455 -442.9,446.1 -420.3,467.9 			"/>
			<polygon class="st2" points="-786.1,455 -741.1,446.1 -763.7,467.9 			"/>
			<polygon class="st2" points="-446.4,541 -475.4,512.2 -463.3,481.5 -465.6,481.5 -478.2,512.8 -449.3,541.7 -447.8,543 
				-445.5,541.8 			"/>
			<polygon class="st2" points="-568.5,611.4 -591.9,601.5 -615.4,611.4 -615.4,613.7 -591.9,603.7 -568.5,613.7 			"/>
			<polygon class="st2" points="-737.6,541 -708.6,512.2 -720.7,481.5 -718.4,481.5 -705.8,512.8 -734.7,541.7 -736.1,543 
				-738.5,541.8 			"/>
		</g>
	</g>
</g>
<g id="Layer_12" class="st0">
	<g id="XMLID_12_" class="st1">
		<g>
			<path class="st9" d="M355.3,515.6c4.2,7.3,8.4,14.6,12.6,21.9c-8.9,13-17.8,26-26.8,39c-2.2,3.3-4.5,6.6-6.2,10.3
				c-1.9,4.3-3,9-4,13.6c-1.3,5.9-2.6,11.7-3.9,17.6c-0.3,1.5-0.7,3-1.5,4.1c-0.9,1.2-2.1,1.9-3.4,2.5c-12.4,6-25.9,8.9-39.4,8.8
				c-13.7-0.1-27.4-3.4-39.9-9.8c-1-0.5-2.1-1.1-2.9-2.1c-0.8-1.1-1.1-2.5-1.4-3.9c-1.3-5.8-2.6-11.5-3.9-17.3
				c-1-4.6-2.1-9.3-4-13.6c-1.1-2.5-2.5-4.7-3.9-6.9c4.8-16.8,9.7-33.5,15.1-50.1l8.4,11.1l24-14.2l-27.5-10.1
				c-0.1,0.1-0.2,0.3-0.3,0.4c2.2-4,5.4-7.4,8.5-10.7c7.1-7.4,14.1-14.9,21.2-22.3c10.5-0.8,21.1,0.3,31.3,3.3c0.1,0,0.1,0,0.1-0.1
				c14.1-19.6,28.2-47.9,42.2-67.5c0,2.1,0.3,4.4,0.5,6.5c1,12.8,2,25.6,3,38.3c0.4,5.8,1.5,12,1,17.8c-0.6,6.3-1.1,12.7-1.7,19
				c-0.2,2.8-0.3,5.6,0.2,8.3c0.1,0.5,0.1,0.5,0.1,0.5C353.3,512.2,354.3,513.9,355.3,515.6z M314,540.8l24-31.8l-48,17.5L314,540.8
				z M317.6,611.8l-3.5-30l-5.4,1.6l-5.2,20.6l-6.7-20.9l-13.6,0.3l-13.6-0.3l-6.7,20.9l-5.2-20.6l-5.4-1.6l-3.5,30l17.7,8.1
				l6.2-22.9l5.1,23.1h5.4h5.4l5.1-23.1l6.2,22.9L317.6,611.8z M297.2,566.5V565l-15.5-6.6l-15.5,6.6v1.5l15.5-6.6L297.2,566.5z"/>
			<path class="st9" d="M271.3,435.5c6.9,9.3,13.9,18.7,20.8,28c-13.2,13.9-26.4,27.8-39.6,41.7c-3.3,3.4-6.5,6.9-8.8,11.1
				c-1.7,3.1-2.7,6.6-3.7,10.1c-10,31.2-18.7,63-27.8,94.6c-0.2,0.6-0.3,1.1-0.7,1.6c-0.5,0.6-1.3,0.8-2.1,1
				c-9.2,2.3-18.4,4.7-27.6,7c-1.8,0.4-3.6,0.9-5.4,0.9c-0.1,0-0.2,0-0.3,0c-1.6,0-3.1-0.4-4.7-0.8c-9.5-2.4-18.9-4.8-28.4-7.1
				c-0.6-0.1-1.1-0.3-1.6-0.7s-0.7-1.1-0.8-1.7c-4.5-15.7-9.2-31.4-13.8-47c-4.6-15.8-10.1-31.6-14-47.6c-1-3.4-2-6.9-3.7-10.1
				c-2.2-4.2-5.5-7.7-8.8-11.1c-13.2-13.9-26.4-27.8-39.6-41.7c6.9-9.3,13.9-18.6,20.8-28c1-1.3,2-2.7,2.5-4.3
				c1.6-5-2.1-9.9-4.2-14.6c-3.7-8.2-3.1-17.8-2.3-26.9c1.6-20,3.2-40,4.9-60c16.5,16,33.1,32,49.7,48.1c1.2,1.1,2.3,2.3,3.8,2.9
				c2.1,0.9,4.5,0.6,6.8,0.3c11.4-1.6,22.8-4.1,34.3-3.9c11.2,0.2,22.5,2.4,33.3,3.9c2.3,0.3,4.7,0.6,6.8-0.3
				c1.5-0.6,2.7-1.8,3.8-2.9c16.5-16,33.1-32,49.7-48.1c1.6,20,3.2,40,4.9,60c0.7,9.1,1.4,18.6-2.3,26.9c-2.1,4.7-5.8,9.6-4.2,14.6
				C269.3,432.7,270.3,434.1,271.3,435.5z M225,488.5l24.5-36.8l-57,24.3L225,488.5z M200.8,611v-2.4l-24.4-10.3L152,608.6v2.4
				l24.4-10.4L200.8,611z M127.7,488.5l32.5-12.5l-57-24.3L127.7,488.5z"/>
			<path class="st9" d="M126,579.8c-1.4,2.2-2.8,4.5-3.9,6.9c-1.9,4.3-3,8.9-4,13.6c-1.3,5.8-2.6,11.5-3.9,17.3
				c-0.3,1.4-0.6,2.8-1.4,3.9c-0.7,1-1.8,1.6-2.8,2.1c-12.5,6.4-26.2,9.7-39.9,9.8c-13.5,0.1-27-2.8-39.4-8.8
				c-1.2-0.6-2.5-1.3-3.4-2.5c-0.8-1.2-1.2-2.7-1.5-4.1c-1.3-5.9-2.6-11.7-3.9-17.6c-1-4.6-2.1-9.3-4-13.6c-1.7-3.7-3.9-7-6.2-10.3
				c-8.9-13-17.8-26-26.8-39c4.2-7.3,8.4-14.6,12.6-21.9c1-1.7,2-3.5,2.5-5.4c0,0,0,0,0.1-0.5c0.5-2.7,0.4-5.5,0.2-8.3
				c-0.6-6.3-1.1-12.7-1.7-19c-0.5-5.8,0.6-12,1-17.8c1-12.8,2-25.5,3-38.3c0.2-2.1,0.5-4.4,0.5-6.5c14.1,19.6,28.2,47.9,42.2,67.5
				c0,0.1,0,0.1,0.1,0.1c10.2-3,20.8-4,31.3-3.3c7.1,7.4,14.1,14.9,21.2,22.3c3.1,3.3,6.3,6.6,8.5,10.7c-0.1-0.1-0.2-0.3-0.3-0.4
				l-27.5,10.1l24,14.2l8.4-11.1C116.3,546.3,121.2,563,126,579.8z M103.9,611.8l-3.5-30l-5.4,1.6L89.8,604l-6.7-20.9l-13.6,0.3
				l-13.6-0.3L49.2,604L44,583.4l-5.4-1.6l-3.5,30l17.7,8.1L59,597l5.1,23.1h5.4h5.4L80,597l6.2,22.9L103.9,611.8z M86.5,566.5V565
				L71,558.4L55.5,565v1.5l15.5-6.6L86.5,566.5z M38.8,540.8l24-14.2l-48-17.5L38.8,540.8z"/>
		</g>
		<g>
			<polygon class="st5" points="290,526.6 338,509.1 314,540.8 			"/>
			<polygon class="st5" points="283.2,583.3 269.6,583.1 262.9,603.9 257.8,583.3 252.4,581.7 248.9,611.8 266.6,619.9 272.8,597 
				277.8,620.1 283.2,620.1 288.6,620.1 293.7,597 299.9,619.9 317.6,611.8 314.1,581.7 308.7,583.3 303.5,603.9 296.8,583.1 			"/>
			<path class="st5" d="M241.8,529.7c-5.3,16.6-10.2,33.3-15.1,50.1c1.4,2.2,2.8,4.5,3.9,6.9c1.9,4.3,3,8.9,4,13.6
				c1.3,5.8,2.6,11.5,3.9,17.3c0.3,1.4,0.6,2.8,1.4,3.9c0.8,1,1.8,1.6,2.9,2.1c12.5,6.4,26.2,9.7,39.9,9.8c13.5,0.1,27-2.8,39.4-8.8
				c1.2-0.6,2.5-1.3,3.4-2.5c0.8-1.2,1.2-2.7,1.5-4.1c1.3-5.9,2.6-11.7,3.9-17.6c1-4.6,2.1-9.3,4-13.6c1.7-3.7,3.9-7,6.2-10.3
				c8.9-13,17.8-26,26.8-39c-4.2-7.3-8.4-14.6-12.6-21.9c-1-1.7-2-3.5-2.5-5.4c0,0,0,0-0.1-0.5c-0.5-2.7-0.4-5.5-0.2-8.3
				c0.6-6.3,1.1-12.7,1.7-19c0.5-5.8-0.6-12-1-17.8c-1-12.8-2-25.5-3-38.3c-0.2-2.1-0.5-4.4-0.5-6.5c-14.1,19.6-28.2,47.9-42.2,67.5
				c0,0.1,0,0.1-0.1,0.1c-10.2-3-20.8-4-31.3-3.3c-7.1,7.4-14.1,14.9-21.2,22.3"/>
			<path class="st5" d="M246.5,517c2.2-4,5.4-7.4,8.5-10.7"/>
			<polygon class="st5" points="160.2,476 103.2,451.7 127.7,488.5 			"/>
			<polygon class="st5" points="192.6,476 249.6,451.7 225,488.5 			"/>
			<path class="st5" d="M176.4,631.3c1.8,0,3.6-0.5,5.4-0.9c9.2-2.3,18.4-4.6,27.6-7c0.8-0.2,1.5-0.4,2.1-1c0.4-0.4,0.5-1,0.7-1.6
				c9.1-31.5,17.8-63.3,27.8-94.6c1-3.4,2-6.9,3.7-10.1c2.2-4.2,5.5-7.7,8.8-11.1c13.2-13.9,26.4-27.8,39.6-41.7
				c-6.9-9.3-13.9-18.6-20.8-28c-1-1.3-2-2.7-2.5-4.3c-1.6-5,2.1-9.9,4.2-14.6c3.7-8.2,3.1-17.8,2.3-26.9c-1.6-20-3.2-40-4.9-60
				c-16.5,16-33.1,32-49.7,48.1c-1.2,1.1-2.3,2.3-3.8,2.9c-2.1,0.9-4.5,0.6-6.8,0.3c-10.9-1.5-22.2-3.7-33.3-3.9
				c-11.5-0.2-22.9,2.3-34.3,3.9c-2.3,0.3-4.7,0.6-6.8-0.3c-1.5-0.6-2.6-1.8-3.8-2.9c-16.6-16-33.1-32-49.7-48.1
				c-1.6,20-3.2,40-4.9,60c-0.7,9.1-1.4,18.6,2.3,26.9c2.1,4.7,5.8,9.6,4.2,14.6c-0.5,1.6-1.5,3-2.5,4.3c-6.9,9.3-13.9,18.7-20.8,28
				c13.2,13.9,26.4,27.8,39.6,41.7c3.2,3.4,6.5,6.9,8.8,11.1c1.7,3.1,2.7,6.6,3.7,10.1c3.9,16,9.4,31.8,14,47.6
				c4.6,15.7,9.3,31.3,13.8,47c0.2,0.6,0.4,1.3,0.8,1.7s1,0.5,1.6,0.7c9.5,2.4,18.9,4.8,28.4,7.1c1.5,0.4,3.1,0.8,4.7,0.8
				C176.2,631.3,176.3,631.3,176.4,631.3z"/>
			<polygon class="st5" points="200.8,608.6 176.4,598.3 152,608.6 152,611 176.4,600.6 200.8,611 			"/>
			<polygon class="st5" points="297.2,565 281.7,558.4 266.3,565 266.3,566.5 281.7,559.9 297.2,566.5 			"/>
			<polygon class="st5" points="62.8,526.6 14.8,509.1 38.8,540.8 			"/>
			<polygon class="st5" points="69.5,583.3 83.1,583.1 89.8,603.9 95,583.3 100.4,581.7 103.9,611.8 86.2,619.9 80,597 74.9,620.1 
				69.5,620.1 64.2,620.1 59.1,597 52.9,619.9 35.2,611.8 38.7,581.7 44.1,583.3 49.2,603.9 55.9,583.1 			"/>
			<path class="st5" d="M111,529.7c5.3,16.6,10.2,33.3,15.1,50.1c-1.4,2.2-2.8,4.5-3.9,6.9c-1.9,4.3-3,8.9-4,13.6
				c-1.3,5.8-2.6,11.5-3.9,17.3c-0.3,1.4-0.6,2.8-1.4,3.9c-0.7,1-1.8,1.6-2.8,2.1c-12.5,6.4-26.2,9.7-39.9,9.8
				c-13.5,0.1-27-2.8-39.4-8.8c-1.2-0.6-2.5-1.3-3.4-2.5c-0.8-1.2-1.2-2.7-1.5-4.1c-1.3-5.9-2.6-11.7-3.9-17.6
				c-1-4.6-2.1-9.3-4-13.6c-1.7-3.7-3.9-7-6.2-10.3c-8.9-13-17.8-26-26.8-39c4.2-7.3,8.4-14.6,12.6-21.9c1-1.7,2-3.5,2.5-5.4
				c0,0,0,0,0.1-0.5c0.5-2.7,0.4-5.5,0.2-8.3c-0.6-6.3-1.1-12.7-1.7-19c-0.5-5.8,0.6-12,1-17.8c1-12.8,2-25.5,3-38.3
				c0.2-2.1,0.5-4.4,0.5-6.5c14.1,19.6,28.2,47.9,42.2,67.5c0,0.1,0,0.1,0.1,0.1c10.2-3,20.8-4,31.3-3.3
				c7.1,7.4,14.1,14.9,21.2,22.3c3.1,3.3,6.3,6.6,8.5,10.7"/>
			<path class="st5" d="M111,529.7l-8.4,11.1l-24-14.2l27.5-10.1c0.1,0.1,0.2,0.3,0.3,0.4"/>
			<polygon class="st5" points="55.5,565 71,558.4 86.5,565 86.5,566.5 71,559.9 55.5,566.5 			"/>
		</g>
	</g>
</g>
<g id="Layer_6">
	<g id="XMLID_4_">
		<g>
			<path class="st8" d="M311.3,146.5c4.3,5.8,8.6,11.5,12.9,17.3c-8.1,8.6-16.3,17.1-24.4,25.7c-2,2.1-4,4.3-5.4,6.9
				c-1,1.9-1.7,4.1-2.3,6.2c-2.4,9.9-5.8,19.6-8.7,29.4c-2.9,9.7-5.8,19.3-8.5,29c-0.1,0.4-0.2,0.8-0.5,1.1s-0.6,0.3-1,0.4
				c-5.8,1.5-11.7,2.9-17.5,4.4c-0.9,0.2-1.9,0.5-2.9,0.5c-0.1,0-0.1,0-0.2,0c-1.1,0-2.2-0.3-3.3-0.6c-5.7-1.4-11.4-2.9-17.1-4.3
				c-0.5-0.1-1-0.3-1.3-0.6c-0.2-0.3-0.3-0.6-0.4-0.9c-5.6-19.5-11-39.1-17.2-58.4c-0.1-0.4-0.2-0.8-0.4-1.1
				c2.8-8.9,5.6-17.8,7.7-26.9c0.9-3,1.8-6.1,3.3-8.9c2-3.7,4.9-6.8,7.8-9.9c11.7-12.3,23.4-24.6,35.1-36.9c-2-2.6-3.9-5.3-5.9-7.9
				c4.2,0.5,8.3,1.3,12.5,1.9c1.4,0.2,2.9,0.4,4.2-0.2c0.9-0.4,1.6-1.1,2.4-1.8c10.2-9.9,20.4-19.8,30.7-29.7c1,12.3,2,24.7,3,37
				c0.5,5.6,0.9,11.5-1.5,16.6c-1.3,2.9-3.6,5.9-2.6,9C310,144.8,310.7,145.6,311.3,146.5z M282.7,179.2l15.1-22.7l-35.2,15
				L282.7,179.2z M267.7,254.8v-1.5l-15.1-6.4l-15,6.4v1.5l15-6.4L267.7,254.8z M222.6,179.2l20-7.7l-17.4-7.4
				c-0.3,0.5-0.6,1-0.9,1.6c-1.5,2.8-2.4,5.9-3.3,8.9c-0.1,0.5-0.3,1.1-0.4,1.6L222.6,179.2z"/>
			<path class="st8" d="M246.2,93.8c6.2,8.3,12.3,16.5,18.5,24.8c-11.7,12.3-23.4,24.6-35.1,36.9c-2.9,3-5.8,6.1-7.8,9.9
				c-1.5,2.8-2.4,5.9-3.3,8.9c-8.9,27.7-16.6,55.9-24.7,83.9c-0.1,0.5-0.3,1-0.6,1.4c-0.5,0.5-1.2,0.7-1.8,0.9
				c-8.2,2.1-16.3,4.1-24.5,6.2c-1.6,0.4-3.2,0.8-4.8,0.8c-0.1,0-0.2,0-0.3,0c-1.4,0-2.8-0.4-4.1-0.7c-8.4-2.1-16.8-4.2-25.2-6.3
				c-0.5-0.1-1-0.3-1.4-0.6c-0.4-0.4-0.6-1-0.8-1.5c-4-13.9-8.2-27.8-12.2-41.7c-4.1-14-9-28-12.4-42.2c-0.9-3-1.8-6.1-3.3-8.9
				c-2-3.7-4.9-6.8-7.8-9.9c-11.7-12.3-23.4-24.6-35.1-36.9c6.1-8.3,12.3-16.5,18.5-24.8c0.9-1.2,1.8-2.4,2.2-3.8
				c1.4-4.4-1.8-8.7-3.7-12.9c-3.3-7.3-2.7-15.8-2.1-23.9c1.4-17.7,2.9-35.5,4.3-53.2c14.7,14.2,29.4,28.4,44,42.6
				c1,1,2.1,2,3.4,2.6c1.9,0.8,4,0.5,6,0.3c10.1-1.4,20.2-3.6,30.4-3.4c9.9,0.2,19.9,2.1,29.5,3.4c2,0.3,4.1,0.5,6-0.3
				c1.3-0.5,2.3-1.6,3.4-2.6c14.7-14.2,29.4-28.4,44-42.6c1.4,17.7,2.9,35.5,4.3,53.2c0.6,8,1.2,16.5-2.1,23.9
				c-1.9,4.2-5.1,8.5-3.7,12.9C244.4,91.4,245.3,92.6,246.2,93.8z M205.2,140.8l21.7-32.7l-50.5,21.5L205.2,140.8z M183.6,249.4
				v-2.1l-21.6-9.2l-21.6,9.2v2.1l21.6-9.2L183.6,249.4z M118.9,140.8l28.8-11.1l-50.5-21.5L118.9,140.8z"/>
			<path class="st8" d="M111.2,201.4c-0.1,0.4-0.2,0.8-0.3,1.1c-6.2,19.3-11.6,38.9-17.2,58.4c-0.1,0.3-0.2,0.7-0.4,0.9
				c-0.3,0.4-0.8,0.5-1.3,0.6c-5.7,1.4-11.4,2.9-17.1,4.3c-1.1,0.3-2.2,0.5-3.3,0.6c-0.1,0-0.1,0-0.2,0c-1,0-1.9-0.3-2.9-0.5
				c-5.8-1.5-11.7-2.9-17.5-4.4c-0.4-0.1-0.7-0.2-1-0.4c-0.3-0.3-0.4-0.7-0.5-1.1c-2.8-9.7-5.7-19.4-8.5-29
				c-2.9-9.8-6.3-19.5-8.7-29.4c-0.6-2.1-1.3-4.3-2.3-6.2c-1.4-2.6-3.4-4.7-5.4-6.9c-8.1-8.6-16.3-17.1-24.4-25.7
				c4.3-5.8,8.6-11.5,12.9-17.3c0.6-0.8,1.2-1.7,1.6-2.7c1-3.1-1.3-6.1-2.6-9c-2.3-5.1-1.9-11-1.5-16.6c1-12.3,2-24.7,3-37
				C23.8,91,34,100.9,44.3,110.8c0.7,0.7,1.5,1.4,2.4,1.8c1.3,0.6,2.8,0.4,4.2,0.2c4.1-0.6,8.3-1.4,12.5-1.9c-2,2.6-3.9,5.3-5.9,7.9
				c11.7,12.3,23.4,24.6,35.1,36.9c2.9,3,5.8,6.1,7.8,9.9c1.5,2.8,2.4,5.9,3.3,8.9C105.7,183.6,108.4,192.5,111.2,201.4z
				 M103.7,176.2c-0.1-0.5-0.3-1.1-0.4-1.6c-0.9-3-1.8-6.1-3.3-8.9c-0.3-0.5-0.6-1.1-0.9-1.6l-17.4,7.4l20,7.7L103.7,176.2z
				 M86.6,254.8v-1.5l-15-6.4l-15.1,6.4v1.5l15.1-6.4L86.6,254.8z M41.5,179.2l20.1-7.7l-35.2-15L41.5,179.2z"/>
		</g>
		<g>
			<polygon class="st7" points="147.6,129.7 97.1,108.2 118.9,140.8 			"/>
			<polygon class="st7" points="176.4,129.7 226.9,108.2 205.2,140.8 			"/>
			<path class="st7" d="M162,267.5c1.6,0,3.2-0.4,4.8-0.8c8.2-2.1,16.3-4.1,24.5-6.2c0.7-0.2,1.4-0.4,1.8-0.9
				c0.3-0.4,0.5-0.9,0.6-1.4c8.1-28,15.8-56.2,24.7-83.9c0.9-3,1.8-6.1,3.3-8.9c2-3.7,4.9-6.8,7.8-9.9
				c11.7-12.3,23.4-24.6,35.1-36.9c-6.2-8.3-12.3-16.5-18.5-24.8c-0.9-1.2-1.8-2.4-2.2-3.8c-1.4-4.4,1.8-8.7,3.7-12.9
				c3.3-7.3,2.7-15.8,2.1-23.9c-1.4-17.7-2.9-35.5-4.3-53.2c-14.7,14.2-29.4,28.4-44,42.6c-1,1-2.1,2-3.4,2.6c-1.9,0.8-4,0.5-6,0.3
				c-9.6-1.4-19.6-3.2-29.5-3.4c-10.2-0.2-20.3,2-30.4,3.4c-2,0.3-4.1,0.5-6-0.3c-1.3-0.5-2.4-1.6-3.4-2.6
				C108,28.4,93.3,14.2,78.7,0c-1.4,17.7-2.9,35.5-4.3,53.2c-0.7,8-1.2,16.5,2.1,23.9c1.9,4.2,5.1,8.5,3.7,12.9
				c-0.5,1.4-1.4,2.7-2.2,3.8c-6.2,8.3-12.3,16.5-18.5,24.8c11.7,12.3,23.4,24.6,35.1,36.9c2.9,3,5.8,6.1,7.8,9.9
				c1.5,2.8,2.4,5.9,3.3,8.9c3.4,14.2,8.3,28.2,12.4,42.2c4.1,13.9,8.3,27.8,12.2,41.7c0.2,0.6,0.3,1.1,0.8,1.5
				c0.4,0.4,0.9,0.5,1.4,0.6c8.4,2.1,16.8,4.2,25.2,6.3c1.4,0.3,2.7,0.7,4.1,0.7C161.8,267.5,161.9,267.5,162,267.5z"/>
			<polygon class="st2" points="183.6,247.3 162,238.2 140.4,247.3 140.4,249.4 162,240.2 183.6,249.4 			"/>
			<polygon class="st7" points="61.6,171.5 26.4,156.5 41.5,179.2 			"/>
			<polygon class="st2" points="86.6,253.4 71.6,247 56.5,253.4 56.5,254.8 71.6,248.4 86.6,254.8 			"/>
			<path class="st7" d="M103.5,174.5c-0.9-3-1.8-6.1-3.3-8.9c-2-3.7-4.9-6.8-7.8-9.9c-11.7-12.3-23.4-24.6-35.1-36.9
				c2-2.6,3.9-5.3,5.9-7.9c-4.2,0.5-8.4,1.3-12.5,1.9c-1.4,0.2-2.9,0.4-4.2-0.2c-0.9-0.4-1.6-1.1-2.4-1.8
				C33.9,100.9,23.7,91,13.4,81.1c-1,12.3-2,24.7-3,37c-0.5,5.6-0.9,11.5,1.5,16.6c1.3,2.9,3.6,5.9,2.6,9c-0.3,1-0.9,1.8-1.6,2.7
				c-4.3,5.8-8.6,11.5-12.9,17.3c8.1,8.6,16.3,17.1,24.4,25.7c2,2.1,4,4.3,5.4,6.9c1,1.9,1.7,4.1,2.3,6.2c2.4,9.9,5.8,19.6,8.7,29.4
				c2.9,9.7,5.8,19.3,8.5,29c0.1,0.4,0.2,0.8,0.5,1.1s0.6,0.3,1,0.4c5.8,1.5,11.7,2.9,17.5,4.4c0.9,0.2,1.9,0.5,2.9,0.5
				c0.1,0,0.1,0,0.2,0c1.1,0,2.2-0.3,3.3-0.6c5.7-1.4,11.4-2.9,17.1-4.3c0.5-0.1,1-0.3,1.3-0.6c0.2-0.3,0.3-0.6,0.4-0.9
				c5.6-19.5,11-39.1,17.2-58.4c0.1-0.4,0.2-0.8,0.3-1.1C108.4,192.5,105.7,183.6,103.5,174.5z"/>
			<path class="st7" d="M103.3,174.5c-0.9-3-1.8-6.1-3.3-8.9c-0.3-0.5-0.6-1.1-0.9-1.6l-17.4,7.4l20,7.7l2-3.1
				C103.5,175.6,103.4,175.1,103.3,174.5z"/>
			<polygon class="st7" points="262.7,171.5 297.9,156.5 282.7,179.2 			"/>
			<polygon class="st2" points="237.6,253.4 252.7,247 267.7,253.4 267.7,254.8 252.7,248.4 237.6,254.8 			"/>
			<path class="st7" d="M220.8,174.5c0.9-3,1.8-6.1,3.3-8.9c2-3.7,4.9-6.8,7.8-9.9c11.7-12.3,23.4-24.6,35.1-36.9
				c-2-2.6-3.9-5.3-5.9-7.9c4.2,0.5,8.3,1.3,12.5,1.9c1.4,0.2,2.9,0.4,4.2-0.2c0.9-0.4,1.6-1.1,2.4-1.8
				c10.2-9.9,20.4-19.8,30.7-29.7c1,12.3,2,24.7,3,37c0.5,5.6,0.9,11.5-1.5,16.6c-1.3,2.9-3.6,5.9-2.6,9c0.3,1,0.9,1.8,1.6,2.7
				c4.3,5.8,8.6,11.5,12.9,17.3c-8.1,8.6-16.3,17.1-24.4,25.7c-2,2.1-4,4.3-5.4,6.9c-1,1.9-1.7,4.1-2.3,6.2
				c-2.4,9.9-5.8,19.6-8.7,29.4c-2.9,9.7-5.8,19.3-8.5,29c-0.1,0.4-0.2,0.8-0.5,1.1s-0.6,0.3-1,0.4c-5.8,1.5-11.7,2.9-17.5,4.4
				c-0.9,0.2-1.9,0.5-2.9,0.5c-0.1,0-0.1,0-0.2,0c-1.1,0-2.2-0.3-3.3-0.6c-5.7-1.4-11.4-2.9-17.1-4.3c-0.5-0.1-1-0.3-1.3-0.6
				c-0.2-0.3-0.3-0.6-0.4-0.9c-5.6-19.5-11-39.1-17.2-58.4c-0.1-0.4-0.2-0.8-0.4-1.1C215.8,192.5,218.6,183.6,220.8,174.5z"/>
			<path class="st7" d="M221,174.5c0.9-3,1.8-6.1,3.3-8.9c0.3-0.5,0.6-1.1,0.9-1.6l17.4,7.4l-20,7.7l-2-3.1
				C220.7,175.6,220.9,175.1,221,174.5z"/>
		</g>
	</g>
</g>
<g id="The_Ian_Colored" class="st0">
	<g id="XMLID_10_" class="st1">
		<g>
			<path class="st8" d="M-168.1,83.9c6.5,8.8,13,17.5,19.6,26.3c-12.4,13.1-24.8,26.1-37.2,39.2c-3.1,3.2-6.2,6.5-8.3,10.4
				c-1.6,3-2.5,6.2-3.5,9.5c-9.4,29.3-17.6,59.3-26.1,88.9c-0.2,0.5-0.3,1.1-0.6,1.5c-0.5,0.6-1.2,0.8-1.9,0.9
				c-8.6,2.2-17.3,4.4-26,6.6c-1.7,0.4-3.4,0.8-5.1,0.9c-0.1,0-0.2,0-0.3,0c-1.5,0-2.9-0.4-4.4-0.8c-8.9-2.2-17.8-4.5-26.7-6.7
				c-0.5-0.1-1.1-0.3-1.5-0.6c-0.4-0.4-0.6-1-0.8-1.6c-4.2-14.8-8.6-29.5-13-44.2c-4.4-14.8-9.5-29.7-13.2-44.7
				c-1-3.2-1.9-6.5-3.5-9.5c-2.1-4-5.2-7.2-8.3-10.4c-12.4-13.1-24.8-26.1-37.2-39.2c6.5-8.8,13.1-17.5,19.6-26.3
				c0.9-1.3,1.9-2.6,2.4-4.1c1.5-4.7-1.9-9.3-3.9-13.7c-3.5-7.8-2.9-16.8-2.2-25.3c1.5-18.8,3.1-37.6,4.6-56.4
				c15.6,15.1,31.1,30.1,46.7,45.2c1.1,1.1,2.2,2.1,3.6,2.7c2,0.8,4.3,0.6,6.4,0.3c10.7-1.5,21.4-3.9,32.2-3.6
				c10.5,0.2,21.1,2.2,31.3,3.6c2.1,0.3,4.4,0.6,6.4-0.3c1.4-0.6,2.5-1.7,3.6-2.7c15.6-15.1,31.1-30.1,46.7-45.2
				c1.5,18.8,3.1,37.6,4.6,56.4c0.7,8.5,1.3,17.5-2.2,25.3c-2,4.4-5.4,9-4,13.7C-170,81.3-169,82.6-168.1,83.9z M-211.5,133.7
				l23-34.6l-53.6,22.8L-211.5,133.7z M-234.4,248.8v-2.2l-22.9-9.7l-22.9,9.7v2.2l22.9-9.7L-234.4,248.8z M-303,133.7l30.5-11.8
				l-53.6-22.8L-303,133.7z"/>
		</g>
		<g>
			<polygon class="st7" points="-272.5,121.9 -326.1,99.1 -303,133.7 			"/>
			<polygon class="st7" points="-242.1,121.9 -188.5,99.1 -211.5,133.7 			"/>
			<path class="st7" d="M-257.3,267.9c1.7,0,3.4-0.4,5.1-0.9c8.7-2.2,17.3-4.4,26-6.6c0.7-0.2,1.5-0.4,1.9-0.9
				c0.3-0.4,0.5-0.9,0.6-1.5c8.5-29.6,16.7-59.5,26.1-88.9c1-3.2,1.9-6.5,3.5-9.5c2.1-4,5.2-7.2,8.3-10.4
				c12.4-13.1,24.8-26.1,37.2-39.2c-6.5-8.8-13-17.5-19.6-26.3c-0.9-1.3-1.9-2.6-2.4-4.1c-1.5-4.7,1.9-9.3,4-13.7
				c3.5-7.8,2.9-16.8,2.2-25.3c-1.5-18.8-3.1-37.6-4.6-56.4c-15.6,15.1-31.1,30.1-46.7,45.2c-1.1,1.1-2.2,2.1-3.6,2.7
				c-2,0.8-4.2,0.6-6.4,0.3c-10.2-1.4-20.8-3.4-31.3-3.6c-10.8-0.2-21.6,2.1-32.2,3.6c-2.1,0.3-4.4,0.6-6.4-0.3
				c-1.4-0.6-2.5-1.7-3.6-2.7c-15.6-15.1-31.1-30.1-46.7-45.2c-1.5,18.8-3.1,37.6-4.6,56.4c-0.7,8.5-1.3,17.5,2.2,25.3
				c2,4.4,5.4,9,3.9,13.7c-0.5,1.5-1.4,2.8-2.4,4.1c-6.5,8.8-13,17.5-19.6,26.3c12.4,13.1,24.8,26.1,37.2,39.2
				c3.1,3.2,6.2,6.5,8.3,10.4c1.6,3,2.5,6.2,3.5,9.5c3.6,15.1,8.8,29.9,13.2,44.7c4.4,14.7,8.8,29.5,13,44.2
				c0.2,0.6,0.4,1.2,0.8,1.6c0.4,0.4,0.9,0.5,1.5,0.6c8.9,2.2,17.8,4.5,26.7,6.7c1.4,0.4,2.9,0.7,4.4,0.8
				C-257.5,267.9-257.4,267.9-257.3,267.9z"/>
			<polygon class="st2" points="-234.4,246.6 -257.3,236.9 -280.2,246.6 -280.2,248.8 -257.3,239.1 -234.4,248.8 			"/>
		</g>
	</g>
</g>
<g id="Layer_10" class="st0">
	<g id="XMLID_6_" class="st1">
		<g>
			<path class="st9" d="M-507.5,92.1c0,0.1,0,0.2,0,0.3c-0.2,2.1-0.4,4.2-0.6,6.3c-0.1,0.6-0.1,1.1-0.3,1.6s-0.5,1-0.7,1.5
				c-0.7,1.2-1.5,2.5-2.2,3.7c-0.2,0.3-1.2,2.5-1.5,2.6c-0.6,0.1-1.2,0.1-1.8,0.2l-4.9,10.3l-4-9.3c-0.7,0.1-1.4,0.2-2.2,0.3
				c-0.9,3.1-3,10.1-3.2,10s-2.9-6-4.3-9.1c-0.7,0.1-1.3,0.2-2,0.2l-2.8,9.4l-4.7-8.5c-0.4,0-0.8,0.1-1.2,0.1l-3.3,8.3l-5.1-7.4
				c-0.5,0.1-1,0.1-1.6,0.2l-3.6,7.2l-3.8-6.3c-4.2,0.5-8.4,1-12.6,1.5c-0.1,0-0.2,0-0.3,0.1s-0.1,0.2-0.1,0.4c0,3.7-0.1,7.4-0.1,11
				c0,0.1,0,0.3,0.1,0.4s0.2,0.1,0.3,0.1c3.5,0.5,6.9,1.1,10.4,1.6l3.2-6.4l3,7.4c0.9,0.1,1.7,0.3,2.6,0.4l3-7.8l4.1,8.9
				c0.8,0.1,1.6,0.2,2.4,0.4l2.7-9.3l3.7,10.3c0.6,0.1,1.2,0.2,1.9,0.3l3.3-10l3.4,10.9c0.5,0.1,1,0.1,1.5,0.2l4.7-10.2l2.9,11.4
				c0.2,0,0.4,0.1,0.6,0.1c0.3,0.1,0.5,0.1,0.7,0.3c0.1,0.2,0.2,0.4,0.2,0.6c0.9,3.9,0.8,7.9-0.1,11.7c0,0.2-0.1,0.3-0.2,0.4
				c-0.1,0.1-0.3,0.1-0.5,0.1c-12.4,0.2-24.8,0.4-37.2,0.6c-6.6,0.1-13.2,0.1-19.8,0.1c-9.9,0-19.7,2.7-29.2,5.1
				c-6,1.5-12,3.1-18,4.6c-1.5,0.4-2.9,0.8-4.3,1.3c-0.9,0.4-1.8,0.9-2.7,1.4c-3.4,2.2-7.4,4.6-10.3,7.3c-0.8,0.7-1.6,1.6-2.7,2.8
				c-4.2-6.4-8.1-12.4-11.6-17.7c-1-1.5-4.9-5-7.9-7.9c-8.7-8.4-4.8-5-9-8.7c-3.7-3.2-7.4-6.4-11.2-9.6c-4.8-4-9.6-8-14.4-12
				c0.1-0.2-5.3-4.3-5.9-4.9c-2.9-2.9-5.1-6.6-7.3-10.3c8-7.8,4.4-4.6,8.5-8.2c3.7-3.2,7.4-6.4,11.2-9.6c4.8-4,9.6-8,14.4-12
				c-0.1-0.2,5.3-4.3,5.9-4.9c4.5-4.5,7.5-11,10.8-16.4c3.5-5.6,7-11.2,10.5-16.8c4.4-7,8.8-14.1,13.2-21.1l8.5,49.2l46.9,8.7
				l2.1,8.4c0.6,0.1,1.2,0.3,1.8,0.4c5.4,1.1,10.8,2.3,16.2,3.4c7.4,1.6,14.8,3.1,22.2,4.7c3.1,0.6,6.2,1.3,9.3,2
				c1.2,0.2,2.3,0.5,3.5,0.7c1,0.2,2.7,0.9,3.7,0.6c0.5-0.2,0.9-0.5,1.4-0.8c0.6-0.4,1.2-0.9,1.8-1.4c0.2-0.1,0.4-0.2,0.6-0.3
				c0.2,0,0.4,0.1,0.6,0.1c3.6,1.5,7.2,3,10.8,4.6C-507.6,92-507.5,92-507.5,92.1z M-610.8,94.3l18.8-10.9l-37.7-7.5L-610.8,94.3z
				 M-633.9,157.2l2-1l-0.8-0.7l-24.3-24.2l10.2-25.7h-2l-10.5,26.2l24.2,24.2L-633.9,157.2z"/>
			<path class="st9" d="M-608.8,232.6c-0.4-0.7-46.4,9.4-49.3,10.7c-8.5,3.6-18.2,5.1-26.7,8.7c-3.7,1.7-14.8,4.5-18.5,6.3
				c-0.1,0.1-0.3,0.1-0.5,0.1c0,0,0,0-0.1,0s-0.2-0.1-0.3-0.2c-6.1-5.8-6.4-13.9-10.9-21.6c-3.6-6.2-9.3-10.8-14.5-15.7
				c-3.4-3.2-5-5.2-6.6-6.6c-2.9-2.7-6.9-5.1-10.3-7.3c-0.9-0.5-1.7-1-2.7-1.4c-1.4-0.6-2.9-1-4.3-1.3c-6-1.5-12-3.1-18-4.6
				c-9.5-2.4-19.3-5.1-29.2-5.1c-6.6,0-13.2,0-19.8-0.1c-12.4-0.1-24.8-0.4-37.1-0.5c-0.2,0-0.4,0-0.5-0.1c-0.1-0.1-0.2-0.3-0.2-0.4
				c-0.9-3.8-0.9-7.9-0.1-11.7c0-0.2,0.1-0.4,0.3-0.6c0.2-0.2,0.5-0.3,0.7-0.3s0.4-0.1,0.6-0.1l2.9-11.4l4.7,10.2
				c0.5-0.1,1-0.1,1.5-0.2l3.4-10.9l3.3,10c0.6-0.1,1.2-0.2,1.9-0.3l3.7-10.3l2.7,9.3c0.8-0.1,1.6-0.2,2.4-0.4l4.1-8.9l3,7.8
				c0.9-0.1,1.7-0.3,2.6-0.4l3-7.4l3.2,6.5c3.4-0.5,6.9-1.1,10.3-1.6c0.1,0,0.3-0.1,0.3-0.1c0.1-0.1,0.1-0.2,0.1-0.4
				c0-3.7-0.1-7.4-0.1-11.1c0-0.1,0-0.3-0.1-0.4s-0.2-0.1-0.3-0.1c-4.2-0.5-8.4-1-12.6-1.5l-3.8,6.3l-3.6-7.2
				c-0.5-0.1-1.1-0.1-1.6-0.2l-5.1,7.4l-3.3-8.4c-0.4,0-0.8-0.1-1.2-0.1l-4.7,8.5l-2.8-9.4c-0.7-0.1-1.4-0.2-2-0.2
				c-1.4,3.1-4.1,9-4.3,9.1c-0.2,0.1-2.3-6.9-3.2-10c-0.7-0.1-1.4-0.2-2.1-0.2l-4,9.3l-4.9-10.3c-0.6-0.1-1.2-0.1-1.8-0.2
				c-0.3,0-1.3-2.3-1.5-2.6c-0.7-1.2-1.5-2.5-2.2-3.7c-0.3-0.5-0.6-1-0.7-1.5c-0.2-0.5-0.2-1.1-0.3-1.6c-0.2-2.1-0.4-4.2-0.6-6.3
				c0-0.1,0-0.2,0-0.3c0.1-0.1,0.1-0.1,0.2-0.1c3.6-1.5,7.2-3,10.8-4.6c0.2-0.1,0.4-0.2,0.6-0.1c0.2,0,0.4,0.1,0.6,0.3
				c0.6,0.5,1.2,0.9,1.9,1.3c0.4,0.3,0.9,0.6,1.4,0.8c1,0.3,2.6-0.4,3.6-0.6c1.1-0.2,2.3-0.5,3.5-0.7c3.1-0.7,6.2-1.3,9.3-2
				c7.4-1.6,14.8-3.1,22.2-4.7c5.4-1.1,10.8-2.3,16.1-3.4c0.6-0.1,1.2-0.2,1.8-0.4l2.1-8.4l46.9-8.7l8.5-49.2
				c4.4,7,8.8,14.1,13.2,21.1c3.5,5.6,7,11.2,10.5,16.9c3.4,5.4,6.3,11.9,10.8,16.4c0.6,0.6,6,4.7,5.9,4.9c4.8,4,9.6,8,14.4,12
				c3.8,3.1,7.5,6.4,11.2,9.6c4.3,3.7,0.3,0.3,9,8.7c3,2.9,6.9,6.4,7.9,7.9C-643.7,175.8-621.3,209.8-608.8,232.6z M-717.5,177.9
				l-10.5-26.2h-2l10.2,25.7l-24.4,24.1l-0.8,0.7l2,1l1.2-1.1L-717.5,177.9z M-766,140.3l18.9-18.3l-37.7,7.5L-766,140.3z"/>
			<path class="st9" d="M-670.7,62c-0.7,0.9-1.4,1.8-2.2,2.5c-0.6,0.6-6,4.7-5.9,4.9c-4.8,4-9.6,8-14.4,12
				c-3.8,3.2-7.5,6.4-11.2,9.6c-4.2,3.6-0.5,0.4-8.5,8.2l-28.4-45.5l-9.4,50.6l-32.6,6c-8.8-2.2-17.8-4.5-26.8-4.6
				c-6.6,0-13.2,0-19.8-0.1c-12.4-0.1-24.8-0.4-37.1-0.5c-0.2,0-0.4,0-0.5-0.1c-0.1-0.1-0.2-0.3-0.2-0.4c-0.9-3.8-0.9-7.9-0.1-11.7
				c0.1-0.2,0.1-0.4,0.2-0.6c0.2-0.2,0.5-0.3,0.7-0.3s0.4-0.1,0.6-0.1l2.9-11.4l4.7,10.2c0.5-0.1,1-0.1,1.5-0.2l3.4-10.9l3.3,10
				c0.6-0.1,1.2-0.2,1.9-0.3l3.7-10.3l2.7,9.3c0.8-0.1,1.6-0.2,2.4-0.4l4.1-8.9l3,7.8c0.8-0.1,1.7-0.3,2.6-0.4l3-7.4l3.2,6.4
				c3.5-0.5,6.9-1.1,10.4-1.6c0.1,0,0.3,0,0.3-0.1c0.1-0.1,0.1-0.2,0.1-0.4c0-3.7-0.1-7.4-0.1-11c0-0.1,0-0.3-0.1-0.4
				c-0.1-0.1-0.2-0.1-0.3-0.1c-4.2-0.5-8.4-1-12.6-1.5l-3.8,6.3l-3.6-7.2c-0.5-0.1-1-0.1-1.6-0.2l-5.1,7.4l-3.3-8.4
				c-0.4,0-0.8-0.1-1.2-0.1l-4.7,8.5l-2.8-9.4c-0.7-0.1-1.3-0.2-2-0.2c-1.4,3.1-4.1,9-4.3,9.1c-0.2,0.1-2.3-6.9-3.2-10
				c-0.7-0.1-1.4-0.2-2.1-0.2l-4,9.3l-4.9-10.3c-0.6-0.1-1.2-0.2-1.8-0.2c-0.3,0-1.3-2.3-1.5-2.6c-0.7-1.2-1.5-2.5-2.2-3.7
				c-0.3-0.5-0.6-1-0.7-1.5c-0.2-0.5-0.2-1.1-0.3-1.6c-0.2-2.1-0.4-4.2-0.6-6.3c0-0.1,0-0.2,0-0.3c0-0.1,0.1-0.1,0.2-0.1
				c3.6-1.5,7.2-3,10.9-4.6c0.2-0.1,0.4-0.2,0.6-0.1c0.2,0,0.4,0.1,0.6,0.3c0.6,0.5,1.2,0.9,1.9,1.3c0.4,0.3,0.9,0.6,1.4,0.8
				c1,0.3,2.6-0.4,3.7-0.6c1.1-0.2,2.3-0.5,3.4-0.7c3.1-0.7,6.2-1.3,9.3-2c7.4-1.6,14.8-3.1,22.2-4.7c5.4-1.1,10.8-2.3,16.2-3.4
				c0.6-0.1,1.2-0.2,1.8-0.4l2.1-8.4l46.9-8.7l8.5-49.2c4.4,7,8.8,14.1,13.2,21.1c3.5,5.6,7,11.2,10.5,16.8
				c3.4,5.4,6.3,11.9,10.8,16.4c0.6,0.6,6,4.7,5.9,4.9c4.8,4,9.6,8,14.4,12c3.8,3.1,7.5,6.4,11.2,9.6c4.3,3.7,0.3,0.3,9.1,8.7
				C-673.7,59.2-672.1,60.7-670.7,62z M-777.8,50l18.9-18.4l-37.7,7.5L-777.8,50z"/>
		</g>
		<g>
			<polygon class="st2" points="-796.6,39.1 -758.9,31.6 -777.8,50 			"/>
			<path class="st2" d="M-712.8,99.3c8-7.8,4.4-4.6,8.5-8.2c3.7-3.2,7.4-6.4,11.2-9.6c4.8-4,9.6-8,14.4-12c-0.1-0.2,5.3-4.3,5.9-4.9
				c0.8-0.8,1.5-1.6,2.2-2.5c-1.4-1.4-3-2.9-4.4-4.2c-8.7-8.4-4.8-5-9.1-8.7c-3.7-3.2-7.4-6.4-11.2-9.6c-4.8-4-9.6-8-14.4-12
				c0.1-0.2-5.3-4.3-5.9-4.9c-4.5-4.5-7.5-11-10.8-16.4c-3.5-5.6-7-11.2-10.5-16.8c-4.4-7-8.8-14.1-13.2-21.1l-8.5,49.2l-46.9,8.7
				l-2.1,8.4c-0.6,0.1-1.2,0.2-1.8,0.4c-5.4,1.1-10.8,2.3-16.2,3.4c-7.4,1.6-14.8,3.1-22.2,4.7c-3.1,0.7-6.2,1.3-9.3,2
				c-1.1,0.2-2.3,0.5-3.4,0.7c-1,0.2-2.7,0.9-3.7,0.6c-0.5-0.2-0.9-0.5-1.4-0.8c-0.6-0.4-1.2-0.9-1.9-1.3c-0.2-0.1-0.4-0.3-0.6-0.3
				s-0.4,0.1-0.6,0.1c-3.6,1.5-7.2,3-10.9,4.6c-0.1,0-0.2,0.1-0.2,0.1c-0.1,0.1,0,0.2,0,0.3c0.2,2.1,0.4,4.2,0.6,6.3
				c0,0.6,0.1,1.1,0.3,1.6c0.2,0.5,0.5,1,0.7,1.5c0.7,1.2,1.5,2.5,2.2,3.7c0.2,0.3,1.2,2.5,1.5,2.6c0.6,0.1,1.2,0.1,1.8,0.2
				l4.9,10.3l4-9.3c0.7,0.1,1.4,0.2,2.1,0.2c0.9,3.1,3,10.1,3.2,10c0.2-0.1,2.9-6,4.3-9.1c0.7,0.1,1.3,0.2,2,0.2l2.8,9.4l4.7-8.5
				c0.4,0,0.8,0.1,1.2,0.1l3.3,8.4l5.1-7.4c0.5,0.1,1,0.1,1.6,0.2l3.6,7.2l3.8-6.3c4.2,0.5,8.4,1,12.6,1.5c0.1,0,0.2,0,0.3,0.1
				s0.1,0.2,0.1,0.4c0,3.7,0.1,7.4,0.1,11c0,0.1,0,0.3-0.1,0.4s-0.2,0.1-0.3,0.1c-3.5,0.5-6.9,1.1-10.4,1.6l-3.2-6.4l-3,7.4
				c-0.9,0.1-1.7,0.3-2.6,0.4l-3-7.8l-4.1,8.9c-0.8,0.1-1.6,0.2-2.4,0.4l-2.7-9.3l-3.7,10.3c-0.6,0.1-1.2,0.2-1.9,0.3l-3.3-10
				l-3.4,10.9c-0.5,0.1-1,0.1-1.5,0.2l-4.7-10.2l-2.9,11.4c-0.2,0-0.4,0.1-0.6,0.1c-0.3,0-0.5,0.1-0.7,0.3c-0.1,0.2-0.2,0.4-0.2,0.6
				c-0.9,3.8-0.8,7.9,0.1,11.7c0,0.1,0.1,0.3,0.2,0.4c0.1,0.1,0.3,0.1,0.5,0.1c12.4,0.2,24.8,0.4,37.1,0.5
				c6.6,0.1,13.2,0.1,19.8,0.1c9.1,0,18.1,2.3,26.8,4.6l32.6-6l9.4-50.6L-712.8,99.3z"/>
			<polygon class="st2" points="-784.8,129.4 -747.1,121.9 -766,140.3 			"/>
			<polygon class="st2" points="-744.2,201.5 -719.8,177.4 -730,151.7 -728,151.7 -717.5,177.9 -741.7,202.1 -742.9,203.2 
				-744.9,202.2 			"/>
			<polygon class="st2" points="-592,83.4 -629.7,75.9 -610.8,94.3 			"/>
			<polygon class="st2" points="-632.6,155.5 -656.9,131.3 -646.8,105.6 -648.7,105.6 -659.3,131.8 -635.1,156 -633.9,157.2 
				-631.9,156.2 			"/>
			<path class="st2" d="M-507.5,92.1c0-0.1-0.1-0.1-0.2-0.1c-3.6-1.5-7.2-3-10.8-4.6c-0.2-0.1-0.4-0.1-0.6-0.1
				c-0.2,0-0.4,0.1-0.6,0.3c-0.6,0.5-1.2,0.9-1.8,1.4c-0.4,0.3-0.9,0.6-1.4,0.8c-1,0.3-2.6-0.4-3.7-0.6c-1.2-0.2-2.3-0.5-3.5-0.7
				c-3.1-0.6-6.2-1.3-9.3-2c-7.4-1.6-14.8-3.1-22.2-4.7c-5.4-1.1-10.8-2.3-16.2-3.4c-0.6-0.1-1.2-0.2-1.8-0.4l-2.1-8.4l-46.9-8.7
				l-8.5-49.2c-4.4,7-8.8,14.1-13.2,21.1c-3.5,5.6-7,11.2-10.5,16.8c-3.4,5.4-6.3,11.9-10.8,16.4c-0.6,0.6-6,4.7-5.9,4.9
				c-4.8,4-9.6,8-14.4,12c-3.8,3.1-7.5,6.4-11.2,9.6c-4.2,3.6-0.5,0.4-8.5,8.2c2.1,3.7,4.4,7.4,7.3,10.3c0.6,0.6,6,4.7,5.9,4.9
				c4.8,4,9.6,8,14.4,12c3.8,3.1,7.5,6.4,11.2,9.6c4.3,3.7,0.3,0.3,9,8.7c3,2.9,6.9,6.4,7.9,7.9c3.5,5.3,7.4,11.3,11.6,17.7
				c1.1-1.1,1.9-2,2.7-2.8c2.9-2.7,6.9-5.1,10.3-7.3c0.9-0.6,1.7-1,2.7-1.4c1.4-0.6,2.9-1,4.3-1.3c6-1.5,12-3.1,18-4.6
				c9.5-2.4,19.3-5.1,29.2-5.1c6.6,0,13.2,0,19.8-0.1c12.4-0.1,24.8-0.4,37.2-0.6c0.2,0,0.4,0,0.5-0.1s0.2-0.3,0.2-0.4
				c0.9-3.8,0.9-7.9,0.1-11.7c-0.1-0.2-0.1-0.4-0.2-0.6c-0.2-0.2-0.5-0.3-0.7-0.3s-0.4-0.1-0.6-0.1l-2.9-11.4l-4.7,10.2
				c-0.5-0.1-1-0.1-1.5-0.2l-3.4-10.9l-3.3,10c-0.6-0.1-1.2-0.2-1.9-0.3l-3.7-10.3l-2.7,9.3c-0.8-0.1-1.6-0.2-2.4-0.4l-4.1-8.9
				l-3,7.8c-0.9-0.1-1.7-0.3-2.6-0.4l-3-7.4l-3.2,6.4c-3.5-0.5-6.9-1.1-10.4-1.6c-0.1,0-0.3,0-0.3-0.1c-0.1-0.1-0.1-0.2-0.1-0.4
				c0-3.7,0.1-7.4,0.1-11c0-0.1,0-0.3,0.1-0.4s0.2-0.1,0.3-0.1c4.2-0.5,8.4-1,12.6-1.5l3.8,6.3l3.6-7.2c0.5-0.1,1-0.1,1.6-0.2
				l5.1,7.4l3.3-8.3c0.4,0,0.8-0.1,1.2-0.1l4.7,8.5l2.8-9.4c0.7-0.1,1.3-0.2,2-0.2c1.4,3.1,4.1,9,4.3,9.1s2.3-6.9,3.2-10
				c0.7-0.1,1.4-0.2,2.2-0.3l4,9.3l4.9-10.3c0.6-0.1,1.2-0.1,1.8-0.2c0.4,0,1.3-2.3,1.5-2.6c0.7-1.2,1.5-2.5,2.2-3.7
				c0.3-0.5,0.6-1,0.7-1.5c0.2-0.5,0.2-1.1,0.3-1.6c0.2-2.1,0.4-4.2,0.6-6.3C-507.4,92.3-507.4,92.2-507.5,92.1z"/>
			<path class="st2" d="M-684.8,251.9c-3.7,1.7-14.8,4.5-18.5,6.3c-0.1,0.1-0.3,0.1-0.5,0.1c0,0,0,0-0.1,0s-0.2-0.1-0.3-0.2
				c-6.1-5.8-6.4-13.9-10.9-21.6c-3.6-6.2-9.3-10.8-14.5-15.7c-3.4-3.2-5-5.2-6.6-6.6c-2.9-2.7-6.9-5.1-10.3-7.3
				c-0.9-0.5-1.7-1-2.7-1.4c-1.4-0.6-2.9-1-4.3-1.3c-6-1.5-12-3.1-18-4.6c-9.5-2.4-19.3-5.1-29.2-5.1c-6.6,0-13.2,0-19.8-0.1
				c-12.4-0.1-24.8-0.4-37.1-0.5c-0.2,0-0.4,0-0.5-0.1c-0.1-0.1-0.2-0.3-0.2-0.4c-0.9-3.8-0.9-7.9-0.1-11.7c0-0.2,0.1-0.4,0.3-0.6
				c0.2-0.2,0.5-0.3,0.7-0.3s0.4-0.1,0.6-0.1l2.9-11.4l4.7,10.2c0.5-0.1,1-0.1,1.5-0.2l3.4-10.9l3.3,10c0.6-0.1,1.2-0.2,1.9-0.3
				l3.7-10.3l2.7,9.3c0.8-0.1,1.6-0.2,2.4-0.4l4.1-8.9l3,7.8c0.9-0.1,1.7-0.3,2.6-0.4l3-7.4l3.2,6.5c3.4-0.5,6.9-1.1,10.3-1.6
				c0.1,0,0.3-0.1,0.3-0.1c0.1-0.1,0.1-0.2,0.1-0.4c0-3.7-0.1-7.4-0.1-11.1c0-0.1,0-0.3-0.1-0.4s-0.2-0.1-0.3-0.1
				c-4.2-0.5-8.4-1-12.6-1.5l-3.8,6.3l-3.6-7.2c-0.5-0.1-1.1-0.1-1.6-0.2l-5.1,7.4l-3.3-8.4c-0.4,0-0.8-0.1-1.2-0.1l-4.7,8.5
				l-2.8-9.4c-0.7-0.1-1.4-0.2-2-0.2c-1.4,3.1-4.1,9-4.3,9.1c-0.2,0.1-2.3-6.9-3.2-10c-0.7-0.1-1.4-0.2-2.1-0.2l-4,9.3l-4.9-10.3
				c-0.6-0.1-1.2-0.1-1.8-0.2c-0.3,0-1.3-2.3-1.5-2.6c-0.7-1.2-1.5-2.5-2.2-3.7c-0.3-0.5-0.6-1-0.7-1.5c-0.2-0.5-0.2-1.1-0.3-1.6
				c-0.2-2.1-0.4-4.2-0.6-6.3c0-0.1,0-0.2,0-0.3c0.1-0.1,0.1-0.1,0.2-0.1c3.6-1.5,7.2-3,10.8-4.6c0.2-0.1,0.4-0.2,0.6-0.1
				c0.2,0,0.4,0.1,0.6,0.3c0.6,0.5,1.2,0.9,1.9,1.3c0.4,0.3,0.9,0.6,1.4,0.8c1,0.3,2.6-0.4,3.6-0.6c1.1-0.2,2.3-0.5,3.5-0.7
				c3.1-0.7,6.2-1.3,9.3-2c7.4-1.6,14.8-3.1,22.2-4.7c5.4-1.1,10.8-2.3,16.1-3.4c0.6-0.1,1.2-0.2,1.8-0.4l2.1-8.4l46.9-8.7L-741,57
				c4.4,7,8.8,14.1,13.2,21.1c3.5,5.6,7,11.2,10.5,16.9c3.4,5.4,6.3,11.9,10.8,16.4c0.6,0.6,6,4.7,5.9,4.9c4.8,4,9.6,8,14.4,12
				c3.8,3.1,7.5,6.4,11.2,9.6c4.3,3.7,0.3,0.3,9,8.7c3,2.9,6.9,6.4,7.9,7.9c14.2,21.7,36.6,55.7,49,78.5
				c-0.4-0.7-46.4,9.4-49.3,10.7C-666.7,246.8-676.3,248.3-684.8,251.9z"/>
		</g>
	</g>
</g>
</svg>
