<?xml version="1.0" encoding="utf-8"?>
<!-- Generator: Adobe Illustrator 19.2.1, SVG Export Plug-In . SVG Version: 6.00 Build 0)  -->
<svg version="1.1" id="Layer_1" xmlns="http://www.w3.org/2000/svg" xmlns:xlink="http://www.w3.org/1999/xlink" x="0px" y="0px"
	 viewBox="0 0 324.3 267.5" style="enable-background:new 0 0 324.3 267.5;" xml:space="preserve">
<style type="text/css">
	.st0{display:none;}
	.st1{display:inline;}
	.st2{fill:none;stroke:#000000;stroke-width:0.25;stroke-miterlimit:10;}
	.st3{display:inline;fill:none;stroke:#000000;stroke-width:0.25;stroke-miterlimit:10;}
	.st4{display:inline;fill:none;stroke:#222222;stroke-width:0.25;stroke-miterlimit:10;}
	.st5{fill:none;stroke:#222222;stroke-width:0.25;stroke-miterlimit:10;}
	.st6{display:inline;fill:none;stroke:#000000;stroke-width:0.5;stroke-linecap:round;stroke-linejoin:round;}
	.st7{fill:none;stroke:#000000;stroke-width:0.5;stroke-linecap:round;stroke-linejoin:round;}
	.st8{fill:#222222;}
	.st9{fill:#F5F5F6;}
	.st10{fill:#F5F6F5;}
	.st11{fill:#F6F8F8;}
	.st12{fill:#F5F5F5;}
</style>
<g id="Originial" class="st0">
	<g id="XMLID_2_" class="st1">
		<g>
			<polygon class="st2" points="453.2,529.3 407.2,509.7 427,539.4 			"/>
			<polygon class="st2" points="479.3,529.3 525.3,509.7 505.5,539.4 			"/>
			<path class="st2" d="M466.3,654.6c1.5,0,2.9-0.4,4.4-0.7c7.4-1.9,14.9-3.7,22.3-5.6c0.6-0.2,1.3-0.3,1.7-0.8
				c0.3-0.3,0.4-0.8,0.6-1.2c7.3-25.4,14.3-51.1,22.4-76.3c0.8-2.8,1.6-5.6,3-8.1c1.8-3.4,4.5-6.2,7.1-9
				c10.7-11.2,21.3-22.4,31.9-33.6c-5.6-7.5-11.2-15.1-16.8-22.6c-0.8-1.1-1.6-2.2-2-3.5c-1.3-4,1.7-7.9,3.4-11.8
				c3-6.7,2.5-14.4,1.9-21.7c-1.3-16.1-2.6-32.2-3.9-48.4c-13.3,12.9-26.7,25.8-40.1,38.8c-0.9,0.9-1.9,1.8-3.1,2.3
				c-1.7,0.7-3.7,0.5-5.5,0.2c-8.8-1.2-17.9-3-26.9-3.1c-9.3-0.2-18.5,1.8-27.7,3.1c-1.8,0.3-3.8,0.5-5.5-0.2
				c-1.2-0.5-2.1-1.4-3.1-2.3c-13.3-12.9-26.7-25.8-40.1-38.8c-1.3,16.1-2.6,32.2-3.9,48.4c-0.6,7.3-1.1,15,1.9,21.7
				c1.7,3.8,4.6,7.8,3.4,11.8c-0.4,1.3-1.2,2.4-2,3.5c-5.6,7.5-11.2,15.1-16.8,22.6c10.7,11.2,21.3,22.4,31.9,33.6
				c2.6,2.8,5.3,5.6,7.1,9c1.3,2.5,2.2,5.3,3,8.1c3.1,12.9,7.6,25.6,11.3,38.4c3.7,12.6,7.5,25.3,11.1,38c0.1,0.5,0.3,1,0.7,1.4
				c0.3,0.3,0.8,0.4,1.3,0.6c7.6,1.9,15.3,3.8,22.9,5.8c1.2,0.3,2.5,0.6,3.8,0.7C466.1,654.6,466.2,654.6,466.3,654.6z"/>
		</g>
	</g>
	<line class="st3" x1="581.3" y1="562.1" x2="581.3" y2="562.1"/>
	<line class="st3" x1="582.3" y1="562.1" x2="582.3" y2="562.1"/>
	<path class="st3" d="M515.1,588.5c2.5-8.3,4.5-17,8.6-24.6c2.8-5.1,6.6-8.9,10.4-13.1c2.8-3.2,5.8-6.3,8.8-9.5
		c6.8-7.4,13.6-14.8,20.5-22.1l-19.9-26.4c-0.1-0.3,5.3-4.3,5.9-4.9c4.5-4.5,7.5-11,10.8-16.4c3.5-5.6,7-11.2,10.5-16.8
		c4.4-7,8.8-14.1,13.2-21.1l8.5,49.2l46.9,8.7l2.1,8.4c0.6,0.1,1.2,0.3,1.8,0.4c5.4,1.1,10.8,2.3,16.2,3.4
		c7.4,1.6,14.8,3.1,22.2,4.7c3.1,0.7,6.2,1.3,9.3,2c1.2,0.2,2.3,0.5,3.5,0.7c1,0.2,2.7,0.9,3.7,0.6c0.5-0.2,0.9-0.5,1.4-0.8
		c0.6-0.4,1.2-0.9,1.8-1.3c0.2-0.1,0.4-0.3,0.6-0.3s0.4,0.1,0.6,0.1c3.6,1.5,7.2,3,10.8,4.6c0.1,0,0.2,0.1,0.2,0.1
		c0.1,0.1,0,0.2,0,0.3c-0.2,2.1-0.4,4.2-0.6,6.3c0,0.6-0.1,1.1-0.3,1.6s-0.5,1-0.7,1.5c-0.7,1.2-1.5,2.5-2.2,3.7
		c-0.2,0.3-1.2,2.5-1.5,2.6c-0.6,0.1-1.2,0.1-1.8,0.2l-4.9,10.3l-4-9.3c-0.7,0.1-1.4,0.2-2.2,0.3c-0.9,3.1-3.1,10.1-3.3,10
		s-2.9-6.1-4.3-9.1c-0.7,0.1-1.3,0.2-2,0.2l-2.8,9.4l-4.7-8.5c-0.4,0-0.8,0.1-1.2,0.1l-3.3,8.3l-5.1-7.3c-0.5,0.1-1,0.1-1.6,0.2
		l-3.6,7.2l-3.8-6.3c-4.2,0.5-8.4,1-12.6,1.5c-0.1,0-0.2,0-0.3,0.1s-0.1,0.3-0.1,0.4c0,3.7-0.1,7.4-0.1,11c0,0.1,0,0.3,0.1,0.4
		c0.1,0.1,0.2,0.1,0.3,0.1c3.5,0.5,6.9,1.1,10.4,1.6l3.2-6.4l3,7.4c0.9,0.1,1.7,0.3,2.6,0.4l3-7.8l4.1,8.9c0.8,0.1,1.6,0.2,2.4,0.4
		l2.7-9.3l3.7,10.3c0.6,0.1,1.2,0.2,1.9,0.3l3.3-10l3.4,10.9c0.5,0.1,1,0.1,1.5,0.2l4.7-10.3l2.9,11.4c0.2,0,0.4,0.1,0.6,0.1
		c0.3,0.1,0.5,0.1,0.7,0.3c0.1,0.2,0.2,0.4,0.3,0.6c0.9,3.8,0.8,7.9-0.1,11.7c0,0.2-0.1,0.3-0.2,0.4c-0.1,0.1-0.3,0.1-0.5,0.1
		c-12.4,0.2-24.8,0.4-37.1,0.6c-6.6,0.1-13.2,0.1-19.8,0.1c-9.9,0-19.7,2.7-29.2,5.1c-6,1.5-12,3.1-18,4.6c-1.5,0.4-2.9,0.7-4.3,1.3
		c-0.9,0.4-1.8,0.9-2.7,1.4c-3.4,2.2-6,5.5-8.9,8.3c-2.4,2.2-4.7,4.4-7,6.6c-5.2,4.9-10.3,9.8-15.5,14.7
		c-6.1,5.8-12.3,11.6-18.4,17.4c-0.1,0.1-0.2,0.2-0.3,0.2c0,0,0,0-0.1,0c-0.2,0-0.3,0-0.5-0.1c-3.7-1.8-7.3-3.5-11-5.2
		c-7-3.3-14.1-6.6-21.1-9.8C509.6,606.6,512.4,597.6,515.1,588.5z"/>
	<line class="st3" x1="351.1" y1="562.1" x2="351.1" y2="562.1"/>
	<line class="st3" x1="350.1" y1="562.1" x2="350.1" y2="562.1"/>
	<path class="st3" d="M417.3,588.5c-2.5-8.3-4.5-17-8.6-24.6c-2.8-5.1-6.6-8.9-10.4-13.1c-2.8-3.2-5.8-6.3-8.8-9.5
		c-6.8-7.4-13.6-14.8-20.5-22.1l19.9-26.4c0.1-0.3-5.3-4.3-5.9-4.9c-4.5-4.5-7.5-11-10.8-16.4c-3.5-5.6-7-11.2-10.5-16.8
		c-4.4-7-8.8-14.1-13.2-21.1l-8.5,49.2l-46.9,8.7l-2.1,8.4c-0.6,0.1-1.2,0.3-1.8,0.4c-5.4,1.1-10.8,2.3-16.2,3.4
		c-7.4,1.6-14.8,3.1-22.2,4.7c-3.1,0.7-6.2,1.3-9.3,2c-1.2,0.2-2.3,0.5-3.5,0.7c-1,0.2-2.7,0.9-3.7,0.6c-0.5-0.2-0.9-0.5-1.4-0.8
		c-0.6-0.4-1.2-0.9-1.8-1.3c-0.2-0.1-0.4-0.3-0.6-0.3s-0.4,0.1-0.6,0.1c-3.6,1.5-7.2,3-10.8,4.6c-0.1,0-0.2,0.1-0.2,0.1
		c-0.1,0.1,0,0.2,0,0.3c0.2,2.1,0.4,4.2,0.6,6.3c0,0.6,0.1,1.1,0.3,1.6s0.5,1,0.7,1.5c0.7,1.2,1.5,2.5,2.2,3.7
		c0.2,0.3,1.2,2.5,1.5,2.6c0.6,0.1,1.2,0.1,1.8,0.2l4.9,10.3l4-9.3c0.7,0.1,1.4,0.2,2.2,0.3c0.9,3.1,3.1,10.1,3.3,10
		s2.9-6.1,4.3-9.1c0.7,0.1,1.3,0.2,2,0.2l2.8,9.4l4.7-8.5c0.4,0,0.8,0.1,1.2,0.1l3.3,8.3l5.1-7.3c0.5,0.1,1,0.1,1.6,0.2l3.6,7.2
		l3.8-6.3c4.2,0.5,8.4,1,12.6,1.5c0.1,0,0.2,0,0.3,0.1c0.1,0.1,0.1,0.3,0.1,0.4c0,3.7,0.1,7.4,0.1,11c0,0.1,0,0.3-0.1,0.4
		c-0.1,0.1-0.2,0.1-0.3,0.1c-3.5,0.5-6.9,1.1-10.4,1.6l-3.2-6.4l-3,7.4c-0.9,0.1-1.7,0.3-2.6,0.4l-3-7.8l-4.1,8.9
		c-0.8,0.1-1.6,0.2-2.4,0.4l-2.7-9.3l-3.7,10.3c-0.6,0.1-1.2,0.2-1.9,0.3l-3.3-10l-3.4,10.9c-0.5,0.1-1,0.1-1.5,0.2l-4.7-10.3
		l-2.9,11.4c-0.2,0-0.4,0.1-0.6,0.1c-0.3,0.1-0.5,0.1-0.7,0.3c-0.1,0.2-0.2,0.4-0.3,0.6c-0.9,3.8-0.8,7.9,0.1,11.7
		c0,0.2,0.1,0.3,0.2,0.4c0.1,0.1,0.3,0.1,0.5,0.1c12.4,0.2,24.8,0.4,37.1,0.6c6.6,0.1,13.2,0.1,19.8,0.1c9.9,0,19.7,2.7,29.2,5.1
		c6,1.5,12,3.1,18,4.6c1.5,0.4,2.9,0.7,4.3,1.3c0.9,0.4,1.8,0.9,2.7,1.4c3.4,2.2,6,5.5,8.9,8.3c2.4,2.2,4.7,4.4,7,6.6
		c5.2,4.9,10.3,9.8,15.5,14.7c6.1,5.8,12.3,11.6,18.4,17.4c0.1,0.1,0.2,0.2,0.3,0.2c0,0,0,0,0.1,0c0.2,0,0.3,0,0.5-0.1
		c3.7-1.8,7.3-3.5,11-5.2c7-3.3,14.1-6.6,21.1-9.8C422.8,606.6,420.1,597.6,417.3,588.5z"/>
	<polygon class="st3" points="628.9,505.2 591.2,497.7 610.1,516 	"/>
	<polygon class="st3" points="303.6,505.2 341.2,497.7 322.3,516 	"/>
	<polygon class="st3" points="588.3,577.3 563.9,553.1 574.1,527.4 572.1,527.4 561.6,553.6 585.8,577.8 587,579 589,578 	"/>
	<polygon class="st3" points="485.9,636.3 466.3,628 446.6,636.3 446.6,638.2 466.3,629.8 485.9,638.2 	"/>
	<polygon class="st3" points="344.2,577.3 368.5,553.1 358.3,527.4 360.3,527.4 370.8,553.6 346.7,577.8 345.4,579 343.4,578 	"/>
</g>
<g id="Base_Shapes" class="st0">
	<g id="XMLID_1_" class="st1">
		<g>
			<polygon class="st2" points="405.9,491.7 365,474.3 382.6,500.7 			"/>
			<polygon class="st2" points="429.1,491.7 470,474.3 452.4,500.7 			"/>
			<path class="st2" d="M417.5,603.1c1.3,0,2.6-0.3,3.9-0.7c6.6-1.7,13.2-3.3,19.8-5c0.5-0.1,1.1-0.3,1.5-0.7
				c0.3-0.3,0.4-0.7,0.5-1.1c6.5-22.6,12.8-45.4,20-67.8c0.7-2.5,1.5-5,2.7-7.2c1.6-3,4-5.5,6.3-8c9.5-10,18.9-19.9,28.4-29.9
				c-5-6.7-10-13.4-14.9-20.1c-0.7-1-1.4-2-1.8-3.1c-1.1-3.6,1.5-7.1,3-10.5c2.7-5.9,2.2-12.8,1.7-19.3c-1.2-14.3-2.3-28.7-3.5-43
				c-11.9,11.5-23.7,23-35.6,34.5c-0.8,0.8-1.7,1.6-2.7,2.1c-1.5,0.7-3.2,0.4-4.9,0.2c-7.8-1.1-15.9-2.6-23.9-2.8
				c-8.2-0.2-16.5,1.6-24.6,2.8c-1.6,0.2-3.3,0.4-4.9-0.2c-1-0.4-1.9-1.3-2.7-2.1c-11.9-11.5-23.7-23-35.6-34.5
				c-1.2,14.3-2.3,28.7-3.5,43c-0.5,6.5-1,13.4,1.7,19.3c1.5,3.4,4.1,6.9,3,10.5c-0.4,1.2-1.1,2.1-1.8,3.1c-5,6.7-10,13.4-14.9,20.1
				c9.5,10,18.9,19.9,28.4,29.9c2.3,2.5,4.7,5,6.3,8c1.2,2.3,1.9,4.7,2.7,7.2c2.8,11.5,6.7,22.8,10.1,34.1
				c3.3,11.2,6.7,22.5,9.9,33.7c0.1,0.4,0.3,0.9,0.6,1.2c0.3,0.3,0.7,0.4,1.1,0.5c6.8,1.7,13.6,3.4,20.3,5.1
				c1.1,0.3,2.2,0.6,3.3,0.6C417.4,603.1,417.4,603.1,417.5,603.1z"/>
		</g>
	</g>
	<polygon class="st3" points="435,586.9 417.5,579.5 400,586.9 400,588.6 417.5,581.1 435,588.6 	"/>
</g>
<g id="option_2_-_no_color" class="st0">
	<polygon class="st4" points="555.1,609.2 593.9,595.1 574.5,620.7 	"/>
	<g class="st1">
		<polygon class="st5" points="549.7,655 538.7,654.8 533.3,671.6 529.2,654.9 524.8,653.7 522,677.9 536.3,684.5 541.3,666 
			545.4,684.6 549.7,684.6 554,684.6 558.1,666 563.1,684.5 577.4,677.9 574.6,653.7 570.3,654.9 566.1,671.6 560.7,654.8 		"/>
	</g>
	<path class="st4" d="M607.9,600.3c-0.8-1.4-1.6-2.8-2-4.4c0,0,0,0-0.1-0.4c-0.4-2.2-0.4-4.5-0.2-6.7c0.5-5.1,0.9-10.2,1.4-15.4
		c0.4-4.7-0.5-9.7-0.8-14.4c-0.8-10.3-1.6-20.6-2.4-30.9c-0.1-1.7-0.4-3.5-0.4-5.3c-11.4,15.8-22.7,38.6-34.1,54.5c0,0,0,0.1-0.1,0
		c-8.2-2.4-16.8-3.3-25.2-2.6c-5.7,6-11.4,12-17.1,18c-2.6,2.8-5.3,5.6-7.1,9c-1.3,2.5-2.2,5.3-3,8.1c-4.5,14-8.6,28.1-12.7,42.2
		c1.2,1.8,2.3,3.6,3.2,5.6c1.5,3.4,2.4,7.2,3.2,10.9c1,4.6,2.1,9.3,3.1,13.9c0.2,1.1,0.5,2.3,1.2,3.1c0.6,0.8,1.5,1.3,2.3,1.7
		c10.1,5.2,21.1,7.8,32.2,7.9c10.9,0.1,21.8-2.3,31.8-7.1c1-0.5,2-1,2.7-2c0.7-0.9,1-2.2,1.2-3.3c1.1-4.7,2.1-9.5,3.2-14.2
		c0.8-3.8,1.7-7.5,3.2-11c1.3-3,3.2-5.6,5-8.3c7.2-10.5,14.4-21,21.6-31.4C614.6,612.1,611.2,606.2,607.9,600.3z"/>
	<path class="st4" d="M516.9,609.9c0.8-2.8,1.6-5.6,3-8.1c1.8-3.4,4.5-6.2,7.1-9"/>
	<path class="st4" d="M519.8,601.8c-1.3,2.5-2.2,5.3-3,8.1c-0.2,0.6-0.4,1.2-0.6,1.8l6.8,9l19.4-11.5l-22.2-8.1
		C520.1,601.3,520,601.6,519.8,601.8z"/>
	<g id="XMLID_3_" class="st1">
		<g>
			<polygon class="st5" points="450.4,568.3 404.5,548.7 424.3,578.5 			"/>
			<polygon class="st5" points="476.6,568.3 522.6,548.7 502.8,578.5 			"/>
			<path class="st5" d="M463.5,693.6c1.5,0,2.9-0.4,4.4-0.7c7.4-1.9,14.9-3.7,22.3-5.6c0.6-0.2,1.3-0.3,1.7-0.8
				c0.3-0.4,0.4-0.8,0.6-1.3c7.3-25.4,14.3-51.1,22.4-76.3c0.8-2.8,1.6-5.6,3-8.1c1.8-3.4,4.5-6.2,7.1-9
				c10.7-11.2,21.3-22.4,31.9-33.6c-5.6-7.5-11.2-15-16.8-22.6c-0.8-1.1-1.6-2.2-2-3.5c-1.3-4,1.7-8,3.4-11.8
				c3-6.6,2.5-14.4,1.9-21.7c-1.3-16.1-2.6-32.3-3.9-48.4c-13.3,12.9-26.7,25.8-40.1,38.8c-0.9,0.9-1.9,1.8-3.1,2.3
				c-1.7,0.7-3.7,0.5-5.5,0.2c-8.8-1.2-17.9-2.9-26.9-3.1c-9.3-0.2-18.5,1.8-27.7,3.1c-1.8,0.3-3.8,0.5-5.5-0.2
				c-1.2-0.5-2.1-1.4-3.1-2.3c-13.3-12.9-26.7-25.8-40.1-38.8c-1.3,16.1-2.6,32.2-3.9,48.4c-0.6,7.3-1.1,15,1.9,21.7
				c1.7,3.8,4.6,7.8,3.4,11.8c-0.4,1.3-1.2,2.4-2,3.5c-5.6,7.5-11.2,15.1-16.8,22.6c10.7,11.2,21.3,22.4,31.9,33.6
				c2.6,2.8,5.3,5.6,7.1,9c1.3,2.5,2.2,5.3,3,8.1c3.1,12.9,7.6,25.6,11.3,38.4c3.7,12.6,7.5,25.3,11.1,38c0.1,0.5,0.3,1,0.7,1.4
				c0.3,0.3,0.8,0.4,1.3,0.6c7.6,1.9,15.3,3.8,22.9,5.8c1.2,0.3,2.5,0.6,3.8,0.7C463.3,693.6,463.4,693.6,463.5,693.6z"/>
		</g>
	</g>
	<polygon class="st4" points="483.2,675.3 463.5,667 443.9,675.3 443.9,677.2 463.5,668.9 483.2,677.2 	"/>
	<polygon class="st4" points="561,640.2 548.5,634.9 536,640.2 536,641.4 548.5,636.1 561,641.4 	"/>
	<polygon class="st4" points="371.9,609.2 333.2,595.1 352.5,620.7 	"/>
	<g class="st1">
		<polygon class="st5" points="377.3,655 388.3,654.8 393.7,671.6 397.9,654.9 402.2,653.7 405,677.9 390.8,684.5 385.8,666 
			381.7,684.6 377.3,684.6 373,684.6 368.9,666 363.9,684.5 349.6,677.9 352.4,653.7 356.8,654.9 361,671.6 366.4,654.8 		"/>
	</g>
	<path class="st4" d="M319.2,600.3c0.8-1.4,1.6-2.8,2-4.4c0,0,0,0,0.1-0.4c0.4-2.2,0.4-4.5,0.2-6.7c-0.5-5.1-0.9-10.2-1.4-15.4
		c-0.4-4.7,0.5-9.7,0.8-14.4c0.8-10.3,1.6-20.6,2.4-30.9c0.1-1.7,0.4-3.5,0.4-5.3c11.4,15.8,22.7,38.6,34.1,54.5c0,0,0,0.1,0.1,0
		c8.2-2.4,16.8-3.3,25.2-2.6c5.7,6,11.4,12,17.1,18c2.6,2.8,5.3,5.6,7.1,9c1.3,2.5,2.2,5.3,3,8.1c4.5,14,8.6,28.1,12.7,42.2
		c-1.2,1.8-2.3,3.6-3.2,5.6c-1.5,3.4-2.4,7.2-3.2,10.9c-1,4.6-2.1,9.3-3.1,13.9c-0.2,1.1-0.5,2.3-1.2,3.1c-0.6,0.8-1.5,1.3-2.3,1.7
		c-10.1,5.2-21.1,7.8-32.2,7.9c-10.9,0.1-21.8-2.3-31.8-7.1c-1-0.5-2-1-2.7-2c-0.7-0.9-1-2.2-1.2-3.3c-1.1-4.7-2.1-9.5-3.2-14.2
		c-0.8-3.8-1.7-7.5-3.2-11c-1.3-3-3.2-5.6-5-8.3c-7.2-10.5-14.4-21-21.6-31.4C312.4,612.1,315.8,606.2,319.2,600.3z"/>
	<path class="st4" d="M407.2,601.8c1.3,2.5,2.2,5.3,3,8.1c0.2,0.6,0.4,1.2,0.6,1.8l-6.8,9l-19.4-11.5l22.2-8.1
		C406.9,601.3,407.1,601.6,407.2,601.8z"/>
	<polygon class="st4" points="366,640.2 378.5,634.9 391,640.2 391,641.4 378.5,636.1 366,641.4 	"/>
</g>
<g id="Option_3" class="st0">
	<polygon class="st6" points="443.3,577.8 397.3,558.2 417.1,587.9 	"/>
	<polygon class="st6" points="469.4,577.8 515.4,558.2 495.6,587.9 	"/>
	<path class="st6" d="M456.3,703.1c1.5,0,2.9-0.4,4.4-0.7c7.4-1.9,14.9-3.8,22.3-5.6c0.6-0.2,1.2-0.3,1.7-0.8
		c0.3-0.3,0.4-0.8,0.6-1.2c7.3-25.4,14.3-51.1,22.4-76.3c0.8-2.8,1.6-5.6,3-8.1c1.8-3.4,4.5-6.2,7.1-9
		c10.6-11.2,21.3-22.4,31.9-33.6c-5.6-7.5-11.2-15-16.8-22.6c-0.8-1.1-1.6-2.2-2-3.5c-1.3-4,1.7-8,3.4-11.8c3-6.7,2.5-14.4,1.9-21.7
		c-1.3-16.1-2.6-32.3-3.9-48.4c-13.4,12.9-26.7,25.8-40.1,38.8c-0.9,0.9-1.9,1.8-3.1,2.3c-1.7,0.7-3.6,0.5-5.5,0.2
		c-8.8-1.2-17.9-3-26.9-3.1c-9.3-0.2-18.5,1.8-27.7,3.1c-1.8,0.3-3.8,0.5-5.5-0.2c-1.2-0.5-2.1-1.4-3.1-2.3
		c-13.4-12.9-26.7-25.8-40.1-38.8c-1.3,16.1-2.6,32.3-3.9,48.4c-0.6,7.3-1.1,15,1.9,21.7c1.7,3.8,4.6,7.8,3.4,11.8
		c-0.4,1.3-1.2,2.4-2,3.5c-5.6,7.5-11.2,15-16.8,22.6c10.6,11.2,21.3,22.4,31.9,33.6c2.6,2.8,5.3,5.6,7.1,9c1.3,2.5,2.2,5.3,3,8.1
		c3.1,12.9,7.6,25.6,11.3,38.4c3.7,12.6,7.5,25.3,11.1,38c0.1,0.5,0.3,1,0.7,1.4c0.3,0.3,0.8,0.4,1.3,0.6c7.6,1.9,15.3,3.8,22.9,5.8
		c1.2,0.3,2.5,0.6,3.8,0.7C456.1,703.1,456.2,703.1,456.3,703.1z"/>
	<polygon class="st3" points="476,684.8 456.3,676.4 436.7,684.8 436.7,686.7 456.3,678.3 476,686.7 	"/>
	<polygon class="st6" points="365,615.8 333,602.1 346.7,622.8 	"/>
	<polygon class="st3" points="387.8,690.2 374.1,684.4 360.4,690.2 360.4,691.6 374.1,685.8 387.8,691.6 	"/>
	<path class="st6" d="M403.1,618.5c-0.8-2.8-1.6-5.6-3-8.1c-1.8-3.4-4.5-6.2-7.1-9c-10.7-11.2-21.3-22.4-31.9-33.6
		c1.8-2.4,3.6-4.8,5.4-7.2c-3.8,0.5-7.6,1.2-11.4,1.7c-1.3,0.2-2.6,0.4-3.8-0.2c-0.8-0.3-1.5-1-2.1-1.6c-9.3-9-18.6-18-27.9-27
		c-0.9,11.2-1.8,22.5-2.7,33.7c-0.4,5.1-0.8,10.5,1.3,15.1c1.2,2.7,3.2,5.4,2.4,8.2c-0.3,0.9-0.9,1.7-1.4,2.4
		c-3.9,5.2-7.8,10.5-11.7,15.7c7.4,7.8,14.8,15.6,22.2,23.4c1.8,1.9,3.7,3.9,4.9,6.2c0.9,1.8,1.5,3.7,2.1,5.6
		c2.2,9,5.3,17.8,7.9,26.7c2.6,8.8,5.2,17.6,7.8,26.4c0.1,0.4,0.2,0.7,0.5,1c0.2,0.2,0.6,0.3,0.9,0.4c5.3,1.3,10.6,2.7,15.9,4
		c0.9,0.2,1.7,0.4,2.6,0.5c0.1,0,0.1,0,0.2,0c1,0,2-0.3,3-0.5c5.2-1.3,10.3-2.6,15.5-3.9c0.4-0.1,0.9-0.2,1.2-0.6
		c0.2-0.2,0.3-0.6,0.4-0.9c5.1-17.7,10-35.6,15.6-53.1c0.1-0.3,0.2-0.7,0.3-1C407.6,634.9,405.1,626.8,403.1,618.5z"/>
	<path class="st6" d="M402.9,618.5c-0.8-2.8-1.6-5.6-3-8.1c-0.3-0.5-0.5-1-0.8-1.4l-15.9,6.8l18.2,7l1.8-2.8
		C403.1,619.5,403,619,402.9,618.5z"/>
	<polygon class="st6" points="547.9,615.8 579.9,602.1 566.2,622.8 	"/>
	<polygon class="st3" points="525.1,690.2 538.8,684.4 552.5,690.2 552.5,691.6 538.8,685.8 525.1,691.6 	"/>
	<path class="st6" d="M509.8,618.5c0.8-2.8,1.6-5.6,3-8.1c1.8-3.4,4.5-6.2,7.1-9c10.7-11.2,21.3-22.4,31.9-33.6
		c-1.8-2.4-3.6-4.8-5.4-7.2c3.8,0.5,7.6,1.2,11.4,1.7c1.3,0.2,2.6,0.4,3.8-0.2c0.8-0.3,1.5-1,2.1-1.6c9.3-9,18.6-18,27.9-27
		c0.9,11.2,1.8,22.5,2.7,33.7c0.4,5.1,0.8,10.5-1.3,15.1c-1.2,2.7-3.2,5.4-2.4,8.2c0.3,0.9,0.9,1.7,1.4,2.4
		c3.9,5.2,7.8,10.5,11.7,15.7c-7.4,7.8-14.8,15.6-22.2,23.4c-1.8,1.9-3.7,3.9-4.9,6.2c-0.9,1.8-1.5,3.7-2.1,5.6
		c-2.2,9-5.3,17.8-7.9,26.7c-2.6,8.8-5.2,17.6-7.8,26.4c-0.1,0.4-0.2,0.7-0.5,1c-0.2,0.2-0.6,0.3-0.9,0.4c-5.3,1.3-10.6,2.7-15.9,4
		c-0.9,0.2-1.7,0.4-2.6,0.5c-0.1,0-0.1,0-0.2,0c-1,0-2-0.3-3-0.5c-5.2-1.3-10.3-2.6-15.5-3.9c-0.4-0.1-0.9-0.2-1.2-0.6
		c-0.2-0.2-0.3-0.6-0.4-0.9c-5.1-17.7-10-35.6-15.6-53.1c-0.1-0.3-0.2-0.7-0.3-1C505.3,634.9,507.8,626.8,509.8,618.5z"/>
	<path class="st6" d="M510,618.5c0.8-2.8,1.6-5.6,3-8.1c0.3-0.5,0.5-1,0.8-1.4l15.9,6.8l-18.2,7l-1.8-2.8
		C509.8,619.5,509.9,619,510,618.5z"/>
</g>
<g id="The_IAN" class="st0">
	<polygon class="st6" points="309.4,517 276.1,502.9 290.4,524.4 	"/>
	<polygon class="st3" points="334,594.4 319.8,588.4 305.6,594.4 305.6,595.8 319.8,589.7 334,595.8 	"/>
	<g class="st1">
		<polygon class="st7" points="371.2,511.9 333.3,495.8 349.6,520.3 		"/>
		<polygon class="st7" points="392.8,511.9 430.7,495.8 414.4,520.3 		"/>
		<path class="st7" d="M382,615.3c1.2,0,2.4-0.3,3.6-0.6c6.1-1.5,12.3-3.1,18.4-4.6c0.5-0.1,1-0.3,1.4-0.7c0.2-0.3,0.4-0.7,0.5-1
			c6-21,11.8-42.2,18.5-62.9c0.7-2.3,1.4-4.6,2.5-6.7c1.5-2.8,3.7-5.1,5.8-7.4c8.8-9.2,17.6-18.5,26.3-27.7
			c-4.6-6.2-9.2-12.4-13.8-18.6c-0.7-0.9-1.3-1.8-1.7-2.9c-1-3.3,1.4-6.6,2.8-9.7c2.5-5.5,2-11.9,1.6-17.9
			c-1.1-13.3-2.2-26.6-3.2-39.9c-11,10.7-22,21.3-33,32c-0.8,0.7-1.6,1.5-2.5,1.9c-1.4,0.6-3,0.4-4.5,0.2c-7.2-1-14.7-2.4-22.2-2.6
			c-7.6-0.2-15.3,1.5-22.8,2.6c-1.5,0.2-3.1,0.4-4.5-0.2c-1-0.4-1.8-1.2-2.5-1.9c-11-10.7-22-21.3-33-32
			c-1.1,13.3-2.2,26.6-3.2,39.9c-0.5,6-0.9,12.4,1.6,17.9c1.4,3.1,3.8,6.4,2.8,9.7c-0.3,1.1-1,2-1.7,2.9
			c-4.6,6.2-9.2,12.4-13.8,18.6c8.8,9.2,17.6,18.5,26.3,27.7c2.2,2.3,4.4,4.6,5.8,7.4c1.1,2.1,1.8,4.4,2.5,6.7
			c2.6,10.7,6.2,21.1,9.3,31.6c3.1,10.4,6.2,20.8,9.2,31.3c0.1,0.4,0.3,0.9,0.6,1.2c0.3,0.3,0.7,0.4,1,0.5
			c6.3,1.6,12.6,3.2,18.9,4.8C380,615.2,381.1,615.4,382,615.3C381.9,615.3,381.9,615.3,382,615.3z"/>
		<polygon class="st2" points="398.2,600.2 382,593.3 365.8,600.2 365.8,601.8 382,594.9 398.2,601.8 		"/>
	</g>
	<g class="st1">
		<path class="st7" d="M345.5,576.8c-3.1-10.5-6.8-21-9.3-31.6c-0.7-2.3-1.4-4.6-2.5-6.7c-1.5-2.8-3.7-5.1-5.8-7.4
			c-8.8-9.2-17.6-18.5-26.3-27.7c4.6-6.2,9.2-12.4,13.8-18.6c0.7-0.9,1.3-1.8,1.7-2.9c1-3.3-1.4-6.6-2.8-9.7
			c-1.7-3.9-2-8.2-1.9-12.5c-4.4,0.5-8.9,1.3-13.3,1.9c-1.3,0.2-2.7,0.4-4-0.2c-0.9-0.4-1.5-1-2.2-1.7c-9.7-9.3-19.3-18.7-29-28
			c-0.9,11.7-1.9,23.3-2.8,35c-0.4,5.3-0.8,10.9,1.4,15.7c1.2,2.8,3.4,5.6,2.4,8.5c-0.3,0.9-0.9,1.7-1.5,2.5
			c-4,5.4-8.1,10.9-12.1,16.3c7.7,8.1,15.4,16.2,23.1,24.3c1.9,2,3.8,4,5.1,6.5c1,1.8,1.6,3.9,2.2,5.9c2.3,9.3,5.5,18.5,8.2,27.7
			c2.7,9.1,5.4,18.3,8.1,27.4c0.1,0.4,0.2,0.8,0.5,1c0.2,0.2,0.6,0.3,0.9,0.4c5.5,1.4,11,2.8,16.5,4.2c0.9,0.2,1.8,0.5,2.7,0.5
			c0.1,0,0.1,0,0.2,0c1.1,0,2.1-0.3,3.2-0.5c5.4-1.4,10.7-2.7,16.1-4.1c0.4-0.1,0.9-0.2,1.2-0.6c0.2-0.3,0.3-0.6,0.4-0.9
			c2.2-7.5,4.3-15.1,6.5-22.6C345.9,578.2,345.7,577.5,345.5,576.8z"/>
	</g>
	<polygon class="st6" points="454.4,517 487.6,502.9 473.3,524.4 	"/>
	<polygon class="st3" points="430.7,594.4 444.9,588.4 459.1,594.4 459.1,595.8 444.9,589.7 430.7,595.8 	"/>
	<g class="st1">
		<path class="st7" d="M418.2,576.8c3.1-10.5,6.8-21,9.3-31.6c0.7-2.3,1.4-4.6,2.5-6.7c1.5-2.8,3.7-5.1,5.8-7.4
			c8.8-9.2,17.6-18.5,26.3-27.7c-4.6-6.2-9.2-12.4-13.8-18.6c-0.7-0.9-1.3-1.8-1.7-2.9c-1-3.3,1.4-6.6,2.8-9.7
			c1.7-3.9,2-8.2,1.9-12.5c4.4,0.5,8.9,1.3,13.3,1.9c1.3,0.2,2.7,0.4,4-0.2c0.9-0.4,1.5-1,2.2-1.7c9.7-9.3,19.3-18.7,29-28
			c0.9,11.7,1.9,23.3,2.8,35c0.4,5.3,0.8,10.9-1.4,15.7c-1.2,2.8-3.4,5.6-2.4,8.5c0.3,0.9,0.9,1.7,1.5,2.5c4,5.4,8.1,10.9,12.1,16.3
			c-7.7,8.1-15.4,16.2-23.1,24.3c-1.9,2-3.8,4-5.1,6.5c-1,1.8-1.6,3.9-2.2,5.9c-2.3,9.3-5.5,18.5-8.2,27.7
			c-2.7,9.1-5.4,18.3-8.1,27.4c-0.1,0.4-0.2,0.8-0.5,1c-0.2,0.2-0.6,0.3-0.9,0.4c-5.5,1.4-11,2.8-16.5,4.2c-0.9,0.2-1.8,0.5-2.7,0.5
			c-0.1,0-0.1,0-0.2,0c-1.1,0-2.1-0.3-3.2-0.5c-5.4-1.4-10.7-2.7-16.1-4.1c-0.4-0.1-0.9-0.2-1.2-0.6c-0.2-0.3-0.3-0.6-0.4-0.9
			c-2.2-7.5-4.3-15.1-6.5-22.6C417.8,578.2,418,577.5,418.2,576.8z"/>
	</g>
</g>
<g id="Layer_9" class="st0">
	<polygon class="st3" points="321.6,418.2 359.2,410.7 340.3,429 	"/>
	<path class="st3" d="M405.3,478.4c8-7.8,4.4-4.6,8.5-8.2c3.7-3.2,7.4-6.4,11.2-9.6c4.8-4,9.6-8,14.4-12c-0.1-0.3,5.3-4.3,5.9-4.9
		c0.8-0.8,1.5-1.6,2.2-2.5c-1.4-1.4-3-2.9-4.4-4.2c-8.7-8.4-4.8-5-9.1-8.7c-3.7-3.2-7.4-6.4-11.2-9.6c-4.8-4-9.6-8-14.4-12
		c0.1-0.3-5.3-4.3-5.9-4.9c-4.5-4.5-7.5-11-10.8-16.4c-3.5-5.6-7-11.2-10.5-16.8c-4.4-7-8.8-14.1-13.2-21.1l-8.5,49.2l-46.9,8.7
		l-2.1,8.4c-0.6,0.1-1.2,0.3-1.8,0.4c-5.4,1.1-10.8,2.3-16.2,3.4c-7.4,1.6-14.8,3.1-22.2,4.7c-3.1,0.7-6.2,1.3-9.3,2
		c-1.2,0.2-2.3,0.5-3.5,0.7c-1,0.2-2.7,0.9-3.7,0.6c-0.5-0.2-0.9-0.5-1.4-0.8c-0.6-0.4-1.2-0.9-1.8-1.3c-0.2-0.1-0.4-0.3-0.6-0.3
		s-0.4,0.1-0.6,0.1c-3.6,1.5-7.2,3-10.8,4.6c-0.1,0-0.2,0.1-0.2,0.1c-0.1,0.1,0,0.2,0,0.3c0.2,2.1,0.4,4.2,0.6,6.3
		c0,0.6,0.1,1.1,0.3,1.6s0.5,1,0.7,1.5c0.7,1.2,1.5,2.5,2.2,3.7c0.2,0.3,1.2,2.5,1.5,2.6c0.6,0.1,1.2,0.1,1.8,0.2l4.9,10.3l4-9.3
		c0.7,0.1,1.4,0.2,2.2,0.3c0.9,3.1,3.1,10.1,3.2,10c0.2-0.1,2.9-6.1,4.3-9.1c0.7,0.1,1.3,0.2,2,0.2l2.8,9.4l4.7-8.5
		c0.4,0,0.8,0.1,1.2,0.1l3.3,8.3l5.1-7.3c0.5,0.1,1,0.1,1.6,0.2l3.6,7.2l3.8-6.3c4.2,0.5,8.4,1,12.6,1.5c0.1,0,0.2,0,0.3,0.1
		c0.1,0.1,0.1,0.3,0.1,0.4c0,3.7,0.1,7.4,0.1,11c0,0.1,0,0.3-0.1,0.4s-0.2,0.1-0.3,0.1c-3.5,0.5-6.9,1.1-10.4,1.6l-3.2-6.4l-3,7.4
		c-0.9,0.1-1.7,0.3-2.6,0.4l-3-7.8l-4.1,8.9c-0.8,0.1-1.6,0.2-2.4,0.4l-2.7-9.3l-3.7,10.3c-0.6,0.1-1.2,0.2-1.9,0.3l-3.3-10
		l-3.4,10.9c-0.5,0.1-1,0.1-1.5,0.2l-4.7-10.3l-2.9,11.4c-0.2,0-0.4,0.1-0.6,0.1c-0.3,0.1-0.5,0.1-0.7,0.3c-0.1,0.2-0.2,0.4-0.3,0.6
		c-0.9,3.8-0.8,7.9,0.1,11.7c0,0.2,0.1,0.3,0.2,0.4c0.1,0.1,0.3,0.1,0.5,0.1c12.4,0.2,24.8,0.4,37.1,0.6c6.6,0.1,13.2,0.1,19.8,0.1
		c9.1,0,18.1,2.3,26.8,4.5l32.6-6L377,433L405.3,478.4z"/>
	<polygon class="st3" points="333.3,508.5 371,501 352.1,519.3 	"/>
	<polygon class="st3" points="373.9,580.6 398.3,556.4 388.1,530.7 390.1,530.7 400.6,556.9 376.4,581.1 375.2,582.3 373.2,581.3 	
		"/>
	<polygon class="st3" points="526.1,462.4 488.4,455 507.3,473.3 	"/>
	<polygon class="st3" points="485.5,534.6 461.2,510.4 471.3,484.7 469.4,484.7 458.8,510.9 483,535.1 484.3,536.2 486.3,535.2 	"/>
	<path class="st3" d="M610.6,471.1c0-0.1-0.1-0.1-0.2-0.1c-3.6-1.5-7.2-3-10.8-4.6c-0.2-0.1-0.4-0.2-0.6-0.1c-0.2,0-0.4,0.2-0.6,0.3
		c-0.6,0.4-1.2,0.9-1.8,1.3c-0.4,0.3-0.9,0.6-1.4,0.8c-1,0.3-2.6-0.4-3.7-0.6c-1.2-0.2-2.3-0.5-3.5-0.7c-3.1-0.7-6.2-1.3-9.3-2
		c-7.4-1.6-14.8-3.1-22.2-4.7c-5.4-1.1-10.8-2.3-16.2-3.4c-0.6-0.1-1.2-0.3-1.8-0.4l-2.1-8.4l-46.9-8.7l-8.5-49.2
		c-4.4,7-8.8,14.1-13.2,21.1c-3.5,5.6-7,11.2-10.5,16.8c-3.4,5.4-6.3,11.9-10.8,16.4c-0.6,0.6-6,4.7-5.9,4.9c-4.8,4-9.6,8-14.4,12
		c-3.8,3.1-7.5,6.4-11.2,9.6c-4.2,3.6-0.5,0.4-8.5,8.2c2.1,3.7,4.4,7.4,7.3,10.3c0.6,0.6,6,4.7,5.9,4.9c4.8,4,9.6,8,14.4,12
		c3.8,3.1,7.5,6.4,11.2,9.6c4.3,3.7,0.3,0.3,9.1,8.7c3,2.9,6.9,6.4,7.9,7.9c3.5,5.3,7.4,11.3,11.6,17.7c1.1-1.1,1.9-2,2.7-2.8
		c2.9-2.7,6.9-5.1,10.3-7.3c0.9-0.6,1.7-1,2.7-1.4c1.4-0.6,2.9-1,4.3-1.3c6-1.5,12-3.1,18-4.6c9.5-2.4,19.3-5.1,29.2-5.1
		c6.6,0,13.2,0,19.8-0.1c12.4-0.1,24.8-0.4,37.1-0.6c0.2,0,0.4,0,0.5-0.1s0.2-0.3,0.2-0.4c0.9-3.8,0.9-7.9,0.1-11.7
		c0-0.2-0.1-0.4-0.3-0.6c-0.2-0.2-0.5-0.3-0.7-0.3s-0.4-0.1-0.6-0.1l-2.9-11.4l-4.7,10.3c-0.5-0.1-1-0.1-1.5-0.2l-3.4-10.9l-3.3,10
		c-0.6-0.1-1.2-0.2-1.9-0.3l-3.7-10.3l-2.7,9.3c-0.8-0.1-1.6-0.2-2.4-0.4l-4.1-8.9l-3,7.8c-0.9-0.1-1.7-0.3-2.6-0.4l-3-7.4l-3.2,6.4
		c-3.5-0.5-6.9-1.1-10.4-1.6c-0.1,0-0.3,0-0.3-0.1c-0.1-0.1-0.1-0.2-0.1-0.4c0-3.7,0.1-7.4,0.1-11c0-0.1,0-0.3,0.1-0.4
		s0.2-0.1,0.3-0.1c4.2-0.5,8.4-1,12.6-1.5l3.8,6.3l3.6-7.2c0.5-0.1,1-0.1,1.6-0.2l5.1,7.3l3.3-8.3c0.4,0,0.8-0.1,1.2-0.1l4.7,8.5
		l2.8-9.4c0.7-0.1,1.3-0.2,2-0.2c1.4,3.1,4.1,9,4.3,9.1s2.3-6.9,3.3-10c0.7-0.1,1.4-0.2,2.2-0.3l4,9.3l4.9-10.3
		c0.6-0.1,1.2-0.1,1.8-0.2c0.3,0,1.3-2.3,1.5-2.6c0.7-1.2,1.5-2.5,2.2-3.7c0.3-0.5,0.6-1,0.7-1.5c0.2-0.5,0.2-1.1,0.3-1.6
		c0.2-2.1,0.4-4.2,0.6-6.3C610.7,471.3,610.7,471.2,610.6,471.1z"/>
	<path class="st3" d="M433.3,631c-3.7,1.7-14.8,4.5-18.5,6.3c-0.1,0.1-0.3,0.1-0.5,0.1c0,0,0,0-0.1,0s-0.2-0.1-0.3-0.2
		c-6.1-5.8-6.4-13.9-10.9-21.6c-3.6-6.2-9.3-10.8-14.5-15.7c-3.4-3.2-5-5.2-6.6-6.6c-2.9-2.7-6.9-5.1-10.3-7.3
		c-0.9-0.6-1.7-1-2.7-1.4c-1.4-0.6-2.9-1-4.3-1.3c-6-1.5-12-3.1-18-4.6c-9.5-2.4-19.3-5.1-29.2-5.1c-6.6,0-13.2,0-19.8-0.1
		c-12.4-0.1-24.8-0.4-37.1-0.6c-0.2,0-0.4,0-0.5-0.1s-0.2-0.3-0.2-0.4c-0.9-3.8-0.9-7.9-0.1-11.7c0-0.2,0.1-0.4,0.3-0.6
		c0.2-0.2,0.5-0.3,0.7-0.3s0.4-0.1,0.6-0.1l2.9-11.4l4.7,10.3c0.5-0.1,1-0.1,1.5-0.2l3.4-10.9l3.3,10c0.6-0.1,1.2-0.2,1.9-0.3
		l3.7-10.3l2.7,9.3c0.8-0.1,1.6-0.2,2.4-0.4l4.1-8.9l3,7.8c0.9-0.1,1.7-0.3,2.6-0.4l3-7.4l3.2,6.4c3.5-0.5,6.9-1.1,10.4-1.6
		c0.1,0,0.3,0,0.3-0.1c0.1-0.1,0.1-0.2,0.1-0.4c0-3.7-0.1-7.4-0.1-11c0-0.1,0-0.3-0.1-0.4c-0.1-0.1-0.2-0.1-0.3-0.1
		c-4.2-0.5-8.4-1-12.6-1.5l-3.8,6.3l-3.6-7.2c-0.5-0.1-1-0.1-1.6-0.2l-5.1,7.3l-3.3-8.3c-0.4,0-0.8-0.1-1.2-0.1l-4.7,8.5l-2.8-9.4
		c-0.7-0.1-1.3-0.2-2-0.2c-1.4,3.1-4.1,9-4.3,9.1c-0.2,0.1-2.3-6.9-3.3-10c-0.7-0.1-1.4-0.2-2.2-0.3l-4,9.3l-4.9-10.3
		c-0.6-0.1-1.2-0.1-1.8-0.2c-0.3,0-1.3-2.3-1.5-2.6c-0.7-1.2-1.5-2.5-2.2-3.7c-0.3-0.5-0.6-1-0.7-1.5c-0.2-0.5-0.2-1.1-0.3-1.6
		c-0.2-2.1-0.4-4.2-0.6-6.3c0-0.1,0-0.2,0-0.3s0.1-0.1,0.2-0.1c3.6-1.5,7.2-3,10.8-4.6c0.2-0.1,0.4-0.2,0.6-0.1
		c0.2,0,0.4,0.2,0.6,0.3c0.6,0.4,1.2,0.9,1.8,1.3c0.4,0.3,0.9,0.6,1.4,0.8c1,0.3,2.6-0.4,3.7-0.6c1.2-0.2,2.3-0.5,3.5-0.7
		c3.1-0.7,6.2-1.3,9.3-2c7.4-1.6,14.8-3.1,22.2-4.7c5.4-1.1,10.8-2.3,16.2-3.4c0.6-0.1,1.2-0.3,1.8-0.4l2.1-8.4l46.9-8.7l8.5-49.2
		c4.4,7,8.8,14.1,13.2,21.1c3.5,5.6,7,11.2,10.5,16.8c3.4,5.4,6.3,11.9,10.8,16.4c0.6,0.6,6,4.7,5.9,4.9c4.8,4,9.6,8,14.4,12
		c3.8,3.1,7.5,6.4,11.2,9.6c4.3,3.7,0.3,0.3,9.1,8.7c3,2.9,6.9,6.4,7.9,7.9c14.2,21.7,36.6,55.7,49,78.5
		c-0.4-0.7-46.4,9.4-49.3,10.7C451.4,625.9,441.8,627.4,433.3,631z"/>
</g>
<g id="Layer_2" class="st0">
	<g class="st1">
		<rect x="-1266" y="-268.2" class="st8" width="2087.8" height="1215.8"/>
		<path d="M823,948.5h-2090.2V-269H823V948.5z M-1264.8,946.8H820.7V-267.3h-2085.5V946.8z"/>
	</g>
</g>
<g id="Layer_13" class="st0">
	<g id="XMLID_5_" class="st1">
		<g>
			<path class="st9" d="M32.4,464.4c0.1,0.1,0,0.2,0,0.3c-0.2,2.1-0.4,4.2-0.6,6.3c0,0.6-0.1,1.1-0.3,1.6c-0.2,0.5-0.5,1-0.7,1.5
				c-0.7,1.2-1.5,2.5-2.2,3.7c-0.2,0.3-1.2,2.5-1.5,2.6c-0.6,0.1-1.2,0.1-1.8,0.2l-4.9,10.3l-4-9.3c-0.7,0.1-1.4,0.2-2.1,0.3
				c-0.9,3.1-3.1,10.1-3.3,10s-2.9-6.1-4.3-9.1c-0.7,0.1-1.3,0.2-2,0.2l-2.8,9.4l-4.7-8.5c-0.4,0-0.8,0.1-1.2,0.1l-3.3,8.3l-5.1-7.4
				c-0.5,0.1-1,0.1-1.6,0.2l-3.6,7.2l-3.8-6.3c-4.2,0.5-8.4,1-12.6,1.5c-0.1,0-0.2,0-0.3,0.1s-0.1,0.2-0.1,0.4
				c0,3.7-0.1,7.4-0.1,11.1c0,0.1,0,0.3,0.1,0.4s0.2,0.1,0.3,0.1c3.5,0.5,6.9,1.1,10.3,1.6l3.2-6.4l3,7.4c0.9,0.1,1.7,0.3,2.6,0.4
				l3-7.8l4.1,8.9c0.8,0.1,1.6,0.2,2.4,0.4l2.7-9.3l3.7,10.3c0.6,0.1,1.2,0.2,1.9,0.3l3.3-10l3.4,10.9c0.5,0.1,1,0.1,1.5,0.2
				l4.7-10.2l2.9,11.4c0.2,0,0.4,0.1,0.6,0.1c0.3,0.1,0.5,0.1,0.7,0.3c0.1,0.2,0.2,0.4,0.3,0.6c0.9,3.9,0.8,7.9-0.1,11.7
				c0,0.2-0.1,0.3-0.2,0.4c-0.1,0.1-0.3,0.1-0.5,0.1c-12.4,0.2-24.8,0.4-37.1,0.6c-6.6,0.1-13.2,0.1-19.8,0.1
				c-9.9,0-19.7,2.7-29.2,5.1c-6,1.5-12,3.1-18,4.6c-1.5,0.4-2.9,0.7-4.3,1.3c-0.9,0.4-1.8,0.9-2.7,1.4c-3.4,2.2-7.4,4.6-10.3,7.3
				c-1.5,1.4-3.2,3.4-6.6,6.6c-5.2,4.9-10.9,9.5-14.5,15.7c-4.5,7.8-4.8,15.8-10.9,21.6c-0.1,0.1-0.2,0.2-0.3,0.2c0,0,0,0-0.1,0
				c-0.2,0-0.3,0-0.5-0.1c-3-1.5-11.1-3.6-15.9-5.3c1.9-6.8,3.9-13.6,5.9-20.4c1.1-0.2,1.8-0.2,1.9-0.2c-0.4-0.7-0.8-1.4-1.2-2.1
				c2.4-7.9,4.8-15.9,7.3-23.7c0.8-2.7,1.6-5.4,2.9-7.9c1.8-3.3,4.4-6.1,6.9-8.7c3-3.1,5.9-6.2,8.9-9.4l21.6,21.6l1.2,1.1l2-1
				l-0.7-0.7l-22.7-22.5c7-7.3,13.9-14.6,20.9-21.9c-5.5-7.3-10.9-14.7-16.4-22c-0.8-1.1-1.6-2.1-2-3.4c-1.2-3.9,1.6-7.8,3.3-11.5
				c2.9-6.5,2.4-14,1.8-21.1c-0.6-7-1.1-14-1.7-20.9c0.1-0.1,0.1-0.2,0.2-0.3c4.4-7,8.8-14.1,13.2-21.1l8.5,49.2l46.9,8.7l2.1,8.4
				c0.6,0.1,1.2,0.3,1.8,0.4c5.4,1.1,10.8,2.3,16.2,3.4c7.4,1.6,14.8,3.1,22.2,4.7c3.1,0.7,6.2,1.3,9.3,2c1.1,0.2,2.3,0.5,3.5,0.7
				c1,0.2,2.7,0.9,3.7,0.6c0.5-0.2,0.9-0.5,1.4-0.8c0.6-0.4,1.2-0.9,1.8-1.3c0.2-0.1,0.4-0.3,0.6-0.3s0.4,0.1,0.6,0.1
				c3.6,1.5,7.2,3.1,10.8,4.6C32.2,464.3,32.3,464.4,32.4,464.4z M-71.9,467.6l18.8-10.9l-37.7-7.5L-71.9,467.6z"/>
			<path class="st9" d="M-112,462.4c5.5,7.3,10.9,14.7,16.4,22c-6.9,7.3-13.9,14.6-20.9,21.9l-1.6-1.6l10.2-25.7h-2l-10.5,26.2
				l2.6,2.6c-3,3.1-5.9,6.2-8.9,9.4c-2.6,2.7-5.2,5.4-6.9,8.7c-1.3,2.5-2.1,5.2-2.9,7.9c-2.5,7.9-5,15.8-7.3,23.7
				c-11-19.6-28.5-46.7-41.9-67.3c2-3.1,4-6.1,5.8-8.8c1-1.5,4.9-5,7.9-7.9c8.7-8.4,4.8-5,9.1-8.7c3.7-3.2,7.4-6.4,11.2-9.6
				c4.8-4,9.6-8,14.4-12c-0.1-0.2,5.3-4.3,5.9-4.9c4.5-4.5,7.5-11,10.8-16.4c3.4-5.5,6.9-11,10.3-16.5c0.6,7,1.1,14,1.7,20.9
				c0.6,7.1,1.1,14.7-1.8,21.1c-1.7,3.7-4.5,7.6-3.3,11.5C-113.6,460.2-112.8,461.3-112,462.4z M-148.4,504.1l19.3-29l-44.8,19.1
				L-148.4,504.1z"/>
			<path class="st9" d="M-107.9,479l-10.2,25.7l1.6,1.6c-0.5,0.5-0.9,1-1.4,1.5l-2.6-2.6L-110,479H-107.9z"/>
			<path class="st9" d="M-112.7,379.2c0.7,8.7,1.4,17.5,2.1,26.2c-3.4,5.5-6.9,11-10.3,16.5c-3.4,5.4-6.3,11.9-10.8,16.4
				c-0.6,0.6-6,4.7-5.9,4.9c-4.8,4-9.6,8-14.4,12c-3.8,3.1-7.5,6.4-11.2,9.6c-4.3,3.7-0.3,0.3-9.1,8.7c-3,2.9-6.9,6.4-7.9,7.9
				c-1.8,2.8-3.7,5.7-5.8,8.8c-2.1-3.2-4.1-6.2-5.9-9.1c-1-1.5-4.9-5-7.9-7.9c-8.7-8.4-4.8-5-9.1-8.7c-3.7-3.2-7.4-6.4-11.2-9.6
				c-4.8-4-9.6-8-14.4-12c0.1-0.2-5.3-4.3-5.9-4.9c-4.5-4.5-7.5-11-10.8-16.4c-3.5-5.6-7-11.2-10.5-16.9c-0.3-0.6-0.7-1.1-1-1.7
				c0.6-8,1.3-16,1.9-24c13,12.6,26,25.2,39,37.8c0.9,0.9,1.8,1.8,3,2.3c1.7,0.7,3.6,0.5,5.3,0.2c8.9-1.2,17.9-3.2,27-3.1
				c8.8,0.2,17.7,1.9,26.2,3.1c1.8,0.2,3.7,0.5,5.3-0.2c1.1-0.5,2.1-1.4,3-2.3C-138.7,404.4-125.7,391.8-112.7,379.2z"/>
			<path class="st9" d="M-143.9,557.5c-0.2,0.8-0.5,1.5-0.7,2.3c-6.8,1.1-30.8,6.3-41.9,9c-13.4-3.2-42.1-9.4-42.6-8.9l0,0
				c10.9-19.9,29.3-48.3,43.3-69.6C-172.4,510.8-154.9,537.9-143.9,557.5z"/>
			<path class="st9" d="M-144.6,559.8c-2,6.8-4,13.6-5.9,20.4c-1-0.4-1.9-0.7-2.6-1c-8.5-3.6-18.2-5.1-26.7-8.7
				c-0.6-0.3-3.1-0.9-6.7-1.8C-175.3,566.1-151.4,560.9-144.6,559.8z"/>
			<path class="st9" d="M-153.1,579.2c0.7,0.3,1.5,0.6,2.6,1c-2.7,9.3-5.3,18.6-8,27.9c-0.1,0.4-0.3,0.9-0.5,1.2
				c-0.4,0.5-1,0.6-1.6,0.8c-7.2,1.8-14.5,3.7-21.7,5.5c-1.4,0.4-2.8,0.7-4.3,0.7c-0.1,0-0.2,0-0.3,0c-1.2,0-2.5-0.3-3.7-0.6
				c-7.4-1.9-14.9-3.7-22.3-5.6c-0.4-0.1-0.9-0.2-1.2-0.6c-0.4-0.3-0.5-0.9-0.7-1.4c-2.6-9.2-5.4-18.5-8.1-27.7
				c1.7-0.6,3.2-1.1,4.2-1.5c8.5-3.6,18.2-5.1,26.7-8.7c0.6-0.2,2.6-0.8,5.6-1.5c3.6,0.9,6.1,1.5,6.7,1.8
				C-171.3,574.1-161.6,575.7-153.1,579.2z M-167.4,599.7v-1.9l-19.2-8.1l-19.2,8.1v1.9l19.2-8.2L-167.4,599.7z"/>
			<path class="st9" d="M-191.8,481.2c1.9,2.8,3.8,5.9,5.9,9.1c-13.9,21.4-32.4,49.8-43.3,69.6c-2.7-8.7-5.4-17.3-7.6-26.1
				c-0.8-2.7-1.6-5.4-2.9-7.9c-1.8-3.3-4.3-6.1-6.9-8.7c-2.8-2.9-5.6-5.8-8.3-8.8l3.4-3.4l-10.5-26.2h-2l10.2,25.7l-2.5,2.5
				c-7.1-7.5-14.3-15-21.4-22.5c5.5-7.3,10.9-14.7,16.4-22c0.8-1.1,1.6-2.1,2-3.4c1.2-3.9-1.6-7.8-3.3-11.5
				c-2.9-6.5-2.4-14-1.8-21.1c0.6-7.7,1.2-15.5,1.9-23.2c0.3,0.6,0.7,1.1,1,1.7c3.5,5.6,7,11.2,10.5,16.9
				c3.4,5.4,6.3,11.9,10.8,16.4c0.6,0.6,6,4.7,5.9,4.9c4.8,4,9.6,8,14.4,12c3.8,3.1,7.5,6.4,11.2,9.6c4.3,3.7,0.3,0.3,9.1,8.7
				C-196.7,476.2-192.7,479.7-191.8,481.2z M-224.9,504.1l25.5-9.9l-44.8-19.1L-224.9,504.1z"/>
			<path class="st9" d="M-186.5,568.8c-3,0.7-5,1.3-5.6,1.5c-8.5,3.6-18.2,5.1-26.7,8.7c-1,0.4-2.4,1-4.2,1.5
				c-0.9-3.1-1.8-6.2-2.8-9.3c-1.1-3.8-2.3-7.5-3.5-11.3C-228.5,559.4-199.9,565.6-186.5,568.8z"/>
			<path class="st9" d="M-229.1,559.9c1.2,3.8,2.4,7.5,3.5,11.3c0.9,3.1,1.8,6.2,2.8,9.3c-4.8,1.6-11.6,3.5-14.3,4.8
				c-0.1,0.1-0.3,0.1-0.5,0.1c0,0,0,0-0.1,0s-0.2-0.1-0.3-0.2c-6.1-5.8-6.4-13.9-10.9-21.6c-3.6-6.2-9.3-10.8-14.5-15.7
				c-3.4-3.2-5-5.2-6.6-6.6c-2.9-2.7-6.9-5.1-10.3-7.3c-0.8-0.6-1.7-1-2.7-1.4c-1.4-0.6-2.9-1-4.3-1.3c-6-1.5-12-3.1-18-4.6
				c-9.5-2.4-19.3-5.1-29.2-5.1c-6.6,0-13.2,0-19.8-0.1c-12.4-0.1-24.8-0.4-37.1-0.6c-0.2,0-0.4,0-0.5-0.1s-0.2-0.3-0.2-0.4
				c-0.9-3.8-0.9-7.9-0.1-11.7c0-0.2,0.1-0.4,0.2-0.6c0.2-0.2,0.5-0.3,0.7-0.3s0.4-0.1,0.6-0.1l2.9-11.4l4.7,10.2
				c0.5-0.1,1-0.1,1.5-0.2l3.4-10.9l3.3,10c0.6-0.1,1.2-0.2,1.9-0.3l3.7-10.3l2.7,9.3c0.8-0.1,1.6-0.2,2.4-0.4l4.1-8.9l3,7.8
				c0.9-0.1,1.7-0.3,2.6-0.4l3-7.4l3.2,6.5c3.5-0.5,6.9-1.1,10.4-1.6c0.1,0,0.3,0,0.3-0.1c0.1-0.1,0.1-0.2,0.1-0.4
				c0-3.7-0.1-7.4-0.1-11c0-0.1,0-0.3-0.1-0.4s-0.2-0.1-0.3-0.1c-4.2-0.5-8.4-1-12.6-1.5l-3.8,6.3l-3.6-7.2c-0.5-0.1-1-0.1-1.6-0.2
				l-5.1,7.4l-3.3-8.3c-0.4-0.1-0.8-0.1-1.2-0.1l-4.7,8.5l-2.8-9.4c-0.7-0.1-1.3-0.2-2-0.2c-1.4,3.1-4.1,9-4.3,9.1s-2.3-6.9-3.3-10
				c-0.7-0.1-1.4-0.2-2.2-0.2l-4,9.3l-4.9-10.3c-0.6-0.1-1.2-0.1-1.8-0.2c-0.3,0-1.3-2.3-1.5-2.6c-0.7-1.2-1.5-2.5-2.2-3.7
				c-0.3-0.5-0.6-1-0.7-1.5c-0.2-0.5-0.2-1.1-0.3-1.6c-0.2-2.1-0.4-4.2-0.6-6.3c0-0.1,0-0.2,0-0.3s0.1-0.1,0.2-0.1
				c3.6-1.5,7.2-3.1,10.8-4.6c0.2-0.1,0.4-0.1,0.6-0.1s0.4,0.1,0.6,0.3c0.6,0.4,1.2,0.9,1.8,1.3c0.4,0.3,0.9,0.6,1.4,0.8
				c1,0.3,2.6-0.4,3.7-0.6s2.3-0.5,3.5-0.7c3.1-0.7,6.2-1.3,9.3-2c7.4-1.6,14.8-3.1,22.2-4.7c5.4-1.1,10.8-2.3,16.1-3.4
				c0.6-0.1,1.2-0.3,1.8-0.4l2.1-8.4l46.9-8.7l8.5-49.2c4.1,6.5,8.1,13,12.2,19.4c-0.6,7.7-1.3,15.5-1.9,23.2
				c-0.6,7.1-1.1,14.7,1.8,21.1c1.7,3.7,4.5,7.6,3.3,11.5c-0.4,1.3-1.2,2.4-2,3.4c-5.4,7.3-10.9,14.7-16.4,22
				c7.1,7.5,14.3,15,21.4,22.5l-21.8,21.7l-0.8,0.7l2,1l1.2-1.1l20.7-20.8c2.8,2.9,5.6,5.8,8.3,8.8c2.6,2.7,5.2,5.4,6.9,8.7
				c1.3,2.5,2.1,5.2,2.9,7.9C-234.5,542.5-231.8,551.2-229.1,559.9L-229.1,559.9z M-299.9,467.3L-281,449l-37.7,7.5L-299.9,467.3z"
				/>
			<path class="st9" d="M-261.9,478.7l10.5,26.2l-3.4,3.4c-0.5-0.5-0.9-1-1.4-1.5l2.5-2.5l-10.2-25.7L-261.9,478.7L-261.9,478.7z"/>
		</g>
		<g>
			<polygon class="st2" points="-318.7,456.5 -281,449 -299.9,467.3 			"/>
			<polygon class="st2" points="-254.8,508.4 -275.6,529.1 -276.8,530.3 -278.8,529.3 -278,528.6 -256.2,506.9 -253.7,504.4 
				-263.9,478.7 -261.9,478.7 -251.4,504.9 			"/>
			<path class="st2" d="M-186.5,568.8c-3,0.7-5,1.3-5.6,1.5c-8.5,3.6-18.2,5.1-26.7,8.7c-1,0.4-2.4,1-4.2,1.5
				c-4.8,1.6-11.6,3.5-14.3,4.8c-0.1,0.1-0.3,0.1-0.5,0.1c0,0,0,0-0.1,0s-0.2-0.1-0.3-0.2c-6.1-5.8-6.4-13.9-10.9-21.6
				c-3.6-6.2-9.3-10.8-14.5-15.7c-3.4-3.2-5-5.2-6.6-6.6c-2.9-2.7-6.9-5.1-10.3-7.3c-0.8-0.6-1.7-1-2.7-1.4c-1.4-0.6-2.9-1-4.3-1.3
				c-6-1.5-12-3.1-18-4.6c-9.5-2.4-19.3-5.1-29.2-5.1c-6.6,0-13.2,0-19.8-0.1c-12.4-0.1-24.8-0.4-37.1-0.6c-0.2,0-0.4,0-0.5-0.1
				s-0.2-0.3-0.2-0.4c-0.9-3.8-0.9-7.9-0.1-11.7c0-0.2,0.1-0.4,0.2-0.6c0.2-0.2,0.5-0.3,0.7-0.3s0.4-0.1,0.6-0.1l2.9-11.4l4.7,10.2
				c0.5-0.1,1-0.1,1.5-0.2l3.4-10.9l3.3,10c0.6-0.1,1.2-0.2,1.9-0.3l3.7-10.3l2.7,9.3c0.8-0.1,1.6-0.2,2.4-0.4l4.1-8.9l3,7.8
				c0.9-0.1,1.7-0.3,2.6-0.4l3-7.4l3.2,6.5c3.5-0.5,6.9-1.1,10.4-1.6c0.1,0,0.3,0,0.3-0.1c0.1-0.1,0.1-0.2,0.1-0.4
				c0-3.7-0.1-7.4-0.1-11c0-0.1,0-0.3-0.1-0.4s-0.2-0.1-0.3-0.1c-4.2-0.5-8.4-1-12.6-1.5l-3.8,6.3l-3.6-7.2c-0.5-0.1-1-0.1-1.6-0.2
				l-5.1,7.4l-3.3-8.3c-0.4-0.1-0.8-0.1-1.2-0.1l-4.7,8.5l-2.8-9.4c-0.7-0.1-1.3-0.2-2-0.2c-1.4,3.1-4.1,9-4.3,9.1s-2.3-6.9-3.3-10
				c-0.7-0.1-1.4-0.2-2.2-0.2l-4,9.3l-4.9-10.3c-0.6-0.1-1.2-0.1-1.8-0.2c-0.3,0-1.3-2.3-1.5-2.6c-0.7-1.2-1.5-2.5-2.2-3.7
				c-0.3-0.5-0.6-1-0.7-1.5c-0.2-0.5-0.2-1.1-0.3-1.6c-0.2-2.1-0.4-4.2-0.6-6.3c0-0.1,0-0.2,0-0.3s0.1-0.1,0.2-0.1
				c3.6-1.5,7.2-3.1,10.8-4.6c0.2-0.1,0.4-0.1,0.6-0.1s0.4,0.1,0.6,0.3c0.6,0.4,1.2,0.9,1.8,1.3c0.4,0.3,0.9,0.6,1.4,0.8
				c1,0.3,2.6-0.4,3.7-0.6s2.3-0.5,3.5-0.7c3.1-0.7,6.2-1.3,9.3-2c7.4-1.6,14.8-3.1,22.2-4.7c5.4-1.1,10.8-2.3,16.1-3.4
				c0.6-0.1,1.2-0.3,1.8-0.4l2.1-8.4l46.9-8.7l8.5-49.2c4.1,6.5,8.1,13,12.2,19.4c0.3,0.6,0.7,1.1,1,1.7c3.5,5.6,7,11.2,10.5,16.9
				c3.4,5.4,6.3,11.9,10.8,16.4c0.6,0.6,6,4.7,5.9,4.9c4.8,4,9.6,8,14.4,12c3.8,3.1,7.5,6.4,11.2,9.6c4.3,3.7,0.3,0.3,9.1,8.7
				c3,2.9,6.9,6.4,7.9,7.9c1.9,2.8,3.8,5.9,5.9,9.1c13.4,20.6,31,47.6,41.9,67.3c0.4,0.7,0.8,1.4,1.2,2.1c0-0.1-0.7,0-1.9,0.2
				C-151.4,560.9-175.3,566.1-186.5,568.8z"/>
			<polygon class="st2" points="-53.1,456.7 -90.8,449.3 -71.9,467.6 			"/>
			<polygon class="st2" points="-117.9,507.8 -96.2,529.4 -95,530.5 -93,529.5 -93.8,528.9 -116.5,506.3 -118.1,504.7 -107.9,479 
				-109.9,479 -120.4,505.2 			"/>
			<path class="st2" d="M-229.1,559.9L-229.1,559.9c0.6-0.5,29.2,5.7,42.6,8.9c3.6,0.9,6.1,1.5,6.7,1.8c8.5,3.6,18.2,5.1,26.7,8.7
				c0.7,0.3,1.5,0.6,2.6,1c4.8,1.7,12.9,3.8,15.9,5.3c0.1,0.1,0.3,0.1,0.5,0.1c0,0,0,0,0.1,0s0.2-0.1,0.3-0.2
				c6.1-5.8,6.4-13.9,10.9-21.6c3.6-6.2,9.3-10.8,14.5-15.7c3.4-3.2,5-5.2,6.6-6.6c2.9-2.7,6.9-5.1,10.3-7.3c0.8-0.6,1.7-1,2.7-1.4
				c1.4-0.6,2.9-1,4.3-1.3c6-1.5,12-3.1,18-4.6c9.5-2.4,19.3-5.1,29.2-5.1c6.6,0,13.2,0,19.8-0.1c12.4-0.1,24.8-0.4,37.1-0.6
				c0.2,0,0.4,0,0.5-0.1s0.2-0.3,0.2-0.4c0.9-3.8,0.9-7.9,0.1-11.7c0-0.2-0.1-0.4-0.3-0.6c-0.2-0.2-0.5-0.3-0.7-0.3
				s-0.4-0.1-0.6-0.1L16,496.6l-4.7,10.2c-0.5-0.1-1-0.1-1.5-0.2l-3.4-10.9l-3.3,10c-0.6-0.1-1.2-0.2-1.9-0.3l-3.7-10.3l-2.7,9.3
				c-0.8-0.1-1.6-0.2-2.4-0.4l-4.1-8.9l-3,7.8c-0.9-0.1-1.7-0.3-2.6-0.4l-3-7.4l-3.2,6.4c-3.5-0.5-6.9-1.1-10.3-1.6
				c-0.1,0-0.3-0.1-0.3-0.1c-0.1-0.1-0.1-0.2-0.1-0.4c0-3.7,0.1-7.4,0.1-11.1c0-0.1,0-0.3,0.1-0.4s0.2-0.1,0.3-0.1
				c4.2-0.5,8.4-1,12.6-1.5l3.8,6.3l3.6-7.2c0.5-0.1,1-0.1,1.6-0.2l5.1,7.4l3.3-8.3c0.4-0.1,0.8-0.1,1.2-0.1l4.7,8.5l2.8-9.4
				c0.7-0.1,1.3-0.2,2-0.2c1.4,3.1,4.1,9,4.3,9.1c0.2,0.1,2.3-6.9,3.3-10c0.7-0.1,1.4-0.2,2.1-0.3l4,9.3l4.9-10.3
				c0.6-0.1,1.2-0.1,1.8-0.2c0.3,0,1.3-2.3,1.5-2.6c0.7-1.2,1.5-2.5,2.2-3.7c0.3-0.5,0.6-0.9,0.7-1.5c0.2-0.5,0.2-1.1,0.3-1.6
				c0.2-2.1,0.4-4.2,0.6-6.3c0-0.1,0-0.2,0-0.3s-0.1-0.1-0.2-0.1c-3.6-1.5-7.2-3.1-10.8-4.6c-0.2-0.1-0.4-0.2-0.6-0.1
				c-0.2,0-0.4,0.2-0.6,0.3c-0.6,0.4-1.2,0.9-1.8,1.3c-0.4,0.3-0.9,0.6-1.4,0.8c-1,0.3-2.6-0.4-3.7-0.6c-1.2-0.2-2.3-0.5-3.5-0.7
				c-3.1-0.6-6.2-1.3-9.3-2c-7.4-1.6-14.8-3.1-22.2-4.7c-5.4-1.1-10.8-2.3-16.2-3.4c-0.6-0.1-1.2-0.2-1.8-0.4l-2.1-8.4l-46.9-8.7
				l-8.5-49.2c-4.4,7-8.8,14.1-13.2,21.1c-0.1,0.1-0.1,0.2-0.2,0.3c-3.4,5.5-6.9,11-10.3,16.5c-3.4,5.4-6.3,11.9-10.8,16.4
				c-0.6,0.6-6,4.7-5.9,4.9c-4.8,4-9.6,8-14.4,12c-3.8,3.1-7.5,6.4-11.2,9.6c-4.3,3.7-0.3,0.3-9.1,8.7c-3,2.9-6.9,6.4-7.9,7.9
				c-1.8,2.8-3.7,5.7-5.8,8.8C-199.8,511.6-218.2,540-229.1,559.9"/>
			<polygon class="st2" points="-199.4,494.2 -244.2,475.1 -224.9,504.1 			"/>
			<polygon class="st2" points="-173.9,494.2 -129.1,475.1 -148.4,504.1 			"/>
			<path class="st2" d="M-222.9,580.5c2.7,9.2,5.5,18.4,8.1,27.7c0.1,0.5,0.3,1,0.7,1.4c0.3,0.3,0.8,0.4,1.2,0.6
				c7.4,1.9,14.9,3.7,22.3,5.6c1.2,0.3,2.4,0.6,3.7,0.6c0.1,0,0.2,0,0.3,0c1.4,0,2.9-0.4,4.3-0.7c7.2-1.8,14.5-3.7,21.7-5.5
				c0.6-0.1,1.2-0.3,1.6-0.8c0.3-0.3,0.4-0.8,0.5-1.2c2.7-9.3,5.3-18.6,8-27.9c1.9-6.8,3.9-13.6,5.9-20.4c0.2-0.8,0.4-1.5,0.7-2.3
				c2.4-7.9,4.8-15.9,7.3-23.7c0.8-2.7,1.6-5.4,2.9-7.9c1.8-3.3,4.4-6.1,6.9-8.7c3-3.1,5.9-6.2,8.9-9.4c0.5-0.5,0.9-1,1.4-1.5
				c7-7.3,13.9-14.6,20.9-21.9c-5.5-7.3-10.9-14.7-16.4-22c-0.8-1.1-1.6-2.1-2-3.4c-1.2-3.9,1.6-7.8,3.3-11.5
				c2.9-6.5,2.4-14,1.8-21.1c-0.6-7-1.1-14-1.7-20.9c-0.7-8.7-1.4-17.5-2.1-26.2c-13,12.6-26,25.2-39,37.8c-0.9,0.9-1.8,1.8-3,2.3
				c-1.7,0.7-3.6,0.5-5.3,0.2c-8.6-1.2-17.4-2.9-26.2-3.1c-9-0.2-18,1.8-27,3.1c-1.8,0.2-3.7,0.5-5.3-0.2c-1.1-0.5-2.1-1.4-3-2.3
				c-13-12.6-26-25.2-39-37.8c-0.6,8-1.3,16-1.9,24c-0.6,7.7-1.3,15.5-1.9,23.2c-0.6,7.1-1.1,14.7,1.8,21.1
				c1.7,3.7,4.5,7.6,3.3,11.5c-0.4,1.3-1.2,2.4-2,3.4c-5.4,7.3-10.9,14.7-16.4,22c7.1,7.5,14.3,15,21.4,22.5c0.5,0.5,0.9,1,1.4,1.5
				c2.8,2.9,5.6,5.8,8.3,8.8c2.6,2.7,5.2,5.4,6.9,8.7c1.3,2.5,2.1,5.2,2.9,7.9c2.1,8.8,4.9,17.4,7.6,26.1l0,0
				c1.2,3.8,2.4,7.5,3.5,11.3C-224.7,574.3-223.8,577.4-222.9,580.5z"/>
			<polygon class="st2" points="-167.4,597.8 -186.6,589.7 -205.8,597.8 -205.8,599.7 -186.6,591.5 -167.4,599.7 			"/>
		</g>
	</g>
	<polygon class="st3" points="-999.3,548.4 -961.7,540.9 -980.6,559.2 	"/>
	<polygon class="st3" points="-958.7,620.5 -934.4,596.3 -944.6,570.6 -942.6,570.6 -932.1,596.8 -956.3,621 -957.5,622.2 
		-959.5,621.2 	"/>
	<path class="st3" d="M-899.4,670.9c-3.7,1.7-14.8,4.5-18.5,6.3c-0.1,0.1-0.3,0.1-0.5,0.1c0,0,0,0-0.1,0s-0.2-0.1-0.3-0.2
		c-6.1-5.8-6.4-13.9-10.9-21.6c-3.6-6.2-9.3-10.8-14.5-15.7c-3.4-3.2-5-5.2-6.6-6.6c-2.9-2.7-6.9-5.1-10.3-7.3
		c-0.9-0.6-1.7-1-2.7-1.4c-1.4-0.6-2.9-1-4.3-1.3c-6-1.5-12-3.1-18-4.6c-9.5-2.4-19.3-5.1-29.2-5.1c-6.6,0-13.2,0-19.8-0.1
		c-12.4-0.1-24.8-0.4-37.1-0.6c-0.2,0-0.4,0-0.5-0.1s-0.2-0.3-0.2-0.4c-0.9-3.8-0.9-7.9-0.1-11.7c0-0.2,0.1-0.4,0.3-0.6
		c0.2-0.2,0.5-0.3,0.7-0.3s0.4-0.1,0.6-0.1l2.9-11.4l4.7,10.3c0.5-0.1,1-0.1,1.5-0.2l3.4-10.9l3.3,10c0.6-0.1,1.2-0.2,1.9-0.3
		l3.7-10.3l2.7,9.3c0.8-0.1,1.6-0.2,2.4-0.4l4.1-8.9l3,7.8c0.9-0.1,1.7-0.3,2.6-0.4l3-7.4l3.2,6.4c3.5-0.5,6.9-1.1,10.4-1.6
		c0.1,0,0.3,0,0.3-0.1c0.1-0.1,0.1-0.2,0.1-0.4c0-3.7-0.1-7.4-0.1-11c0-0.1,0-0.3-0.1-0.4c-0.1-0.1-0.2-0.1-0.3-0.1
		c-4.2-0.5-8.4-1-12.6-1.5l-3.8,6.3l-3.6-7.2c-0.5-0.1-1-0.1-1.6-0.2l-5.1,7.3l-3.3-8.3c-0.4,0-0.8-0.1-1.2-0.1l-4.7,8.5l-2.8-9.4
		c-0.7-0.1-1.3-0.2-2-0.2c-1.4,3.1-4.1,9-4.3,9.1c-0.2,0.1-2.3-6.9-3.3-10c-0.7-0.1-1.4-0.2-2.2-0.3l-4,9.3l-4.9-10.3
		c-0.6-0.1-1.2-0.1-1.8-0.2c-0.3,0-1.3-2.3-1.5-2.6c-0.7-1.2-1.5-2.5-2.2-3.7c-0.3-0.5-0.6-1-0.7-1.5c-0.2-0.5-0.2-1.1-0.3-1.6
		c-0.2-2.1-0.4-4.2-0.6-6.3c0-0.1,0-0.2,0-0.3s0.1-0.1,0.2-0.1c3.6-1.5,7.2-3,10.8-4.6c0.2-0.1,0.4-0.2,0.6-0.1
		c0.2,0,0.4,0.2,0.6,0.3c0.6,0.4,1.2,0.9,1.8,1.3c0.4,0.3,0.9,0.6,1.4,0.8c1,0.3,2.6-0.4,3.7-0.6c1.2-0.2,2.3-0.5,3.5-0.7
		c3.1-0.7,6.2-1.3,9.3-2c7.4-1.6,14.8-3.1,22.2-4.7c5.4-1.1,10.8-2.3,16.2-3.4c0.6-0.1,1.2-0.3,1.8-0.4l2.1-8.4l46.9-8.7l8.5-49.2
		c4.4,7,8.8,14.1,13.2,21.1c3.5,5.6,7,11.2,10.5,16.8c3.4,5.4,6.3,11.9,10.8,16.4c0.6,0.6,6,4.7,5.9,4.9c4.8,4,9.6,8,14.4,12
		c3.8,3.1,7.5,6.4,11.2,9.6c4.3,3.7,0.3,0.3,9.1,8.7c3,2.9,6.9,6.4,7.9,7.9c14.2,21.7,36.6,55.7,49,78.5
		c-0.4-0.7-46.4,9.4-49.3,10.7C-881.2,665.8-890.9,667.3-899.4,670.9z"/>
	<polygon class="st3" points="-733.8,548.6 -771.5,541.2 -752.6,559.5 	"/>
	<polygon class="st3" points="-774.5,620.8 -798.8,596.6 -788.6,570.9 -790.6,570.9 -801.1,597.1 -776.9,621.3 -775.7,622.4 
		-773.7,621.4 	"/>
	<path class="st3" d="M-833.8,671.1c3.7,1.7,14.8,4.5,18.5,6.3c0.1,0.1,0.3,0.1,0.5,0.1c0,0,0,0,0.1,0s0.2-0.1,0.3-0.2
		c6.1-5.8,6.4-13.9,10.9-21.6c3.6-6.2,9.3-10.8,14.5-15.7c3.4-3.2,5-5.2,6.6-6.6c2.9-2.7,6.9-5.1,10.3-7.3c0.9-0.6,1.7-1,2.7-1.4
		c1.4-0.6,2.9-1,4.3-1.3c6-1.5,12-3.1,18-4.6c9.5-2.4,19.3-5.1,29.2-5.1c6.6,0,13.2,0,19.8-0.1c12.4-0.1,24.8-0.4,37.1-0.6
		c0.2,0,0.4,0,0.5-0.1s0.2-0.3,0.2-0.4c0.9-3.8,0.9-7.9,0.1-11.7c0-0.2-0.1-0.4-0.3-0.6c-0.2-0.2-0.5-0.3-0.7-0.3s-0.4-0.1-0.6-0.1
		l-2.9-11.4l-4.7,10.3c-0.5-0.1-1-0.1-1.5-0.2l-3.4-10.9l-3.3,10c-0.6-0.1-1.2-0.2-1.9-0.3l-3.7-10.3l-2.7,9.3
		c-0.8-0.1-1.6-0.2-2.4-0.4l-4.1-8.9l-3,7.8c-0.9-0.1-1.7-0.3-2.6-0.4l-3-7.4l-3.2,6.4c-3.5-0.5-6.9-1.1-10.4-1.6
		c-0.1,0-0.3,0-0.3-0.1c-0.1-0.1-0.1-0.2-0.1-0.4c0-3.7,0.1-7.4,0.1-11c0-0.1,0-0.3,0.1-0.4c0.1-0.1,0.2-0.1,0.3-0.1
		c4.2-0.5,8.4-1,12.6-1.5l3.8,6.3l3.6-7.2c0.5-0.1,1-0.1,1.6-0.2l5.1,7.3l3.3-8.3c0.4,0,0.8-0.1,1.2-0.1l4.7,8.5l2.8-9.4
		c0.7-0.1,1.3-0.2,2-0.2c1.4,3.1,4.1,9,4.3,9.1s2.3-6.9,3.3-10c0.7-0.1,1.4-0.2,2.2-0.3l4,9.3l4.9-10.3c0.6-0.1,1.2-0.1,1.8-0.2
		c0.3,0,1.3-2.3,1.5-2.6c0.7-1.2,1.5-2.5,2.2-3.7c0.3-0.5,0.6-1,0.7-1.5c0.2-0.5,0.2-1.1,0.3-1.6c0.2-2.1,0.4-4.2,0.6-6.3
		c0-0.1,0-0.2,0-0.3s-0.1-0.1-0.2-0.1c-3.6-1.5-7.2-3-10.8-4.6c-0.2-0.1-0.4-0.2-0.6-0.1c-0.2,0-0.4,0.2-0.6,0.3
		c-0.6,0.4-1.2,0.9-1.8,1.3c-0.4,0.3-0.9,0.6-1.4,0.8c-1,0.3-2.6-0.4-3.7-0.6c-1.2-0.2-2.3-0.5-3.5-0.7c-3.1-0.7-6.2-1.3-9.3-2
		c-7.4-1.6-14.8-3.1-22.2-4.7c-5.4-1.1-10.8-2.3-16.2-3.4c-0.6-0.1-1.2-0.3-1.8-0.4l-2.1-8.4l-46.9-8.7l-8.5-49.2
		c-4.4,7-8.8,14.1-13.2,21.1c-3.5,5.6-7,11.2-10.5,16.8c-3.4,5.4-6.3,11.9-10.8,16.4c-0.6,0.6-6,4.7-5.9,4.9c-4.8,4-9.6,8-14.4,12
		c-3.8,3.1-7.5,6.4-11.2,9.6c-4.3,3.7-0.3,0.3-9.1,8.7c-3,2.9-6.9,6.4-7.9,7.9c-14.2,21.7-36.6,55.7-49,78.5
		c0.4-0.7,46.4,9.4,49.3,10.7C-851.9,666-842.3,667.6-833.8,671.1z"/>
	<g id="XMLID_8_" class="st1">
		<g>
			<polygon class="st2" points="-880.1,586.1 -924.9,567 -905.6,596 			"/>
			<polygon class="st2" points="-854.6,586.1 -809.8,567 -829,596 			"/>
			<path class="st2" d="M-867.3,708.2c1.4,0,2.9-0.4,4.3-0.7c7.2-1.8,14.5-3.7,21.7-5.5c0.6-0.2,1.2-0.3,1.6-0.8
				c0.3-0.3,0.4-0.8,0.5-1.2c7.1-24.8,14-49.8,21.9-74.4c0.8-2.7,1.6-5.4,2.9-7.9c1.8-3.3,4.4-6.1,6.9-8.7
				c10.4-10.9,20.8-21.8,31.1-32.8c-5.5-7.3-10.9-14.7-16.4-22c-0.8-1.1-1.6-2.1-2-3.4c-1.2-3.9,1.6-7.7,3.3-11.5
				c2.9-6.5,2.4-14,1.8-21.2c-1.3-15.7-2.5-31.4-3.8-47.2c-13,12.6-26,25.2-39,37.8c-0.9,0.9-1.8,1.8-3,2.3
				c-1.7,0.7-3.6,0.5-5.3,0.2c-8.6-1.2-17.4-2.9-26.2-3.1c-9-0.2-18,1.8-27,3.1c-1.8,0.2-3.7,0.5-5.3-0.2c-1.1-0.5-2.1-1.4-3-2.3
				c-13-12.6-26-25.2-39-37.8c-1.3,15.7-2.6,31.4-3.8,47.2c-0.6,7.1-1.1,14.7,1.8,21.2c1.7,3.7,4.5,7.6,3.3,11.5
				c-0.4,1.3-1.2,2.4-2,3.4c-5.5,7.3-10.9,14.7-16.4,22c10.4,10.9,20.8,21.8,31.1,32.8c2.6,2.7,5.2,5.4,6.9,8.7
				c1.3,2.5,2.1,5.2,2.9,7.9c3,12.6,7.4,25,11,37.4c3.6,12.3,7.3,24.6,10.9,37c0.1,0.5,0.3,1,0.7,1.4c0.3,0.3,0.8,0.4,1.2,0.5
				c7.4,1.9,14.9,3.7,22.3,5.6c1.2,0.3,2.4,0.6,3.7,0.6C-867.5,708.2-867.4,708.2-867.3,708.2z"/>
		</g>
	</g>
	<polygon class="st3" points="-848.1,689.7 -867.3,681.6 -886.5,689.7 -886.5,691.5 -867.3,683.4 -848.1,691.5 	"/>
</g>
<g id="Layer_11" class="st0">
	<g id="XMLID_7_" class="st1">
		<g>
			<path class="st10" d="M-411.9,460.6l22.6,21.9l22.4-13L-411.9,460.6z M-434.6,496l-12.6,31.3l28.9,28.9l1.5,1.4l2.4-1.2l-0.9-0.8
				l-29-28.8l12.1-30.7h-2.4V496z M-410.4,442.5l56,10.4l2.6,10c0.7,0.2,1.4,0.3,2.2,0.5c6.4,1.4,12.9,2.7,19.3,4.1
				c8.8,1.9,17.7,3.7,26.5,5.6c3.7,0.8,7.4,1.6,11.1,2.3c1.4,0.3,2.7,0.6,4.1,0.9c1.2,0.3,3.2,1.1,4.4,0.7c0.6-0.2,1.1-0.6,1.6-0.9
				c0.7-0.5,1.5-1.1,2.2-1.6c0.2-0.2,0.4-0.3,0.7-0.3c0.2,0,0.5,0.1,0.7,0.2c4.3,1.8,8.6,3.6,12.9,5.5c0.1,0,0.2,0.1,0.3,0.2
				s0.1,0.2,0,0.3c-0.2,2.5-0.5,5-0.7,7.5c-0.1,0.7-0.1,1.3-0.3,2c-0.2,0.6-0.5,1.2-0.9,1.8c-0.9,1.5-1.8,3-2.6,4.4
				c-0.2,0.4-1.4,3-1.8,3.1c-0.7,0.1-1.4,0.2-2.1,0.3l-5.9,12.3l-4.8-11.1c-0.9,0.1-1.7,0.2-2.6,0.3c-1.1,3.7-3.6,12.1-3.9,12
				c-0.2-0.1-3.4-7.2-5.1-10.9c-0.8,0.1-1.6,0.2-2.4,0.3l-3.3,11.2l-5.6-10.1c-0.5,0.1-1,0.1-1.5,0.2l-3.9,10l-6-8.8
				c-0.6,0.1-1.2,0.2-1.9,0.2l-4.3,8.5l-4.5-7.5c-5,0.6-10,1.2-15,1.8c-0.1,0-0.3,0-0.4,0.1s-0.1,0.3-0.1,0.5
				c-0.1,4.4-0.1,8.8-0.1,13.2c0,0.1,0,0.3,0.1,0.4c0.1,0.1,0.3,0.1,0.4,0.2c4.1,0.6,8.2,1.3,12.4,1.9l3.9-7.7l3.6,8.9
				c1,0.2,2,0.3,3.1,0.5l3.5-9.3l4.9,10.7c0.9,0.1,1.9,0.3,2.8,0.4l3.2-11.1l4.4,12.3c0.7,0.1,1.5,0.2,2.2,0.3l4-11.9l4.1,13
				c0.6,0.1,1.2,0.1,1.8,0.2l5.6-12.2l3.4,13.5c0.2,0.1,0.5,0.1,0.7,0.1c0.3,0.1,0.6,0.1,0.9,0.4c0.2,0.2,0.2,0.5,0.3,0.7
				c1,4.6,1,9.4-0.1,14c0,0.2-0.1,0.4-0.2,0.5c-0.2,0.1-0.4,0.1-0.6,0.1c-14.8,0.2-29.5,0.5-44.3,0.7c-7.9,0.1-15.7,0.1-23.6,0.2
				c-11.8,0-23.5,3.2-34.8,6.1c-7.2,1.8-14.3,3.7-21.5,5.5c-1.7,0.4-3.5,0.9-5.2,1.6c-1.1,0.5-2.2,1.1-3.2,1.7
				c-4.1,2.6-7.1,6.6-10.6,9.9c-2.8,2.6-5.6,5.3-8.4,7.9c-6.2,5.8-12.3,11.7-18.5,17.5c-7.3,6.9-14.6,13.9-21.9,20.8
				c-0.1,0.1-0.3,0.2-0.4,0.3c0,0,0,0-0.1,0c-0.2,0-0.4-0.1-0.6-0.1c-4.4-2.1-8.7-4.2-13.1-6.2c-8.4-3.9-16.8-7.8-25.2-11.8
				c3.3-10.8,6.6-21.6,9.9-32.4c3-9.9,5.4-20.2,10.3-29.4c3.3-6.1,7.9-10.6,12.4-15.7c3.4-3.9,7-7.5,10.4-11.3
				c8.1-8.8,16.3-17.6,24.4-26.4l-23.7-31.5c-0.2-0.3,6.3-5.1,7-5.9c5.3-5.4,8.9-13.2,12.9-19.6c4.2-6.7,8.4-13.4,12.6-20.1
				c5.2-8.4,10.5-16.8,15.7-25.2L-410.4,442.5z"/>
			<path class="st10" d="M-603.7,403.7c1.1,1.1,2.3,2.2,3.7,2.8c2,0.9,4.3,0.6,6.5,0.3c10.9-1.5,22-4,33-3.7
				c10.8,0.2,21.6,2.3,32.1,3.7c2.2,0.3,4.5,0.6,6.5-0.3c1.4-0.6,2.6-1.7,3.7-2.8c15.9-15.4,31.9-30.8,47.8-46.3
				c1.6,19.2,3.1,38.5,4.7,57.7c0.7,8.7,1.3,18-2.3,25.9c-2.1,4.5-5.5,9.3-4,14c0.5,1.6,1.5,2.9,2.4,4.2c6.7,9,13.4,17.9,20,26.9
				c-12.7,13.4-25.4,26.7-38.1,40.1c-3.1,3.3-6.3,6.6-8.5,10.7c-1.6,3-2.6,6.4-3.6,9.7c-9.7,30-18,60.7-26.8,91
				c-0.2,0.5-0.3,1.1-0.7,1.5c-0.5,0.6-1.3,0.8-2,1c-8.9,2.2-17.7,4.5-26.6,6.7c-1.7,0.4-3.5,0.9-5.2,0.9c-0.1,0-0.2,0-0.3,0
				c-1.5,0-3-0.4-4.5-0.8c-9.1-2.3-18.2-4.6-27.3-6.9c-0.5-0.1-1.1-0.3-1.5-0.7s-0.6-1.1-0.8-1.7c-4.3-15.1-8.9-30.2-13.3-45.3
				c-4.5-15.2-9.8-30.4-13.5-45.8c-1-3.3-2-6.6-3.6-9.7c-2.1-4.1-5.3-7.4-8.5-10.7c-12.7-13.4-25.4-26.7-38.1-40.1
				c6.7-9,13.4-18,20-26.9c1-1.3,1.9-2.6,2.4-4.2c1.5-4.8-2-9.5-4-14c-3.6-7.9-3-17.1-2.3-25.9c1.6-19.2,3.1-38.5,4.7-57.7
				C-635.6,372.9-619.6,388.3-603.7,403.7z M-560.9,616l-23.5,10v2.3l23.5-10l23.5,10V626L-560.9,616z M-631.4,474.9l23.6,35.4
				l31.2-12.1L-631.4,474.9z M-545.3,498.3l31.2,12.1l23.6-35.4L-545.3,498.3z"/>
			<path class="st10" d="M-707.5,556.3l2.4,1.2l1.5-1.4l28.8-28.9l-12.6-31.2h-2.4l12.1,30.7l-29,28.8L-707.5,556.3z M-755.1,469.5
				l22.4,13l22.6-21.9L-755.1,469.5z M-814,503.1l-5.6,10.1l-3.3-11.2c-0.8-0.1-1.6-0.2-2.4-0.3c-1.7,3.7-4.9,10.7-5.1,10.9
				s-2.8-8.3-3.9-12c-0.9-0.1-1.7-0.2-2.6-0.3l-4.8,11.1l-5.8-12.3c-0.7-0.1-1.4-0.2-2.1-0.3c-0.4,0-1.6-2.7-1.8-3.1
				c-0.9-1.5-1.8-3-2.6-4.4c-0.3-0.6-0.7-1.1-0.9-1.8c-0.2-0.6-0.3-1.3-0.3-2c-0.2-2.5-0.5-5-0.7-7.5c0-0.1,0-0.2,0-0.3
				c0.1-0.1,0.2-0.1,0.2-0.2c4.3-1.8,8.6-3.6,12.9-5.5c0.2-0.1,0.4-0.2,0.7-0.2s0.5,0.2,0.7,0.3c0.7,0.5,1.5,1.1,2.2,1.6
				c0.5,0.4,1,0.7,1.6,0.9c1.1,0.3,3.1-0.5,4.4-0.7c1.4-0.3,2.7-0.6,4.1-0.9c3.7-0.8,7.4-1.6,11.1-2.3c8.8-1.9,17.7-3.7,26.5-5.6
				c6.4-1.4,12.8-2.7,19.3-4.1c0.7-0.1,1.4-0.3,2.2-0.5l2.6-10l56-10.4l10.1-58.7c5.2,8.4,10.5,16.8,15.7,25.2
				c4.2,6.7,8.4,13.4,12.6,20.1c4,6.4,7.6,14.2,12.9,19.6c0.7,0.7,7.2,5.6,7,5.9l-23.7,31.5c8.1,8.8,16.3,17.6,24.4,26.4
				c3.5,3.8,7.1,7.4,10.5,11.3c4.5,5.1,9.1,9.6,12.4,15.7c4.9,9.1,7.3,19.5,10.3,29.4c3.3,10.8,6.6,21.6,9.9,32.4
				c-8.4,3.9-16.8,7.8-25.2,11.8c-4.4,2-8.8,4.1-13.1,6.2c-0.2,0.1-0.4,0.2-0.6,0.1h-0.1c-0.2-0.1-0.3-0.2-0.4-0.3
				c-7.3-6.9-14.6-13.9-22-20.8c-6.2-5.8-12.3-11.7-18.5-17.5c-2.8-2.6-5.5-5.3-8.4-7.9c-3.5-3.2-6.5-7.2-10.6-9.9
				c-1-0.7-2.1-1.3-3.2-1.7c-1.6-0.7-3.4-1.2-5.2-1.6c-7.2-1.8-14.3-3.7-21.5-5.5c-11.3-2.9-23-6.1-34.8-6.1c-7.8,0-15.7,0-23.6-0.2
				c-14.8-0.2-29.6-0.4-44.3-0.7c-0.2,0-0.4,0-0.6-0.1c-0.1-0.1-0.2-0.3-0.2-0.5c-1.1-4.6-1.1-9.4-0.1-14c0.1-0.3,0.1-0.5,0.3-0.7
				s0.5-0.3,0.9-0.4c0.2-0.1,0.5-0.1,0.7-0.1l3.4-13.5l5.6,12.2c0.6-0.1,1.2-0.1,1.8-0.2l4.1-13l4,11.9c0.7-0.1,1.5-0.2,2.2-0.3
				l4.4-12.3l3.2,11.1c0.9-0.1,1.9-0.3,2.8-0.4l4.9-10.7l3.5,9.3c1-0.2,2-0.3,3.1-0.5l3.6-8.9l3.9,7.7c4.1-0.6,8.2-1.3,12.3-1.9
				c0.2,0,0.3-0.1,0.4-0.2c0.1-0.1,0.1-0.3,0.1-0.4c0-4.4-0.1-8.8-0.1-13.2c0-0.2,0-0.4-0.1-0.5s-0.2-0.1-0.4-0.1
				c-5-0.6-10-1.2-15-1.8l-4.5,7.5l-4.3-8.5c-0.6-0.1-1.3-0.2-1.9-0.2l-6,8.8l-3.9-10C-813.1,503.3-813.6,503.2-814,503.1z"/>
		</g>
		<g>
			<polygon class="st2" points="-576.5,498.3 -631.4,474.9 -607.8,510.3 			"/>
			<polygon class="st2" points="-545.3,498.3 -490.5,474.9 -514.1,510.3 			"/>
			<path class="st2" d="M-560.9,647.8c1.8,0,3.5-0.5,5.2-0.9c8.9-2.2,17.7-4.5,26.6-6.7c0.7-0.2,1.5-0.4,2-1c0.4-0.4,0.5-1,0.7-1.5
				c8.7-30.3,17.1-61,26.8-91c1-3.3,2-6.6,3.6-9.7c2.1-4.1,5.3-7.4,8.5-10.7c12.7-13.4,25.4-26.7,38.1-40.1c-6.7-9-13.4-18-20-26.9
				c-1-1.3-1.9-2.6-2.4-4.2c-1.5-4.8,2-9.5,4-14c3.6-7.9,3-17.1,2.3-25.9c-1.6-19.2-3.1-38.5-4.7-57.7
				c-15.9,15.4-31.9,30.8-47.8,46.3c-1.1,1.1-2.3,2.2-3.7,2.8c-2,0.9-4.3,0.6-6.5,0.3c-10.5-1.5-21.3-3.5-32.1-3.7
				c-11.1-0.2-22.1,2.2-33,3.7c-2.2,0.3-4.5,0.6-6.5-0.3c-1.4-0.6-2.5-1.7-3.7-2.8c-15.9-15.4-31.9-30.8-47.8-46.3
				c-1.6,19.2-3.1,38.5-4.7,57.7c-0.7,8.7-1.3,18,2.3,25.9c2.1,4.5,5.5,9.3,4,14c-0.5,1.6-1.5,2.9-2.4,4.2c-6.7,9-13.4,17.9-20,26.9
				c12.7,13.4,25.4,26.7,38.1,40.1c3.1,3.3,6.3,6.6,8.5,10.7c1.6,3,2.6,6.4,3.6,9.7c3.7,15.4,9,30.6,13.5,45.8
				c4.5,15.1,9,30.2,13.3,45.3c0.2,0.6,0.4,1.2,0.8,1.7c0.4,0.4,1,0.5,1.5,0.7c9.1,2.3,18.2,4.6,27.3,6.9c1.5,0.4,3,0.7,4.5,0.8
				C-561.2,647.8-561.1,647.8-560.9,647.8z"/>
			<path class="st2" d="M-502.7,568.9c3-9.9,5.4-20.2,10.3-29.4c3.3-6.1,7.9-10.6,12.4-15.7c3.4-3.9,7-7.5,10.4-11.3
				c8.1-8.8,16.3-17.6,24.4-26.4l-23.7-31.5c-0.2-0.3,6.3-5.1,7-5.9c5.3-5.4,8.9-13.2,12.9-19.6c4.2-6.7,8.4-13.4,12.6-20.1
				c5.2-8.4,10.5-16.8,15.7-25.2l10.1,58.7l56,10.4l2.6,10c0.7,0.2,1.4,0.3,2.2,0.5c6.4,1.4,12.9,2.7,19.3,4.1
				c8.8,1.9,17.7,3.7,26.5,5.6c3.7,0.8,7.4,1.6,11.1,2.3c1.4,0.3,2.7,0.6,4.1,0.9c1.2,0.3,3.2,1.1,4.4,0.7c0.6-0.2,1.1-0.6,1.6-0.9
				c0.7-0.5,1.5-1.1,2.2-1.6c0.2-0.2,0.4-0.3,0.7-0.3c0.2,0,0.5,0.1,0.7,0.2c4.3,1.8,8.6,3.6,12.9,5.5c0.1,0,0.2,0.1,0.3,0.2
				s0.1,0.2,0,0.3c-0.2,2.5-0.5,5-0.7,7.5c-0.1,0.7-0.1,1.3-0.3,2c-0.2,0.6-0.5,1.2-0.9,1.8c-0.9,1.5-1.8,3-2.6,4.4
				c-0.2,0.4-1.4,3-1.8,3.1c-0.7,0.1-1.4,0.2-2.1,0.3l-5.9,12.3l-4.8-11.1c-0.9,0.1-1.7,0.2-2.6,0.3c-1.1,3.7-3.6,12.1-3.9,12
				c-0.2-0.1-3.4-7.2-5.1-10.9c-0.8,0.1-1.6,0.2-2.4,0.3l-3.3,11.2l-5.6-10.1c-0.5,0.1-1,0.1-1.5,0.2l-3.9,10l-6-8.8
				c-0.6,0.1-1.2,0.2-1.9,0.2l-4.3,8.5l-4.5-7.5c-5,0.6-10,1.2-15,1.8c-0.1,0-0.3,0-0.4,0.1s-0.1,0.3-0.1,0.5
				c-0.1,4.4-0.1,8.8-0.1,13.2c0,0.1,0,0.3,0.1,0.4c0.1,0.1,0.3,0.1,0.4,0.2c4.1,0.6,8.2,1.3,12.4,1.9l3.9-7.7l3.6,8.9
				c1,0.2,2,0.3,3.1,0.5l3.5-9.3l4.9,10.7c0.9,0.1,1.9,0.3,2.8,0.4l3.2-11.1l4.4,12.3c0.7,0.1,1.5,0.2,2.2,0.3l4-11.9l4.1,13
				c0.6,0.1,1.2,0.1,1.8,0.2l5.6-12.2l3.4,13.5c0.2,0.1,0.5,0.1,0.7,0.1c0.3,0.1,0.6,0.1,0.9,0.4c0.2,0.2,0.2,0.5,0.3,0.7
				c1,4.6,1,9.4-0.1,14c0,0.2-0.1,0.4-0.2,0.5c-0.2,0.1-0.4,0.1-0.6,0.1c-14.8,0.2-29.5,0.5-44.3,0.7c-7.9,0.1-15.7,0.1-23.6,0.2
				c-11.8,0-23.5,3.2-34.8,6.1c-7.2,1.8-14.3,3.7-21.5,5.5c-1.7,0.4-3.5,0.9-5.2,1.6c-1.1,0.5-2.2,1.1-3.2,1.7
				c-4.1,2.6-7.1,6.6-10.6,9.9c-2.8,2.6-5.6,5.3-8.4,7.9c-6.2,5.8-12.3,11.7-18.5,17.5c-7.3,6.9-14.6,13.9-21.9,20.8
				c-0.1,0.1-0.3,0.2-0.4,0.3c0,0,0,0-0.1,0c-0.2,0-0.4-0.1-0.6-0.1c-4.4-2.1-8.7-4.2-13.1-6.2c-8.4-3.9-16.8-7.8-25.2-11.8
				C-509.2,590.5-505.9,579.7-502.7,568.9z"/>
			<path class="st2" d="M-619.3,568.9c-3-9.9-5.4-20.2-10.3-29.4c-3.3-6.1-7.9-10.6-12.4-15.7c-3.4-3.9-7-7.5-10.5-11.3
				c-8.1-8.8-16.3-17.6-24.4-26.4l23.7-31.5c0.2-0.3-6.3-5.1-7-5.9c-5.3-5.4-8.9-13.2-12.9-19.6c-4.2-6.7-8.4-13.4-12.6-20.1
				c-5.2-8.4-10.5-16.8-15.7-25.2l-10.1,58.7l-56,10.4l-2.6,10c-0.7,0.2-1.4,0.3-2.2,0.5c-6.4,1.4-12.8,2.7-19.3,4.1
				c-8.8,1.9-17.7,3.7-26.5,5.6c-3.7,0.8-7.4,1.6-11.1,2.3c-1.4,0.3-2.7,0.6-4.1,0.9c-1.2,0.3-3.2,1.1-4.4,0.7
				c-0.6-0.2-1.1-0.6-1.6-0.9c-0.7-0.5-1.5-1.1-2.2-1.6c-0.2-0.2-0.4-0.3-0.7-0.3c-0.2,0-0.5,0.1-0.7,0.2c-4.3,1.8-8.6,3.6-12.9,5.5
				c-0.1,0-0.2,0.1-0.2,0.2c-0.1,0.1-0.1,0.2,0,0.3c0.2,2.5,0.4,5,0.7,7.5c0.1,0.7,0.1,1.3,0.3,2c0.2,0.6,0.5,1.2,0.9,1.8
				c0.9,1.5,1.8,3,2.6,4.4c0.2,0.4,1.4,3,1.8,3.1c0.7,0.1,1.4,0.2,2.1,0.3l5.8,12.3l4.8-11.1c0.9,0.1,1.7,0.2,2.6,0.3
				c1.1,3.7,3.6,12.1,3.9,12c0.2-0.1,3.4-7.2,5.1-10.9c0.8,0.1,1.6,0.2,2.4,0.3l3.3,11.2l5.6-10.1c0.5,0.1,1,0.1,1.5,0.2l3.9,10
				l6-8.8c0.6,0.1,1.3,0.2,1.9,0.2l4.3,8.5l4.5-7.5c5,0.6,10,1.2,15,1.8c0.1,0,0.3,0,0.4,0.1c0.1,0.1,0.1,0.3,0.1,0.5
				c0,4.4,0.1,8.8,0.1,13.2c0,0.1,0,0.3-0.1,0.4c-0.1,0.1-0.3,0.1-0.4,0.2c-4.1,0.6-8.2,1.3-12.3,1.9l-3.9-7.7l-3.6,8.9
				c-1,0.2-2,0.3-3.1,0.5l-3.5-9.3l-4.9,10.7c-0.9,0.1-1.9,0.3-2.8,0.4l-3.2-11.1l-4.4,12.3c-0.8,0.1-1.5,0.2-2.2,0.3l-4-11.9
				l-4.1,13c-0.6,0.1-1.2,0.1-1.8,0.2l-5.6-12.2l-3.4,13.5c-0.2,0.1-0.5,0.1-0.7,0.1c-0.3,0.1-0.7,0.1-0.9,0.4
				c-0.2,0.2-0.2,0.5-0.3,0.7c-1,4.6-1,9.4,0.1,14c0.1,0.2,0.1,0.4,0.2,0.5c0.2,0.1,0.4,0.1,0.6,0.1c14.8,0.2,29.5,0.5,44.3,0.7
				c7.9,0.1,15.7,0.1,23.6,0.2c11.8,0,23.5,3.2,34.8,6.1c7.2,1.8,14.3,3.7,21.5,5.5c1.8,0.4,3.5,0.9,5.2,1.6
				c1.1,0.5,2.2,1.1,3.2,1.7c4.1,2.6,7.1,6.6,10.6,9.9c2.8,2.6,5.6,5.3,8.4,7.9c6.2,5.8,12.3,11.7,18.5,17.5
				c7.3,6.9,14.6,13.9,22,20.8c0.1,0.1,0.2,0.2,0.4,0.3h0.1c0.2,0,0.4-0.1,0.6-0.1c4.4-2.1,8.7-4.2,13.1-6.2
				c8.4-3.9,16.8-7.8,25.2-11.8C-612.8,590.5-616,579.7-619.3,568.9z"/>
			<polygon class="st2" points="-366.9,469.5 -411.9,460.6 -389.3,482.4 			"/>
			<polygon class="st2" points="-755.1,469.5 -710.1,460.6 -732.7,482.4 			"/>
			<polygon class="st2" points="-415.4,555.5 -444.4,526.7 -432.3,496 -434.6,496 -447.2,527.3 -418.3,556.2 -416.8,557.5 
				-414.5,556.3 			"/>
			<polygon class="st2" points="-537.5,625.9 -560.9,616 -584.4,625.9 -584.4,628.2 -560.9,618.2 -537.5,628.2 			"/>
			<polygon class="st2" points="-706.6,555.5 -677.6,526.7 -689.7,496 -687.4,496 -674.8,527.3 -703.7,556.2 -705.1,557.5 
				-707.5,556.3 			"/>
		</g>
	</g>
</g>
<g id="Layer_12" class="st0">
	<g id="XMLID_12_" class="st1">
		<g>
			<path class="st9" d="M386.3,530.1c4.2,7.3,8.4,14.6,12.6,21.9c-8.9,13-17.8,26-26.8,39c-2.2,3.3-4.5,6.6-6.2,10.3
				c-1.9,4.3-3,9-4,13.6c-1.3,5.9-2.6,11.7-3.9,17.6c-0.3,1.5-0.7,3-1.5,4.1c-0.9,1.2-2.1,1.9-3.4,2.5c-12.4,6-25.9,8.9-39.4,8.8
				c-13.7-0.1-27.4-3.4-39.9-9.8c-1-0.5-2.1-1.1-2.9-2.1c-0.8-1.1-1.1-2.5-1.4-3.9c-1.3-5.8-2.6-11.5-3.9-17.3
				c-1-4.6-2.1-9.3-4-13.6c-1.1-2.5-2.5-4.7-3.9-6.9c4.8-16.8,9.7-33.5,15.1-50.1l8.4,11.1l24-14.2L277.7,531
				c-0.1,0.1-0.2,0.3-0.3,0.4c2.2-4,5.4-7.4,8.5-10.7c7.1-7.4,14.1-14.9,21.2-22.3c10.5-0.8,21.1,0.3,31.3,3.3c0.1,0,0.1,0,0.1-0.1
				c14.1-19.6,28.2-47.9,42.2-67.5c0,2.1,0.3,4.4,0.5,6.5c1,12.8,2,25.6,3,38.3c0.4,5.8,1.5,12,1,17.8c-0.6,6.3-1.1,12.7-1.7,19
				c-0.2,2.8-0.3,5.6,0.2,8.3c0.1,0.5,0.1,0.5,0.1,0.5C384.3,526.7,385.3,528.4,386.3,530.1z M345,555.3l24-31.8L321,541L345,555.3z
				 M348.6,626.3l-3.5-30l-5.4,1.6l-5.2,20.6l-6.7-20.9l-13.6,0.3l-13.6-0.3l-6.7,20.9l-5.2-20.6l-5.4-1.6l-3.5,30l17.7,8.1
				l6.2-22.9l5.1,23.1h5.4h5.4l5.1-23.1l6.2,22.9L348.6,626.3z M328.2,581v-1.5l-15.5-6.6l-15.5,6.6v1.5l15.5-6.6L328.2,581z"/>
			<path class="st9" d="M302.3,450c6.9,9.3,13.9,18.7,20.8,28c-13.2,13.9-26.4,27.8-39.6,41.7c-3.3,3.4-6.5,6.9-8.8,11.1
				c-1.7,3.1-2.7,6.6-3.7,10.1c-10,31.2-18.7,63-27.8,94.6c-0.2,0.6-0.3,1.1-0.7,1.6c-0.5,0.6-1.3,0.8-2.1,1
				c-9.2,2.3-18.4,4.7-27.6,7c-1.8,0.4-3.6,0.9-5.4,0.9c-0.1,0-0.2,0-0.3,0c-1.6,0-3.1-0.4-4.7-0.8c-9.5-2.4-18.9-4.8-28.4-7.1
				c-0.6-0.1-1.1-0.3-1.6-0.7s-0.7-1.1-0.8-1.7c-4.5-15.7-9.2-31.4-13.8-47c-4.6-15.8-10.1-31.6-14-47.6c-1-3.4-2-6.9-3.7-10.1
				c-2.2-4.2-5.5-7.7-8.8-11.1c-13.2-13.9-26.4-27.8-39.6-41.7c6.9-9.3,13.9-18.6,20.8-28c1-1.3,2-2.7,2.5-4.3
				c1.6-5-2.1-9.9-4.2-14.6c-3.7-8.2-3.1-17.8-2.3-26.9c1.6-20,3.2-40,4.9-60c16.5,16,33.1,32,49.7,48.1c1.2,1.1,2.3,2.3,3.8,2.9
				c2.1,0.9,4.5,0.6,6.8,0.3c11.4-1.6,22.8-4.1,34.3-3.9c11.2,0.2,22.5,2.4,33.3,3.9c2.3,0.3,4.7,0.6,6.8-0.3
				c1.5-0.6,2.7-1.8,3.8-2.9c16.5-16,33.1-32,49.7-48.1c1.6,20,3.2,40,4.9,60c0.7,9.1,1.4,18.6-2.3,26.9c-2.1,4.7-5.8,9.6-4.2,14.6
				C300.3,447.2,301.3,448.6,302.3,450z M256,503l24.5-36.8l-57,24.3L256,503z M231.8,625.5v-2.4l-24.4-10.3L183,623.1v2.4
				l24.4-10.4L231.8,625.5z M158.7,503l32.5-12.5l-57-24.3L158.7,503z"/>
			<path class="st9" d="M157,594.3c-1.4,2.2-2.8,4.5-3.9,6.9c-1.9,4.3-3,8.9-4,13.6c-1.3,5.8-2.6,11.5-3.9,17.3
				c-0.3,1.4-0.6,2.8-1.4,3.9c-0.7,1-1.8,1.6-2.8,2.1c-12.5,6.4-26.2,9.7-39.9,9.8c-13.5,0.1-27-2.8-39.4-8.8
				c-1.2-0.6-2.5-1.3-3.4-2.5c-0.8-1.2-1.2-2.7-1.5-4.1c-1.3-5.9-2.6-11.7-3.9-17.6c-1-4.6-2.1-9.3-4-13.6c-1.7-3.7-3.9-7-6.2-10.3
				c-8.9-13-17.8-26-26.8-39c4.2-7.3,8.4-14.6,12.6-21.9c1-1.7,2-3.5,2.5-5.4c0,0,0,0,0.1-0.5c0.5-2.7,0.4-5.5,0.2-8.3
				c-0.6-6.3-1.1-12.7-1.7-19c-0.5-5.8,0.6-12,1-17.8c1-12.8,2-25.5,3-38.3c0.2-2.1,0.5-4.4,0.5-6.5c14.1,19.6,28.2,47.9,42.2,67.5
				c0,0.1,0,0.1,0.1,0.1c10.2-3,20.8-4,31.3-3.3c7.1,7.4,14.1,14.9,21.2,22.3c3.1,3.3,6.3,6.6,8.5,10.7c-0.1-0.1-0.2-0.3-0.3-0.4
				l-27.5,10.1l24,14.2l8.4-11.1C147.3,560.8,152.2,577.5,157,594.3z M134.9,626.3l-3.5-30l-5.4,1.6l-5.2,20.6l-6.7-20.9l-13.6,0.3
				l-13.6-0.3l-6.7,20.9L75,597.9l-5.4-1.6l-3.5,30l17.7,8.1l6.2-22.9l5.1,23.1h5.4h5.4l5.1-23.1l6.2,22.9L134.9,626.3z M117.5,581
				v-1.5l-15.5-6.6l-15.5,6.6v1.5l15.5-6.6L117.5,581z M69.8,555.3l24-14.2l-48-17.5L69.8,555.3z"/>
		</g>
		<g>
			<polygon class="st5" points="321,541.1 369,523.6 345,555.3 			"/>
			<polygon class="st5" points="314.2,597.8 300.6,597.6 293.9,618.4 288.8,597.8 283.4,596.2 279.9,626.3 297.6,634.4 303.8,611.5 
				308.8,634.6 314.2,634.6 319.6,634.6 324.7,611.5 330.9,634.4 348.6,626.3 345.1,596.2 339.7,597.8 334.5,618.4 327.8,597.6 			
				"/>
			<path class="st5" d="M272.8,544.2c-5.3,16.6-10.2,33.3-15.1,50.1c1.4,2.2,2.8,4.5,3.9,6.9c1.9,4.3,3,8.9,4,13.6
				c1.3,5.8,2.6,11.5,3.9,17.3c0.3,1.4,0.6,2.8,1.4,3.9c0.8,1,1.8,1.6,2.9,2.1c12.5,6.4,26.2,9.7,39.9,9.8c13.5,0.1,27-2.8,39.4-8.8
				c1.2-0.6,2.5-1.3,3.4-2.5c0.8-1.2,1.2-2.7,1.5-4.1c1.3-5.9,2.6-11.7,3.9-17.6c1-4.6,2.1-9.3,4-13.6c1.7-3.7,3.9-7,6.2-10.3
				c8.9-13,17.8-26,26.8-39c-4.2-7.3-8.4-14.6-12.6-21.9c-1-1.7-2-3.5-2.5-5.4c0,0,0,0-0.1-0.5c-0.5-2.7-0.4-5.5-0.2-8.3
				c0.6-6.3,1.1-12.7,1.7-19c0.5-5.8-0.6-12-1-17.8c-1-12.8-2-25.5-3-38.3c-0.2-2.1-0.5-4.4-0.5-6.5c-14.1,19.6-28.2,47.9-42.2,67.5
				c0,0.1,0,0.1-0.1,0.1c-10.2-3-20.8-4-31.3-3.3c-7.1,7.4-14.1,14.9-21.2,22.3"/>
			<path class="st5" d="M277.5,531.5c2.2-4,5.4-7.4,8.5-10.7"/>
			<polygon class="st5" points="191.2,490.5 134.2,466.2 158.7,503 			"/>
			<polygon class="st5" points="223.6,490.5 280.6,466.2 256,503 			"/>
			<path class="st5" d="M207.4,645.8c1.8,0,3.6-0.5,5.4-0.9c9.2-2.3,18.4-4.6,27.6-7c0.8-0.2,1.5-0.4,2.1-1c0.4-0.4,0.5-1,0.7-1.6
				c9.1-31.5,17.8-63.3,27.8-94.6c1-3.4,2-6.9,3.7-10.1c2.2-4.2,5.5-7.7,8.8-11.1c13.2-13.9,26.4-27.8,39.6-41.7
				c-6.9-9.3-13.9-18.6-20.8-28c-1-1.3-2-2.7-2.5-4.3c-1.6-5,2.1-9.9,4.2-14.6c3.7-8.2,3.1-17.8,2.3-26.9c-1.6-20-3.2-40-4.9-60
				c-16.5,16-33.1,32-49.7,48.1c-1.2,1.1-2.3,2.3-3.8,2.9c-2.1,0.9-4.5,0.6-6.8,0.3c-10.9-1.5-22.2-3.7-33.3-3.9
				c-11.5-0.2-22.9,2.3-34.3,3.9c-2.3,0.3-4.7,0.6-6.8-0.3c-1.5-0.6-2.6-1.8-3.8-2.9c-16.6-16-33.1-32-49.7-48.1
				c-1.6,20-3.2,40-4.9,60c-0.7,9.1-1.4,18.6,2.3,26.9c2.1,4.7,5.8,9.6,4.2,14.6c-0.5,1.6-1.5,3-2.5,4.3c-6.9,9.3-13.9,18.7-20.8,28
				c13.2,13.9,26.4,27.8,39.6,41.7c3.2,3.4,6.5,6.9,8.8,11.1c1.7,3.1,2.7,6.6,3.7,10.1c3.9,16,9.4,31.8,14,47.6
				c4.6,15.7,9.3,31.3,13.8,47c0.2,0.6,0.4,1.3,0.8,1.7s1,0.5,1.6,0.7c9.5,2.4,18.9,4.8,28.4,7.1c1.5,0.4,3.1,0.8,4.7,0.8
				C207.2,645.8,207.3,645.8,207.4,645.8z"/>
			<polygon class="st5" points="231.8,623.1 207.4,612.8 183,623.1 183,625.5 207.4,615.1 231.8,625.5 			"/>
			<polygon class="st5" points="328.2,579.5 312.7,572.9 297.3,579.5 297.3,581 312.7,574.4 328.2,581 			"/>
			<polygon class="st5" points="93.8,541.1 45.8,523.6 69.8,555.3 			"/>
			<polygon class="st5" points="100.5,597.8 114.1,597.6 120.8,618.4 126,597.8 131.4,596.2 134.9,626.3 117.2,634.4 111,611.5 
				105.9,634.6 100.5,634.6 95.2,634.6 90.1,611.5 83.9,634.4 66.2,626.3 69.7,596.2 75.1,597.8 80.2,618.4 86.9,597.6 			"/>
			<path class="st5" d="M142,544.2c5.3,16.6,10.2,33.3,15.1,50.1c-1.4,2.2-2.8,4.5-3.9,6.9c-1.9,4.3-3,8.9-4,13.6
				c-1.3,5.8-2.6,11.5-3.9,17.3c-0.3,1.4-0.6,2.8-1.4,3.9c-0.7,1-1.8,1.6-2.8,2.1c-12.5,6.4-26.2,9.7-39.9,9.8
				c-13.5,0.1-27-2.8-39.4-8.8c-1.2-0.6-2.5-1.3-3.4-2.5c-0.8-1.2-1.2-2.7-1.5-4.1c-1.3-5.9-2.6-11.7-3.9-17.6
				c-1-4.6-2.1-9.3-4-13.6c-1.7-3.7-3.9-7-6.2-10.3C33.9,578,25,565,16,552c4.2-7.3,8.4-14.6,12.6-21.9c1-1.7,2-3.5,2.5-5.4
				c0,0,0,0,0.1-0.5c0.5-2.7,0.4-5.5,0.2-8.3c-0.6-6.3-1.1-12.7-1.7-19c-0.5-5.8,0.6-12,1-17.8c1-12.8,2-25.5,3-38.3
				c0.2-2.1,0.5-4.4,0.5-6.5c14.1,19.6,28.2,47.9,42.2,67.5c0,0.1,0,0.1,0.1,0.1c10.2-3,20.8-4,31.3-3.3
				c7.1,7.4,14.1,14.9,21.2,22.3c3.1,3.3,6.3,6.6,8.5,10.7"/>
			<path class="st5" d="M142,544.2l-8.4,11.1l-24-14.2l27.5-10.1c0.1,0.1,0.2,0.3,0.3,0.4"/>
			<polygon class="st5" points="86.5,579.5 102,572.9 117.5,579.5 117.5,581 102,574.4 86.5,581 			"/>
		</g>
	</g>
</g>
<g id="Layer_6">
	<g id="XMLID_4_">
		<g>
			<path class="st11" d="M297.6,156.5l-35.2,15l20,7.7L297.6,156.5z M224.9,164c-0.3,0.5-0.6,1-0.9,1.6c-1.5,2.8-2.4,5.9-3.3,8.9
				c-0.1,0.5-0.3,1.1-0.4,1.6l2,3.1l20-7.7L224.9,164z M252.4,248.4l15.1,6.4v-1.5l-15.1-6.4l-15,6.4v1.5L252.4,248.4z M212.8,201.4
				c2.8-8.9,5.6-17.8,7.7-26.9c0.9-3,1.8-6.1,3.3-8.9c2-3.7,4.9-6.8,7.8-9.9c11.7-12.3,23.4-24.6,35.1-36.9c-2-2.6-3.9-5.3-5.9-7.9
				c4.2,0.5,8.3,1.3,12.5,1.9c1.4,0.2,2.9,0.4,4.2-0.2c0.9-0.4,1.6-1.1,2.4-1.8c10.2-9.9,20.4-19.8,30.7-29.7c1,12.3,2,24.7,3,37
				c0.5,5.6,0.9,11.5-1.5,16.6c-1.3,2.9-3.6,5.9-2.6,9c0.3,1,0.9,1.8,1.6,2.7c4.3,5.8,8.6,11.5,12.9,17.3
				c-8.1,8.6-16.3,17.1-24.4,25.7c-2,2.1-4,4.3-5.4,6.9c-1,1.9-1.7,4.1-2.3,6.2c-2.4,9.9-5.8,19.6-8.7,29.4
				c-2.9,9.7-5.8,19.3-8.5,29c-0.1,0.4-0.2,0.8-0.5,1.1s-0.6,0.3-1,0.4c-5.8,1.5-11.7,2.9-17.5,4.4c-0.9,0.2-1.9,0.5-2.9,0.5
				c-0.1,0-0.1,0-0.2,0c-1.1,0-2.2-0.3-3.3-0.6c-5.7-1.4-11.4-2.9-17.1-4.3c-0.5-0.1-1-0.3-1.3-0.6c-0.2-0.3-0.3-0.6-0.4-0.9
				c-5.6-19.5-11-39.1-17.2-58.4C213,202.2,212.9,201.8,212.8,201.4z"/>
			<path class="st11" d="M226.6,108.2l-50.5,21.5l28.8,11.1L226.6,108.2z M96.8,108.2l21.7,32.7l28.8-11.1L96.8,108.2z M161.7,238.2
				l-21.6,9.2v2.1l21.6-9.2l21.6,9.2v-2.1L161.7,238.2z M74,53.2c1.4-17.7,2.9-35.5,4.3-53.2c14.7,14.2,29.4,28.4,44,42.6
				c1,1,2.1,2,3.4,2.6c1.9,0.8,4,0.5,6,0.3c10.1-1.4,20.2-3.6,30.4-3.4c9.9,0.2,19.9,2.1,29.5,3.4c2,0.3,4.1,0.5,6-0.3
				c1.3-0.5,2.3-1.6,3.4-2.6c14.7-14.2,29.4-28.4,44-42.6c1.4,17.7,2.9,35.5,4.3,53.2c0.6,8,1.2,16.5-2.1,23.9
				c-1.9,4.2-5.1,8.5-3.7,12.9c0.5,1.4,1.4,2.7,2.2,3.8c6.2,8.3,12.3,16.5,18.5,24.8c-11.7,12.3-23.4,24.6-35.1,36.9
				c-2.9,3-5.8,6.1-7.8,9.9c-1.5,2.8-2.4,5.9-3.3,8.9c-8.9,27.7-16.6,55.9-24.7,83.9c-0.1,0.5-0.3,1-0.6,1.4
				c-0.5,0.5-1.2,0.7-1.8,0.9c-8.2,2.1-16.3,4.1-24.5,6.2c-1.6,0.4-3.2,0.8-4.8,0.8c-0.1,0-0.2,0-0.3,0c-1.4,0-2.8-0.4-4.1-0.7
				c-8.4-2.1-16.8-4.2-25.2-6.3c-0.5-0.1-1-0.3-1.4-0.6c-0.4-0.4-0.6-1-0.8-1.5c-4-13.9-8.2-27.8-12.2-41.7c-4.1-14-9-28-12.4-42.2
				c-0.9-3-1.8-6.1-3.3-8.9c-2-3.7-4.9-6.8-7.8-9.9c-11.7-12.3-23.4-24.6-35.1-36.9c6.1-8.3,12.3-16.5,18.5-24.8
				c0.9-1.2,1.8-2.4,2.2-3.8c1.4-4.4-1.8-8.7-3.7-12.9C72.7,69.7,73.3,61.2,74,53.2z"/>
			<path class="st11" d="M26.1,156.5l15.1,22.7l20.1-7.7L26.1,156.5z M71.3,248.4l15,6.4v-1.5l-15-6.4l-15.1,6.4v1.5L71.3,248.4z
				 M103.4,176.2c-0.1-0.5-0.3-1.1-0.4-1.6c-0.9-3-1.8-6.1-3.3-8.9c-0.3-0.5-0.6-1.1-0.9-1.6l-17.4,7.4l20,7.7L103.4,176.2z
				 M92.1,155.8c2.9,3,5.8,6.1,7.8,9.9c1.5,2.8,2.4,5.9,3.3,8.9c2.2,9,4.9,18,7.7,26.9c-0.1,0.4-0.2,0.8-0.3,1.1
				c-6.2,19.3-11.6,38.9-17.2,58.4c-0.1,0.3-0.2,0.7-0.4,0.9c-0.3,0.4-0.8,0.5-1.3,0.6c-5.7,1.4-11.4,2.9-17.1,4.3
				c-1.1,0.3-2.2,0.5-3.3,0.6c-0.1,0-0.1,0-0.2,0c-1,0-1.9-0.3-2.9-0.5c-5.8-1.5-11.7-2.9-17.5-4.4c-0.4-0.1-0.7-0.2-1-0.4
				c-0.3-0.3-0.4-0.7-0.5-1.1c-2.8-9.7-5.7-19.4-8.5-29c-2.9-9.8-6.3-19.5-8.7-29.4c-0.6-2.1-1.3-4.3-2.3-6.2
				c-1.4-2.6-3.4-4.7-5.4-6.9c-8.1-8.6-16.3-17.1-24.4-25.7c4.3-5.8,8.6-11.5,12.9-17.3c0.6-0.8,1.2-1.7,1.6-2.7
				c1-3.1-1.3-6.1-2.6-9c-2.3-5.1-1.9-11-1.5-16.6c1-12.3,2-24.7,3-37C23.5,91.1,33.7,101,44,110.9c0.7,0.7,1.5,1.4,2.4,1.8
				c1.3,0.6,2.8,0.4,4.2,0.2c4.1-0.6,8.3-1.4,12.5-1.9c-2,2.6-3.9,5.3-5.9,7.9C68.7,131.1,80.4,143.5,92.1,155.8z"/>
		</g>
		<g>
			<polygon class="st7" points="147.3,129.7 96.8,108.2 118.6,140.8 			"/>
			<polygon class="st7" points="176.1,129.7 226.6,108.2 204.9,140.8 			"/>
			<path class="st7" d="M161.7,267.5c1.6,0,3.2-0.4,4.8-0.8c8.2-2.1,16.3-4.1,24.5-6.2c0.7-0.2,1.4-0.4,1.8-0.9
				c0.3-0.4,0.5-0.9,0.6-1.4c8.1-28,15.8-56.2,24.7-83.9c0.9-3,1.8-6.1,3.3-8.9c2-3.7,4.9-6.8,7.8-9.9
				c11.7-12.3,23.4-24.6,35.1-36.9c-6.2-8.3-12.3-16.5-18.5-24.8c-0.9-1.2-1.8-2.4-2.2-3.8c-1.4-4.4,1.8-8.7,3.7-12.9
				c3.3-7.3,2.7-15.8,2.1-23.9c-1.4-17.7-2.9-35.5-4.3-53.2c-14.7,14.2-29.4,28.4-44,42.6c-1,1-2.1,2-3.4,2.6c-1.9,0.8-4,0.5-6,0.3
				c-9.6-1.4-19.6-3.2-29.5-3.4c-10.2-0.2-20.3,2-30.4,3.4c-2,0.3-4.1,0.5-6-0.3c-1.3-0.5-2.4-1.6-3.4-2.6
				C107.7,28.4,93,14.2,78.4,0c-1.4,17.7-2.9,35.5-4.3,53.2c-0.7,8-1.2,16.5,2.1,23.9c1.9,4.2,5.1,8.5,3.7,12.9
				c-0.5,1.4-1.4,2.7-2.2,3.8c-6.2,8.3-12.3,16.5-18.5,24.8c11.7,12.3,23.4,24.6,35.1,36.9c2.9,3,5.8,6.1,7.8,9.9
				c1.5,2.8,2.4,5.9,3.3,8.9c3.4,14.2,8.3,28.2,12.4,42.2c4.1,13.9,8.3,27.8,12.2,41.7c0.2,0.6,0.3,1.1,0.8,1.5
				c0.4,0.4,0.9,0.5,1.4,0.6c8.4,2.1,16.8,4.2,25.2,6.3c1.4,0.3,2.7,0.7,4.1,0.7C161.5,267.5,161.6,267.5,161.7,267.5z"/>
			<polygon class="st2" points="183.3,247.3 161.7,238.2 140.1,247.3 140.1,249.4 161.7,240.2 183.3,249.4 			"/>
			<polygon class="st7" points="61.3,171.5 26.1,156.5 41.2,179.2 			"/>
			<polygon class="st2" points="86.3,253.4 71.3,247 56.2,253.4 56.2,254.8 71.3,248.4 86.3,254.8 			"/>
			<path class="st7" d="M103.2,174.5c-0.9-3-1.8-6.1-3.3-8.9c-2-3.7-4.9-6.8-7.8-9.9c-11.7-12.3-23.4-24.6-35.1-36.9
				c2-2.6,3.9-5.3,5.9-7.9c-4.2,0.5-8.4,1.3-12.5,1.9c-1.4,0.2-2.9,0.4-4.2-0.2c-0.9-0.4-1.6-1.1-2.4-1.8
				C33.6,100.9,23.4,91,13.1,81.1c-1,12.3-2,24.7-3,37c-0.5,5.6-0.9,11.5,1.5,16.6c1.3,2.9,3.6,5.9,2.6,9c-0.3,1-0.9,1.8-1.6,2.7
				c-4.3,5.8-8.6,11.5-12.9,17.3c8.1,8.6,16.3,17.1,24.4,25.7c2,2.1,4,4.3,5.4,6.9c1,1.9,1.7,4.1,2.3,6.2c2.4,9.9,5.8,19.6,8.7,29.4
				c2.9,9.7,5.8,19.3,8.5,29c0.1,0.4,0.2,0.8,0.5,1.1s0.6,0.3,1,0.4c5.8,1.5,11.7,2.9,17.5,4.4c0.9,0.2,1.9,0.5,2.9,0.5
				c0.1,0,0.1,0,0.2,0c1.1,0,2.2-0.3,3.3-0.6c5.7-1.4,11.4-2.9,17.1-4.3c0.5-0.1,1-0.3,1.3-0.6c0.2-0.3,0.3-0.6,0.4-0.9
				c5.6-19.5,11-39.1,17.2-58.4c0.1-0.4,0.2-0.8,0.3-1.1C108.1,192.5,105.4,183.6,103.2,174.5z"/>
			<path class="st7" d="M103,174.5c-0.9-3-1.8-6.1-3.3-8.9c-0.3-0.5-0.6-1.1-0.9-1.6l-17.4,7.4l20,7.7l2-3.1
				C103.2,175.6,103.1,175.1,103,174.5z"/>
			<polygon class="st7" points="262.4,171.5 297.6,156.5 282.4,179.2 			"/>
			<polygon class="st2" points="237.3,253.4 252.4,247 267.4,253.4 267.4,254.8 252.4,248.4 237.3,254.8 			"/>
			<path class="st7" d="M220.5,174.5c0.9-3,1.8-6.1,3.3-8.9c2-3.7,4.9-6.8,7.8-9.9c11.7-12.3,23.4-24.6,35.1-36.9
				c-2-2.6-3.9-5.3-5.9-7.9c4.2,0.5,8.3,1.3,12.5,1.9c1.4,0.2,2.9,0.4,4.2-0.2c0.9-0.4,1.6-1.1,2.4-1.8
				c10.2-9.9,20.4-19.8,30.7-29.7c1,12.3,2,24.7,3,37c0.5,5.6,0.9,11.5-1.5,16.6c-1.3,2.9-3.6,5.9-2.6,9c0.3,1,0.9,1.8,1.6,2.7
				c4.3,5.8,8.6,11.5,12.9,17.3c-8.1,8.6-16.3,17.1-24.4,25.7c-2,2.1-4,4.3-5.4,6.9c-1,1.9-1.7,4.1-2.3,6.2
				c-2.4,9.9-5.8,19.6-8.7,29.4c-2.9,9.7-5.8,19.3-8.5,29c-0.1,0.4-0.2,0.8-0.5,1.1s-0.6,0.3-1,0.4c-5.8,1.5-11.7,2.9-17.5,4.4
				c-0.9,0.2-1.9,0.5-2.9,0.5c-0.1,0-0.1,0-0.2,0c-1.1,0-2.2-0.3-3.3-0.6c-5.7-1.4-11.4-2.9-17.1-4.3c-0.5-0.1-1-0.3-1.3-0.6
				c-0.2-0.3-0.3-0.6-0.4-0.9c-5.6-19.5-11-39.1-17.2-58.4c-0.1-0.4-0.2-0.8-0.4-1.1C215.5,192.5,218.3,183.6,220.5,174.5z"/>
			<path class="st7" d="M220.7,174.5c0.9-3,1.8-6.1,3.3-8.9c0.3-0.5,0.6-1.1,0.9-1.6l17.4,7.4l-20,7.7l-2-3.1
				C220.4,175.6,220.6,175.1,220.7,174.5z"/>
		</g>
	</g>
</g>
<g id="The_Ian_Colored" class="st0">
	<g class="st1">
		<g id="XMLID_10_">
			<g>
				<path class="st12" d="M-60.7,110.3c5.7,7.7,11.4,15.4,17.1,23.1c-10.9,11.4-21.8,22.9-32.6,34.3c-2.7,2.8-5.4,5.7-7.2,9.2
					c-1.4,2.6-2.2,5.5-3.1,8.3c-3.2,13.2-7.7,26.2-11.6,39.2c-3.8,12.9-7.7,25.8-11.4,38.8c-0.1,0.5-0.3,1.1-0.7,1.4
					c-0.4,0.3-0.8,0.5-1.3,0.6c-7.8,2-15.6,3.9-23.4,5.9c-1.3,0.3-2.5,0.6-3.9,0.7c-0.1,0-0.2,0-0.3,0c-1.5,0-3-0.4-4.4-0.7
					c-7.6-1.9-15.2-3.8-22.8-5.7c-0.6-0.2-1.3-0.3-1.7-0.8c-0.3-0.4-0.4-0.8-0.6-1.3c-3.1-10.6-6.1-21.3-9.1-31.9c0.3-1,0.6-2,0.9-3
					c4.4-14.8,9.5-29.7,13.2-44.7c1-3.2,1.9-6.5,3.5-9.5c2.1-4,5.2-7.2,8.3-10.5c12.4-13.1,24.8-26.1,37.2-39.2
					c-6.5-8.8-13.1-17.5-19.6-26.3c-0.9-1.3-1.9-2.6-2.4-4.1c-1.5-4.7,1.9-9.3,3.9-13.7c2.5-5.5,2.9-11.5,2.7-17.6
					c6.3,0.6,12.5,1.9,18.7,2.7c1.9,0.3,3.9,0.5,5.6-0.2c1.2-0.5,2.2-1.5,3.1-2.4C-89,49.7-75.3,36.5-61.7,23.3
					c1.3,16.5,2.7,32.9,4,49.4c0.6,7.5,1.2,15.4-1.9,22.2c-1.8,3.9-4.7,7.9-3.5,12C-62.3,108-61.5,109.2-60.7,110.3z M-97.3,154
					l20.2-30.3l-47,20L-97.3,154z M-117.4,254.9V253l-20.1-8.5l-20.1,8.5v1.9l20.1-8.5L-117.4,254.9z"/>
				<path class="st12" d="M-137.1,98.4c6.5,8.8,13,17.5,19.6,26.3c-12.4,13.1-24.8,26.1-37.2,39.2c-3.1,3.2-6.2,6.5-8.3,10.4
					c-1.6,3-2.5,6.2-3.5,9.5c-9.4,29.3-17.6,59.3-26.1,88.9c-0.2,0.5-0.3,1.1-0.6,1.5c-0.5,0.6-1.2,0.8-1.9,0.9
					c-8.6,2.2-17.3,4.4-26,6.6c-1.7,0.4-3.4,0.8-5.1,0.9c-0.1,0-0.2,0-0.3,0c-1.5,0-2.9-0.4-4.4-0.8c-8.9-2.2-17.8-4.5-26.7-6.7
					c-0.5-0.1-1.1-0.3-1.5-0.6c-0.4-0.4-0.6-1-0.8-1.6c-4.2-14.8-8.6-29.5-13-44.2c-4.4-14.8-9.5-29.7-13.2-44.7
					c-1-3.2-1.9-6.5-3.5-9.5c-2.1-4-5.2-7.2-8.3-10.4c-12.4-13.1-24.8-26.1-37.2-39.2c6.5-8.8,13.1-17.5,19.6-26.3
					c0.9-1.3,1.9-2.6,2.4-4.1c1.5-4.7-1.9-9.3-3.9-13.7c-3.5-7.8-2.9-16.8-2.2-25.3c1.5-18.8,3.1-37.6,4.6-56.4
					c15.6,15.1,31.1,30.1,46.7,45.2c1.1,1.1,2.2,2.1,3.6,2.7c2,0.8,4.3,0.6,6.4,0.3c10.7-1.5,21.4-3.9,32.2-3.6
					c10.5,0.2,21.1,2.2,31.3,3.6c2.1,0.3,4.4,0.6,6.4-0.3c1.4-0.6,2.5-1.7,3.6-2.7c15.6-15.1,31.1-30.1,46.7-45.2
					c1.5,18.8,3.1,37.6,4.6,56.4c0.7,8.5,1.3,17.5-2.2,25.3c-2,4.4-5.4,9-4,13.7C-139,95.8-138,97.1-137.1,98.4z M-180.5,148.2
					l23-34.6l-53.6,22.8L-180.5,148.2z M-203.4,263.3v-2.2l-22.9-9.7l-22.9,9.7v2.2l22.9-9.7L-203.4,263.3z M-272,148.2l30.5-11.8
					l-53.6-22.8L-272,148.2z"/>
				<path class="st12" d="M-276.4,228.1c0.3,1,0.6,2,0.9,3c-3.1,10.7-6.1,21.3-9.1,31.9c-0.1,0.5-0.3,0.9-0.6,1.3
					c-0.4,0.5-1.1,0.7-1.7,0.8c-7.6,1.9-15.2,3.8-22.8,5.7c-1.5,0.4-3,0.7-4.5,0.7c-0.1,0-0.2,0-0.3,0c-1.3,0-2.6-0.4-3.8-0.7
					c-7.8-2-15.6-3.9-23.4-5.9c-0.5-0.1-0.9-0.2-1.3-0.6s-0.6-0.9-0.7-1.4c-3.7-13-7.6-25.9-11.4-38.8c-3.8-13-8.4-26-11.6-39.2
					c-0.8-2.8-1.7-5.7-3.1-8.3c-1.9-3.5-4.6-6.3-7.2-9.2c-10.9-11.4-21.8-22.9-32.6-34.3c5.7-7.7,11.4-15.4,17.2-23.1
					c0.8-1.1,1.7-2.2,2.1-3.6c1.3-4.1-1.7-8.1-3.5-12c-3.1-6.8-2.5-14.7-1.9-22.2c1.3-16.5,2.7-32.9,4-49.4
					c13.6,13.2,27.3,26.4,40.9,39.6c0.9,0.9,1.9,1.9,3.1,2.4c1.8,0.7,3.7,0.5,5.6,0.2c6.2-0.9,12.5-2.1,18.7-2.7
					c-0.2,6.1,0.2,12.1,2.7,17.6c2,4.4,5.4,9,3.9,13.7c-0.5,1.5-1.4,2.8-2.4,4.1c-6.5,8.8-13,17.5-19.6,26.3
					c12.4,13.1,24.8,26.1,37.2,39.2c3.1,3.2,6.2,6.5,8.3,10.5c1.6,3,2.5,6.2,3.5,9.5C-286,198.4-280.8,213.2-276.4,228.1z
					 M-294.1,254.9V253l-20.1-8.5l-20.1,8.5v1.9l20.1-8.5L-294.1,254.9z M-355.7,154l26.7-10.3l-46.9-20L-355.7,154z"/>
			</g>
			<g>
				<polygon class="st7" points="-328.9,143.7 -375.9,123.6 -355.7,154 				"/>
				<polygon class="st2" points="-294.1,252.9 -314.2,244.4 -334.3,252.9 -334.3,254.9 -314.2,246.3 -294.1,254.9 				"/>
				<polygon class="st7" points="-241.5,136.4 -295.1,113.6 -272,148.2 				"/>
				<polygon class="st7" points="-211.1,136.4 -157.5,113.6 -180.5,148.2 				"/>
				<path class="st7" d="M-226.3,282.4c1.7,0,3.4-0.4,5.1-0.9c8.7-2.2,17.3-4.4,26-6.6c0.7-0.2,1.5-0.4,1.9-0.9
					c0.3-0.4,0.5-0.9,0.6-1.5c8.5-29.6,16.7-59.5,26.1-88.9c1-3.2,1.9-6.5,3.5-9.5c2.1-4,5.2-7.2,8.3-10.4
					c12.4-13.1,24.8-26.1,37.2-39.2c-6.5-8.8-13-17.5-19.6-26.3c-0.9-1.3-1.9-2.6-2.4-4.1c-1.5-4.7,1.9-9.3,4-13.7
					c3.5-7.8,2.9-16.8,2.2-25.3c-1.5-18.8-3.1-37.6-4.6-56.4c-15.6,15.1-31.1,30.1-46.7,45.2c-1.1,1.1-2.2,2.1-3.6,2.7
					c-2,0.8-4.2,0.6-6.4,0.3c-10.2-1.4-20.8-3.4-31.3-3.6c-10.8-0.2-21.6,2.1-32.2,3.6c-2.1,0.3-4.4,0.6-6.4-0.3
					c-1.4-0.6-2.5-1.7-3.6-2.7c-15.6-15.1-31.1-30.1-46.7-45.2c-1.5,18.8-3.1,37.6-4.6,56.4c-0.7,8.5-1.3,17.5,2.2,25.3
					c2,4.4,5.4,9,3.9,13.7c-0.5,1.5-1.4,2.8-2.4,4.1c-6.5,8.8-13,17.5-19.6,26.3c12.4,13.1,24.8,26.1,37.2,39.2
					c3.1,3.2,6.2,6.5,8.3,10.4c1.6,3,2.5,6.2,3.5,9.5c3.6,15.1,8.8,29.9,13.2,44.7c4.4,14.7,8.8,29.5,13,44.2
					c0.2,0.6,0.4,1.2,0.8,1.6s0.9,0.5,1.5,0.6c8.9,2.2,17.8,4.5,26.7,6.7c1.4,0.4,2.9,0.7,4.4,0.8
					C-226.5,282.4-226.4,282.4-226.3,282.4z"/>
				<polygon class="st2" points="-203.4,261.1 -226.3,251.4 -249.2,261.1 -249.2,263.3 -226.3,253.6 -203.4,263.3 				"/>
				<path class="st7" d="M-276.4,228.1c-4.4-14.8-9.5-29.7-13.2-44.7c-0.9-3.2-1.9-6.5-3.5-9.5c-2.1-4-5.2-7.2-8.3-10.5
					c-12.4-13.1-24.8-26.1-37.2-39.2c6.5-8.8,13-17.5,19.6-26.3c0.9-1.3,1.9-2.6,2.4-4.1c1.5-4.7-1.9-9.3-3.9-13.7
					c-2.5-5.5-2.9-11.5-2.7-17.6c-6.3,0.6-12.5,1.9-18.7,2.7c-1.9,0.3-3.8,0.5-5.6-0.2c-1.2-0.5-2.2-1.5-3.1-2.4
					c-13.6-13.2-27.3-26.4-40.9-39.6c-1.3,16.5-2.7,32.9-4,49.4c-0.6,7.5-1.1,15.4,1.9,22.2c1.8,3.9,4.7,7.9,3.5,12
					c-0.4,1.3-1.3,2.5-2.1,3.6c-5.7,7.7-11.4,15.4-17.2,23.1c10.9,11.4,21.8,22.9,32.6,34.3c2.7,2.8,5.4,5.7,7.2,9.2
					c1.4,2.6,2.2,5.5,3.1,8.3c3.2,13.2,7.7,26.2,11.6,39.2c3.8,12.9,7.7,25.8,11.4,38.8c0.1,0.5,0.3,1.1,0.7,1.4
					c0.4,0.3,0.8,0.5,1.3,0.6c7.8,2,15.6,3.9,23.4,5.9c1.3,0.3,2.5,0.6,3.8,0.7c0.1,0,0.2,0,0.3,0c1.5,0,3-0.4,4.5-0.7
					c7.6-1.9,15.2-3.8,22.8-5.7c0.6-0.2,1.3-0.3,1.7-0.8c0.3-0.4,0.5-0.8,0.6-1.3c3.1-10.6,6.1-21.3,9.1-31.9
					C-275.8,230.1-276.1,229.1-276.4,228.1z"/>
				<polygon class="st7" points="-124.1,143.7 -77.1,123.6 -97.3,154 				"/>
				<polygon class="st2" points="-157.5,252.9 -137.4,244.4 -117.4,252.9 -117.4,254.9 -137.4,246.3 -157.5,254.9 				"/>
				<path class="st7" d="M-176.6,228.1c4.4-14.8,9.5-29.7,13.2-44.7c1-3.2,1.9-6.5,3.5-9.5c2.1-4,5.2-7.2,8.3-10.5
					c12.4-13.1,24.8-26.1,37.2-39.2c-6.5-8.8-13.1-17.5-19.6-26.3c-0.9-1.3-1.9-2.6-2.4-4.1c-1.5-4.7,1.9-9.3,3.9-13.7
					c2.5-5.5,2.9-11.5,2.7-17.6c6.3,0.6,12.5,1.9,18.7,2.7c1.9,0.3,3.9,0.5,5.6-0.2c1.2-0.5,2.2-1.5,3.1-2.4
					C-88.8,49.4-75.1,36.2-61.5,23c1.3,16.5,2.7,32.9,4,49.4c0.6,7.5,1.2,15.4-1.9,22.2c-1.8,3.9-4.7,7.9-3.5,12
					c0.4,1.3,1.3,2.5,2.1,3.6c5.7,7.7,11.4,15.4,17.1,23.1c-10.9,11.4-21.8,22.9-32.6,34.3c-2.7,2.8-5.4,5.7-7.2,9.2
					c-1.4,2.6-2.2,5.5-3.1,8.3c-3.2,13.2-7.7,26.2-11.6,39.2c-3.8,12.9-7.7,25.8-11.4,38.8c-0.1,0.5-0.3,1.1-0.7,1.4
					c-0.4,0.3-0.8,0.5-1.3,0.6c-7.8,2-15.6,3.9-23.4,5.9c-1.3,0.3-2.5,0.6-3.9,0.7c-0.1,0-0.2,0-0.3,0c-1.5,0-3-0.4-4.4-0.7
					c-7.6-1.9-15.2-3.8-22.8-5.7c-0.6-0.2-1.3-0.3-1.7-0.8c-0.3-0.4-0.4-0.8-0.6-1.3c-3.1-10.6-6.1-21.3-9.1-31.9
					C-177.2,230.1-176.9,229.1-176.6,228.1z"/>
			</g>
		</g>
	</g>
</g>
<g id="Layer_10" class="st0">
	<g id="XMLID_6_" class="st1">
		<g>
			<path class="st9" d="M-476.5,106.6c0,0.1,0,0.2,0,0.3c-0.2,2.1-0.4,4.2-0.6,6.3c-0.1,0.6-0.1,1.1-0.3,1.6s-0.5,1-0.7,1.5
				c-0.7,1.2-1.5,2.5-2.2,3.7c-0.2,0.3-1.2,2.5-1.5,2.6c-0.6,0.1-1.2,0.1-1.8,0.2l-4.9,10.3l-4-9.3c-0.7,0.1-1.4,0.2-2.2,0.3
				c-0.9,3.1-3,10.1-3.2,10s-2.9-6-4.3-9.1c-0.7,0.1-1.3,0.2-2,0.2l-2.8,9.4l-4.7-8.5c-0.4,0-0.8,0.1-1.2,0.1l-3.3,8.3l-5.1-7.4
				c-0.5,0.1-1,0.1-1.6,0.2l-3.6,7.2l-3.8-6.3c-4.2,0.5-8.4,1-12.6,1.5c-0.1,0-0.2,0-0.3,0.1s-0.1,0.2-0.1,0.4c0,3.7-0.1,7.4-0.1,11
				c0,0.1,0,0.3,0.1,0.4s0.2,0.1,0.3,0.1c3.5,0.5,6.9,1.1,10.4,1.6l3.2-6.4l3,7.4c0.9,0.1,1.7,0.3,2.6,0.4l3-7.8l4.1,8.9
				c0.8,0.1,1.6,0.2,2.4,0.4l2.7-9.3l3.7,10.3c0.6,0.1,1.2,0.2,1.9,0.3l3.3-10l3.4,10.9c0.5,0.1,1,0.1,1.5,0.2l4.7-10.2l2.9,11.4
				c0.2,0,0.4,0.1,0.6,0.1c0.3,0.1,0.5,0.1,0.7,0.3c0.1,0.2,0.2,0.4,0.2,0.6c0.9,3.9,0.8,7.9-0.1,11.7c0,0.2-0.1,0.3-0.2,0.4
				c-0.1,0.1-0.3,0.1-0.5,0.1c-12.4,0.2-24.8,0.4-37.2,0.6c-6.6,0.1-13.2,0.1-19.8,0.1c-9.9,0-19.7,2.7-29.2,5.1
				c-6,1.5-12,3.1-18,4.6c-1.5,0.4-2.9,0.8-4.3,1.3c-0.9,0.4-1.8,0.9-2.7,1.4c-3.4,2.2-7.4,4.6-10.3,7.3c-0.8,0.7-1.6,1.6-2.7,2.8
				c-4.2-6.4-8.1-12.4-11.6-17.7c-1-1.5-4.9-5-7.9-7.9c-8.7-8.4-4.8-5-9-8.7c-3.7-3.2-7.4-6.4-11.2-9.6c-4.8-4-9.6-8-14.4-12
				c0.1-0.2-5.3-4.3-5.9-4.9c-2.9-2.9-5.1-6.6-7.3-10.3c8-7.8,4.4-4.6,8.5-8.2c3.7-3.2,7.4-6.4,11.2-9.6c4.8-4,9.6-8,14.4-12
				c-0.1-0.2,5.3-4.3,5.9-4.9c4.5-4.5,7.5-11,10.8-16.4c3.5-5.6,7-11.2,10.5-16.8c4.4-7,8.8-14.1,13.2-21.1l8.5,49.2l46.9,8.7
				l2.1,8.4c0.6,0.1,1.2,0.3,1.8,0.4c5.4,1.1,10.8,2.3,16.2,3.4c7.4,1.6,14.8,3.1,22.2,4.7c3.1,0.6,6.2,1.3,9.3,2
				c1.2,0.2,2.3,0.5,3.5,0.7c1,0.2,2.7,0.9,3.7,0.6c0.5-0.2,0.9-0.5,1.4-0.8c0.6-0.4,1.2-0.9,1.8-1.4c0.2-0.1,0.4-0.2,0.6-0.3
				c0.2,0,0.4,0.1,0.6,0.1c3.6,1.5,7.2,3,10.8,4.6C-476.6,106.5-476.5,106.5-476.5,106.6z M-579.8,108.8l18.8-10.9l-37.7-7.5
				L-579.8,108.8z M-602.9,171.7l2-1l-0.8-0.7l-24.3-24.2l10.2-25.7h-2l-10.5,26.2l24.2,24.2L-602.9,171.7z"/>
			<path class="st9" d="M-577.8,247.1c-0.4-0.7-46.4,9.4-49.3,10.7c-8.5,3.6-18.2,5.1-26.7,8.7c-3.7,1.7-14.8,4.5-18.5,6.3
				c-0.1,0.1-0.3,0.1-0.5,0.1c0,0,0,0-0.1,0s-0.2-0.1-0.3-0.2c-6.1-5.8-6.4-13.9-10.9-21.6c-3.6-6.2-9.3-10.8-14.5-15.7
				c-3.4-3.2-5-5.2-6.6-6.6c-2.9-2.7-6.9-5.1-10.3-7.3c-0.9-0.5-1.7-1-2.7-1.4c-1.4-0.6-2.9-1-4.3-1.3c-6-1.5-12-3.1-18-4.6
				c-9.5-2.4-19.3-5.1-29.2-5.1c-6.6,0-13.2,0-19.8-0.1c-12.4-0.1-24.8-0.4-37.1-0.5c-0.2,0-0.4,0-0.5-0.1s-0.2-0.3-0.2-0.4
				c-0.9-3.8-0.9-7.9-0.1-11.7c0-0.2,0.1-0.4,0.3-0.6s0.5-0.3,0.7-0.3s0.4-0.1,0.6-0.1l2.9-11.4l4.7,10.2c0.5-0.1,1-0.1,1.5-0.2
				l3.4-10.9l3.3,10c0.6-0.1,1.2-0.2,1.9-0.3l3.7-10.3l2.7,9.3c0.8-0.1,1.6-0.2,2.4-0.4l4.1-8.9l3,7.8c0.9-0.1,1.7-0.3,2.6-0.4
				l3-7.4l3.2,6.5c3.4-0.5,6.9-1.1,10.3-1.6c0.1,0,0.3-0.1,0.3-0.1c0.1-0.1,0.1-0.2,0.1-0.4c0-3.7-0.1-7.4-0.1-11.1
				c0-0.1,0-0.3-0.1-0.4c-0.1-0.1-0.2-0.1-0.3-0.1c-4.2-0.5-8.4-1-12.6-1.5l-3.8,6.3l-3.6-7.2c-0.5-0.1-1.1-0.1-1.6-0.2l-5.1,7.4
				l-3.3-8.4c-0.4,0-0.8-0.1-1.2-0.1l-4.7,8.5l-2.8-9.4c-0.7-0.1-1.4-0.2-2-0.2c-1.4,3.1-4.1,9-4.3,9.1s-2.3-6.9-3.2-10
				c-0.7-0.1-1.4-0.2-2.1-0.2l-4,9.3l-4.9-10.3c-0.6-0.1-1.2-0.1-1.8-0.2c-0.3,0-1.3-2.3-1.5-2.6c-0.7-1.2-1.5-2.5-2.2-3.7
				c-0.3-0.5-0.6-1-0.7-1.5c-0.2-0.5-0.2-1.1-0.3-1.6c-0.2-2.1-0.4-4.2-0.6-6.3c0-0.1,0-0.2,0-0.3c0.1-0.1,0.1-0.1,0.2-0.1
				c3.6-1.5,7.2-3,10.8-4.6c0.2-0.1,0.4-0.2,0.6-0.1c0.2,0,0.4,0.1,0.6,0.3c0.6,0.5,1.2,0.9,1.9,1.3c0.4,0.3,0.9,0.6,1.4,0.8
				c1,0.3,2.6-0.4,3.6-0.6c1.1-0.2,2.3-0.5,3.5-0.7c3.1-0.7,6.2-1.3,9.3-2c7.4-1.6,14.8-3.1,22.2-4.7c5.4-1.1,10.8-2.3,16.1-3.4
				c0.6-0.1,1.2-0.2,1.8-0.4l2.1-8.4l46.9-8.7l8.5-49.2c4.4,7,8.8,14.1,13.2,21.1c3.5,5.6,7,11.2,10.5,16.9
				c3.4,5.4,6.3,11.9,10.8,16.4c0.6,0.6,6,4.7,5.9,4.9c4.8,4,9.6,8,14.4,12c3.8,3.1,7.5,6.4,11.2,9.6c4.3,3.7,0.3,0.3,9,8.7
				c3,2.9,6.9,6.4,7.9,7.9C-612.7,190.3-590.3,224.3-577.8,247.1z M-686.5,192.4l-10.5-26.2h-2l10.2,25.7l-24.4,24.1l-0.8,0.7l2,1
				l1.2-1.1L-686.5,192.4z M-735,154.8l18.9-18.3l-37.7,7.5L-735,154.8z"/>
			<path class="st9" d="M-639.7,76.5c-0.7,0.9-1.4,1.8-2.2,2.5c-0.6,0.6-6,4.7-5.9,4.9c-4.8,4-9.6,8-14.4,12
				c-3.8,3.2-7.5,6.4-11.2,9.6c-4.2,3.6-0.5,0.4-8.5,8.2l-28.4-45.5l-9.4,50.6l-32.6,6c-8.8-2.2-17.8-4.5-26.8-4.6
				c-6.6,0-13.2,0-19.8-0.1c-12.4-0.1-24.8-0.4-37.1-0.5c-0.2,0-0.4,0-0.5-0.1s-0.2-0.3-0.2-0.4c-0.9-3.8-0.9-7.9-0.1-11.7
				c0.1-0.2,0.1-0.4,0.2-0.6c0.2-0.2,0.5-0.3,0.7-0.3s0.4-0.1,0.6-0.1l2.9-11.4l4.7,10.2c0.5-0.1,1-0.1,1.5-0.2l3.4-10.9l3.3,10
				c0.6-0.1,1.2-0.2,1.9-0.3l3.7-10.3l2.7,9.3c0.8-0.1,1.6-0.2,2.4-0.4l4.1-8.9l3,7.8c0.8-0.1,1.7-0.3,2.6-0.4l3-7.4l3.2,6.4
				c3.5-0.5,6.9-1.1,10.4-1.6c0.1,0,0.3,0,0.3-0.1c0.1-0.1,0.1-0.2,0.1-0.4c0-3.7-0.1-7.4-0.1-11c0-0.1,0-0.3-0.1-0.4
				s-0.2-0.1-0.3-0.1c-4.2-0.5-8.4-1-12.6-1.5l-3.8,6.3l-3.6-7.2c-0.5-0.1-1-0.1-1.6-0.2l-5.1,7.4l-3.3-8.4c-0.4,0-0.8-0.1-1.2-0.1
				l-4.7,8.5l-2.8-9.4c-0.7-0.1-1.3-0.2-2-0.2c-1.4,3.1-4.1,9-4.3,9.1s-2.3-6.9-3.2-10c-0.7-0.1-1.4-0.2-2.1-0.2l-4,9.3l-4.9-10.3
				c-0.6-0.1-1.2-0.2-1.8-0.2c-0.3,0-1.3-2.3-1.5-2.6c-0.7-1.2-1.5-2.5-2.2-3.7c-0.3-0.5-0.6-1-0.7-1.5c-0.2-0.5-0.2-1.1-0.3-1.6
				c-0.2-2.1-0.4-4.2-0.6-6.3c0-0.1,0-0.2,0-0.3s0.1-0.1,0.2-0.1c3.6-1.5,7.2-3,10.9-4.6c0.2-0.1,0.4-0.2,0.6-0.1
				c0.2,0,0.4,0.1,0.6,0.3c0.6,0.5,1.2,0.9,1.9,1.3c0.4,0.3,0.9,0.6,1.4,0.8c1,0.3,2.6-0.4,3.7-0.6c1.1-0.2,2.3-0.5,3.4-0.7
				c3.1-0.7,6.2-1.3,9.3-2c7.4-1.6,14.8-3.1,22.2-4.7c5.4-1.1,10.8-2.3,16.2-3.4c0.6-0.1,1.2-0.2,1.8-0.4l2.1-8.4l46.9-8.7l8.5-49.2
				c4.4,7,8.8,14.1,13.2,21.1c3.5,5.6,7,11.2,10.5,16.8c3.4,5.4,6.3,11.9,10.8,16.4c0.6,0.6,6,4.7,5.9,4.9c4.8,4,9.6,8,14.4,12
				c3.8,3.1,7.5,6.4,11.2,9.6c4.3,3.7,0.3,0.3,9.1,8.7C-642.7,73.7-641.1,75.2-639.7,76.5z M-746.8,64.5l18.9-18.4l-37.7,7.5
				L-746.8,64.5z"/>
		</g>
		<g>
			<polygon class="st2" points="-765.6,53.6 -727.9,46.1 -746.8,64.5 			"/>
			<path class="st2" d="M-681.8,113.8c8-7.8,4.4-4.6,8.5-8.2c3.7-3.2,7.4-6.4,11.2-9.6c4.8-4,9.6-8,14.4-12
				c-0.1-0.2,5.3-4.3,5.9-4.9c0.8-0.8,1.5-1.6,2.2-2.5c-1.4-1.4-3-2.9-4.4-4.2c-8.7-8.4-4.8-5-9.1-8.7c-3.7-3.2-7.4-6.4-11.2-9.6
				c-4.8-4-9.6-8-14.4-12c0.1-0.2-5.3-4.3-5.9-4.9c-4.5-4.5-7.5-11-10.8-16.4c-3.5-5.6-7-11.2-10.5-16.8c-4.4-7-8.8-14.1-13.2-21.1
				l-8.5,49.2l-46.9,8.7l-2.1,8.4c-0.6,0.1-1.2,0.2-1.8,0.4c-5.4,1.1-10.8,2.3-16.2,3.4c-7.4,1.6-14.8,3.1-22.2,4.7
				c-3.1,0.7-6.2,1.3-9.3,2c-1.1,0.2-2.3,0.5-3.4,0.7c-1,0.2-2.7,0.9-3.7,0.6c-0.5-0.2-0.9-0.5-1.4-0.8c-0.6-0.4-1.2-0.9-1.9-1.3
				c-0.2-0.1-0.4-0.3-0.6-0.3s-0.4,0.1-0.6,0.1c-3.6,1.5-7.2,3-10.9,4.6c-0.1,0-0.2,0.1-0.2,0.1c-0.1,0.1,0,0.2,0,0.3
				c0.2,2.1,0.4,4.2,0.6,6.3c0,0.6,0.1,1.1,0.3,1.6s0.5,1,0.7,1.5c0.7,1.2,1.5,2.5,2.2,3.7c0.2,0.3,1.2,2.5,1.5,2.6
				c0.6,0.1,1.2,0.1,1.8,0.2l4.9,10.3l4-9.3c0.7,0.1,1.4,0.2,2.1,0.2c0.9,3.1,3,10.1,3.2,10s2.9-6,4.3-9.1c0.7,0.1,1.3,0.2,2,0.2
				l2.8,9.4l4.7-8.5c0.4,0,0.8,0.1,1.2,0.1l3.3,8.4l5.1-7.4c0.5,0.1,1,0.1,1.6,0.2l3.6,7.2l3.8-6.3c4.2,0.5,8.4,1,12.6,1.5
				c0.1,0,0.2,0,0.3,0.1s0.1,0.2,0.1,0.4c0,3.7,0.1,7.4,0.1,11c0,0.1,0,0.3-0.1,0.4s-0.2,0.1-0.3,0.1c-3.5,0.5-6.9,1.1-10.4,1.6
				l-3.2-6.4l-3,7.4c-0.9,0.1-1.7,0.3-2.6,0.4l-3-7.8l-4.1,8.9c-0.8,0.1-1.6,0.2-2.4,0.4l-2.7-9.3l-3.7,10.3
				c-0.6,0.1-1.2,0.2-1.9,0.3l-3.3-10l-3.4,10.9c-0.5,0.1-1,0.1-1.5,0.2l-4.7-10.2l-2.9,11.4c-0.2,0-0.4,0.1-0.6,0.1
				c-0.3,0-0.5,0.1-0.7,0.3c-0.1,0.2-0.2,0.4-0.2,0.6c-0.9,3.8-0.8,7.9,0.1,11.7c0,0.1,0.1,0.3,0.2,0.4c0.1,0.1,0.3,0.1,0.5,0.1
				c12.4,0.2,24.8,0.4,37.1,0.5c6.6,0.1,13.2,0.1,19.8,0.1c9.1,0,18.1,2.3,26.8,4.6l32.6-6l9.4-50.6L-681.8,113.8z"/>
			<polygon class="st2" points="-753.8,143.9 -716.1,136.4 -735,154.8 			"/>
			<polygon class="st2" points="-713.2,216 -688.8,191.9 -699,166.2 -697,166.2 -686.5,192.4 -710.7,216.6 -711.9,217.7 
				-713.9,216.7 			"/>
			<polygon class="st2" points="-561,97.9 -598.7,90.4 -579.8,108.8 			"/>
			<polygon class="st2" points="-601.6,170 -625.9,145.8 -615.8,120.1 -617.7,120.1 -628.3,146.3 -604.1,170.5 -602.9,171.7 
				-600.9,170.7 			"/>
			<path class="st2" d="M-476.5,106.6c0-0.1-0.1-0.1-0.2-0.1c-3.6-1.5-7.2-3-10.8-4.6c-0.2-0.1-0.4-0.1-0.6-0.1s-0.4,0.1-0.6,0.3
				c-0.6,0.5-1.2,0.9-1.8,1.4c-0.4,0.3-0.9,0.6-1.4,0.8c-1,0.3-2.6-0.4-3.7-0.6c-1.2-0.2-2.3-0.5-3.5-0.7c-3.1-0.6-6.2-1.3-9.3-2
				c-7.4-1.6-14.8-3.1-22.2-4.7c-5.4-1.1-10.8-2.3-16.2-3.4c-0.6-0.1-1.2-0.2-1.8-0.4l-2.1-8.4l-46.9-8.7l-8.5-49.2
				c-4.4,7-8.8,14.1-13.2,21.1c-3.5,5.6-7,11.2-10.5,16.8c-3.4,5.4-6.3,11.9-10.8,16.4c-0.6,0.6-6,4.7-5.9,4.9c-4.8,4-9.6,8-14.4,12
				c-3.8,3.1-7.5,6.4-11.2,9.6c-4.2,3.6-0.5,0.4-8.5,8.2c2.1,3.7,4.4,7.4,7.3,10.3c0.6,0.6,6,4.7,5.9,4.9c4.8,4,9.6,8,14.4,12
				c3.8,3.1,7.5,6.4,11.2,9.6c4.3,3.7,0.3,0.3,9,8.7c3,2.9,6.9,6.4,7.9,7.9c3.5,5.3,7.4,11.3,11.6,17.7c1.1-1.1,1.9-2,2.7-2.8
				c2.9-2.7,6.9-5.1,10.3-7.3c0.9-0.6,1.7-1,2.7-1.4c1.4-0.6,2.9-1,4.3-1.3c6-1.5,12-3.1,18-4.6c9.5-2.4,19.3-5.1,29.2-5.1
				c6.6,0,13.2,0,19.8-0.1c12.4-0.1,24.8-0.4,37.2-0.6c0.2,0,0.4,0,0.5-0.1s0.2-0.3,0.2-0.4c0.9-3.8,0.9-7.9,0.1-11.7
				c-0.1-0.2-0.1-0.4-0.2-0.6c-0.2-0.2-0.5-0.3-0.7-0.3s-0.4-0.1-0.6-0.1l-2.9-11.4l-4.7,10.2c-0.5-0.1-1-0.1-1.5-0.2l-3.4-10.9
				l-3.3,10c-0.6-0.1-1.2-0.2-1.9-0.3l-3.7-10.3l-2.7,9.3c-0.8-0.1-1.6-0.2-2.4-0.4l-4.1-8.9l-3,7.8c-0.9-0.1-1.7-0.3-2.6-0.4
				l-3-7.4l-3.2,6.4c-3.5-0.5-6.9-1.1-10.4-1.6c-0.1,0-0.3,0-0.3-0.1c-0.1-0.1-0.1-0.2-0.1-0.4c0-3.7,0.1-7.4,0.1-11
				c0-0.1,0-0.3,0.1-0.4s0.2-0.1,0.3-0.1c4.2-0.5,8.4-1,12.6-1.5l3.8,6.3l3.6-7.2c0.5-0.1,1-0.1,1.6-0.2l5.1,7.4l3.3-8.3
				c0.4,0,0.8-0.1,1.2-0.1l4.7,8.5l2.8-9.4c0.7-0.1,1.3-0.2,2-0.2c1.4,3.1,4.1,9,4.3,9.1s2.3-6.9,3.2-10c0.7-0.1,1.4-0.2,2.2-0.3
				l4,9.3l4.9-10.3c0.6-0.1,1.2-0.1,1.8-0.2c0.4,0,1.3-2.3,1.5-2.6c0.7-1.2,1.5-2.5,2.2-3.7c0.3-0.5,0.6-1,0.7-1.5
				c0.2-0.5,0.2-1.1,0.3-1.6c0.2-2.1,0.4-4.2,0.6-6.3C-476.4,106.8-476.4,106.7-476.5,106.6z"/>
			<path class="st2" d="M-653.8,266.4c-3.7,1.7-14.8,4.5-18.5,6.3c-0.1,0.1-0.3,0.1-0.5,0.1c0,0,0,0-0.1,0s-0.2-0.1-0.3-0.2
				c-6.1-5.8-6.4-13.9-10.9-21.6c-3.6-6.2-9.3-10.8-14.5-15.7c-3.4-3.2-5-5.2-6.6-6.6c-2.9-2.7-6.9-5.1-10.3-7.3
				c-0.9-0.5-1.7-1-2.7-1.4c-1.4-0.6-2.9-1-4.3-1.3c-6-1.5-12-3.1-18-4.6c-9.5-2.4-19.3-5.1-29.2-5.1c-6.6,0-13.2,0-19.8-0.1
				c-12.4-0.1-24.8-0.4-37.1-0.5c-0.2,0-0.4,0-0.5-0.1s-0.2-0.3-0.2-0.4c-0.9-3.8-0.9-7.9-0.1-11.7c0-0.2,0.1-0.4,0.3-0.6
				s0.5-0.3,0.7-0.3s0.4-0.1,0.6-0.1l2.9-11.4l4.7,10.2c0.5-0.1,1-0.1,1.5-0.2l3.4-10.9l3.3,10c0.6-0.1,1.2-0.2,1.9-0.3l3.7-10.3
				l2.7,9.3c0.8-0.1,1.6-0.2,2.4-0.4l4.1-8.9l3,7.8c0.9-0.1,1.7-0.3,2.6-0.4l3-7.4l3.2,6.5c3.4-0.5,6.9-1.1,10.3-1.6
				c0.1,0,0.3-0.1,0.3-0.1c0.1-0.1,0.1-0.2,0.1-0.4c0-3.7-0.1-7.4-0.1-11.1c0-0.1,0-0.3-0.1-0.4c-0.1-0.1-0.2-0.1-0.3-0.1
				c-4.2-0.5-8.4-1-12.6-1.5l-3.8,6.3l-3.6-7.2c-0.5-0.1-1.1-0.1-1.6-0.2l-5.1,7.4l-3.3-8.4c-0.4,0-0.8-0.1-1.2-0.1l-4.7,8.5
				l-2.8-9.4c-0.7-0.1-1.4-0.2-2-0.2c-1.4,3.1-4.1,9-4.3,9.1s-2.3-6.9-3.2-10c-0.7-0.1-1.4-0.2-2.1-0.2l-4,9.3l-4.9-10.3
				c-0.6-0.1-1.2-0.1-1.8-0.2c-0.3,0-1.3-2.3-1.5-2.6c-0.7-1.2-1.5-2.5-2.2-3.7c-0.3-0.5-0.6-1-0.7-1.5c-0.2-0.5-0.2-1.1-0.3-1.6
				c-0.2-2.1-0.4-4.2-0.6-6.3c0-0.1,0-0.2,0-0.3c0.1-0.1,0.1-0.1,0.2-0.1c3.6-1.5,7.2-3,10.8-4.6c0.2-0.1,0.4-0.2,0.6-0.1
				c0.2,0,0.4,0.1,0.6,0.3c0.6,0.5,1.2,0.9,1.9,1.3c0.4,0.3,0.9,0.6,1.4,0.8c1,0.3,2.6-0.4,3.6-0.6c1.1-0.2,2.3-0.5,3.5-0.7
				c3.1-0.7,6.2-1.3,9.3-2c7.4-1.6,14.8-3.1,22.2-4.7c5.4-1.1,10.8-2.3,16.1-3.4c0.6-0.1,1.2-0.2,1.8-0.4l2.1-8.4l46.9-8.7l8.5-49.2
				c4.4,7,8.8,14.1,13.2,21.1c3.5,5.6,7,11.2,10.5,16.9c3.4,5.4,6.3,11.9,10.8,16.4c0.6,0.6,6,4.7,5.9,4.9c4.8,4,9.6,8,14.4,12
				c3.8,3.1,7.5,6.4,11.2,9.6c4.3,3.7,0.3,0.3,9,8.7c3,2.9,6.9,6.4,7.9,7.9c14.2,21.7,36.6,55.7,49,78.5
				c-0.4-0.7-46.4,9.4-49.3,10.7C-635.7,261.3-645.3,262.8-653.8,266.4z"/>
		</g>
	</g>
</g>
</svg>
