<?xml version="1.0" encoding="utf-8"?>
<!-- Generator: Adobe Illustrator 19.2.1, SVG Export Plug-In . SVG Version: 6.00 Build 0)  -->
<svg version="1.1" id="Layer_1" xmlns="http://www.w3.org/2000/svg" xmlns:xlink="http://www.w3.org/1999/xlink" x="0px" y="0px"
	 viewBox="0 0 217.5 283" style="enable-background:new 0 0 217.5 283;" xml:space="preserve">
<style type="text/css">
	.st0{display:none;}
	.st1{display:inline;}
	.st2{fill:none;stroke:#000000;stroke-width:0.25;stroke-miterlimit:10;}
	.st3{display:inline;fill:none;stroke:#000000;stroke-width:0.25;stroke-miterlimit:10;}
	.st4{display:inline;fill:none;stroke:#222222;stroke-width:0.25;stroke-miterlimit:10;}
	.st5{fill:none;stroke:#222222;stroke-width:0.25;stroke-miterlimit:10;}
	.st6{display:inline;fill:none;stroke:#000000;stroke-width:0.5;stroke-linecap:round;stroke-linejoin:round;}
	.st7{fill:none;stroke:#000000;stroke-width:0.5;stroke-linecap:round;stroke-linejoin:round;}
	.st8{fill:#222222;}
	.st9{fill:#F5F5F6;}
	.st10{fill:#F5F6F5;}
	.st11{fill:#F6F8F8;}
</style>
<g id="Originial" class="st0">
	<g id="XMLID_2_" class="st1">
		<g>
			<polygon class="st2" points="788.3,530.6 742.3,511 762.1,540.7 			"/>
			<polygon class="st2" points="814.4,530.6 860.4,511 840.6,540.7 			"/>
			<path class="st2" d="M801.4,655.9c1.5,0,2.9-0.4,4.4-0.7c7.4-1.9,14.9-3.7,22.3-5.6c0.6-0.2,1.3-0.3,1.7-0.8
				c0.3-0.3,0.4-0.8,0.6-1.2c7.3-25.4,14.3-51.1,22.4-76.3c0.8-2.8,1.6-5.6,3-8.1c1.8-3.4,4.5-6.2,7.1-9
				c10.7-11.2,21.3-22.4,31.9-33.6c-5.6-7.5-11.2-15.1-16.8-22.6c-0.8-1.1-1.6-2.2-2-3.5c-1.3-4,1.7-7.9,3.4-11.8
				c3-6.7,2.5-14.4,1.9-21.7c-1.3-16.1-2.6-32.2-3.9-48.4c-13.3,12.9-26.7,25.8-40.1,38.8c-0.9,0.9-1.9,1.8-3.1,2.3
				c-1.7,0.7-3.7,0.5-5.5,0.2c-8.8-1.2-17.9-3-26.9-3.1c-9.3-0.2-18.5,1.8-27.7,3.1c-1.8,0.3-3.8,0.5-5.5-0.2
				c-1.2-0.5-2.1-1.4-3.1-2.3c-13.3-12.9-26.7-25.8-40.1-38.8c-1.3,16.1-2.6,32.2-3.9,48.4c-0.6,7.3-1.1,15,1.9,21.7
				c1.7,3.8,4.6,7.8,3.4,11.8c-0.4,1.3-1.2,2.4-2,3.5c-5.6,7.5-11.2,15.1-16.8,22.6c10.7,11.2,21.3,22.4,31.9,33.6
				c2.6,2.8,5.3,5.6,7.1,9c1.3,2.5,2.2,5.3,3,8.1c3.1,12.9,7.6,25.6,11.3,38.4c3.7,12.6,7.5,25.3,11.1,38c0.1,0.5,0.3,1,0.7,1.4
				c0.3,0.3,0.8,0.4,1.3,0.6c7.6,1.9,15.3,3.8,22.9,5.8c1.2,0.3,2.5,0.6,3.8,0.7C801.2,655.9,801.3,655.9,801.4,655.9z"/>
		</g>
	</g>
	<line class="st3" x1="916.4" y1="563.4" x2="916.4" y2="563.4"/>
	<line class="st3" x1="917.4" y1="563.4" x2="917.4" y2="563.4"/>
	<path class="st3" d="M850.2,589.8c2.5-8.3,4.5-17,8.6-24.6c2.8-5.1,6.6-8.9,10.4-13.1c2.8-3.2,5.8-6.3,8.8-9.5
		c6.8-7.4,13.6-14.8,20.5-22.1l-19.9-26.4c-0.1-0.3,5.3-4.3,5.9-4.9c4.5-4.5,7.5-11,10.8-16.4c3.5-5.6,7-11.2,10.5-16.8
		c4.4-7,8.8-14.1,13.2-21.1l8.5,49.2l46.9,8.7l2.1,8.4c0.6,0.1,1.2,0.3,1.8,0.4c5.4,1.1,10.8,2.3,16.2,3.4
		c7.4,1.6,14.8,3.1,22.2,4.7c3.1,0.7,6.2,1.3,9.3,2c1.2,0.2,2.3,0.5,3.5,0.7c1,0.2,2.7,0.9,3.7,0.6c0.5-0.2,0.9-0.5,1.4-0.8
		c0.6-0.4,1.2-0.9,1.8-1.3c0.2-0.1,0.4-0.3,0.6-0.3s0.4,0.1,0.6,0.1c3.6,1.5,7.2,3,10.8,4.6c0.1,0,0.2,0.1,0.2,0.1
		c0.1,0.1,0,0.2,0,0.3c-0.2,2.1-0.4,4.2-0.6,6.3c0,0.6-0.1,1.1-0.3,1.6c-0.2,0.5-0.5,1-0.7,1.5c-0.7,1.2-1.5,2.5-2.2,3.7
		c-0.2,0.3-1.2,2.5-1.5,2.6c-0.6,0.1-1.2,0.1-1.8,0.2l-4.9,10.3l-4-9.3c-0.7,0.1-1.4,0.2-2.2,0.3c-0.9,3.1-3.1,10.1-3.3,10
		s-2.9-6.1-4.3-9.1c-0.7,0.1-1.3,0.2-2,0.2l-2.8,9.4l-4.7-8.5c-0.4,0-0.8,0.1-1.2,0.1l-3.3,8.3l-5.1-7.3c-0.5,0.1-1,0.1-1.6,0.2
		l-3.6,7.2l-3.8-6.3c-4.2,0.5-8.4,1-12.6,1.5c-0.1,0-0.2,0-0.3,0.1c-0.1,0.1-0.1,0.3-0.1,0.4c0,3.7-0.1,7.4-0.1,11
		c0,0.1,0,0.3,0.1,0.4c0.1,0.1,0.2,0.1,0.3,0.1c3.5,0.5,6.9,1.1,10.4,1.6l3.2-6.4l3,7.4c0.9,0.1,1.7,0.3,2.6,0.4l3-7.8l4.1,8.9
		c0.8,0.1,1.6,0.2,2.4,0.4l2.7-9.3l3.7,10.3c0.6,0.1,1.2,0.2,1.9,0.3l3.3-10l3.4,10.9c0.5,0.1,1,0.1,1.5,0.2l4.7-10.3l2.9,11.4
		c0.2,0,0.4,0.1,0.6,0.1c0.3,0.1,0.5,0.1,0.7,0.3c0.1,0.2,0.2,0.4,0.3,0.6c0.9,3.8,0.8,7.9-0.1,11.7c0,0.2-0.1,0.3-0.2,0.4
		c-0.1,0.1-0.3,0.1-0.5,0.1c-12.4,0.2-24.8,0.4-37.1,0.6c-6.6,0.1-13.2,0.1-19.8,0.1c-9.9,0-19.7,2.7-29.2,5.1c-6,1.5-12,3.1-18,4.6
		c-1.5,0.4-2.9,0.7-4.3,1.3c-0.9,0.4-1.8,0.9-2.7,1.4c-3.4,2.2-6,5.5-8.9,8.3c-2.4,2.2-4.7,4.4-7,6.6c-5.2,4.9-10.3,9.8-15.5,14.7
		c-6.1,5.8-12.3,11.6-18.4,17.4c-0.1,0.1-0.2,0.2-0.3,0.2c0,0,0,0-0.1,0c-0.2,0-0.3,0-0.5-0.1c-3.7-1.8-7.3-3.5-11-5.2
		c-7-3.3-14.1-6.6-21.1-9.8C844.7,607.9,847.5,598.9,850.2,589.8z"/>
	<line class="st3" x1="686.2" y1="563.4" x2="686.2" y2="563.4"/>
	<line class="st3" x1="685.2" y1="563.4" x2="685.2" y2="563.4"/>
	<path class="st3" d="M752.4,589.8c-2.5-8.3-4.5-17-8.6-24.6c-2.8-5.1-6.6-8.9-10.4-13.1c-2.8-3.2-5.8-6.3-8.8-9.5
		c-6.8-7.4-13.6-14.8-20.5-22.1l19.9-26.4c0.1-0.3-5.3-4.3-5.9-4.9c-4.5-4.5-7.5-11-10.8-16.4c-3.5-5.6-7-11.2-10.5-16.8
		c-4.4-7-8.8-14.1-13.2-21.1l-8.5,49.2l-46.9,8.7l-2.1,8.4c-0.6,0.1-1.2,0.3-1.8,0.4c-5.4,1.1-10.8,2.3-16.2,3.4
		c-7.4,1.6-14.8,3.1-22.2,4.7c-3.1,0.7-6.2,1.3-9.3,2c-1.2,0.2-2.3,0.5-3.5,0.7c-1,0.2-2.7,0.9-3.7,0.6c-0.5-0.2-0.9-0.5-1.4-0.8
		c-0.6-0.4-1.2-0.9-1.8-1.3c-0.2-0.1-0.4-0.3-0.6-0.3s-0.4,0.1-0.6,0.1c-3.6,1.5-7.2,3-10.8,4.6c-0.1,0-0.2,0.1-0.2,0.1
		c-0.1,0.1,0,0.2,0,0.3c0.2,2.1,0.4,4.2,0.6,6.3c0,0.6,0.1,1.1,0.3,1.6c0.2,0.5,0.5,1,0.7,1.5c0.7,1.2,1.5,2.5,2.2,3.7
		c0.2,0.3,1.2,2.5,1.5,2.6c0.6,0.1,1.2,0.1,1.8,0.2l4.9,10.3l4-9.3c0.7,0.1,1.4,0.2,2.2,0.3c0.9,3.1,3.1,10.1,3.3,10
		c0.2-0.1,2.9-6.1,4.3-9.1c0.7,0.1,1.3,0.2,2,0.2l2.8,9.4l4.7-8.5c0.4,0,0.8,0.1,1.2,0.1l3.3,8.3l5.1-7.3c0.5,0.1,1,0.1,1.6,0.2
		l3.6,7.2l3.8-6.3c4.2,0.5,8.4,1,12.6,1.5c0.1,0,0.2,0,0.3,0.1c0.1,0.1,0.1,0.3,0.1,0.4c0,3.7,0.1,7.4,0.1,11c0,0.1,0,0.3-0.1,0.4
		c-0.1,0.1-0.2,0.1-0.3,0.1c-3.5,0.5-6.9,1.1-10.4,1.6l-3.2-6.4l-3,7.4c-0.9,0.1-1.7,0.3-2.6,0.4l-3-7.8l-4.1,8.9
		c-0.8,0.1-1.6,0.2-2.4,0.4l-2.7-9.3l-3.7,10.3c-0.6,0.1-1.2,0.2-1.9,0.3l-3.3-10l-3.4,10.9c-0.5,0.1-1,0.1-1.5,0.2l-4.7-10.3
		l-2.9,11.4c-0.2,0-0.4,0.1-0.6,0.1c-0.3,0.1-0.5,0.1-0.7,0.3c-0.1,0.2-0.2,0.4-0.3,0.6c-0.9,3.8-0.8,7.9,0.1,11.7
		c0,0.2,0.1,0.3,0.2,0.4c0.1,0.1,0.3,0.1,0.5,0.1c12.4,0.2,24.8,0.4,37.1,0.6c6.6,0.1,13.2,0.1,19.8,0.1c9.9,0,19.7,2.7,29.2,5.1
		c6,1.5,12,3.1,18,4.6c1.5,0.4,2.9,0.7,4.3,1.3c0.9,0.4,1.8,0.9,2.7,1.4c3.4,2.2,6,5.5,8.9,8.3c2.4,2.2,4.7,4.4,7,6.6
		c5.2,4.9,10.3,9.8,15.5,14.7c6.1,5.8,12.3,11.6,18.4,17.4c0.1,0.1,0.2,0.2,0.3,0.2c0,0,0,0,0.1,0c0.2,0,0.3,0,0.5-0.1
		c3.7-1.8,7.3-3.5,11-5.2c7-3.3,14.1-6.6,21.1-9.8C757.9,607.9,755.2,598.9,752.4,589.8z"/>
	<polygon class="st3" points="964,506.5 926.3,499 945.2,517.3 	"/>
	<polygon class="st3" points="638.7,506.5 676.3,499 657.4,517.3 	"/>
	<polygon class="st3" points="923.4,578.6 899,554.4 909.2,528.7 907.2,528.7 896.7,554.9 920.9,579.1 922.1,580.3 924.1,579.3 	"/>
	<polygon class="st3" points="821,637.6 801.4,629.3 781.7,637.6 781.7,639.5 801.4,631.1 821,639.5 	"/>
	<polygon class="st3" points="679.3,578.6 703.6,554.4 693.4,528.7 695.4,528.7 705.9,554.9 681.8,579.1 680.5,580.3 678.5,579.3 	
		"/>
</g>
<g id="Base_Shapes" class="st0">
	<g id="XMLID_1_" class="st1">
		<g>
			<polygon class="st2" points="741,493 700.1,475.6 717.7,502 			"/>
			<polygon class="st2" points="764.2,493 805.1,475.6 787.5,502 			"/>
			<path class="st2" d="M752.6,604.4c1.3,0,2.6-0.3,3.9-0.7c6.6-1.7,13.2-3.3,19.8-5c0.5-0.1,1.1-0.3,1.5-0.7
				c0.3-0.3,0.4-0.7,0.5-1.1c6.5-22.6,12.8-45.4,20-67.8c0.7-2.5,1.5-5,2.7-7.2c1.6-3,4-5.5,6.3-8c9.5-10,18.9-19.9,28.4-29.9
				c-5-6.7-10-13.4-14.9-20.1c-0.7-1-1.4-2-1.8-3.1c-1.1-3.6,1.5-7.1,3-10.5c2.7-5.9,2.2-12.8,1.7-19.3c-1.2-14.3-2.3-28.7-3.5-43
				c-11.9,11.5-23.7,23-35.6,34.5c-0.8,0.8-1.7,1.6-2.7,2.1c-1.5,0.7-3.2,0.4-4.9,0.2c-7.8-1.1-15.9-2.6-23.9-2.8
				c-8.2-0.2-16.5,1.6-24.6,2.8c-1.6,0.2-3.3,0.4-4.9-0.2c-1-0.4-1.9-1.3-2.7-2.1c-11.9-11.5-23.7-23-35.6-34.5
				c-1.2,14.3-2.3,28.7-3.5,43c-0.5,6.5-1,13.4,1.7,19.3c1.5,3.4,4.1,6.9,3,10.5c-0.4,1.2-1.1,2.1-1.8,3.1c-5,6.7-10,13.4-14.9,20.1
				c9.5,10,18.9,19.9,28.4,29.9c2.3,2.5,4.7,5,6.3,8c1.2,2.3,1.9,4.7,2.7,7.2c2.8,11.5,6.7,22.8,10.1,34.1
				c3.3,11.2,6.7,22.5,9.9,33.7c0.1,0.4,0.3,0.9,0.6,1.2c0.3,0.3,0.7,0.4,1.1,0.5c6.8,1.7,13.6,3.4,20.3,5.1
				c1.1,0.3,2.2,0.6,3.3,0.6C752.5,604.4,752.5,604.4,752.6,604.4z"/>
		</g>
	</g>
	<polygon class="st3" points="770.1,588.2 752.6,580.8 735.1,588.2 735.1,589.9 752.6,582.4 770.1,589.9 	"/>
</g>
<g id="option_2_-_no_color" class="st0">
	<polygon class="st4" points="890.2,610.5 929,596.4 909.6,622 	"/>
	<g class="st1">
		<polygon class="st5" points="884.8,656.3 873.8,656.1 868.4,672.9 864.3,656.2 859.9,655 857.1,679.2 871.4,685.8 876.4,667.3 
			880.5,685.9 884.8,685.9 889.1,685.9 893.2,667.3 898.2,685.8 912.5,679.2 909.7,655 905.4,656.2 901.2,672.9 895.8,656.1 		"/>
	</g>
	<path class="st4" d="M943,601.6c-0.8-1.4-1.6-2.8-2-4.4c0,0,0,0-0.1-0.4c-0.4-2.2-0.4-4.5-0.2-6.7c0.5-5.1,0.9-10.2,1.4-15.4
		c0.4-4.7-0.5-9.7-0.8-14.4c-0.8-10.3-1.6-20.6-2.4-30.9c-0.1-1.7-0.4-3.5-0.4-5.3c-11.4,15.8-22.7,38.6-34.1,54.5c0,0,0,0.1-0.1,0
		c-8.2-2.4-16.8-3.3-25.2-2.6c-5.7,6-11.4,12-17.1,18c-2.6,2.8-5.3,5.6-7.1,9c-1.3,2.5-2.2,5.3-3,8.1c-4.5,14-8.6,28.1-12.7,42.2
		c1.2,1.8,2.3,3.6,3.2,5.6c1.5,3.4,2.4,7.2,3.2,10.9c1,4.6,2.1,9.3,3.1,13.9c0.2,1.1,0.5,2.3,1.2,3.1c0.6,0.8,1.5,1.3,2.3,1.7
		c10.1,5.2,21.1,7.8,32.2,7.9c10.9,0.1,21.8-2.3,31.8-7.1c1-0.5,2-1,2.7-2c0.7-0.9,1-2.2,1.2-3.3c1.1-4.7,2.1-9.5,3.2-14.2
		c0.8-3.8,1.7-7.5,3.2-11c1.3-3,3.2-5.6,5-8.3c7.2-10.5,14.4-21,21.6-31.4C949.7,613.4,946.3,607.5,943,601.6z"/>
	<path class="st4" d="M852,611.2c0.8-2.8,1.6-5.6,3-8.1c1.8-3.4,4.5-6.2,7.1-9"/>
	<path class="st4" d="M854.9,603.1c-1.3,2.5-2.2,5.3-3,8.1c-0.2,0.6-0.4,1.2-0.6,1.8l6.8,9l19.4-11.5l-22.2-8.1
		C855.2,602.6,855.1,602.9,854.9,603.1z"/>
	<g id="XMLID_3_" class="st1">
		<g>
			<polygon class="st5" points="785.5,569.6 739.6,550 759.4,579.8 			"/>
			<polygon class="st5" points="811.7,569.6 857.7,550 837.9,579.8 			"/>
			<path class="st5" d="M798.6,694.9c1.5,0,2.9-0.4,4.4-0.7c7.4-1.9,14.9-3.7,22.3-5.6c0.6-0.2,1.3-0.3,1.7-0.8
				c0.3-0.4,0.4-0.8,0.6-1.3c7.3-25.4,14.3-51.1,22.4-76.3c0.8-2.8,1.6-5.6,3-8.1c1.8-3.4,4.5-6.2,7.1-9
				c10.7-11.2,21.3-22.4,31.9-33.6c-5.6-7.5-11.2-15-16.8-22.6c-0.8-1.1-1.6-2.2-2-3.5c-1.3-4,1.7-8,3.4-11.8
				c3-6.6,2.5-14.4,1.9-21.7c-1.3-16.1-2.6-32.3-3.9-48.4c-13.3,12.9-26.7,25.8-40.1,38.8c-0.9,0.9-1.9,1.8-3.1,2.3
				c-1.7,0.7-3.7,0.5-5.5,0.2c-8.8-1.2-17.9-2.9-26.9-3.1c-9.3-0.2-18.5,1.8-27.7,3.1c-1.8,0.3-3.8,0.5-5.5-0.2
				c-1.2-0.5-2.1-1.4-3.1-2.3c-13.3-12.9-26.7-25.8-40.1-38.8c-1.3,16.1-2.6,32.2-3.9,48.4c-0.6,7.3-1.1,15,1.9,21.7
				c1.7,3.8,4.6,7.8,3.4,11.8c-0.4,1.3-1.2,2.4-2,3.5c-5.6,7.5-11.2,15.1-16.8,22.6c10.7,11.2,21.3,22.4,31.9,33.6
				c2.6,2.8,5.3,5.6,7.1,9c1.3,2.5,2.2,5.3,3,8.1c3.1,12.9,7.6,25.6,11.3,38.4c3.7,12.6,7.5,25.3,11.1,38c0.1,0.5,0.3,1,0.7,1.4
				c0.3,0.3,0.8,0.4,1.3,0.6c7.6,1.9,15.3,3.8,22.9,5.8c1.2,0.3,2.5,0.6,3.8,0.7C798.4,694.9,798.5,694.9,798.6,694.9z"/>
		</g>
	</g>
	<polygon class="st4" points="818.3,676.6 798.6,668.3 779,676.6 779,678.5 798.6,670.2 818.3,678.5 	"/>
	<polygon class="st4" points="896.1,641.5 883.6,636.2 871.1,641.5 871.1,642.7 883.6,637.4 896.1,642.7 	"/>
	<polygon class="st4" points="707,610.5 668.3,596.4 687.6,622 	"/>
	<g class="st1">
		<polygon class="st5" points="712.4,656.3 723.4,656.1 728.8,672.9 733,656.2 737.3,655 740.1,679.2 725.9,685.8 720.9,667.3 
			716.8,685.9 712.4,685.9 708.1,685.9 704,667.3 699,685.8 684.7,679.2 687.5,655 691.9,656.2 696.1,672.9 701.5,656.1 		"/>
	</g>
	<path class="st4" d="M654.3,601.6c0.8-1.4,1.6-2.8,2-4.4c0,0,0,0,0.1-0.4c0.4-2.2,0.4-4.5,0.2-6.7c-0.5-5.1-0.9-10.2-1.4-15.4
		c-0.4-4.7,0.5-9.7,0.8-14.4c0.8-10.3,1.6-20.6,2.4-30.9c0.1-1.7,0.4-3.5,0.4-5.3c11.4,15.8,22.7,38.6,34.1,54.5c0,0,0,0.1,0.1,0
		c8.2-2.4,16.8-3.3,25.2-2.6c5.7,6,11.4,12,17.1,18c2.6,2.8,5.3,5.6,7.1,9c1.3,2.5,2.2,5.3,3,8.1c4.5,14,8.6,28.1,12.7,42.2
		c-1.2,1.8-2.3,3.6-3.2,5.6c-1.5,3.4-2.4,7.2-3.2,10.9c-1,4.6-2.1,9.3-3.1,13.9c-0.2,1.1-0.5,2.3-1.2,3.1c-0.6,0.8-1.5,1.3-2.3,1.7
		c-10.1,5.2-21.1,7.8-32.2,7.9c-10.9,0.1-21.8-2.3-31.8-7.1c-1-0.5-2-1-2.7-2c-0.7-0.9-1-2.2-1.2-3.3c-1.1-4.7-2.1-9.5-3.2-14.2
		c-0.8-3.8-1.7-7.5-3.2-11c-1.3-3-3.2-5.6-5-8.3c-7.2-10.5-14.4-21-21.6-31.4C647.5,613.4,650.9,607.5,654.3,601.6z"/>
	<path class="st4" d="M742.3,603.1c1.3,2.5,2.2,5.3,3,8.1c0.2,0.6,0.4,1.2,0.6,1.8l-6.8,9l-19.4-11.5l22.2-8.1
		C742,602.6,742.2,602.9,742.3,603.1z"/>
	<polygon class="st4" points="701.1,641.5 713.6,636.2 726.1,641.5 726.1,642.7 713.6,637.4 701.1,642.7 	"/>
</g>
<g id="Option_3" class="st0">
	<polygon class="st6" points="778.4,579.1 732.4,559.5 752.2,589.2 	"/>
	<polygon class="st6" points="804.5,579.1 850.5,559.5 830.7,589.2 	"/>
	<path class="st6" d="M791.4,704.4c1.5,0,2.9-0.4,4.4-0.7c7.4-1.9,14.9-3.8,22.3-5.6c0.6-0.2,1.2-0.3,1.7-0.8
		c0.3-0.3,0.4-0.8,0.6-1.2c7.3-25.4,14.3-51.1,22.4-76.3c0.8-2.8,1.6-5.6,3-8.1c1.8-3.4,4.5-6.2,7.1-9
		c10.6-11.2,21.3-22.4,31.9-33.6c-5.6-7.5-11.2-15-16.8-22.6c-0.8-1.1-1.6-2.2-2-3.5c-1.3-4,1.7-8,3.4-11.8c3-6.7,2.5-14.4,1.9-21.7
		c-1.3-16.1-2.6-32.3-3.9-48.4c-13.4,12.9-26.7,25.8-40.1,38.8c-0.9,0.9-1.9,1.8-3.1,2.3c-1.7,0.7-3.6,0.5-5.5,0.2
		c-8.8-1.2-17.9-3-26.9-3.1c-9.3-0.2-18.5,1.8-27.7,3.1c-1.8,0.3-3.8,0.5-5.5-0.2c-1.2-0.5-2.1-1.4-3.1-2.3
		c-13.4-12.9-26.7-25.8-40.1-38.8c-1.3,16.1-2.6,32.3-3.9,48.4c-0.6,7.3-1.1,15,1.9,21.7c1.7,3.8,4.6,7.8,3.4,11.8
		c-0.4,1.3-1.2,2.4-2,3.5c-5.6,7.5-11.2,15-16.8,22.6c10.6,11.2,21.3,22.4,31.9,33.6c2.6,2.8,5.3,5.6,7.1,9c1.3,2.5,2.2,5.3,3,8.1
		c3.1,12.9,7.6,25.6,11.3,38.4c3.7,12.6,7.5,25.3,11.1,38c0.1,0.5,0.3,1,0.7,1.4c0.3,0.3,0.8,0.4,1.3,0.6c7.6,1.9,15.3,3.8,22.9,5.8
		c1.2,0.3,2.5,0.6,3.8,0.7C791.2,704.4,791.3,704.4,791.4,704.4z"/>
	<polygon class="st3" points="811.1,686.1 791.4,677.7 771.8,686.1 771.8,688 791.4,679.6 811.1,688 	"/>
	<polygon class="st6" points="700.1,617.1 668.1,603.4 681.8,624.1 	"/>
	<polygon class="st3" points="722.9,691.5 709.2,685.7 695.5,691.5 695.5,692.9 709.2,687.1 722.9,692.9 	"/>
	<path class="st6" d="M738.2,619.8c-0.8-2.8-1.6-5.6-3-8.1c-1.8-3.4-4.5-6.2-7.1-9c-10.7-11.2-21.3-22.4-31.9-33.6
		c1.8-2.4,3.6-4.8,5.4-7.2c-3.8,0.5-7.6,1.2-11.4,1.7c-1.3,0.2-2.6,0.4-3.8-0.2c-0.8-0.3-1.5-1-2.1-1.6c-9.3-9-18.6-18-27.9-27
		c-0.9,11.2-1.8,22.5-2.7,33.7c-0.4,5.1-0.8,10.5,1.3,15.1c1.2,2.7,3.2,5.4,2.4,8.2c-0.3,0.9-0.9,1.7-1.4,2.4
		c-3.9,5.2-7.8,10.5-11.7,15.7c7.4,7.8,14.8,15.6,22.2,23.4c1.8,1.9,3.7,3.9,4.9,6.2c0.9,1.8,1.5,3.7,2.1,5.6
		c2.2,9,5.3,17.8,7.9,26.7c2.6,8.8,5.2,17.6,7.8,26.4c0.1,0.4,0.2,0.7,0.5,1c0.2,0.2,0.6,0.3,0.9,0.4c5.3,1.3,10.6,2.7,15.9,4
		c0.9,0.2,1.7,0.4,2.6,0.5c0.1,0,0.1,0,0.2,0c1,0,2-0.3,3-0.5c5.2-1.3,10.3-2.6,15.5-3.9c0.4-0.1,0.9-0.2,1.2-0.6
		c0.2-0.2,0.3-0.6,0.4-0.9c5.1-17.7,10-35.6,15.6-53.1c0.1-0.3,0.2-0.7,0.3-1C742.7,636.2,740.2,628.1,738.2,619.8z"/>
	<path class="st6" d="M738,619.8c-0.8-2.8-1.6-5.6-3-8.1c-0.3-0.5-0.5-1-0.8-1.4l-15.9,6.8l18.2,7l1.8-2.8
		C738.2,620.8,738.1,620.3,738,619.8z"/>
	<polygon class="st6" points="883,617.1 915,603.4 901.3,624.1 	"/>
	<polygon class="st3" points="860.2,691.5 873.9,685.7 887.6,691.5 887.6,692.9 873.9,687.1 860.2,692.9 	"/>
	<path class="st6" d="M844.9,619.8c0.8-2.8,1.6-5.6,3-8.1c1.8-3.4,4.5-6.2,7.1-9c10.7-11.2,21.3-22.4,31.9-33.6
		c-1.8-2.4-3.6-4.8-5.4-7.2c3.8,0.5,7.6,1.2,11.4,1.7c1.3,0.2,2.6,0.4,3.8-0.2c0.8-0.3,1.5-1,2.1-1.6c9.3-9,18.6-18,27.9-27
		c0.9,11.2,1.8,22.5,2.7,33.7c0.4,5.1,0.8,10.5-1.3,15.1c-1.2,2.7-3.2,5.4-2.4,8.2c0.3,0.9,0.9,1.7,1.4,2.4
		c3.9,5.2,7.8,10.5,11.7,15.7c-7.4,7.8-14.8,15.6-22.2,23.4c-1.8,1.9-3.7,3.9-4.9,6.2c-0.9,1.8-1.5,3.7-2.1,5.6
		c-2.2,9-5.3,17.8-7.9,26.7c-2.6,8.8-5.2,17.6-7.8,26.4c-0.1,0.4-0.2,0.7-0.5,1c-0.2,0.2-0.6,0.3-0.9,0.4c-5.3,1.3-10.6,2.7-15.9,4
		c-0.9,0.2-1.7,0.4-2.6,0.5c-0.1,0-0.1,0-0.2,0c-1,0-2-0.3-3-0.5c-5.2-1.3-10.3-2.6-15.5-3.9c-0.4-0.1-0.9-0.2-1.2-0.6
		c-0.2-0.2-0.3-0.6-0.4-0.9c-5.1-17.7-10-35.6-15.6-53.1c-0.1-0.3-0.2-0.7-0.3-1C840.4,636.2,842.9,628.1,844.9,619.8z"/>
	<path class="st6" d="M845.1,619.8c0.8-2.8,1.6-5.6,3-8.1c0.3-0.5,0.5-1,0.8-1.4l15.9,6.8l-18.2,7l-1.8-2.8
		C844.9,620.8,845,620.3,845.1,619.8z"/>
</g>
<g id="The_IAN" class="st0">
	<polygon class="st6" points="644.5,518.3 611.2,504.2 625.5,525.7 	"/>
	<polygon class="st3" points="669.1,595.7 654.9,589.7 640.7,595.7 640.7,597.1 654.9,591 669.1,597.1 	"/>
	<g class="st1">
		<polygon class="st7" points="706.3,513.2 668.4,497.1 684.7,521.6 		"/>
		<polygon class="st7" points="727.9,513.2 765.8,497.1 749.5,521.6 		"/>
		<path class="st7" d="M717.1,616.6c1.2,0,2.4-0.3,3.6-0.6c6.1-1.5,12.3-3.1,18.4-4.6c0.5-0.1,1-0.3,1.4-0.7c0.2-0.3,0.4-0.7,0.5-1
			c6-21,11.8-42.2,18.5-62.9c0.7-2.3,1.4-4.6,2.5-6.7c1.5-2.8,3.7-5.1,5.8-7.4c8.8-9.2,17.6-18.5,26.3-27.7
			c-4.6-6.2-9.2-12.4-13.8-18.6c-0.7-0.9-1.3-1.8-1.7-2.9c-1-3.3,1.4-6.6,2.8-9.7c2.5-5.5,2-11.9,1.6-17.9
			c-1.1-13.3-2.2-26.6-3.2-39.9c-11,10.7-22,21.3-33,32c-0.8,0.7-1.6,1.5-2.5,1.9c-1.4,0.6-3,0.4-4.5,0.2c-7.2-1-14.7-2.4-22.2-2.6
			c-7.6-0.2-15.3,1.5-22.8,2.6c-1.5,0.2-3.1,0.4-4.5-0.2c-1-0.4-1.8-1.2-2.5-1.9c-11-10.7-22-21.3-33-32
			c-1.1,13.3-2.2,26.6-3.2,39.9c-0.5,6-0.9,12.4,1.6,17.9c1.4,3.1,3.8,6.4,2.8,9.7c-0.3,1.1-1,2-1.7,2.9
			c-4.6,6.2-9.2,12.4-13.8,18.6c8.8,9.2,17.6,18.5,26.3,27.7c2.2,2.3,4.4,4.6,5.8,7.4c1.1,2.1,1.8,4.4,2.5,6.7
			c2.6,10.7,6.2,21.1,9.3,31.6c3.1,10.4,6.2,20.8,9.2,31.3c0.1,0.4,0.3,0.9,0.6,1.2c0.3,0.3,0.7,0.4,1,0.5
			c6.3,1.6,12.6,3.2,18.9,4.8c1,0.3,2.1,0.5,3.1,0.5C717,616.6,717,616.6,717.1,616.6z"/>
		<polygon class="st2" points="733.3,601.5 717.1,594.6 700.9,601.5 700.9,603.1 717.1,596.2 733.3,603.1 		"/>
	</g>
	<g class="st1">
		<path class="st7" d="M680.6,578.1c-3.1-10.5-6.8-21-9.3-31.6c-0.7-2.3-1.4-4.6-2.5-6.7c-1.5-2.8-3.7-5.1-5.8-7.4
			c-8.8-9.2-17.6-18.5-26.3-27.7c4.6-6.2,9.2-12.4,13.8-18.6c0.7-0.9,1.3-1.8,1.7-2.9c1-3.3-1.4-6.6-2.8-9.7
			c-1.7-3.9-2-8.2-1.9-12.5c-4.4,0.5-8.9,1.3-13.3,1.9c-1.3,0.2-2.7,0.4-4-0.2c-0.9-0.4-1.5-1-2.2-1.7c-9.7-9.3-19.3-18.7-29-28
			c-0.9,11.7-1.9,23.3-2.8,35c-0.4,5.3-0.8,10.9,1.4,15.7c1.2,2.8,3.4,5.6,2.4,8.5c-0.3,0.9-0.9,1.7-1.5,2.5
			c-4,5.4-8.1,10.9-12.1,16.3c7.7,8.1,15.4,16.2,23.1,24.3c1.9,2,3.8,4,5.1,6.5c1,1.8,1.6,3.9,2.2,5.9c2.3,9.3,5.5,18.5,8.2,27.7
			c2.7,9.1,5.4,18.3,8.1,27.4c0.1,0.4,0.2,0.8,0.5,1c0.2,0.2,0.6,0.3,0.9,0.4c5.5,1.4,11,2.8,16.5,4.2c0.9,0.2,1.8,0.5,2.7,0.5
			c0.1,0,0.1,0,0.2,0c1.1,0,2.1-0.3,3.2-0.5c5.4-1.4,10.7-2.7,16.1-4.1c0.4-0.1,0.9-0.2,1.2-0.6c0.2-0.3,0.3-0.6,0.4-0.9
			c2.2-7.5,4.3-15.1,6.5-22.6C681,579.5,680.8,578.8,680.6,578.1z"/>
	</g>
	<polygon class="st6" points="789.5,518.3 822.7,504.2 808.4,525.7 	"/>
	<polygon class="st3" points="765.8,595.7 780,589.7 794.2,595.7 794.2,597.1 780,591 765.8,597.1 	"/>
	<g class="st1">
		<path class="st7" d="M753.3,578.1c3.1-10.5,6.8-21,9.3-31.6c0.7-2.3,1.4-4.6,2.5-6.7c1.5-2.8,3.7-5.1,5.8-7.4
			c8.8-9.2,17.6-18.5,26.3-27.7c-4.6-6.2-9.2-12.4-13.8-18.6c-0.7-0.9-1.3-1.8-1.7-2.9c-1-3.3,1.4-6.6,2.8-9.7
			c1.7-3.9,2-8.2,1.9-12.5c4.4,0.5,8.9,1.3,13.3,1.9c1.3,0.2,2.7,0.4,4-0.2c0.9-0.4,1.5-1,2.2-1.7c9.7-9.3,19.3-18.7,29-28
			c0.9,11.7,1.9,23.3,2.8,35c0.4,5.3,0.8,10.9-1.4,15.7c-1.2,2.8-3.4,5.6-2.4,8.5c0.3,0.9,0.9,1.7,1.5,2.5c4,5.4,8.1,10.9,12.1,16.3
			c-7.7,8.1-15.4,16.2-23.1,24.3c-1.9,2-3.8,4-5.1,6.5c-1,1.8-1.6,3.9-2.2,5.9c-2.3,9.3-5.5,18.5-8.2,27.7
			c-2.7,9.1-5.4,18.3-8.1,27.4c-0.1,0.4-0.2,0.8-0.5,1c-0.2,0.2-0.6,0.3-0.9,0.4c-5.5,1.4-11,2.8-16.5,4.2c-0.9,0.2-1.8,0.5-2.7,0.5
			c-0.1,0-0.1,0-0.2,0c-1.1,0-2.1-0.3-3.2-0.5c-5.4-1.4-10.7-2.7-16.1-4.1c-0.4-0.1-0.9-0.2-1.2-0.6c-0.2-0.3-0.3-0.6-0.4-0.9
			c-2.2-7.5-4.3-15.1-6.5-22.6C752.9,579.5,753.1,578.8,753.3,578.1z"/>
	</g>
</g>
<g id="Layer_9" class="st0">
	<polygon class="st3" points="656.7,419.5 694.3,412 675.4,430.3 	"/>
	<path class="st3" d="M740.4,479.7c8-7.8,4.4-4.6,8.5-8.2c3.7-3.2,7.4-6.4,11.2-9.6c4.8-4,9.6-8,14.4-12c-0.1-0.3,5.3-4.3,5.9-4.9
		c0.8-0.8,1.5-1.6,2.2-2.5c-1.4-1.4-3-2.9-4.4-4.2c-8.7-8.4-4.8-5-9.1-8.7c-3.7-3.2-7.4-6.4-11.2-9.6c-4.8-4-9.6-8-14.4-12
		c0.1-0.3-5.3-4.3-5.9-4.9c-4.5-4.5-7.5-11-10.8-16.4c-3.5-5.6-7-11.2-10.5-16.8c-4.4-7-8.8-14.1-13.2-21.1l-8.5,49.2l-46.9,8.7
		l-2.1,8.4c-0.6,0.1-1.2,0.3-1.8,0.4c-5.4,1.1-10.8,2.3-16.2,3.4c-7.4,1.6-14.8,3.1-22.2,4.7c-3.1,0.7-6.2,1.3-9.3,2
		c-1.2,0.2-2.3,0.5-3.5,0.7c-1,0.2-2.7,0.9-3.7,0.6c-0.5-0.2-0.9-0.5-1.4-0.8c-0.6-0.4-1.2-0.9-1.8-1.3c-0.2-0.1-0.4-0.3-0.6-0.3
		s-0.4,0.1-0.6,0.1c-3.6,1.5-7.2,3-10.8,4.6c-0.1,0-0.2,0.1-0.2,0.1c-0.1,0.1,0,0.2,0,0.3c0.2,2.1,0.4,4.2,0.6,6.3
		c0,0.6,0.1,1.1,0.3,1.6c0.2,0.5,0.5,1,0.7,1.5c0.7,1.2,1.5,2.5,2.2,3.7c0.2,0.3,1.2,2.5,1.5,2.6c0.6,0.1,1.2,0.1,1.8,0.2l4.9,10.3
		l4-9.3c0.7,0.1,1.4,0.2,2.2,0.3c0.9,3.1,3.1,10.1,3.2,10c0.2-0.1,2.9-6.1,4.3-9.1c0.7,0.1,1.3,0.2,2,0.2l2.8,9.4l4.7-8.5
		c0.4,0,0.8,0.1,1.2,0.1l3.3,8.3l5.1-7.3c0.5,0.1,1,0.1,1.6,0.2l3.6,7.2l3.8-6.3c4.2,0.5,8.4,1,12.6,1.5c0.1,0,0.2,0,0.3,0.1
		c0.1,0.1,0.1,0.3,0.1,0.4c0,3.7,0.1,7.4,0.1,11c0,0.1,0,0.3-0.1,0.4c-0.1,0.1-0.2,0.1-0.3,0.1c-3.5,0.5-6.9,1.1-10.4,1.6l-3.2-6.4
		l-3,7.4c-0.9,0.1-1.7,0.3-2.6,0.4l-3-7.8l-4.1,8.9c-0.8,0.1-1.6,0.2-2.4,0.4l-2.7-9.3l-3.7,10.3c-0.6,0.1-1.2,0.2-1.9,0.3l-3.3-10
		l-3.4,10.9c-0.5,0.1-1,0.1-1.5,0.2l-4.7-10.3l-2.9,11.4c-0.2,0-0.4,0.1-0.6,0.1c-0.3,0.1-0.5,0.1-0.7,0.3c-0.1,0.2-0.2,0.4-0.3,0.6
		c-0.9,3.8-0.8,7.9,0.1,11.7c0,0.2,0.1,0.3,0.2,0.4c0.1,0.1,0.3,0.1,0.5,0.1c12.4,0.2,24.8,0.4,37.1,0.6c6.6,0.1,13.2,0.1,19.8,0.1
		c9.1,0,18.1,2.3,26.8,4.5l32.6-6l9.4-50.6L740.4,479.7z"/>
	<polygon class="st3" points="668.4,509.8 706.1,502.3 687.2,520.6 	"/>
	<polygon class="st3" points="709,581.9 733.4,557.7 723.2,532 725.2,532 735.7,558.2 711.5,582.4 710.3,583.6 708.3,582.6 	"/>
	<polygon class="st3" points="861.2,463.7 823.5,456.3 842.4,474.6 	"/>
	<polygon class="st3" points="820.6,535.9 796.3,511.7 806.4,486 804.5,486 793.9,512.2 818.1,536.4 819.4,537.5 821.4,536.5 	"/>
	<path class="st3" d="M945.7,472.4c0-0.1-0.1-0.1-0.2-0.1c-3.6-1.5-7.2-3-10.8-4.6c-0.2-0.1-0.4-0.2-0.6-0.1c-0.2,0-0.4,0.2-0.6,0.3
		c-0.6,0.4-1.2,0.9-1.8,1.3c-0.4,0.3-0.9,0.6-1.4,0.8c-1,0.3-2.6-0.4-3.7-0.6c-1.2-0.2-2.3-0.5-3.5-0.7c-3.1-0.7-6.2-1.3-9.3-2
		c-7.4-1.6-14.8-3.1-22.2-4.7c-5.4-1.1-10.8-2.3-16.2-3.4c-0.6-0.1-1.2-0.3-1.8-0.4l-2.1-8.4l-46.9-8.7l-8.5-49.2
		c-4.4,7-8.8,14.1-13.2,21.1c-3.5,5.6-7,11.2-10.5,16.8c-3.4,5.4-6.3,11.9-10.8,16.4c-0.6,0.6-6,4.7-5.9,4.9c-4.8,4-9.6,8-14.4,12
		c-3.8,3.1-7.5,6.4-11.2,9.6c-4.2,3.6-0.5,0.4-8.5,8.2c2.1,3.7,4.4,7.4,7.3,10.3c0.6,0.6,6,4.7,5.9,4.9c4.8,4,9.6,8,14.4,12
		c3.8,3.1,7.5,6.4,11.2,9.6c4.3,3.7,0.3,0.3,9.1,8.7c3,2.9,6.9,6.4,7.9,7.9c3.5,5.3,7.4,11.3,11.6,17.7c1.1-1.1,1.9-2,2.7-2.8
		c2.9-2.7,6.9-5.1,10.3-7.3c0.9-0.6,1.7-1,2.7-1.4c1.4-0.6,2.9-1,4.3-1.3c6-1.5,12-3.1,18-4.6c9.5-2.4,19.3-5.1,29.2-5.1
		c6.6,0,13.2,0,19.8-0.1c12.4-0.1,24.8-0.4,37.1-0.6c0.2,0,0.4,0,0.5-0.1s0.2-0.3,0.2-0.4c0.9-3.8,0.9-7.9,0.1-11.7
		c0-0.2-0.1-0.4-0.3-0.6c-0.2-0.2-0.5-0.3-0.7-0.3s-0.4-0.1-0.6-0.1l-2.9-11.4l-4.7,10.3c-0.5-0.1-1-0.1-1.5-0.2l-3.4-10.9l-3.3,10
		c-0.6-0.1-1.2-0.2-1.9-0.3l-3.7-10.3l-2.7,9.3c-0.8-0.1-1.6-0.2-2.4-0.4l-4.1-8.9l-3,7.8c-0.9-0.1-1.7-0.3-2.6-0.4l-3-7.4l-3.2,6.4
		c-3.5-0.5-6.9-1.1-10.4-1.6c-0.1,0-0.3,0-0.3-0.1c-0.1-0.1-0.1-0.2-0.1-0.4c0-3.7,0.1-7.4,0.1-11c0-0.1,0-0.3,0.1-0.4
		c0.1-0.1,0.2-0.1,0.3-0.1c4.2-0.5,8.4-1,12.6-1.5l3.8,6.3l3.6-7.2c0.5-0.1,1-0.1,1.6-0.2l5.1,7.3l3.3-8.3c0.4,0,0.8-0.1,1.2-0.1
		l4.7,8.5l2.8-9.4c0.7-0.1,1.3-0.2,2-0.2c1.4,3.1,4.1,9,4.3,9.1c0.2,0.1,2.3-6.9,3.3-10c0.7-0.1,1.4-0.2,2.2-0.3l4,9.3l4.9-10.3
		c0.6-0.1,1.2-0.1,1.8-0.2c0.3,0,1.3-2.3,1.5-2.6c0.7-1.2,1.5-2.5,2.2-3.7c0.3-0.5,0.6-1,0.7-1.5c0.2-0.5,0.2-1.1,0.3-1.6
		c0.2-2.1,0.4-4.2,0.6-6.3C945.8,472.6,945.8,472.5,945.7,472.4z"/>
	<path class="st3" d="M768.4,632.3c-3.7,1.7-14.8,4.5-18.5,6.3c-0.1,0.1-0.3,0.1-0.5,0.1c0,0,0,0-0.1,0s-0.2-0.1-0.3-0.2
		c-6.1-5.8-6.4-13.9-10.9-21.6c-3.6-6.2-9.3-10.8-14.5-15.7c-3.4-3.2-5-5.2-6.6-6.6c-2.9-2.7-6.9-5.1-10.3-7.3
		c-0.9-0.6-1.7-1-2.7-1.4c-1.4-0.6-2.9-1-4.3-1.3c-6-1.5-12-3.1-18-4.6c-9.5-2.4-19.3-5.1-29.2-5.1c-6.6,0-13.2,0-19.8-0.1
		c-12.4-0.1-24.8-0.4-37.1-0.6c-0.2,0-0.4,0-0.5-0.1s-0.2-0.3-0.2-0.4c-0.9-3.8-0.9-7.9-0.1-11.7c0-0.2,0.1-0.4,0.3-0.6
		c0.2-0.2,0.5-0.3,0.7-0.3s0.4-0.1,0.6-0.1l2.9-11.4l4.7,10.3c0.5-0.1,1-0.1,1.5-0.2l3.4-10.9l3.3,10c0.6-0.1,1.2-0.2,1.9-0.3
		l3.7-10.3l2.7,9.3c0.8-0.1,1.6-0.2,2.4-0.4l4.1-8.9l3,7.8c0.9-0.1,1.7-0.3,2.6-0.4l3-7.4l3.2,6.4c3.5-0.5,6.9-1.1,10.4-1.6
		c0.1,0,0.3,0,0.3-0.1c0.1-0.1,0.1-0.2,0.1-0.4c0-3.7-0.1-7.4-0.1-11c0-0.1,0-0.3-0.1-0.4c-0.1-0.1-0.2-0.1-0.3-0.1
		c-4.2-0.5-8.4-1-12.6-1.5l-3.8,6.3l-3.6-7.2c-0.5-0.1-1-0.1-1.6-0.2l-5.1,7.3l-3.3-8.3c-0.4,0-0.8-0.1-1.2-0.1l-4.7,8.5l-2.8-9.4
		c-0.7-0.1-1.3-0.2-2-0.2c-1.4,3.1-4.1,9-4.3,9.1c-0.2,0.1-2.3-6.9-3.3-10c-0.7-0.1-1.4-0.2-2.2-0.3l-4,9.3l-4.9-10.3
		c-0.6-0.1-1.2-0.1-1.8-0.2c-0.3,0-1.3-2.3-1.5-2.6c-0.7-1.2-1.5-2.5-2.2-3.7c-0.3-0.5-0.6-1-0.7-1.5c-0.2-0.5-0.2-1.1-0.3-1.6
		c-0.2-2.1-0.4-4.2-0.6-6.3c0-0.1,0-0.2,0-0.3s0.1-0.1,0.2-0.1c3.6-1.5,7.2-3,10.8-4.6c0.2-0.1,0.4-0.2,0.6-0.1
		c0.2,0,0.4,0.2,0.6,0.3c0.6,0.4,1.2,0.9,1.8,1.3c0.4,0.3,0.9,0.6,1.4,0.8c1,0.3,2.6-0.4,3.7-0.6c1.2-0.2,2.3-0.5,3.5-0.7
		c3.1-0.7,6.2-1.3,9.3-2c7.4-1.6,14.8-3.1,22.2-4.7c5.4-1.1,10.8-2.3,16.2-3.4c0.6-0.1,1.2-0.3,1.8-0.4l2.1-8.4l46.9-8.7l8.5-49.2
		c4.4,7,8.8,14.1,13.2,21.1c3.5,5.6,7,11.2,10.5,16.8c3.4,5.4,6.3,11.9,10.8,16.4c0.6,0.6,6,4.7,5.9,4.9c4.8,4,9.6,8,14.4,12
		c3.8,3.1,7.5,6.4,11.2,9.6c4.3,3.7,0.3,0.3,9.1,8.7c3,2.9,6.9,6.4,7.9,7.9c14.2,21.7,36.6,55.7,49,78.5
		c-0.4-0.7-46.4,9.4-49.3,10.7C786.5,627.2,776.9,628.7,768.4,632.3z"/>
</g>
<g id="Layer_2" class="st0">
	<g class="st1">
		<rect x="-930.9" y="-266.9" class="st8" width="2087.8" height="1215.8"/>
		<path d="M1158.1,949.8H-932.1V-267.7h2090.2V949.8z M-929.7,948.1h2085.5V-266H-929.7V948.1z"/>
	</g>
</g>
<g id="Layer_13" class="st0">
	<g id="XMLID_5_" class="st1">
		<g>
			<path class="st9" d="M367.5,465.7c0.1,0.1,0,0.2,0,0.3c-0.2,2.1-0.4,4.2-0.6,6.3c0,0.6-0.1,1.1-0.3,1.6c-0.2,0.5-0.5,1-0.7,1.5
				c-0.7,1.2-1.5,2.5-2.2,3.7c-0.2,0.3-1.2,2.5-1.5,2.6c-0.6,0.1-1.2,0.1-1.8,0.2l-4.9,10.3l-4-9.3c-0.7,0.1-1.4,0.2-2.1,0.3
				c-0.9,3.1-3.1,10.1-3.3,10c-0.2-0.1-2.9-6.1-4.3-9.1c-0.7,0.1-1.3,0.2-2,0.2l-2.8,9.4l-4.7-8.5c-0.4,0-0.8,0.1-1.2,0.1l-3.3,8.3
				l-5.1-7.4c-0.5,0.1-1,0.1-1.6,0.2l-3.6,7.2l-3.8-6.3c-4.2,0.5-8.4,1-12.6,1.5c-0.1,0-0.2,0-0.3,0.1c-0.1,0.1-0.1,0.2-0.1,0.4
				c0,3.7-0.1,7.4-0.1,11.1c0,0.1,0,0.3,0.1,0.4c0.1,0.1,0.2,0.1,0.3,0.1c3.5,0.5,6.9,1.1,10.3,1.6l3.2-6.4l3,7.4
				c0.9,0.1,1.7,0.3,2.6,0.4l3-7.8l4.1,8.9c0.8,0.1,1.6,0.2,2.4,0.4l2.7-9.3l3.7,10.3c0.6,0.1,1.2,0.2,1.9,0.3l3.3-10l3.4,10.9
				c0.5,0.1,1,0.1,1.5,0.2l4.7-10.2l2.9,11.4c0.2,0,0.4,0.1,0.6,0.1c0.3,0.1,0.5,0.1,0.7,0.3c0.1,0.2,0.2,0.4,0.3,0.6
				c0.9,3.9,0.8,7.9-0.1,11.7c0,0.2-0.1,0.3-0.2,0.4c-0.1,0.1-0.3,0.1-0.5,0.1c-12.4,0.2-24.8,0.4-37.1,0.6
				c-6.6,0.1-13.2,0.1-19.8,0.1c-9.9,0-19.7,2.7-29.2,5.1c-6,1.5-12,3.1-18,4.6c-1.5,0.4-2.9,0.7-4.3,1.3c-0.9,0.4-1.8,0.9-2.7,1.4
				c-3.4,2.2-7.4,4.6-10.3,7.3c-1.5,1.4-3.2,3.4-6.6,6.6c-5.2,4.9-10.9,9.5-14.5,15.7c-4.5,7.8-4.8,15.8-10.9,21.6
				c-0.1,0.1-0.2,0.2-0.3,0.2c0,0,0,0-0.1,0c-0.2,0-0.3,0-0.5-0.1c-3-1.5-11.1-3.6-15.9-5.3c1.9-6.8,3.9-13.6,5.9-20.4
				c1.1-0.2,1.8-0.2,1.9-0.2c-0.4-0.7-0.8-1.4-1.2-2.1c2.4-7.9,4.8-15.9,7.3-23.7c0.8-2.7,1.6-5.4,2.9-7.9c1.8-3.3,4.4-6.1,6.9-8.7
				c3-3.1,5.9-6.2,8.9-9.4l21.6,21.6l1.2,1.1l2-1l-0.7-0.7l-22.7-22.5c7-7.3,13.9-14.6,20.9-21.9c-5.5-7.3-10.9-14.7-16.4-22
				c-0.8-1.1-1.6-2.1-2-3.4c-1.2-3.9,1.6-7.8,3.3-11.5c2.9-6.5,2.4-14,1.8-21.1c-0.6-7-1.1-14-1.7-20.9c0.1-0.1,0.1-0.2,0.2-0.3
				c4.4-7,8.8-14.1,13.2-21.1l8.5,49.2l46.9,8.7l2.1,8.4c0.6,0.1,1.2,0.3,1.8,0.4c5.4,1.1,10.8,2.3,16.2,3.4
				c7.4,1.6,14.8,3.1,22.2,4.7c3.1,0.7,6.2,1.3,9.3,2c1.1,0.2,2.3,0.5,3.5,0.7c1,0.2,2.7,0.9,3.7,0.6c0.5-0.2,0.9-0.5,1.4-0.8
				c0.6-0.4,1.2-0.9,1.8-1.3c0.2-0.1,0.4-0.3,0.6-0.3s0.4,0.1,0.6,0.1c3.6,1.5,7.2,3.1,10.8,4.6
				C367.3,465.6,367.4,465.7,367.5,465.7z M263.2,468.9L282,458l-37.7-7.5L263.2,468.9z"/>
			<path class="st9" d="M223.1,463.7c5.5,7.3,10.9,14.7,16.4,22c-6.9,7.3-13.9,14.6-20.9,21.9L217,506l10.2-25.7h-2l-10.5,26.2
				l2.6,2.6c-3,3.1-5.9,6.2-8.9,9.4c-2.6,2.7-5.2,5.4-6.9,8.7c-1.3,2.5-2.1,5.2-2.9,7.9c-2.5,7.9-5,15.8-7.3,23.7
				c-11-19.6-28.5-46.7-41.9-67.3c2-3.1,4-6.1,5.8-8.8c1-1.5,4.9-5,7.9-7.9c8.7-8.4,4.8-5,9.1-8.7c3.7-3.2,7.4-6.4,11.2-9.6
				c4.8-4,9.6-8,14.4-12c-0.1-0.2,5.3-4.3,5.9-4.9c4.5-4.5,7.5-11,10.8-16.4c3.4-5.5,6.9-11,10.3-16.5c0.6,7,1.1,14,1.7,20.9
				c0.6,7.1,1.1,14.7-1.8,21.1c-1.7,3.7-4.5,7.6-3.3,11.5C221.5,461.5,222.3,462.6,223.1,463.7z M186.7,505.4l19.3-29l-44.8,19.1
				L186.7,505.4z"/>
			<path class="st9" d="M227.2,480.3L217,506l1.6,1.6c-0.5,0.5-0.9,1-1.4,1.5l-2.6-2.6l10.5-26.2H227.2z"/>
			<path class="st9" d="M222.4,380.5c0.7,8.7,1.4,17.5,2.1,26.2c-3.4,5.5-6.9,11-10.3,16.5c-3.4,5.4-6.3,11.9-10.8,16.4
				c-0.6,0.6-6,4.7-5.9,4.9c-4.8,4-9.6,8-14.4,12c-3.8,3.1-7.5,6.4-11.2,9.6c-4.3,3.7-0.3,0.3-9.1,8.7c-3,2.9-6.9,6.4-7.9,7.9
				c-1.8,2.8-3.7,5.7-5.8,8.8c-2.1-3.2-4.1-6.2-5.9-9.1c-1-1.5-4.9-5-7.9-7.9c-8.7-8.4-4.8-5-9.1-8.7c-3.7-3.2-7.4-6.4-11.2-9.6
				c-4.8-4-9.6-8-14.4-12c0.1-0.2-5.3-4.3-5.9-4.9c-4.5-4.5-7.5-11-10.8-16.4c-3.5-5.6-7-11.2-10.5-16.9c-0.3-0.6-0.7-1.1-1-1.7
				c0.6-8,1.3-16,1.9-24c13,12.6,26,25.2,39,37.8c0.9,0.9,1.8,1.8,3,2.3c1.7,0.7,3.6,0.5,5.3,0.2c8.9-1.2,17.9-3.2,27-3.1
				c8.8,0.2,17.7,1.9,26.2,3.1c1.8,0.2,3.7,0.5,5.3-0.2c1.1-0.5,2.1-1.4,3-2.3C196.4,405.7,209.4,393.1,222.4,380.5z"/>
			<path class="st9" d="M191.2,558.8c-0.2,0.8-0.5,1.5-0.7,2.3c-6.8,1.1-30.8,6.3-41.9,9c-13.4-3.2-42.1-9.4-42.6-8.9l0,0
				c10.9-19.9,29.3-48.3,43.3-69.6C162.7,512.1,180.2,539.2,191.2,558.8z"/>
			<path class="st9" d="M190.5,561.1c-2,6.8-4,13.6-5.9,20.4c-1-0.4-1.9-0.7-2.6-1c-8.5-3.6-18.2-5.1-26.7-8.7
				c-0.6-0.3-3.1-0.9-6.7-1.8C159.8,567.4,183.7,562.2,190.5,561.1z"/>
			<path class="st9" d="M182,580.5c0.7,0.3,1.5,0.6,2.6,1c-2.7,9.3-5.3,18.6-8,27.9c-0.1,0.4-0.3,0.9-0.5,1.2
				c-0.4,0.5-1,0.6-1.6,0.8c-7.2,1.8-14.5,3.7-21.7,5.5c-1.4,0.4-2.8,0.7-4.3,0.7c-0.1,0-0.2,0-0.3,0c-1.2,0-2.5-0.3-3.7-0.6
				c-7.4-1.9-14.9-3.7-22.3-5.6c-0.4-0.1-0.9-0.2-1.2-0.6c-0.4-0.3-0.5-0.9-0.7-1.4c-2.6-9.2-5.4-18.5-8.1-27.7
				c1.7-0.6,3.2-1.1,4.2-1.5c8.5-3.6,18.2-5.1,26.7-8.7c0.6-0.2,2.6-0.8,5.6-1.5c3.6,0.9,6.1,1.5,6.7,1.8
				C163.8,575.4,173.5,577,182,580.5z M167.7,601v-1.9l-19.2-8.1l-19.2,8.1v1.9l19.2-8.2L167.7,601z"/>
			<path class="st9" d="M143.3,482.5c1.9,2.8,3.8,5.9,5.9,9.1c-13.9,21.4-32.4,49.8-43.3,69.6c-2.7-8.7-5.4-17.3-7.6-26.1
				c-0.8-2.7-1.6-5.4-2.9-7.9c-1.8-3.3-4.3-6.1-6.9-8.7c-2.8-2.9-5.6-5.8-8.3-8.8l3.4-3.4l-10.5-26.2h-2l10.2,25.7l-2.5,2.5
				c-7.1-7.5-14.3-15-21.4-22.5c5.5-7.3,10.9-14.7,16.4-22c0.8-1.1,1.6-2.1,2-3.4c1.2-3.9-1.6-7.8-3.3-11.5
				c-2.9-6.5-2.4-14-1.8-21.1c0.6-7.7,1.2-15.5,1.9-23.2c0.3,0.6,0.7,1.1,1,1.7c3.5,5.6,7,11.2,10.5,16.9
				c3.4,5.4,6.3,11.9,10.8,16.4c0.6,0.6,6,4.7,5.9,4.9c4.8,4,9.6,8,14.4,12c3.8,3.1,7.5,6.4,11.2,9.6c4.3,3.7,0.3,0.3,9.1,8.7
				C138.4,477.5,142.4,481,143.3,482.5z M110.2,505.4l25.5-9.9l-44.8-19.1L110.2,505.4z"/>
			<path class="st9" d="M148.6,570.1c-3,0.7-5,1.3-5.6,1.5c-8.5,3.6-18.2,5.1-26.7,8.7c-1,0.4-2.4,1-4.2,1.5
				c-0.9-3.1-1.8-6.2-2.8-9.3c-1.1-3.8-2.3-7.5-3.5-11.3C106.6,560.7,135.2,566.9,148.6,570.1z"/>
			<path class="st9" d="M106,561.2c1.2,3.8,2.4,7.5,3.5,11.3c0.9,3.1,1.8,6.2,2.8,9.3c-4.8,1.6-11.6,3.5-14.3,4.8
				c-0.1,0.1-0.3,0.1-0.5,0.1c0,0,0,0-0.1,0s-0.2-0.1-0.3-0.2c-6.1-5.8-6.4-13.9-10.9-21.6c-3.6-6.2-9.3-10.8-14.5-15.7
				c-3.4-3.2-5-5.2-6.6-6.6c-2.9-2.7-6.9-5.1-10.3-7.3c-0.8-0.6-1.7-1-2.7-1.4c-1.4-0.6-2.9-1-4.3-1.3c-6-1.5-12-3.1-18-4.6
				c-9.5-2.4-19.3-5.1-29.2-5.1c-6.6,0-13.2,0-19.8-0.1c-12.4-0.1-24.8-0.4-37.1-0.6c-0.2,0-0.4,0-0.5-0.1s-0.2-0.3-0.2-0.4
				c-0.9-3.8-0.9-7.9-0.1-11.7c0-0.2,0.1-0.4,0.2-0.6c0.2-0.2,0.5-0.3,0.7-0.3s0.4-0.1,0.6-0.1l2.9-11.4l4.7,10.2
				c0.5-0.1,1-0.1,1.5-0.2l3.4-10.9l3.3,10c0.6-0.1,1.2-0.2,1.9-0.3l3.7-10.3l2.7,9.3c0.8-0.1,1.6-0.2,2.4-0.4l4.1-8.9l3,7.8
				c0.9-0.1,1.7-0.3,2.6-0.4l3-7.4l3.2,6.5c3.5-0.5,6.9-1.1,10.4-1.6c0.1,0,0.3,0,0.3-0.1c0.1-0.1,0.1-0.2,0.1-0.4
				c0-3.7-0.1-7.4-0.1-11c0-0.1,0-0.3-0.1-0.4c-0.1-0.1-0.2-0.1-0.3-0.1c-4.2-0.5-8.4-1-12.6-1.5l-3.8,6.3l-3.6-7.2
				c-0.5-0.1-1-0.1-1.6-0.2l-5.1,7.4l-3.3-8.3c-0.4-0.1-0.8-0.1-1.2-0.1l-4.7,8.5l-2.8-9.4c-0.7-0.1-1.3-0.2-2-0.2
				c-1.4,3.1-4.1,9-4.3,9.1s-2.3-6.9-3.3-10c-0.7-0.1-1.4-0.2-2.2-0.2l-4,9.3l-4.9-10.3c-0.6-0.1-1.2-0.1-1.8-0.2
				c-0.3,0-1.3-2.3-1.5-2.6c-0.7-1.2-1.5-2.5-2.2-3.7c-0.3-0.5-0.6-1-0.7-1.5c-0.2-0.5-0.2-1.1-0.3-1.6c-0.2-2.1-0.4-4.2-0.6-6.3
				c0-0.1,0-0.2,0-0.3s0.1-0.1,0.2-0.1c3.6-1.5,7.2-3.1,10.8-4.6c0.2-0.1,0.4-0.1,0.6-0.1c0.2,0,0.4,0.1,0.6,0.3
				c0.6,0.4,1.2,0.9,1.8,1.3c0.4,0.3,0.9,0.6,1.4,0.8c1,0.3,2.6-0.4,3.7-0.6c1.1-0.2,2.3-0.5,3.5-0.7c3.1-0.7,6.2-1.3,9.3-2
				c7.4-1.6,14.8-3.1,22.2-4.7c5.4-1.1,10.8-2.3,16.1-3.4c0.6-0.1,1.2-0.3,1.8-0.4l2.1-8.4l46.9-8.7l8.5-49.2
				c4.1,6.5,8.1,13,12.2,19.4c-0.6,7.7-1.3,15.5-1.9,23.2c-0.6,7.1-1.1,14.7,1.8,21.1c1.7,3.7,4.5,7.6,3.3,11.5
				c-0.4,1.3-1.2,2.4-2,3.4c-5.4,7.3-10.9,14.7-16.4,22c7.1,7.5,14.3,15,21.4,22.5l-21.8,21.7l-0.8,0.7l2,1l1.2-1.1l20.7-20.8
				c2.8,2.9,5.6,5.8,8.3,8.8c2.6,2.7,5.2,5.4,6.9,8.7c1.3,2.5,2.1,5.2,2.9,7.9C100.6,543.8,103.3,552.5,106,561.2L106,561.2z
				 M35.2,468.6l18.9-18.3l-37.7,7.5L35.2,468.6z"/>
			<path class="st9" d="M73.2,480l10.5,26.2l-3.4,3.4c-0.5-0.5-0.9-1-1.4-1.5l2.5-2.5l-10.2-25.7L73.2,480L73.2,480z"/>
		</g>
		<g>
			<polygon class="st2" points="16.4,457.8 54.1,450.3 35.2,468.6 			"/>
			<polygon class="st2" points="80.3,509.7 59.5,530.4 58.3,531.6 56.3,530.6 57.1,529.9 78.9,508.2 81.4,505.7 71.2,480 73.2,480 
				83.7,506.2 			"/>
			<path class="st2" d="M148.6,570.1c-3,0.7-5,1.3-5.6,1.5c-8.5,3.6-18.2,5.1-26.7,8.7c-1,0.4-2.4,1-4.2,1.5
				c-4.8,1.6-11.6,3.5-14.3,4.8c-0.1,0.1-0.3,0.1-0.5,0.1c0,0,0,0-0.1,0s-0.2-0.1-0.3-0.2c-6.1-5.8-6.4-13.9-10.9-21.6
				c-3.6-6.2-9.3-10.8-14.5-15.7c-3.4-3.2-5-5.2-6.6-6.6c-2.9-2.7-6.9-5.1-10.3-7.3c-0.8-0.6-1.7-1-2.7-1.4c-1.4-0.6-2.9-1-4.3-1.3
				c-6-1.5-12-3.1-18-4.6c-9.5-2.4-19.3-5.1-29.2-5.1c-6.6,0-13.2,0-19.8-0.1c-12.4-0.1-24.8-0.4-37.1-0.6c-0.2,0-0.4,0-0.5-0.1
				s-0.2-0.3-0.2-0.4c-0.9-3.8-0.9-7.9-0.1-11.7c0-0.2,0.1-0.4,0.2-0.6c0.2-0.2,0.5-0.3,0.7-0.3s0.4-0.1,0.6-0.1l2.9-11.4l4.7,10.2
				c0.5-0.1,1-0.1,1.5-0.2l3.4-10.9l3.3,10c0.6-0.1,1.2-0.2,1.9-0.3l3.7-10.3l2.7,9.3c0.8-0.1,1.6-0.2,2.4-0.4l4.1-8.9l3,7.8
				c0.9-0.1,1.7-0.3,2.6-0.4l3-7.4l3.2,6.5c3.5-0.5,6.9-1.1,10.4-1.6c0.1,0,0.3,0,0.3-0.1c0.1-0.1,0.1-0.2,0.1-0.4
				c0-3.7-0.1-7.4-0.1-11c0-0.1,0-0.3-0.1-0.4C-2.9,489-3,489-3.1,489c-4.2-0.5-8.4-1-12.6-1.5l-3.8,6.3l-3.6-7.2
				c-0.5-0.1-1-0.1-1.6-0.2l-5.1,7.4l-3.3-8.3c-0.4-0.1-0.8-0.1-1.2-0.1l-4.7,8.5l-2.8-9.4c-0.7-0.1-1.3-0.2-2-0.2
				c-1.4,3.1-4.1,9-4.3,9.1s-2.3-6.9-3.3-10c-0.7-0.1-1.4-0.2-2.2-0.2l-4,9.3l-4.9-10.3c-0.6-0.1-1.2-0.1-1.8-0.2
				c-0.3,0-1.3-2.3-1.5-2.6c-0.7-1.2-1.5-2.5-2.2-3.7c-0.3-0.5-0.6-1-0.7-1.5c-0.2-0.5-0.2-1.1-0.3-1.6c-0.2-2.1-0.4-4.2-0.6-6.3
				c0-0.1,0-0.2,0-0.3s0.1-0.1,0.2-0.1c3.6-1.5,7.2-3.1,10.8-4.6c0.2-0.1,0.4-0.1,0.6-0.1c0.2,0,0.4,0.1,0.6,0.3
				c0.6,0.4,1.2,0.9,1.8,1.3c0.4,0.3,0.9,0.6,1.4,0.8c1,0.3,2.6-0.4,3.7-0.6c1.1-0.2,2.3-0.5,3.5-0.7c3.1-0.7,6.2-1.3,9.3-2
				c7.4-1.6,14.8-3.1,22.2-4.7c5.4-1.1,10.8-2.3,16.1-3.4c0.6-0.1,1.2-0.3,1.8-0.4l2.1-8.4l46.9-8.7l8.5-49.2
				c4.1,6.5,8.1,13,12.2,19.4c0.3,0.6,0.7,1.1,1,1.7c3.5,5.6,7,11.2,10.5,16.9c3.4,5.4,6.3,11.9,10.8,16.4c0.6,0.6,6,4.7,5.9,4.9
				c4.8,4,9.6,8,14.4,12c3.8,3.1,7.5,6.4,11.2,9.6c4.3,3.7,0.3,0.3,9.1,8.7c3,2.9,6.9,6.4,7.9,7.9c1.9,2.8,3.8,5.9,5.9,9.1
				c13.4,20.6,31,47.6,41.9,67.3c0.4,0.7,0.8,1.4,1.2,2.1c0-0.1-0.7,0-1.9,0.2C183.7,562.2,159.8,567.4,148.6,570.1z"/>
			<polygon class="st2" points="282,458 244.3,450.6 263.2,468.9 			"/>
			<polygon class="st2" points="217.2,509.1 238.9,530.7 240.1,531.8 242.1,530.8 241.3,530.2 218.6,507.6 217,506 227.2,480.3 
				225.2,480.3 214.7,506.5 			"/>
			<path class="st2" d="M106,561.2L106,561.2c0.6-0.5,29.2,5.7,42.6,8.9c3.6,0.9,6.1,1.5,6.7,1.8c8.5,3.6,18.2,5.1,26.7,8.7
				c0.7,0.3,1.5,0.6,2.6,1c4.8,1.7,12.9,3.8,15.9,5.3c0.1,0.1,0.3,0.1,0.5,0.1c0,0,0,0,0.1,0s0.2-0.1,0.3-0.2
				c6.1-5.8,6.4-13.9,10.9-21.6c3.6-6.2,9.3-10.8,14.5-15.7c3.4-3.2,5-5.2,6.6-6.6c2.9-2.7,6.9-5.1,10.3-7.3c0.8-0.6,1.7-1,2.7-1.4
				c1.4-0.6,2.9-1,4.3-1.3c6-1.5,12-3.1,18-4.6c9.5-2.4,19.3-5.1,29.2-5.1c6.6,0,13.2,0,19.8-0.1c12.4-0.1,24.8-0.4,37.1-0.6
				c0.2,0,0.4,0,0.5-0.1s0.2-0.3,0.2-0.4c0.9-3.8,0.9-7.9,0.1-11.7c0-0.2-0.1-0.4-0.3-0.6c-0.2-0.2-0.5-0.3-0.7-0.3
				s-0.4-0.1-0.6-0.1l-2.9-11.4l-4.7,10.2c-0.5-0.1-1-0.1-1.5-0.2l-3.4-10.9l-3.3,10c-0.6-0.1-1.2-0.2-1.9-0.3l-3.7-10.3l-2.7,9.3
				c-0.8-0.1-1.6-0.2-2.4-0.4l-4.1-8.9l-3,7.8c-0.9-0.1-1.7-0.3-2.6-0.4l-3-7.4l-3.2,6.4c-3.5-0.5-6.9-1.1-10.3-1.6
				c-0.1,0-0.3-0.1-0.3-0.1c-0.1-0.1-0.1-0.2-0.1-0.4c0-3.7,0.1-7.4,0.1-11.1c0-0.1,0-0.3,0.1-0.4c0.1-0.1,0.2-0.1,0.3-0.1
				c4.2-0.5,8.4-1,12.6-1.5l3.8,6.3l3.6-7.2c0.5-0.1,1-0.1,1.6-0.2l5.1,7.4l3.3-8.3c0.4-0.1,0.8-0.1,1.2-0.1l4.7,8.5l2.8-9.4
				c0.7-0.1,1.3-0.2,2-0.2c1.4,3.1,4.1,9,4.3,9.1c0.2,0.1,2.3-6.9,3.3-10c0.7-0.1,1.4-0.2,2.1-0.3l4,9.3l4.9-10.3
				c0.6-0.1,1.2-0.1,1.8-0.2c0.3,0,1.3-2.3,1.5-2.6c0.7-1.2,1.5-2.5,2.2-3.7c0.3-0.5,0.6-0.9,0.7-1.5c0.2-0.5,0.2-1.1,0.3-1.6
				c0.2-2.1,0.4-4.2,0.6-6.3c0-0.1,0-0.2,0-0.3s-0.1-0.1-0.2-0.1c-3.6-1.5-7.2-3.1-10.8-4.6c-0.2-0.1-0.4-0.2-0.6-0.1
				c-0.2,0-0.4,0.2-0.6,0.3c-0.6,0.4-1.2,0.9-1.8,1.3c-0.4,0.3-0.9,0.6-1.4,0.8c-1,0.3-2.6-0.4-3.7-0.6c-1.2-0.2-2.3-0.5-3.5-0.7
				c-3.1-0.6-6.2-1.3-9.3-2c-7.4-1.6-14.8-3.1-22.2-4.7c-5.4-1.1-10.8-2.3-16.2-3.4c-0.6-0.1-1.2-0.2-1.8-0.4l-2.1-8.4l-46.9-8.7
				l-8.5-49.2c-4.4,7-8.8,14.1-13.2,21.1c-0.1,0.1-0.1,0.2-0.2,0.3c-3.4,5.5-6.9,11-10.3,16.5c-3.4,5.4-6.3,11.9-10.8,16.4
				c-0.6,0.6-6,4.7-5.9,4.9c-4.8,4-9.6,8-14.4,12c-3.8,3.1-7.5,6.4-11.2,9.6c-4.3,3.7-0.3,0.3-9.1,8.7c-3,2.9-6.9,6.4-7.9,7.9
				c-1.8,2.8-3.7,5.7-5.8,8.8C135.3,512.9,116.9,541.3,106,561.2"/>
			<polygon class="st2" points="135.7,495.5 90.9,476.4 110.2,505.4 			"/>
			<polygon class="st2" points="161.2,495.5 206,476.4 186.7,505.4 			"/>
			<path class="st2" d="M112.2,581.8c2.7,9.2,5.5,18.4,8.1,27.7c0.1,0.5,0.3,1,0.7,1.4c0.3,0.3,0.8,0.4,1.2,0.6
				c7.4,1.9,14.9,3.7,22.3,5.6c1.2,0.3,2.4,0.6,3.7,0.6c0.1,0,0.2,0,0.3,0c1.4,0,2.9-0.4,4.3-0.7c7.2-1.8,14.5-3.7,21.7-5.5
				c0.6-0.1,1.2-0.3,1.6-0.8c0.3-0.3,0.4-0.8,0.5-1.2c2.7-9.3,5.3-18.6,8-27.9c1.9-6.8,3.9-13.6,5.9-20.4c0.2-0.8,0.4-1.5,0.7-2.3
				c2.4-7.9,4.8-15.9,7.3-23.7c0.8-2.7,1.6-5.4,2.9-7.9c1.8-3.3,4.4-6.1,6.9-8.7c3-3.1,5.9-6.2,8.9-9.4c0.5-0.5,0.9-1,1.4-1.5
				c7-7.3,13.9-14.6,20.9-21.9c-5.5-7.3-10.9-14.7-16.4-22c-0.8-1.1-1.6-2.1-2-3.4c-1.2-3.9,1.6-7.8,3.3-11.5
				c2.9-6.5,2.4-14,1.8-21.1c-0.6-7-1.1-14-1.7-20.9c-0.7-8.7-1.4-17.5-2.1-26.2c-13,12.6-26,25.2-39,37.8c-0.9,0.9-1.8,1.8-3,2.3
				c-1.7,0.7-3.6,0.5-5.3,0.2c-8.6-1.2-17.4-2.9-26.2-3.1c-9-0.2-18,1.8-27,3.1c-1.8,0.2-3.7,0.5-5.3-0.2c-1.1-0.5-2.1-1.4-3-2.3
				c-13-12.6-26-25.2-39-37.8c-0.6,8-1.3,16-1.9,24c-0.6,7.7-1.3,15.5-1.9,23.2c-0.6,7.1-1.1,14.7,1.8,21.1
				c1.7,3.7,4.5,7.6,3.3,11.5c-0.4,1.3-1.2,2.4-2,3.4c-5.4,7.3-10.9,14.7-16.4,22c7.1,7.5,14.3,15,21.4,22.5c0.5,0.5,0.9,1,1.4,1.5
				c2.8,2.9,5.6,5.8,8.3,8.8c2.6,2.7,5.2,5.4,6.9,8.7c1.3,2.5,2.1,5.2,2.9,7.9c2.1,8.8,4.9,17.4,7.6,26.1l0,0
				c1.2,3.8,2.4,7.5,3.5,11.3C110.4,575.6,111.3,578.7,112.2,581.8z"/>
			<polygon class="st2" points="167.7,599.1 148.5,591 129.3,599.1 129.3,601 148.5,592.8 167.7,601 			"/>
		</g>
	</g>
	<polygon class="st3" points="-664.2,549.7 -626.6,542.2 -645.5,560.5 	"/>
	<polygon class="st3" points="-623.6,621.8 -599.3,597.6 -609.5,571.9 -607.5,571.9 -597,598.1 -621.2,622.3 -622.4,623.5 
		-624.4,622.5 	"/>
	<path class="st3" d="M-564.3,672.2c-3.7,1.7-14.8,4.5-18.5,6.3c-0.1,0.1-0.3,0.1-0.5,0.1c0,0,0,0-0.1,0s-0.2-0.1-0.3-0.2
		c-6.1-5.8-6.4-13.9-10.9-21.6c-3.6-6.2-9.3-10.8-14.5-15.7c-3.4-3.2-5-5.2-6.6-6.6c-2.9-2.7-6.9-5.1-10.3-7.3
		c-0.9-0.6-1.7-1-2.7-1.4c-1.4-0.6-2.9-1-4.3-1.3c-6-1.5-12-3.1-18-4.6c-9.5-2.4-19.3-5.1-29.2-5.1c-6.6,0-13.2,0-19.8-0.1
		c-12.4-0.1-24.8-0.4-37.1-0.6c-0.2,0-0.4,0-0.5-0.1c-0.1-0.1-0.2-0.3-0.2-0.4c-0.9-3.8-0.9-7.9-0.1-11.7c0-0.2,0.1-0.4,0.3-0.6
		c0.2-0.2,0.5-0.3,0.7-0.3s0.4-0.1,0.6-0.1l2.9-11.4l4.7,10.3c0.5-0.1,1-0.1,1.5-0.2l3.4-10.9l3.3,10c0.6-0.1,1.2-0.2,1.9-0.3
		l3.7-10.3l2.7,9.3c0.8-0.1,1.6-0.2,2.4-0.4l4.1-8.9l3,7.8c0.9-0.1,1.7-0.3,2.6-0.4l3-7.4l3.2,6.4c3.5-0.5,6.9-1.1,10.4-1.6
		c0.1,0,0.3,0,0.3-0.1c0.1-0.1,0.1-0.2,0.1-0.4c0-3.7-0.1-7.4-0.1-11c0-0.1,0-0.3-0.1-0.4c-0.1-0.1-0.2-0.1-0.3-0.1
		c-4.2-0.5-8.4-1-12.6-1.5l-3.8,6.3l-3.6-7.2c-0.5-0.1-1-0.1-1.6-0.2l-5.1,7.3l-3.3-8.3c-0.4,0-0.8-0.1-1.2-0.1l-4.7,8.5l-2.8-9.4
		c-0.7-0.1-1.3-0.2-2-0.2c-1.4,3.1-4.1,9-4.3,9.1c-0.2,0.1-2.3-6.9-3.3-10c-0.7-0.1-1.4-0.2-2.2-0.3l-4,9.3l-4.9-10.3
		c-0.6-0.1-1.2-0.1-1.8-0.2c-0.3,0-1.3-2.3-1.5-2.6c-0.7-1.2-1.5-2.5-2.2-3.7c-0.3-0.5-0.6-1-0.7-1.5c-0.2-0.5-0.2-1.1-0.3-1.6
		c-0.2-2.1-0.4-4.2-0.6-6.3c0-0.1,0-0.2,0-0.3s0.1-0.1,0.2-0.1c3.6-1.5,7.2-3,10.8-4.6c0.2-0.1,0.4-0.2,0.6-0.1
		c0.2,0,0.4,0.2,0.6,0.3c0.6,0.4,1.2,0.9,1.8,1.3c0.4,0.3,0.9,0.6,1.4,0.8c1,0.3,2.6-0.4,3.7-0.6c1.2-0.2,2.3-0.5,3.5-0.7
		c3.1-0.7,6.2-1.3,9.3-2c7.4-1.6,14.8-3.1,22.2-4.7c5.4-1.1,10.8-2.3,16.2-3.4c0.6-0.1,1.2-0.3,1.8-0.4l2.1-8.4l46.9-8.7l8.5-49.2
		c4.4,7,8.8,14.1,13.2,21.1c3.5,5.6,7,11.2,10.5,16.8c3.4,5.4,6.3,11.9,10.8,16.4c0.6,0.6,6,4.7,5.9,4.9c4.8,4,9.6,8,14.4,12
		c3.8,3.1,7.5,6.4,11.2,9.6c4.3,3.7,0.3,0.3,9.1,8.7c3,2.9,6.9,6.4,7.9,7.9c14.2,21.7,36.6,55.7,49,78.5
		c-0.4-0.7-46.4,9.4-49.3,10.7C-546.1,667.1-555.8,668.6-564.3,672.2z"/>
	<polygon class="st3" points="-398.7,549.9 -436.4,542.5 -417.5,560.8 	"/>
	<polygon class="st3" points="-439.4,622.1 -463.7,597.9 -453.5,572.2 -455.5,572.2 -466,598.4 -441.8,622.6 -440.6,623.7 
		-438.6,622.7 	"/>
	<path class="st3" d="M-498.7,672.4c3.7,1.7,14.8,4.5,18.5,6.3c0.1,0.1,0.3,0.1,0.5,0.1c0,0,0,0,0.1,0s0.2-0.1,0.3-0.2
		c6.1-5.8,6.4-13.9,10.9-21.6c3.6-6.2,9.3-10.8,14.5-15.7c3.4-3.2,5-5.2,6.6-6.6c2.9-2.7,6.9-5.1,10.3-7.3c0.9-0.6,1.7-1,2.7-1.4
		c1.4-0.6,2.9-1,4.3-1.3c6-1.5,12-3.1,18-4.6c9.5-2.4,19.3-5.1,29.2-5.1c6.6,0,13.2,0,19.8-0.1c12.4-0.1,24.8-0.4,37.1-0.6
		c0.2,0,0.4,0,0.5-0.1s0.2-0.3,0.2-0.4c0.9-3.8,0.9-7.9,0.1-11.7c0-0.2-0.1-0.4-0.3-0.6c-0.2-0.2-0.5-0.3-0.7-0.3s-0.4-0.1-0.6-0.1
		l-2.9-11.4l-4.7,10.3c-0.5-0.1-1-0.1-1.5-0.2l-3.4-10.9l-3.3,10c-0.6-0.1-1.2-0.2-1.9-0.3l-3.7-10.3l-2.7,9.3
		c-0.8-0.1-1.6-0.2-2.4-0.4l-4.1-8.9l-3,7.8c-0.9-0.1-1.7-0.3-2.6-0.4l-3-7.4l-3.2,6.4c-3.5-0.5-6.9-1.1-10.4-1.6
		c-0.1,0-0.3,0-0.3-0.1c-0.1-0.1-0.1-0.2-0.1-0.4c0-3.7,0.1-7.4,0.1-11c0-0.1,0-0.3,0.1-0.4c0.1-0.1,0.2-0.1,0.3-0.1
		c4.2-0.5,8.4-1,12.6-1.5l3.8,6.3l3.6-7.2c0.5-0.1,1-0.1,1.6-0.2l5.1,7.3l3.3-8.3c0.4,0,0.8-0.1,1.2-0.1l4.7,8.5l2.8-9.4
		c0.7-0.1,1.3-0.2,2-0.2c1.4,3.1,4.1,9,4.3,9.1s2.3-6.9,3.3-10c0.7-0.1,1.4-0.2,2.2-0.3l4,9.3l4.9-10.3c0.6-0.1,1.2-0.1,1.8-0.2
		c0.3,0,1.3-2.3,1.5-2.6c0.7-1.2,1.5-2.5,2.2-3.7c0.3-0.5,0.6-1,0.7-1.5c0.2-0.5,0.2-1.1,0.3-1.6c0.2-2.1,0.4-4.2,0.6-6.3
		c0-0.1,0-0.2,0-0.3s-0.1-0.1-0.2-0.1c-3.6-1.5-7.2-3-10.8-4.6c-0.2-0.1-0.4-0.2-0.6-0.1c-0.2,0-0.4,0.2-0.6,0.3
		c-0.6,0.4-1.2,0.9-1.8,1.3c-0.4,0.3-0.9,0.6-1.4,0.8c-1,0.3-2.6-0.4-3.7-0.6c-1.2-0.2-2.3-0.5-3.5-0.7c-3.1-0.7-6.2-1.3-9.3-2
		c-7.4-1.6-14.8-3.1-22.2-4.7c-5.4-1.1-10.8-2.3-16.2-3.4c-0.6-0.1-1.2-0.3-1.8-0.4l-2.1-8.4l-46.9-8.7l-8.5-49.2
		c-4.4,7-8.8,14.1-13.2,21.1c-3.5,5.6-7,11.2-10.5,16.8c-3.4,5.4-6.3,11.9-10.8,16.4c-0.6,0.6-6,4.7-5.9,4.9c-4.8,4-9.6,8-14.4,12
		c-3.8,3.1-7.5,6.4-11.2,9.6c-4.3,3.7-0.3,0.3-9.1,8.7c-3,2.9-6.9,6.4-7.9,7.9c-14.2,21.7-36.6,55.7-49,78.5
		c0.4-0.7,46.4,9.4,49.3,10.7C-516.8,667.3-507.2,668.9-498.7,672.4z"/>
	<g id="XMLID_8_" class="st1">
		<g>
			<polygon class="st2" points="-545,587.4 -589.8,568.3 -570.5,597.3 			"/>
			<polygon class="st2" points="-519.5,587.4 -474.7,568.3 -493.9,597.3 			"/>
			<path class="st2" d="M-532.2,709.5c1.4,0,2.9-0.4,4.3-0.7c7.2-1.8,14.5-3.7,21.7-5.5c0.6-0.2,1.2-0.3,1.6-0.8
				c0.3-0.3,0.4-0.8,0.5-1.2c7.1-24.8,14-49.8,21.9-74.4c0.8-2.7,1.6-5.4,2.9-7.9c1.8-3.3,4.4-6.1,6.9-8.7
				c10.4-10.9,20.8-21.8,31.1-32.8c-5.5-7.3-10.9-14.7-16.4-22c-0.8-1.1-1.6-2.1-2-3.4c-1.2-3.9,1.6-7.7,3.3-11.5
				c2.9-6.5,2.4-14,1.8-21.2c-1.3-15.7-2.5-31.4-3.8-47.2c-13,12.6-26,25.2-39,37.8c-0.9,0.9-1.8,1.8-3,2.3
				c-1.7,0.7-3.6,0.5-5.3,0.2c-8.6-1.2-17.4-2.9-26.2-3.1c-9-0.2-18,1.8-27,3.1c-1.8,0.2-3.7,0.5-5.3-0.2c-1.1-0.5-2.1-1.4-3-2.3
				c-13-12.6-26-25.2-39-37.8c-1.3,15.7-2.6,31.4-3.8,47.2c-0.6,7.1-1.1,14.7,1.8,21.2c1.7,3.7,4.5,7.6,3.3,11.5
				c-0.4,1.3-1.2,2.4-2,3.4c-5.5,7.3-10.9,14.7-16.4,22c10.4,10.9,20.8,21.8,31.1,32.8c2.6,2.7,5.2,5.4,6.9,8.7
				c1.3,2.5,2.1,5.2,2.9,7.9c3,12.6,7.4,25,11,37.4c3.6,12.3,7.3,24.6,10.9,37c0.1,0.5,0.3,1,0.7,1.4c0.3,0.3,0.8,0.4,1.2,0.5
				c7.4,1.9,14.9,3.7,22.3,5.6c1.2,0.3,2.4,0.6,3.7,0.6C-532.4,709.5-532.3,709.5-532.2,709.5z"/>
		</g>
	</g>
	<polygon class="st3" points="-513,691 -532.2,682.9 -551.4,691 -551.4,692.8 -532.2,684.7 -513,692.8 	"/>
</g>
<g id="Layer_11" class="st0">
	<g id="XMLID_7_" class="st1">
		<g>
			<path class="st10" d="M-76.8,461.9l22.6,21.9l22.4-13L-76.8,461.9z M-99.5,497.3l-12.6,31.3l28.9,28.9l1.5,1.4l2.4-1.2l-0.9-0.8
				l-29-28.8l12.1-30.7h-2.4V497.3z M-75.3,443.8l56,10.4l2.6,10c0.7,0.2,1.4,0.3,2.2,0.5c6.4,1.4,12.9,2.7,19.3,4.1
				c8.8,1.9,17.7,3.7,26.5,5.6c3.7,0.8,7.4,1.6,11.1,2.3c1.4,0.3,2.7,0.6,4.1,0.9c1.2,0.3,3.2,1.1,4.4,0.7c0.6-0.2,1.1-0.6,1.6-0.9
				c0.7-0.5,1.5-1.1,2.2-1.6c0.2-0.2,0.4-0.3,0.7-0.3c0.2,0,0.5,0.1,0.7,0.2c4.3,1.8,8.6,3.6,12.9,5.5c0.1,0,0.2,0.1,0.3,0.2
				s0.1,0.2,0,0.3c-0.2,2.5-0.5,5-0.7,7.5c-0.1,0.7-0.1,1.3-0.3,2c-0.2,0.6-0.5,1.2-0.9,1.8c-0.9,1.5-1.8,3-2.6,4.4
				c-0.2,0.4-1.4,3-1.8,3.1c-0.7,0.1-1.4,0.2-2.1,0.3L55,513.1L50.2,502c-0.9,0.1-1.7,0.2-2.6,0.3c-1.1,3.7-3.6,12.1-3.9,12
				c-0.2-0.1-3.4-7.2-5.1-10.9c-0.8,0.1-1.6,0.2-2.4,0.3l-3.3,11.2l-5.6-10.1c-0.5,0.1-1,0.1-1.5,0.2l-3.9,10l-6-8.8
				c-0.6,0.1-1.2,0.2-1.9,0.2l-4.3,8.5l-4.5-7.5c-5,0.6-10,1.2-15,1.8c-0.1,0-0.3,0-0.4,0.1c-0.1,0.1-0.1,0.3-0.1,0.5
				c-0.1,4.4-0.1,8.8-0.1,13.2c0,0.1,0,0.3,0.1,0.4c0.1,0.1,0.3,0.1,0.4,0.2c4.1,0.6,8.2,1.3,12.4,1.9l3.9-7.7l3.6,8.9
				c1,0.2,2,0.3,3.1,0.5l3.5-9.3l4.9,10.7c0.9,0.1,1.9,0.3,2.8,0.4l3.2-11.1l4.4,12.3c0.7,0.1,1.5,0.2,2.2,0.3l4-11.9l4.1,13
				c0.6,0.1,1.2,0.1,1.8,0.2l5.6-12.2l3.4,13.5c0.2,0.1,0.5,0.1,0.7,0.1c0.3,0.1,0.6,0.1,0.9,0.4c0.2,0.2,0.2,0.5,0.3,0.7
				c1,4.6,1,9.4-0.1,14c0,0.2-0.1,0.4-0.2,0.5c-0.2,0.1-0.4,0.1-0.6,0.1c-14.8,0.2-29.5,0.5-44.3,0.7c-7.9,0.1-15.7,0.1-23.6,0.2
				c-11.8,0-23.5,3.2-34.8,6.1c-7.2,1.8-14.3,3.7-21.5,5.5c-1.7,0.4-3.5,0.9-5.2,1.6c-1.1,0.5-2.2,1.1-3.2,1.7
				c-4.1,2.6-7.1,6.6-10.6,9.9c-2.8,2.6-5.6,5.3-8.4,7.9c-6.2,5.8-12.3,11.7-18.5,17.5c-7.3,6.9-14.6,13.9-21.9,20.8
				c-0.1,0.1-0.3,0.2-0.4,0.3c0,0,0,0-0.1,0c-0.2,0-0.4-0.1-0.6-0.1c-4.4-2.1-8.7-4.2-13.1-6.2c-8.4-3.9-16.8-7.8-25.2-11.8
				c3.3-10.8,6.6-21.6,9.9-32.4c3-9.9,5.4-20.2,10.3-29.4c3.3-6.1,7.9-10.6,12.4-15.7c3.4-3.9,7-7.5,10.4-11.3
				c8.1-8.8,16.3-17.6,24.4-26.4l-23.7-31.5c-0.2-0.3,6.3-5.1,7-5.9c5.3-5.4,8.9-13.2,12.9-19.6c4.2-6.7,8.4-13.4,12.6-20.1
				c5.2-8.4,10.5-16.8,15.7-25.2L-75.3,443.8z"/>
			<path class="st10" d="M-268.6,405c1.1,1.1,2.3,2.2,3.7,2.8c2,0.9,4.3,0.6,6.5,0.3c10.9-1.5,22-4,33-3.7
				c10.8,0.2,21.6,2.3,32.1,3.7c2.2,0.3,4.5,0.6,6.5-0.3c1.4-0.6,2.6-1.7,3.7-2.8c15.9-15.4,31.9-30.8,47.8-46.3
				c1.6,19.2,3.1,38.5,4.7,57.7c0.7,8.7,1.3,18-2.3,25.9c-2.1,4.5-5.5,9.3-4,14c0.5,1.6,1.5,2.9,2.4,4.2c6.7,9,13.4,17.9,20,26.9
				c-12.7,13.4-25.4,26.7-38.1,40.1c-3.1,3.3-6.3,6.6-8.5,10.7c-1.6,3-2.6,6.4-3.6,9.7c-9.7,30-18,60.7-26.8,91
				c-0.2,0.5-0.3,1.1-0.7,1.5c-0.5,0.6-1.3,0.8-2,1c-8.9,2.2-17.7,4.5-26.6,6.7c-1.7,0.4-3.5,0.9-5.2,0.9c-0.1,0-0.2,0-0.3,0
				c-1.5,0-3-0.4-4.5-0.8c-9.1-2.3-18.2-4.6-27.3-6.9c-0.5-0.1-1.1-0.3-1.5-0.7s-0.6-1.1-0.8-1.7c-4.3-15.1-8.9-30.2-13.3-45.3
				c-4.5-15.2-9.8-30.4-13.5-45.8c-1-3.3-2-6.6-3.6-9.7c-2.1-4.1-5.3-7.4-8.5-10.7c-12.7-13.4-25.4-26.7-38.1-40.1
				c6.7-9,13.4-18,20-26.9c1-1.3,1.9-2.6,2.4-4.2c1.5-4.8-2-9.5-4-14c-3.6-7.9-3-17.1-2.3-25.9c1.6-19.2,3.1-38.5,4.7-57.7
				C-300.5,374.2-284.5,389.6-268.6,405z M-225.8,617.3l-23.5,10v2.3l23.5-10l23.5,10v-2.3L-225.8,617.3z M-296.3,476.2l23.6,35.4
				l31.2-12.1L-296.3,476.2z M-210.2,499.6l31.2,12.1l23.6-35.4L-210.2,499.6z"/>
			<path class="st10" d="M-372.4,557.6l2.4,1.2l1.5-1.4l28.8-28.9l-12.6-31.2h-2.4l12.1,30.7l-29,28.8L-372.4,557.6z M-420,470.8
				l22.4,13l22.6-21.9L-420,470.8z M-478.9,504.4l-5.6,10.1l-3.3-11.2c-0.8-0.1-1.6-0.2-2.4-0.3c-1.7,3.7-4.9,10.7-5.1,10.9
				s-2.8-8.3-3.9-12c-0.9-0.1-1.7-0.2-2.6-0.3l-4.8,11.1l-5.8-12.3c-0.7-0.1-1.4-0.2-2.1-0.3c-0.4,0-1.6-2.7-1.8-3.1
				c-0.9-1.5-1.8-3-2.6-4.4c-0.3-0.6-0.7-1.1-0.9-1.8c-0.2-0.6-0.3-1.3-0.3-2c-0.2-2.5-0.5-5-0.7-7.5c0-0.1,0-0.2,0-0.3
				c0.1-0.1,0.2-0.1,0.2-0.2c4.3-1.8,8.6-3.6,12.9-5.5c0.2-0.1,0.4-0.2,0.7-0.2c0.3,0,0.5,0.2,0.7,0.3c0.7,0.5,1.5,1.1,2.2,1.6
				c0.5,0.4,1,0.7,1.6,0.9c1.1,0.3,3.1-0.5,4.4-0.7c1.4-0.3,2.7-0.6,4.1-0.9c3.7-0.8,7.4-1.6,11.1-2.3c8.8-1.9,17.7-3.7,26.5-5.6
				c6.4-1.4,12.8-2.7,19.3-4.1c0.7-0.1,1.4-0.3,2.2-0.5l2.6-10l56-10.4l10.1-58.7c5.2,8.4,10.5,16.8,15.7,25.2
				c4.2,6.7,8.4,13.4,12.6,20.1c4,6.4,7.6,14.2,12.9,19.6c0.7,0.7,7.2,5.6,7,5.9l-23.7,31.5c8.1,8.8,16.3,17.6,24.4,26.4
				c3.5,3.8,7.1,7.4,10.5,11.3c4.5,5.1,9.1,9.6,12.4,15.7c4.9,9.1,7.3,19.5,10.3,29.4c3.3,10.8,6.6,21.6,9.9,32.4
				c-8.4,3.9-16.8,7.8-25.2,11.8c-4.4,2-8.8,4.1-13.1,6.2c-0.2,0.1-0.4,0.2-0.6,0.1h-0.1c-0.2-0.1-0.3-0.2-0.4-0.3
				c-7.3-6.9-14.6-13.9-22-20.8c-6.2-5.8-12.3-11.7-18.5-17.5c-2.8-2.6-5.5-5.3-8.4-7.9c-3.5-3.2-6.5-7.2-10.6-9.9
				c-1-0.7-2.1-1.3-3.2-1.7c-1.6-0.7-3.4-1.2-5.2-1.6c-7.2-1.8-14.3-3.7-21.5-5.5c-11.3-2.9-23-6.1-34.8-6.1c-7.8,0-15.7,0-23.6-0.2
				c-14.8-0.2-29.6-0.4-44.3-0.7c-0.2,0-0.4,0-0.6-0.1c-0.1-0.1-0.2-0.3-0.2-0.5c-1.1-4.6-1.1-9.4-0.1-14c0.1-0.3,0.1-0.5,0.3-0.7
				c0.2-0.2,0.5-0.3,0.9-0.4c0.2-0.1,0.5-0.1,0.7-0.1l3.4-13.5l5.6,12.2c0.6-0.1,1.2-0.1,1.8-0.2l4.1-13l4,11.9
				c0.7-0.1,1.5-0.2,2.2-0.3l4.4-12.3l3.2,11.1c0.9-0.1,1.9-0.3,2.8-0.4l4.9-10.7l3.5,9.3c1-0.2,2-0.3,3.1-0.5l3.6-8.9l3.9,7.7
				c4.1-0.6,8.2-1.3,12.3-1.9c0.2,0,0.3-0.1,0.4-0.2c0.1-0.1,0.1-0.3,0.1-0.4c0-4.4-0.1-8.8-0.1-13.2c0-0.2,0-0.4-0.1-0.5
				s-0.2-0.1-0.4-0.1c-5-0.6-10-1.2-15-1.8l-4.5,7.5l-4.3-8.5c-0.6-0.1-1.3-0.2-1.9-0.2l-6,8.8l-3.9-10
				C-478,504.6-478.5,504.5-478.9,504.4z"/>
		</g>
		<g>
			<polygon class="st2" points="-241.4,499.6 -296.3,476.2 -272.7,511.6 			"/>
			<polygon class="st2" points="-210.2,499.6 -155.4,476.2 -179,511.6 			"/>
			<path class="st2" d="M-225.8,649.1c1.8,0,3.5-0.5,5.2-0.9c8.9-2.2,17.7-4.5,26.6-6.7c0.7-0.2,1.5-0.4,2-1c0.4-0.4,0.5-1,0.7-1.5
				c8.7-30.3,17.1-61,26.8-91c1-3.3,2-6.6,3.6-9.7c2.1-4.1,5.3-7.4,8.5-10.7c12.7-13.4,25.4-26.7,38.1-40.1c-6.7-9-13.4-18-20-26.9
				c-1-1.3-1.9-2.6-2.4-4.2c-1.5-4.8,2-9.5,4-14c3.6-7.9,3-17.1,2.3-25.9c-1.6-19.2-3.1-38.5-4.7-57.7
				c-15.9,15.4-31.9,30.8-47.8,46.3c-1.1,1.1-2.3,2.2-3.7,2.8c-2,0.9-4.3,0.6-6.5,0.3c-10.5-1.5-21.3-3.5-32.1-3.7
				c-11.1-0.2-22.1,2.2-33,3.7c-2.2,0.3-4.5,0.6-6.5-0.3c-1.4-0.6-2.5-1.7-3.7-2.8c-15.9-15.4-31.9-30.8-47.8-46.3
				c-1.6,19.2-3.1,38.5-4.7,57.7c-0.7,8.7-1.3,18,2.3,25.9c2.1,4.5,5.5,9.3,4,14c-0.5,1.6-1.5,2.9-2.4,4.2c-6.7,9-13.4,17.9-20,26.9
				c12.7,13.4,25.4,26.7,38.1,40.1c3.1,3.3,6.3,6.6,8.5,10.7c1.6,3,2.6,6.4,3.6,9.7c3.7,15.4,9,30.6,13.5,45.8
				c4.5,15.1,9,30.2,13.3,45.3c0.2,0.6,0.4,1.2,0.8,1.7c0.4,0.4,1,0.5,1.5,0.7c9.1,2.3,18.2,4.6,27.3,6.9c1.5,0.4,3,0.7,4.5,0.8
				C-226.1,649.1-226,649.1-225.8,649.1z"/>
			<path class="st2" d="M-167.6,570.2c3-9.9,5.4-20.2,10.3-29.4c3.3-6.1,7.9-10.6,12.4-15.7c3.4-3.9,7-7.5,10.4-11.3
				c8.1-8.8,16.3-17.6,24.4-26.4l-23.7-31.5c-0.2-0.3,6.3-5.1,7-5.9c5.3-5.4,8.9-13.2,12.9-19.6c4.2-6.7,8.4-13.4,12.6-20.1
				c5.2-8.4,10.5-16.8,15.7-25.2l10.1,58.7l56,10.4l2.6,10c0.7,0.2,1.4,0.3,2.2,0.5c6.4,1.4,12.9,2.7,19.3,4.1
				c8.8,1.9,17.7,3.7,26.5,5.6c3.7,0.8,7.4,1.6,11.1,2.3c1.4,0.3,2.7,0.6,4.1,0.9c1.2,0.3,3.2,1.1,4.4,0.7c0.6-0.2,1.1-0.6,1.6-0.9
				c0.7-0.5,1.5-1.1,2.2-1.6c0.2-0.2,0.4-0.3,0.7-0.3c0.2,0,0.5,0.1,0.7,0.2c4.3,1.8,8.6,3.6,12.9,5.5c0.1,0,0.2,0.1,0.3,0.2
				s0.1,0.2,0,0.3c-0.2,2.5-0.5,5-0.7,7.5c-0.1,0.7-0.1,1.3-0.3,2c-0.2,0.6-0.5,1.2-0.9,1.8c-0.9,1.5-1.8,3-2.6,4.4
				c-0.2,0.4-1.4,3-1.8,3.1c-0.7,0.1-1.4,0.2-2.1,0.3l-5.9,12.3L50,502c-0.9,0.1-1.7,0.2-2.6,0.3c-1.1,3.7-3.6,12.1-3.9,12
				c-0.2-0.1-3.4-7.2-5.1-10.9c-0.8,0.1-1.6,0.2-2.4,0.3l-3.3,11.2l-5.6-10.1c-0.5,0.1-1,0.1-1.5,0.2l-3.9,10l-6-8.8
				c-0.6,0.1-1.2,0.2-1.9,0.2l-4.3,8.5L5,507.4c-5,0.6-10,1.2-15,1.8c-0.1,0-0.3,0-0.4,0.1c-0.1,0.1-0.1,0.3-0.1,0.5
				c-0.1,4.4-0.1,8.8-0.1,13.2c0,0.1,0,0.3,0.1,0.4c0.1,0.1,0.3,0.1,0.4,0.2c4.1,0.6,8.2,1.3,12.4,1.9l3.9-7.7l3.6,8.9
				c1,0.2,2,0.3,3.1,0.5l3.5-9.3l4.9,10.7c0.9,0.1,1.9,0.3,2.8,0.4l3.2-11.1l4.4,12.3c0.7,0.1,1.5,0.2,2.2,0.3l4-11.9l4.1,13
				c0.6,0.1,1.2,0.1,1.8,0.2l5.6-12.2l3.4,13.5c0.2,0.1,0.5,0.1,0.7,0.1c0.3,0.1,0.6,0.1,0.9,0.4c0.2,0.2,0.2,0.5,0.3,0.7
				c1,4.6,1,9.4-0.1,14c0,0.2-0.1,0.4-0.2,0.5c-0.2,0.1-0.4,0.1-0.6,0.1c-14.8,0.2-29.5,0.5-44.3,0.7c-7.9,0.1-15.7,0.1-23.6,0.2
				c-11.8,0-23.5,3.2-34.8,6.1c-7.2,1.8-14.3,3.7-21.5,5.5c-1.7,0.4-3.5,0.9-5.2,1.6c-1.1,0.5-2.2,1.1-3.2,1.7
				c-4.1,2.6-7.1,6.6-10.6,9.9c-2.8,2.6-5.6,5.3-8.4,7.9c-6.2,5.8-12.3,11.7-18.5,17.5c-7.3,6.9-14.6,13.9-21.9,20.8
				c-0.1,0.1-0.3,0.2-0.4,0.3c0,0,0,0-0.1,0c-0.2,0-0.4-0.1-0.6-0.1c-4.4-2.1-8.7-4.2-13.1-6.2c-8.4-3.9-16.8-7.8-25.2-11.8
				C-174.1,591.8-170.8,581-167.6,570.2z"/>
			<path class="st2" d="M-284.2,570.2c-3-9.9-5.4-20.2-10.3-29.4c-3.3-6.1-7.9-10.6-12.4-15.7c-3.4-3.9-7-7.5-10.5-11.3
				c-8.1-8.8-16.3-17.6-24.4-26.4l23.7-31.5c0.2-0.3-6.3-5.1-7-5.9c-5.3-5.4-8.9-13.2-12.9-19.6c-4.2-6.7-8.4-13.4-12.6-20.1
				c-5.2-8.4-10.5-16.8-15.7-25.2l-10.1,58.7l-56,10.4l-2.6,10c-0.7,0.2-1.4,0.3-2.2,0.5c-6.4,1.4-12.8,2.7-19.3,4.1
				c-8.8,1.9-17.7,3.7-26.5,5.6c-3.7,0.8-7.4,1.6-11.1,2.3c-1.4,0.3-2.7,0.6-4.1,0.9c-1.2,0.3-3.2,1.1-4.4,0.7
				c-0.6-0.2-1.1-0.6-1.6-0.9c-0.7-0.5-1.5-1.1-2.2-1.6c-0.2-0.2-0.4-0.3-0.7-0.3c-0.2,0-0.5,0.1-0.7,0.2c-4.3,1.8-8.6,3.6-12.9,5.5
				c-0.1,0-0.2,0.1-0.2,0.2c-0.1,0.1-0.1,0.2,0,0.3c0.2,2.5,0.4,5,0.7,7.5c0.1,0.7,0.1,1.3,0.3,2c0.2,0.6,0.5,1.2,0.9,1.8
				c0.9,1.5,1.8,3,2.6,4.4c0.2,0.4,1.4,3,1.8,3.1c0.7,0.1,1.4,0.2,2.1,0.3l5.8,12.3l4.8-11.1c0.9,0.1,1.7,0.2,2.6,0.3
				c1.1,3.7,3.6,12.1,3.9,12c0.2-0.1,3.4-7.2,5.1-10.9c0.8,0.1,1.6,0.2,2.4,0.3l3.3,11.2l5.6-10.1c0.5,0.1,1,0.1,1.5,0.2l3.9,10
				l6-8.8c0.6,0.1,1.3,0.2,1.9,0.2l4.3,8.5l4.5-7.5c5,0.6,10,1.2,15,1.8c0.1,0,0.3,0,0.4,0.1s0.1,0.3,0.1,0.5
				c0,4.4,0.1,8.8,0.1,13.2c0,0.1,0,0.3-0.1,0.4c-0.1,0.1-0.3,0.1-0.4,0.2c-4.1,0.6-8.2,1.3-12.3,1.9l-3.9-7.7l-3.6,8.9
				c-1,0.2-2,0.3-3.1,0.5l-3.5-9.3l-4.9,10.7c-0.9,0.1-1.9,0.3-2.8,0.4l-3.2-11.1l-4.4,12.3c-0.8,0.1-1.5,0.2-2.2,0.3l-4-11.9
				l-4.1,13c-0.6,0.1-1.2,0.1-1.8,0.2l-5.6-12.2l-3.4,13.5c-0.2,0.1-0.5,0.1-0.7,0.1c-0.3,0.1-0.7,0.1-0.9,0.4
				c-0.2,0.2-0.2,0.5-0.3,0.7c-1,4.6-1,9.4,0.1,14c0.1,0.2,0.1,0.4,0.2,0.5c0.2,0.1,0.4,0.1,0.6,0.1c14.8,0.2,29.5,0.5,44.3,0.7
				c7.9,0.1,15.7,0.1,23.6,0.2c11.8,0,23.5,3.2,34.8,6.1c7.2,1.8,14.3,3.7,21.5,5.5c1.8,0.4,3.5,0.9,5.2,1.6
				c1.1,0.5,2.2,1.1,3.2,1.7c4.1,2.6,7.1,6.6,10.6,9.9c2.8,2.6,5.6,5.3,8.4,7.9c6.2,5.8,12.3,11.7,18.5,17.5
				c7.3,6.9,14.6,13.9,22,20.8c0.1,0.1,0.2,0.2,0.4,0.3h0.1c0.2,0,0.4-0.1,0.6-0.1c4.4-2.1,8.7-4.2,13.1-6.2
				c8.4-3.9,16.8-7.8,25.2-11.8C-277.7,591.8-280.9,581-284.2,570.2z"/>
			<polygon class="st2" points="-31.8,470.8 -76.8,461.9 -54.2,483.7 			"/>
			<polygon class="st2" points="-420,470.8 -375,461.9 -397.6,483.7 			"/>
			<polygon class="st2" points="-80.3,556.8 -109.3,528 -97.2,497.3 -99.5,497.3 -112.1,528.6 -83.2,557.5 -81.7,558.8 -79.4,557.6 
							"/>
			<polygon class="st2" points="-202.4,627.2 -225.8,617.3 -249.3,627.2 -249.3,629.5 -225.8,619.5 -202.4,629.5 			"/>
			<polygon class="st2" points="-371.5,556.8 -342.5,528 -354.6,497.3 -352.3,497.3 -339.7,528.6 -368.6,557.5 -370,558.8 
				-372.4,557.6 			"/>
		</g>
	</g>
</g>
<g id="Layer_12" class="st0">
	<g id="XMLID_12_" class="st1">
		<g>
			<path class="st9" d="M721.4,531.4c4.2,7.3,8.4,14.6,12.6,21.9c-8.9,13-17.8,26-26.8,39c-2.2,3.3-4.5,6.6-6.2,10.3
				c-1.9,4.3-3,9-4,13.6c-1.3,5.9-2.6,11.7-3.9,17.6c-0.3,1.5-0.7,3-1.5,4.1c-0.9,1.2-2.1,1.9-3.4,2.5c-12.4,6-25.9,8.9-39.4,8.8
				c-13.7-0.1-27.4-3.4-39.9-9.8c-1-0.5-2.1-1.1-2.9-2.1c-0.8-1.1-1.1-2.5-1.4-3.9c-1.3-5.8-2.6-11.5-3.9-17.3
				c-1-4.6-2.1-9.3-4-13.6c-1.1-2.5-2.5-4.7-3.9-6.9c4.8-16.8,9.7-33.5,15.1-50.1l8.4,11.1l24-14.2l-27.5-10.1
				c-0.1,0.1-0.2,0.3-0.3,0.4c2.2-4,5.4-7.4,8.5-10.7c7.1-7.4,14.1-14.9,21.2-22.3c10.5-0.8,21.1,0.3,31.3,3.3c0.1,0,0.1,0,0.1-0.1
				c14.1-19.6,28.2-47.9,42.2-67.5c0,2.1,0.3,4.4,0.5,6.5c1,12.8,2,25.6,3,38.3c0.4,5.8,1.5,12,1,17.8c-0.6,6.3-1.1,12.7-1.7,19
				c-0.2,2.8-0.3,5.6,0.2,8.3c0.1,0.5,0.1,0.5,0.1,0.5C719.4,528,720.4,529.7,721.4,531.4z M680.1,556.6l24-31.8l-48,17.5
				L680.1,556.6z M683.7,627.6l-3.5-30l-5.4,1.6l-5.2,20.6l-6.7-20.9l-13.6,0.3l-13.6-0.3l-6.7,20.9l-5.2-20.6l-5.4-1.6l-3.5,30
				l17.7,8.1l6.2-22.9l5.1,23.1h5.4h5.4l5.1-23.1l6.2,22.9L683.7,627.6z M663.3,582.3v-1.5l-15.5-6.6l-15.5,6.6v1.5l15.5-6.6
				L663.3,582.3z"/>
			<path class="st9" d="M637.4,451.3c6.9,9.3,13.9,18.7,20.8,28c-13.2,13.9-26.4,27.8-39.6,41.7c-3.3,3.4-6.5,6.9-8.8,11.1
				c-1.7,3.1-2.7,6.6-3.7,10.1c-10,31.2-18.7,63-27.8,94.6c-0.2,0.6-0.3,1.1-0.7,1.6c-0.5,0.6-1.3,0.8-2.1,1
				c-9.2,2.3-18.4,4.7-27.6,7c-1.8,0.4-3.6,0.9-5.4,0.9c-0.1,0-0.2,0-0.3,0c-1.6,0-3.1-0.4-4.7-0.8c-9.5-2.4-18.9-4.8-28.4-7.1
				c-0.6-0.1-1.1-0.3-1.6-0.7s-0.7-1.1-0.8-1.7c-4.5-15.7-9.2-31.4-13.8-47c-4.6-15.8-10.1-31.6-14-47.6c-1-3.4-2-6.9-3.7-10.1
				c-2.2-4.2-5.5-7.7-8.8-11.1c-13.2-13.9-26.4-27.8-39.6-41.7c6.9-9.3,13.9-18.6,20.8-28c1-1.3,2-2.7,2.5-4.3
				c1.6-5-2.1-9.9-4.2-14.6c-3.7-8.2-3.1-17.8-2.3-26.9c1.6-20,3.2-40,4.9-60c16.5,16,33.1,32,49.7,48.1c1.2,1.1,2.3,2.3,3.8,2.9
				c2.1,0.9,4.5,0.6,6.8,0.3c11.4-1.6,22.8-4.1,34.3-3.9c11.2,0.2,22.5,2.4,33.3,3.9c2.3,0.3,4.7,0.6,6.8-0.3
				c1.5-0.6,2.7-1.8,3.8-2.9c16.5-16,33.1-32,49.7-48.1c1.6,20,3.2,40,4.9,60c0.7,9.1,1.4,18.6-2.3,26.9c-2.1,4.7-5.8,9.6-4.2,14.6
				C635.4,448.5,636.4,449.9,637.4,451.3z M591.1,504.3l24.5-36.8l-57,24.3L591.1,504.3z M566.9,626.8v-2.4l-24.4-10.3l-24.4,10.3
				v2.4l24.4-10.4L566.9,626.8z M493.8,504.3l32.5-12.5l-57-24.3L493.8,504.3z"/>
			<path class="st9" d="M492.1,595.6c-1.4,2.2-2.8,4.5-3.9,6.9c-1.9,4.3-3,8.9-4,13.6c-1.3,5.8-2.6,11.5-3.9,17.3
				c-0.3,1.4-0.6,2.8-1.4,3.9c-0.7,1-1.8,1.6-2.8,2.1c-12.5,6.4-26.2,9.7-39.9,9.8c-13.5,0.1-27-2.8-39.4-8.8
				c-1.2-0.6-2.5-1.3-3.4-2.5c-0.8-1.2-1.2-2.7-1.5-4.1c-1.3-5.9-2.6-11.7-3.9-17.6c-1-4.6-2.1-9.3-4-13.6c-1.7-3.7-3.9-7-6.2-10.3
				c-8.9-13-17.8-26-26.8-39c4.2-7.3,8.4-14.6,12.6-21.9c1-1.7,2-3.5,2.5-5.4c0,0,0,0,0.1-0.5c0.5-2.7,0.4-5.5,0.2-8.3
				c-0.6-6.3-1.1-12.7-1.7-19c-0.5-5.8,0.6-12,1-17.8c1-12.8,2-25.5,3-38.3c0.2-2.1,0.5-4.4,0.5-6.5c14.1,19.6,28.2,47.9,42.2,67.5
				c0,0.1,0,0.1,0.1,0.1c10.2-3,20.8-4,31.3-3.3c7.1,7.4,14.1,14.9,21.2,22.3c3.1,3.3,6.3,6.6,8.5,10.7c-0.1-0.1-0.2-0.3-0.3-0.4
				l-27.5,10.1l24,14.2l8.4-11.1C482.4,562.1,487.3,578.8,492.1,595.6z M470,627.6l-3.5-30l-5.4,1.6l-5.2,20.6l-6.7-20.9l-13.6,0.3
				l-13.6-0.3l-6.7,20.9l-5.2-20.6l-5.4-1.6l-3.5,30l17.7,8.1l6.2-22.9l5.1,23.1h5.4h5.4l5.1-23.1l6.2,22.9L470,627.6z M452.6,582.3
				v-1.5l-15.5-6.6l-15.5,6.6v1.5l15.5-6.6L452.6,582.3z M404.9,556.6l24-14.2l-48-17.5L404.9,556.6z"/>
		</g>
		<g>
			<polygon class="st5" points="656.1,542.4 704.1,524.9 680.1,556.6 			"/>
			<polygon class="st5" points="649.3,599.1 635.7,598.9 629,619.7 623.9,599.1 618.5,597.5 615,627.6 632.7,635.7 638.9,612.8 
				643.9,635.9 649.3,635.9 654.7,635.9 659.8,612.8 666,635.7 683.7,627.6 680.2,597.5 674.8,599.1 669.6,619.7 662.9,598.9 			"/>
			<path class="st5" d="M607.9,545.5c-5.3,16.6-10.2,33.3-15.1,50.1c1.4,2.2,2.8,4.5,3.9,6.9c1.9,4.3,3,8.9,4,13.6
				c1.3,5.8,2.6,11.5,3.9,17.3c0.3,1.4,0.6,2.8,1.4,3.9c0.8,1,1.8,1.6,2.9,2.1c12.5,6.4,26.2,9.7,39.9,9.8c13.5,0.1,27-2.8,39.4-8.8
				c1.2-0.6,2.5-1.3,3.4-2.5c0.8-1.2,1.2-2.7,1.5-4.1c1.3-5.9,2.6-11.7,3.9-17.6c1-4.6,2.1-9.3,4-13.6c1.7-3.7,3.9-7,6.2-10.3
				c8.9-13,17.8-26,26.8-39c-4.2-7.3-8.4-14.6-12.6-21.9c-1-1.7-2-3.5-2.5-5.4c0,0,0,0-0.1-0.5c-0.5-2.7-0.4-5.5-0.2-8.3
				c0.6-6.3,1.1-12.7,1.7-19c0.5-5.8-0.6-12-1-17.8c-1-12.8-2-25.5-3-38.3c-0.2-2.1-0.5-4.4-0.5-6.5c-14.1,19.6-28.2,47.9-42.2,67.5
				c0,0.1,0,0.1-0.1,0.1c-10.2-3-20.8-4-31.3-3.3c-7.1,7.4-14.1,14.9-21.2,22.3"/>
			<path class="st5" d="M612.6,532.8c2.2-4,5.4-7.4,8.5-10.7"/>
			<polygon class="st5" points="526.3,491.8 469.3,467.5 493.8,504.3 			"/>
			<polygon class="st5" points="558.7,491.8 615.7,467.5 591.1,504.3 			"/>
			<path class="st5" d="M542.5,647.1c1.8,0,3.6-0.5,5.4-0.9c9.2-2.3,18.4-4.6,27.6-7c0.8-0.2,1.5-0.4,2.1-1c0.4-0.4,0.5-1,0.7-1.6
				c9.1-31.5,17.8-63.3,27.8-94.6c1-3.4,2-6.9,3.7-10.1c2.2-4.2,5.5-7.7,8.8-11.1c13.2-13.9,26.4-27.8,39.6-41.7
				c-6.9-9.3-13.9-18.6-20.8-28c-1-1.3-2-2.7-2.5-4.3c-1.6-5,2.1-9.9,4.2-14.6c3.7-8.2,3.1-17.8,2.3-26.9c-1.6-20-3.2-40-4.9-60
				c-16.5,16-33.1,32-49.7,48.1c-1.2,1.1-2.3,2.3-3.8,2.9c-2.1,0.9-4.5,0.6-6.8,0.3c-10.9-1.5-22.2-3.7-33.3-3.9
				c-11.5-0.2-22.9,2.3-34.3,3.9c-2.3,0.3-4.7,0.6-6.8-0.3c-1.5-0.6-2.6-1.8-3.8-2.9c-16.6-16-33.1-32-49.7-48.1
				c-1.6,20-3.2,40-4.9,60c-0.7,9.1-1.4,18.6,2.3,26.9c2.1,4.7,5.8,9.6,4.2,14.6c-0.5,1.6-1.5,3-2.5,4.3c-6.9,9.3-13.9,18.7-20.8,28
				c13.2,13.9,26.4,27.8,39.6,41.7c3.2,3.4,6.5,6.9,8.8,11.1c1.7,3.1,2.7,6.6,3.7,10.1c3.9,16,9.4,31.8,14,47.6
				c4.6,15.7,9.3,31.3,13.8,47c0.2,0.6,0.4,1.3,0.8,1.7s1,0.5,1.6,0.7c9.5,2.4,18.9,4.8,28.4,7.1c1.5,0.4,3.1,0.8,4.7,0.8
				C542.3,647.1,542.4,647.1,542.5,647.1z"/>
			<polygon class="st5" points="566.9,624.4 542.5,614.1 518.1,624.4 518.1,626.8 542.5,616.4 566.9,626.8 			"/>
			<polygon class="st5" points="663.3,580.8 647.8,574.2 632.4,580.8 632.4,582.3 647.8,575.7 663.3,582.3 			"/>
			<polygon class="st5" points="428.9,542.4 380.9,524.9 404.9,556.6 			"/>
			<polygon class="st5" points="435.6,599.1 449.2,598.9 455.9,619.7 461.1,599.1 466.5,597.5 470,627.6 452.3,635.7 446.1,612.8 
				441,635.9 435.6,635.9 430.3,635.9 425.2,612.8 419,635.7 401.3,627.6 404.8,597.5 410.2,599.1 415.3,619.7 422,598.9 			"/>
			<path class="st5" d="M477.1,545.5c5.3,16.6,10.2,33.3,15.1,50.1c-1.4,2.2-2.8,4.5-3.9,6.9c-1.9,4.3-3,8.9-4,13.6
				c-1.3,5.8-2.6,11.5-3.9,17.3c-0.3,1.4-0.6,2.8-1.4,3.9c-0.7,1-1.8,1.6-2.8,2.1c-12.5,6.4-26.2,9.7-39.9,9.8
				c-13.5,0.1-27-2.8-39.4-8.8c-1.2-0.6-2.5-1.3-3.4-2.5c-0.8-1.2-1.2-2.7-1.5-4.1c-1.3-5.9-2.6-11.7-3.9-17.6
				c-1-4.6-2.1-9.3-4-13.6c-1.7-3.7-3.9-7-6.2-10.3c-8.9-13-17.8-26-26.8-39c4.2-7.3,8.4-14.6,12.6-21.9c1-1.7,2-3.5,2.5-5.4
				c0,0,0,0,0.1-0.5c0.5-2.7,0.4-5.5,0.2-8.3c-0.6-6.3-1.1-12.7-1.7-19c-0.5-5.8,0.6-12,1-17.8c1-12.8,2-25.5,3-38.3
				c0.2-2.1,0.5-4.4,0.5-6.5c14.1,19.6,28.2,47.9,42.2,67.5c0,0.1,0,0.1,0.1,0.1c10.2-3,20.8-4,31.3-3.3
				c7.1,7.4,14.1,14.9,21.2,22.3c3.1,3.3,6.3,6.6,8.5,10.7"/>
			<path class="st5" d="M477.1,545.5l-8.4,11.1l-24-14.2l27.5-10.1c0.1,0.1,0.2,0.3,0.3,0.4"/>
			<polygon class="st5" points="421.6,580.8 437.1,574.2 452.6,580.8 452.6,582.3 437.1,575.7 421.6,582.3 			"/>
		</g>
	</g>
</g>
<g id="Layer_6" class="st0">
	<g id="XMLID_4_" class="st1">
		<g>
			<path class="st11" d="M664,172.3l-35.2,15l20,7.7L664,172.3z M591.3,179.8c-0.3,0.5-0.6,1-0.9,1.6c-1.5,2.8-2.4,5.9-3.3,8.9
				c-0.1,0.5-0.3,1.1-0.4,1.6l2,3.1l20-7.7L591.3,179.8z M618.8,264.2l15.1,6.4v-1.5l-15.1-6.4l-15,6.4v1.5L618.8,264.2z
				 M579.2,217.2c2.8-8.9,5.6-17.8,7.7-26.9c0.9-3,1.8-6.1,3.3-8.9c2-3.7,4.9-6.8,7.8-9.9c11.7-12.3,23.4-24.6,35.1-36.9
				c-2-2.6-3.9-5.3-5.9-7.9c4.2,0.5,8.3,1.3,12.5,1.9c1.4,0.2,2.9,0.4,4.2-0.2c0.9-0.4,1.6-1.1,2.4-1.8
				c10.2-9.9,20.4-19.8,30.7-29.7c1,12.3,2,24.7,3,37c0.5,5.6,0.9,11.5-1.5,16.6c-1.3,2.9-3.6,5.9-2.6,9c0.3,1,0.9,1.8,1.6,2.7
				c4.3,5.8,8.6,11.5,12.9,17.3c-8.1,8.6-16.3,17.1-24.4,25.7c-2,2.1-4,4.3-5.4,6.9c-1,1.9-1.7,4.1-2.3,6.2
				c-2.4,9.9-5.8,19.6-8.7,29.4c-2.9,9.7-5.8,19.3-8.5,29c-0.1,0.4-0.2,0.8-0.5,1.1s-0.6,0.3-1,0.4c-5.8,1.5-11.7,2.9-17.5,4.4
				c-0.9,0.2-1.9,0.5-2.9,0.5c-0.1,0-0.1,0-0.2,0c-1.1,0-2.2-0.3-3.3-0.6c-5.7-1.4-11.4-2.9-17.1-4.3c-0.5-0.1-1-0.3-1.3-0.6
				c-0.2-0.3-0.3-0.6-0.4-0.9c-5.6-19.5-11-39.1-17.2-58.4C579.4,218,579.3,217.6,579.2,217.2z"/>
			<path class="st11" d="M593,124l-50.5,21.5l28.8,11.1L593,124z M463.2,124l21.7,32.7l28.8-11.1L463.2,124z M528.1,254l-21.6,9.2
				v2.1l21.6-9.2l21.6,9.2v-2.1L528.1,254z M440.4,69c1.4-17.7,2.9-35.5,4.3-53.2c14.7,14.2,29.4,28.4,44,42.6c1,1,2.1,2,3.4,2.6
				c1.9,0.8,4,0.5,6,0.3c10.1-1.4,20.2-3.6,30.4-3.4c9.9,0.2,19.9,2.1,29.5,3.4c2,0.3,4.1,0.5,6-0.3c1.3-0.5,2.3-1.6,3.4-2.6
				c14.7-14.2,29.4-28.4,44-42.6c1.4,17.7,2.9,35.5,4.3,53.2c0.6,8,1.2,16.5-2.1,23.9c-1.9,4.2-5.1,8.5-3.7,12.9
				c0.5,1.4,1.4,2.7,2.2,3.8c6.2,8.3,12.3,16.5,18.5,24.8c-11.7,12.3-23.4,24.6-35.1,36.9c-2.9,3-5.8,6.1-7.8,9.9
				c-1.5,2.8-2.4,5.9-3.3,8.9c-8.9,27.7-16.6,55.9-24.7,83.9c-0.1,0.5-0.3,1-0.6,1.4c-0.5,0.5-1.2,0.7-1.8,0.9
				c-8.2,2.1-16.3,4.1-24.5,6.2c-1.6,0.4-3.2,0.8-4.8,0.8c-0.1,0-0.2,0-0.3,0c-1.4,0-2.8-0.4-4.1-0.7c-8.4-2.1-16.8-4.2-25.2-6.3
				c-0.5-0.1-1-0.3-1.4-0.6c-0.4-0.4-0.6-1-0.8-1.5c-4-13.9-8.2-27.8-12.2-41.7c-4.1-14-9-28-12.4-42.2c-0.9-3-1.8-6.1-3.3-8.9
				c-2-3.7-4.9-6.8-7.8-9.9c-11.7-12.3-23.4-24.6-35.1-36.9c6.1-8.3,12.3-16.5,18.5-24.8c0.9-1.2,1.8-2.4,2.2-3.8
				c1.4-4.4-1.8-8.7-3.7-12.9C439.1,85.5,439.7,77,440.4,69z"/>
			<path class="st11" d="M392.5,172.3l15.1,22.7l20.1-7.7L392.5,172.3z M437.7,264.2l15,6.4v-1.5l-15-6.4l-15.1,6.4v1.5L437.7,264.2
				z M469.8,192c-0.1-0.5-0.3-1.1-0.4-1.6c-0.9-3-1.8-6.1-3.3-8.9c-0.3-0.5-0.6-1.1-0.9-1.6l-17.4,7.4l20,7.7L469.8,192z
				 M458.5,171.6c2.9,3,5.8,6.1,7.8,9.9c1.5,2.8,2.4,5.9,3.3,8.9c2.2,9,4.9,18,7.7,26.9c-0.1,0.4-0.2,0.8-0.3,1.1
				c-6.2,19.3-11.6,38.9-17.2,58.4c-0.1,0.3-0.2,0.7-0.4,0.9c-0.3,0.4-0.8,0.5-1.3,0.6c-5.7,1.4-11.4,2.9-17.1,4.3
				c-1.1,0.3-2.2,0.5-3.3,0.6c-0.1,0-0.1,0-0.2,0c-1,0-1.9-0.3-2.9-0.5c-5.8-1.5-11.7-2.9-17.5-4.4c-0.4-0.1-0.7-0.2-1-0.4
				c-0.3-0.3-0.4-0.7-0.5-1.1c-2.8-9.7-5.7-19.4-8.5-29c-2.9-9.8-6.3-19.5-8.7-29.4c-0.6-2.1-1.3-4.3-2.3-6.2
				c-1.4-2.6-3.4-4.7-5.4-6.9c-8.1-8.6-16.3-17.1-24.4-25.7c4.3-5.8,8.6-11.5,12.9-17.3c0.6-0.8,1.2-1.7,1.6-2.7
				c1-3.1-1.3-6.1-2.6-9c-2.3-5.1-1.9-11-1.5-16.6c1-12.3,2-24.7,3-37c10.2,9.9,20.4,19.8,30.7,29.7c0.7,0.7,1.5,1.4,2.4,1.8
				c1.3,0.6,2.8,0.4,4.2,0.2c4.1-0.6,8.3-1.4,12.5-1.9c-2,2.6-3.9,5.3-5.9,7.9C435.1,146.9,446.8,159.3,458.5,171.6z"/>
		</g>
		<g>
			<polygon class="st7" points="513.7,145.5 463.2,124 485,156.6 			"/>
			<polygon class="st7" points="542.5,145.5 593,124 571.3,156.6 			"/>
			<path class="st7" d="M528.1,283.3c1.6,0,3.2-0.4,4.8-0.8c8.2-2.1,16.3-4.1,24.5-6.2c0.7-0.2,1.4-0.4,1.8-0.9
				c0.3-0.4,0.5-0.9,0.6-1.4c8.1-28,15.8-56.2,24.7-83.9c0.9-3,1.8-6.1,3.3-8.9c2-3.7,4.9-6.8,7.8-9.9
				c11.7-12.3,23.4-24.6,35.1-36.9c-6.2-8.3-12.3-16.5-18.5-24.8c-0.9-1.2-1.8-2.4-2.2-3.8c-1.4-4.4,1.8-8.7,3.7-12.9
				c3.3-7.3,2.7-15.8,2.1-23.9c-1.4-17.7-2.9-35.5-4.3-53.2c-14.7,14.2-29.4,28.4-44,42.6c-1,1-2.1,2-3.4,2.6c-1.9,0.8-4,0.5-6,0.3
				c-9.6-1.4-19.6-3.2-29.5-3.4c-10.2-0.2-20.3,2-30.4,3.4c-2,0.3-4.1,0.5-6-0.3c-1.3-0.5-2.4-1.6-3.4-2.6
				c-14.7-14.2-29.4-28.4-44-42.6c-1.4,17.7-2.9,35.5-4.3,53.2c-0.7,8-1.2,16.5,2.1,23.9c1.9,4.2,5.1,8.5,3.7,12.9
				c-0.5,1.4-1.4,2.7-2.2,3.8c-6.2,8.3-12.3,16.5-18.5,24.8c11.7,12.3,23.4,24.6,35.1,36.9c2.9,3,5.8,6.1,7.8,9.9
				c1.5,2.8,2.4,5.9,3.3,8.9c3.4,14.2,8.3,28.2,12.4,42.2c4.1,13.9,8.3,27.8,12.2,41.7c0.2,0.6,0.3,1.1,0.8,1.5
				c0.4,0.4,0.9,0.5,1.4,0.6c8.4,2.1,16.8,4.2,25.2,6.3c1.4,0.3,2.7,0.7,4.1,0.7C527.9,283.3,528,283.3,528.1,283.3z"/>
			<polygon class="st2" points="549.7,263.1 528.1,254 506.5,263.1 506.5,265.2 528.1,256 549.7,265.2 			"/>
			<polygon class="st7" points="427.7,187.3 392.5,172.3 407.6,195 			"/>
			<polygon class="st2" points="452.7,269.2 437.7,262.8 422.6,269.2 422.6,270.6 437.7,264.2 452.7,270.6 			"/>
			<path class="st7" d="M469.6,190.3c-0.9-3-1.8-6.1-3.3-8.9c-2-3.7-4.9-6.8-7.8-9.9c-11.7-12.3-23.4-24.6-35.1-36.9
				c2-2.6,3.9-5.3,5.9-7.9c-4.2,0.5-8.4,1.3-12.5,1.9c-1.4,0.2-2.9,0.4-4.2-0.2c-0.9-0.4-1.6-1.1-2.4-1.8
				c-10.2-9.9-20.4-19.8-30.7-29.7c-1,12.3-2,24.7-3,37c-0.5,5.6-0.9,11.5,1.5,16.6c1.3,2.9,3.6,5.9,2.6,9c-0.3,1-0.9,1.8-1.6,2.7
				c-4.3,5.8-8.6,11.5-12.9,17.3c8.1,8.6,16.3,17.1,24.4,25.7c2,2.1,4,4.3,5.4,6.9c1,1.9,1.7,4.1,2.3,6.2c2.4,9.9,5.8,19.6,8.7,29.4
				c2.9,9.7,5.8,19.3,8.5,29c0.1,0.4,0.2,0.8,0.5,1.1s0.6,0.3,1,0.4c5.8,1.5,11.7,2.9,17.5,4.4c0.9,0.2,1.9,0.5,2.9,0.5
				c0.1,0,0.1,0,0.2,0c1.1,0,2.2-0.3,3.3-0.6c5.7-1.4,11.4-2.9,17.1-4.3c0.5-0.1,1-0.3,1.3-0.6c0.2-0.3,0.3-0.6,0.4-0.9
				c5.6-19.5,11-39.1,17.2-58.4c0.1-0.4,0.2-0.8,0.3-1.1C474.5,208.3,471.8,199.4,469.6,190.3z"/>
			<path class="st7" d="M469.4,190.3c-0.9-3-1.8-6.1-3.3-8.9c-0.3-0.5-0.6-1.1-0.9-1.6l-17.4,7.4l20,7.7l2-3.1
				C469.6,191.4,469.5,190.9,469.4,190.3z"/>
			<polygon class="st7" points="628.8,187.3 664,172.3 648.8,195 			"/>
			<polygon class="st2" points="603.7,269.2 618.8,262.8 633.8,269.2 633.8,270.6 618.8,264.2 603.7,270.6 			"/>
			<path class="st7" d="M586.9,190.3c0.9-3,1.8-6.1,3.3-8.9c2-3.7,4.9-6.8,7.8-9.9c11.7-12.3,23.4-24.6,35.1-36.9
				c-2-2.6-3.9-5.3-5.9-7.9c4.2,0.5,8.3,1.3,12.5,1.9c1.4,0.2,2.9,0.4,4.2-0.2c0.9-0.4,1.6-1.1,2.4-1.8
				c10.2-9.9,20.4-19.8,30.7-29.7c1,12.3,2,24.7,3,37c0.5,5.6,0.9,11.5-1.5,16.6c-1.3,2.9-3.6,5.9-2.6,9c0.3,1,0.9,1.8,1.6,2.7
				c4.3,5.8,8.6,11.5,12.9,17.3c-8.1,8.6-16.3,17.1-24.4,25.7c-2,2.1-4,4.3-5.4,6.9c-1,1.9-1.7,4.1-2.3,6.2
				c-2.4,9.9-5.8,19.6-8.7,29.4c-2.9,9.7-5.8,19.3-8.5,29c-0.1,0.4-0.2,0.8-0.5,1.1s-0.6,0.3-1,0.4c-5.8,1.5-11.7,2.9-17.5,4.4
				c-0.9,0.2-1.9,0.5-2.9,0.5c-0.1,0-0.1,0-0.2,0c-1.1,0-2.2-0.3-3.3-0.6c-5.7-1.4-11.4-2.9-17.1-4.3c-0.5-0.1-1-0.3-1.3-0.6
				c-0.2-0.3-0.3-0.6-0.4-0.9c-5.6-19.5-11-39.1-17.2-58.4c-0.1-0.4-0.2-0.8-0.4-1.1C581.9,208.3,584.7,199.4,586.9,190.3z"/>
			<path class="st7" d="M587.1,190.3c0.9-3,1.8-6.1,3.3-8.9c0.3-0.5,0.6-1.1,0.9-1.6l17.4,7.4l-20,7.7l-2-3.1
				C586.8,191.4,587,190.9,587.1,190.3z"/>
		</g>
	</g>
</g>
<g id="The_Ian_Colored">
	<g id="XMLID_10_">
		<g>
			<path class="st8" d="M198,99.7c6.5,8.8,13,17.5,19.6,26.3c-12.4,13.1-24.8,26.1-37.2,39.2c-3.1,3.2-6.2,6.5-8.3,10.4
				c-1.6,3-2.5,6.2-3.5,9.5c-9.4,29.3-17.6,59.3-26.1,88.9c-0.2,0.5-0.3,1.1-0.6,1.5c-0.5,0.6-1.2,0.8-1.9,0.9
				c-8.6,2.2-17.3,4.4-26,6.6c-1.7,0.4-3.4,0.8-5.1,0.9c-0.1,0-0.2,0-0.3,0c-1.5,0-2.9-0.4-4.4-0.8c-8.9-2.2-17.8-4.5-26.7-6.7
				c-0.5-0.1-1.1-0.3-1.5-0.6c-0.4-0.4-0.6-1-0.8-1.6c-4.2-14.8-8.6-29.5-13-44.2c-4.4-14.8-9.5-29.7-13.2-44.7
				c-1-3.2-1.9-6.5-3.5-9.5c-2.1-4-5.2-7.2-8.3-10.4C24.8,152.3,12.4,139.3,0,126.2c6.5-8.8,13.1-17.5,19.6-26.3
				c0.9-1.3,1.9-2.6,2.4-4.1c1.5-4.7-1.9-9.3-3.9-13.7c-3.5-7.8-2.9-16.8-2.2-25.3C17.4,38,19,19.2,20.5,0.4
				c15.6,15.1,31.1,30.1,46.7,45.2c1.1,1.1,2.2,2.1,3.6,2.7c2,0.8,4.3,0.6,6.4,0.3c10.7-1.5,21.4-3.9,32.2-3.6
				c10.5,0.2,21.1,2.2,31.3,3.6c2.1,0.3,4.4,0.6,6.4-0.3c1.4-0.6,2.5-1.7,3.6-2.7c15.6-15.1,31.1-30.1,46.7-45.2
				c1.5,18.8,3.1,37.6,4.6,56.4c0.7,8.5,1.3,17.5-2.2,25.3c-2,4.4-5.4,9-4,13.7C196.1,97.1,197.1,98.4,198,99.7z M154.6,149.5
				l23-34.6L124,137.7L154.6,149.5z M131.7,264.6v-2.2l-22.9-9.7l-22.9,9.7v2.2l22.9-9.7L131.7,264.6z M63.1,149.5l30.5-11.8
				L40,114.9L63.1,149.5z"/>
		</g>
		<g>
			<polygon class="st7" points="93.6,137.7 40,114.9 63.1,149.5 			"/>
			<polygon class="st7" points="124,137.7 177.6,114.9 154.6,149.5 			"/>
			<path class="st7" d="M108.8,283.7c1.7,0,3.4-0.4,5.1-0.9c8.7-2.2,17.3-4.4,26-6.6c0.7-0.2,1.5-0.4,1.9-0.9
				c0.3-0.4,0.5-0.9,0.6-1.5c8.5-29.6,16.7-59.5,26.1-88.9c1-3.2,1.9-6.5,3.5-9.5c2.1-4,5.2-7.2,8.3-10.4
				c12.4-13.1,24.8-26.1,37.2-39.2c-6.5-8.8-13-17.5-19.6-26.3c-0.9-1.3-1.9-2.6-2.4-4.1c-1.5-4.7,1.9-9.3,4-13.7
				c3.5-7.8,2.9-16.8,2.2-25.3c-1.5-18.8-3.1-37.6-4.6-56.4c-15.6,15.1-31.1,30.1-46.7,45.2c-1.1,1.1-2.2,2.1-3.6,2.7
				c-2,0.8-4.2,0.6-6.4,0.3c-10.2-1.4-20.8-3.4-31.3-3.6c-10.8-0.2-21.6,2.1-32.2,3.6c-2.1,0.3-4.4,0.6-6.4-0.3
				c-1.4-0.6-2.5-1.7-3.6-2.7C51.3,30.1,35.8,15.1,20.2,0c-1.5,18.8-3.1,37.6-4.6,56.4c-0.7,8.5-1.3,17.5,2.2,25.3
				c2,4.4,5.4,9,3.9,13.7c-0.5,1.5-1.4,2.8-2.4,4.1c-6.5,8.8-13,17.5-19.6,26.3c12.4,13.1,24.8,26.1,37.2,39.2
				c3.1,3.2,6.2,6.5,8.3,10.4c1.6,3,2.5,6.2,3.5,9.5c3.6,15.1,8.8,29.9,13.2,44.7c4.4,14.7,8.8,29.5,13,44.2
				c0.2,0.6,0.4,1.2,0.8,1.6c0.4,0.4,0.9,0.5,1.5,0.6c8.9,2.2,17.8,4.5,26.7,6.7c1.4,0.4,2.9,0.7,4.4,0.8
				C108.6,283.7,108.7,283.7,108.8,283.7z"/>
			<polygon class="st2" points="131.7,262.4 108.8,252.7 85.9,262.4 85.9,264.6 108.8,254.9 131.7,264.6 			"/>
		</g>
	</g>
</g>
<g id="Layer_10" class="st0">
	<g id="XMLID_6_" class="st1">
		<g>
			<path class="st9" d="M-141.4,107.9c0,0.1,0,0.2,0,0.3c-0.2,2.1-0.4,4.2-0.6,6.3c-0.1,0.6-0.1,1.1-0.3,1.6s-0.5,1-0.7,1.5
				c-0.7,1.2-1.5,2.5-2.2,3.7c-0.2,0.3-1.2,2.5-1.5,2.6c-0.6,0.1-1.2,0.1-1.8,0.2l-4.9,10.3l-4-9.3c-0.7,0.1-1.4,0.2-2.2,0.3
				c-0.9,3.1-3,10.1-3.2,10s-2.9-6-4.3-9.1c-0.7,0.1-1.3,0.2-2,0.2l-2.8,9.4l-4.7-8.5c-0.4,0-0.8,0.1-1.2,0.1l-3.3,8.3l-5.1-7.4
				c-0.5,0.1-1,0.1-1.6,0.2l-3.6,7.2l-3.8-6.3c-4.2,0.5-8.4,1-12.6,1.5c-0.1,0-0.2,0-0.3,0.1s-0.1,0.2-0.1,0.4c0,3.7-0.1,7.4-0.1,11
				c0,0.1,0,0.3,0.1,0.4s0.2,0.1,0.3,0.1c3.5,0.5,6.9,1.1,10.4,1.6l3.2-6.4l3,7.4c0.9,0.1,1.7,0.3,2.6,0.4l3-7.8l4.1,8.9
				c0.8,0.1,1.6,0.2,2.4,0.4l2.7-9.3l3.7,10.3c0.6,0.1,1.2,0.2,1.9,0.3l3.3-10l3.4,10.9c0.5,0.1,1,0.1,1.5,0.2l4.7-10.2l2.9,11.4
				c0.2,0,0.4,0.1,0.6,0.1c0.3,0.1,0.5,0.1,0.7,0.3c0.1,0.2,0.2,0.4,0.2,0.6c0.9,3.9,0.8,7.9-0.1,11.7c0,0.2-0.1,0.3-0.2,0.4
				c-0.1,0.1-0.3,0.1-0.5,0.1c-12.4,0.2-24.8,0.4-37.2,0.6c-6.6,0.1-13.2,0.1-19.8,0.1c-9.9,0-19.7,2.7-29.2,5.1
				c-6,1.5-12,3.1-18,4.6c-1.5,0.4-2.9,0.8-4.3,1.3c-0.9,0.4-1.8,0.9-2.7,1.4c-3.4,2.2-7.4,4.6-10.3,7.3c-0.8,0.7-1.6,1.6-2.7,2.8
				c-4.2-6.4-8.1-12.4-11.6-17.7c-1-1.5-4.9-5-7.9-7.9c-8.7-8.4-4.8-5-9-8.7c-3.7-3.2-7.4-6.4-11.2-9.6c-4.8-4-9.6-8-14.4-12
				c0.1-0.2-5.3-4.3-5.9-4.9c-2.9-2.9-5.1-6.6-7.3-10.3c8-7.8,4.4-4.6,8.5-8.2c3.7-3.2,7.4-6.4,11.2-9.6c4.8-4,9.6-8,14.4-12
				c-0.1-0.2,5.3-4.3,5.9-4.9c4.5-4.5,7.5-11,10.8-16.4c3.5-5.6,7-11.2,10.5-16.8c4.4-7,8.8-14.1,13.2-21.1l8.5,49.2l46.9,8.7
				l2.1,8.4c0.6,0.1,1.2,0.3,1.8,0.4c5.4,1.1,10.8,2.3,16.2,3.4c7.4,1.6,14.8,3.1,22.2,4.7c3.1,0.6,6.2,1.3,9.3,2
				c1.2,0.2,2.3,0.5,3.5,0.7c1,0.2,2.7,0.9,3.7,0.6c0.5-0.2,0.9-0.5,1.4-0.8c0.6-0.4,1.2-0.9,1.8-1.4c0.2-0.1,0.4-0.2,0.6-0.3
				c0.2,0,0.4,0.1,0.6,0.1c3.6,1.5,7.2,3,10.8,4.6C-141.5,107.8-141.4,107.8-141.4,107.9z M-244.7,110.1l18.8-10.9l-37.7-7.5
				L-244.7,110.1z M-267.8,173l2-1l-0.8-0.7l-24.3-24.2l10.2-25.7h-2l-10.5,26.2l24.2,24.2L-267.8,173z"/>
			<path class="st9" d="M-242.7,248.4c-0.4-0.7-46.4,9.4-49.3,10.7c-8.5,3.6-18.2,5.1-26.7,8.7c-3.7,1.7-14.8,4.5-18.5,6.3
				c-0.1,0.1-0.3,0.1-0.5,0.1c0,0,0,0-0.1,0s-0.2-0.1-0.3-0.2c-6.1-5.8-6.4-13.9-10.9-21.6c-3.6-6.2-9.3-10.8-14.5-15.7
				c-3.4-3.2-5-5.2-6.6-6.6c-2.9-2.7-6.9-5.1-10.3-7.3c-0.9-0.5-1.7-1-2.7-1.4c-1.4-0.6-2.9-1-4.3-1.3c-6-1.5-12-3.1-18-4.6
				c-9.5-2.4-19.3-5.1-29.2-5.1c-6.6,0-13.2,0-19.8-0.1c-12.4-0.1-24.8-0.4-37.1-0.5c-0.2,0-0.4,0-0.5-0.1s-0.2-0.3-0.2-0.4
				c-0.9-3.8-0.9-7.9-0.1-11.7c0-0.2,0.1-0.4,0.3-0.6c0.2-0.2,0.5-0.3,0.7-0.3s0.4-0.1,0.6-0.1l2.9-11.4l4.7,10.2
				c0.5-0.1,1-0.1,1.5-0.2l3.4-10.9l3.3,10c0.6-0.1,1.2-0.2,1.9-0.3l3.7-10.3l2.7,9.3c0.8-0.1,1.6-0.2,2.4-0.4l4.1-8.9l3,7.8
				c0.9-0.1,1.7-0.3,2.6-0.4l3-7.4l3.2,6.5c3.4-0.5,6.9-1.1,10.3-1.6c0.1,0,0.3-0.1,0.3-0.1c0.1-0.1,0.1-0.2,0.1-0.4
				c0-3.7-0.1-7.4-0.1-11.1c0-0.1,0-0.3-0.1-0.4s-0.2-0.1-0.3-0.1c-4.2-0.5-8.4-1-12.6-1.5l-3.8,6.3l-3.6-7.2
				c-0.5-0.1-1.1-0.1-1.6-0.2l-5.1,7.4l-3.3-8.4c-0.4,0-0.8-0.1-1.2-0.1l-4.7,8.5l-2.8-9.4c-0.7-0.1-1.4-0.2-2-0.2
				c-1.4,3.1-4.1,9-4.3,9.1c-0.2,0.1-2.3-6.9-3.2-10c-0.7-0.1-1.4-0.2-2.1-0.2l-4,9.3l-4.9-10.3c-0.6-0.1-1.2-0.1-1.8-0.2
				c-0.3,0-1.3-2.3-1.5-2.6c-0.7-1.2-1.5-2.5-2.2-3.7c-0.3-0.5-0.6-1-0.7-1.5c-0.2-0.5-0.2-1.1-0.3-1.6c-0.2-2.1-0.4-4.2-0.6-6.3
				c0-0.1,0-0.2,0-0.3c0.1-0.1,0.1-0.1,0.2-0.1c3.6-1.5,7.2-3,10.8-4.6c0.2-0.1,0.4-0.2,0.6-0.1c0.2,0,0.4,0.1,0.6,0.3
				c0.6,0.5,1.2,0.9,1.9,1.3c0.4,0.3,0.9,0.6,1.4,0.8c1,0.3,2.6-0.4,3.6-0.6c1.1-0.2,2.3-0.5,3.5-0.7c3.1-0.7,6.2-1.3,9.3-2
				c7.4-1.6,14.8-3.1,22.2-4.7c5.4-1.1,10.8-2.3,16.1-3.4c0.6-0.1,1.2-0.2,1.8-0.4l2.1-8.4l46.9-8.7l8.5-49.2
				c4.4,7,8.8,14.1,13.2,21.1c3.5,5.6,7,11.2,10.5,16.9c3.4,5.4,6.3,11.9,10.8,16.4c0.6,0.6,6,4.7,5.9,4.9c4.8,4,9.6,8,14.4,12
				c3.8,3.1,7.5,6.4,11.2,9.6c4.3,3.7,0.3,0.3,9,8.7c3,2.9,6.9,6.4,7.9,7.9C-277.6,191.6-255.2,225.6-242.7,248.4z M-351.4,193.7
				l-10.5-26.2h-2l10.2,25.7l-24.4,24.1l-0.8,0.7l2,1l1.2-1.1L-351.4,193.7z M-399.9,156.1l18.9-18.3l-37.7,7.5L-399.9,156.1z"/>
			<path class="st9" d="M-304.6,77.8c-0.7,0.9-1.4,1.8-2.2,2.5c-0.6,0.6-6,4.7-5.9,4.9c-4.8,4-9.6,8-14.4,12
				c-3.8,3.2-7.5,6.4-11.2,9.6c-4.2,3.6-0.5,0.4-8.5,8.2l-28.4-45.5l-9.4,50.6l-32.6,6c-8.8-2.2-17.8-4.5-26.8-4.6
				c-6.6,0-13.2,0-19.8-0.1c-12.4-0.1-24.8-0.4-37.1-0.5c-0.2,0-0.4,0-0.5-0.1s-0.2-0.3-0.2-0.4c-0.9-3.8-0.9-7.9-0.1-11.7
				c0.1-0.2,0.1-0.4,0.2-0.6c0.2-0.2,0.5-0.3,0.7-0.3s0.4-0.1,0.6-0.1l2.9-11.4l4.7,10.2c0.5-0.1,1-0.1,1.5-0.2l3.4-10.9l3.3,10
				c0.6-0.1,1.2-0.2,1.9-0.3l3.7-10.3l2.7,9.3c0.8-0.1,1.6-0.2,2.4-0.4l4.1-8.9l3,7.8c0.8-0.1,1.7-0.3,2.6-0.4l3-7.4l3.2,6.4
				c3.5-0.5,6.9-1.1,10.4-1.6c0.1,0,0.3,0,0.3-0.1c0.1-0.1,0.1-0.2,0.1-0.4c0-3.7-0.1-7.4-0.1-11c0-0.1,0-0.3-0.1-0.4
				s-0.2-0.1-0.3-0.1c-4.2-0.5-8.4-1-12.6-1.5l-3.8,6.3l-3.6-7.2c-0.5-0.1-1-0.1-1.6-0.2l-5.1,7.4l-3.3-8.4c-0.4,0-0.8-0.1-1.2-0.1
				l-4.7,8.5l-2.8-9.4c-0.7-0.1-1.3-0.2-2-0.2c-1.4,3.1-4.1,9-4.3,9.1c-0.2,0.1-2.3-6.9-3.2-10c-0.7-0.1-1.4-0.2-2.1-0.2l-4,9.3
				l-4.9-10.3c-0.6-0.1-1.2-0.2-1.8-0.2c-0.3,0-1.3-2.3-1.5-2.6c-0.7-1.2-1.5-2.5-2.2-3.7c-0.3-0.5-0.6-1-0.7-1.5
				c-0.2-0.5-0.2-1.1-0.3-1.6c-0.2-2.1-0.4-4.2-0.6-6.3c0-0.1,0-0.2,0-0.3c0-0.1,0.1-0.1,0.2-0.1c3.6-1.5,7.2-3,10.9-4.6
				c0.2-0.1,0.4-0.2,0.6-0.1c0.2,0,0.4,0.1,0.6,0.3c0.6,0.5,1.2,0.9,1.9,1.3c0.4,0.3,0.9,0.6,1.4,0.8c1,0.3,2.6-0.4,3.7-0.6
				s2.3-0.5,3.4-0.7c3.1-0.7,6.2-1.3,9.3-2c7.4-1.6,14.8-3.1,22.2-4.7c5.4-1.1,10.8-2.3,16.2-3.4c0.6-0.1,1.2-0.2,1.8-0.4l2.1-8.4
				l46.9-8.7l8.5-49.2c4.4,7,8.8,14.1,13.2,21.1c3.5,5.6,7,11.2,10.5,16.8c3.4,5.4,6.3,11.9,10.8,16.4c0.6,0.6,6,4.7,5.9,4.9
				c4.8,4,9.6,8,14.4,12c3.8,3.1,7.5,6.4,11.2,9.6c4.3,3.7,0.3,0.3,9.1,8.7C-307.6,75-306,76.5-304.6,77.8z M-411.7,65.8l18.9-18.4
				l-37.7,7.5L-411.7,65.8z"/>
		</g>
		<g>
			<polygon class="st2" points="-430.5,54.9 -392.8,47.4 -411.7,65.8 			"/>
			<path class="st2" d="M-346.7,115.1c8-7.8,4.4-4.6,8.5-8.2c3.7-3.2,7.4-6.4,11.2-9.6c4.8-4,9.6-8,14.4-12
				c-0.1-0.2,5.3-4.3,5.9-4.9c0.8-0.8,1.5-1.6,2.2-2.5c-1.4-1.4-3-2.9-4.4-4.2c-8.7-8.4-4.8-5-9.1-8.7c-3.7-3.2-7.4-6.4-11.2-9.6
				c-4.8-4-9.6-8-14.4-12c0.1-0.2-5.3-4.3-5.9-4.9c-4.5-4.5-7.5-11-10.8-16.4c-3.5-5.6-7-11.2-10.5-16.8c-4.4-7-8.8-14.1-13.2-21.1
				l-8.5,49.2l-46.9,8.7l-2.1,8.4c-0.6,0.1-1.2,0.2-1.8,0.4c-5.4,1.1-10.8,2.3-16.2,3.4c-7.4,1.6-14.8,3.1-22.2,4.7
				c-3.1,0.7-6.2,1.3-9.3,2c-1.1,0.2-2.3,0.5-3.4,0.7c-1,0.2-2.7,0.9-3.7,0.6c-0.5-0.2-0.9-0.5-1.4-0.8c-0.6-0.4-1.2-0.9-1.9-1.3
				c-0.2-0.1-0.4-0.3-0.6-0.3s-0.4,0.1-0.6,0.1c-3.6,1.5-7.2,3-10.9,4.6c-0.1,0-0.2,0.1-0.2,0.1c-0.1,0.1,0,0.2,0,0.3
				c0.2,2.1,0.4,4.2,0.6,6.3c0,0.6,0.1,1.1,0.3,1.6c0.2,0.5,0.5,1,0.7,1.5c0.7,1.2,1.5,2.5,2.2,3.7c0.2,0.3,1.2,2.5,1.5,2.6
				c0.6,0.1,1.2,0.1,1.8,0.2l4.9,10.3l4-9.3c0.7,0.1,1.4,0.2,2.1,0.2c0.9,3.1,3,10.1,3.2,10s2.9-6,4.3-9.1c0.7,0.1,1.3,0.2,2,0.2
				l2.8,9.4l4.7-8.5c0.4,0,0.8,0.1,1.2,0.1l3.3,8.4l5.1-7.4c0.5,0.1,1,0.1,1.6,0.2l3.6,7.2l3.8-6.3c4.2,0.5,8.4,1,12.6,1.5
				c0.1,0,0.2,0,0.3,0.1c0.1,0.1,0.1,0.2,0.1,0.4c0,3.7,0.1,7.4,0.1,11c0,0.1,0,0.3-0.1,0.4s-0.2,0.1-0.3,0.1
				c-3.5,0.5-6.9,1.1-10.4,1.6l-3.2-6.4l-3,7.4c-0.9,0.1-1.7,0.3-2.6,0.4l-3-7.8l-4.1,8.9c-0.8,0.1-1.6,0.2-2.4,0.4l-2.7-9.3
				l-3.7,10.3c-0.6,0.1-1.2,0.2-1.9,0.3l-3.3-10l-3.4,10.9c-0.5,0.1-1,0.1-1.5,0.2l-4.7-10.2l-2.9,11.4c-0.2,0-0.4,0.1-0.6,0.1
				c-0.3,0-0.5,0.1-0.7,0.3c-0.1,0.2-0.2,0.4-0.2,0.6c-0.9,3.8-0.8,7.9,0.1,11.7c0,0.1,0.1,0.3,0.2,0.4s0.3,0.1,0.5,0.1
				c12.4,0.2,24.8,0.4,37.1,0.5c6.6,0.1,13.2,0.1,19.8,0.1c9.1,0,18.1,2.3,26.8,4.6l32.6-6l9.4-50.6L-346.7,115.1z"/>
			<polygon class="st2" points="-418.7,145.2 -381,137.7 -399.9,156.1 			"/>
			<polygon class="st2" points="-378.1,217.3 -353.7,193.2 -363.9,167.5 -361.9,167.5 -351.4,193.7 -375.6,217.9 -376.8,219 
				-378.8,218 			"/>
			<polygon class="st2" points="-225.9,99.2 -263.6,91.7 -244.7,110.1 			"/>
			<polygon class="st2" points="-266.5,171.3 -290.8,147.1 -280.7,121.4 -282.6,121.4 -293.2,147.6 -269,171.8 -267.8,173 
				-265.8,172 			"/>
			<path class="st2" d="M-141.4,107.9c0-0.1-0.1-0.1-0.2-0.1c-3.6-1.5-7.2-3-10.8-4.6c-0.2-0.1-0.4-0.1-0.6-0.1
				c-0.2,0-0.4,0.1-0.6,0.3c-0.6,0.5-1.2,0.9-1.8,1.4c-0.4,0.3-0.9,0.6-1.4,0.8c-1,0.3-2.6-0.4-3.7-0.6c-1.2-0.2-2.3-0.5-3.5-0.7
				c-3.1-0.6-6.2-1.3-9.3-2c-7.4-1.6-14.8-3.1-22.2-4.7c-5.4-1.1-10.8-2.3-16.2-3.4c-0.6-0.1-1.2-0.2-1.8-0.4l-2.1-8.4l-46.9-8.7
				l-8.5-49.2c-4.4,7-8.8,14.1-13.2,21.1c-3.5,5.6-7,11.2-10.5,16.8c-3.4,5.4-6.3,11.9-10.8,16.4c-0.6,0.6-6,4.7-5.9,4.9
				c-4.8,4-9.6,8-14.4,12c-3.8,3.1-7.5,6.4-11.2,9.6c-4.2,3.6-0.5,0.4-8.5,8.2c2.1,3.7,4.4,7.4,7.3,10.3c0.6,0.6,6,4.7,5.9,4.9
				c4.8,4,9.6,8,14.4,12c3.8,3.1,7.5,6.4,11.2,9.6c4.3,3.7,0.3,0.3,9,8.7c3,2.9,6.9,6.4,7.9,7.9c3.5,5.3,7.4,11.3,11.6,17.7
				c1.1-1.1,1.9-2,2.7-2.8c2.9-2.7,6.9-5.1,10.3-7.3c0.9-0.6,1.7-1,2.7-1.4c1.4-0.6,2.9-1,4.3-1.3c6-1.5,12-3.1,18-4.6
				c9.5-2.4,19.3-5.1,29.2-5.1c6.6,0,13.2,0,19.8-0.1c12.4-0.1,24.8-0.4,37.2-0.6c0.2,0,0.4,0,0.5-0.1s0.2-0.3,0.2-0.4
				c0.9-3.8,0.9-7.9,0.1-11.7c-0.1-0.2-0.1-0.4-0.2-0.6c-0.2-0.2-0.5-0.3-0.7-0.3s-0.4-0.1-0.6-0.1l-2.9-11.4l-4.7,10.2
				c-0.5-0.1-1-0.1-1.5-0.2l-3.4-10.9l-3.3,10c-0.6-0.1-1.2-0.2-1.9-0.3l-3.7-10.3l-2.7,9.3c-0.8-0.1-1.6-0.2-2.4-0.4l-4.1-8.9
				l-3,7.8c-0.9-0.1-1.7-0.3-2.6-0.4l-3-7.4l-3.2,6.4c-3.5-0.5-6.9-1.1-10.4-1.6c-0.1,0-0.3,0-0.3-0.1c-0.1-0.1-0.1-0.2-0.1-0.4
				c0-3.7,0.1-7.4,0.1-11c0-0.1,0-0.3,0.1-0.4s0.2-0.1,0.3-0.1c4.2-0.5,8.4-1,12.6-1.5l3.8,6.3l3.6-7.2c0.5-0.1,1-0.1,1.6-0.2
				l5.1,7.4l3.3-8.3c0.4,0,0.8-0.1,1.2-0.1l4.7,8.5l2.8-9.4c0.7-0.1,1.3-0.2,2-0.2c1.4,3.1,4.1,9,4.3,9.1s2.3-6.9,3.2-10
				c0.7-0.1,1.4-0.2,2.2-0.3l4,9.3l4.9-10.3c0.6-0.1,1.2-0.1,1.8-0.2c0.4,0,1.3-2.3,1.5-2.6c0.7-1.2,1.5-2.5,2.2-3.7
				c0.3-0.5,0.6-1,0.7-1.5c0.2-0.5,0.2-1.1,0.3-1.6c0.2-2.1,0.4-4.2,0.6-6.3C-141.3,108.1-141.3,108-141.4,107.9z"/>
			<path class="st2" d="M-318.7,267.7c-3.7,1.7-14.8,4.5-18.5,6.3c-0.1,0.1-0.3,0.1-0.5,0.1c0,0,0,0-0.1,0s-0.2-0.1-0.3-0.2
				c-6.1-5.8-6.4-13.9-10.9-21.6c-3.6-6.2-9.3-10.8-14.5-15.7c-3.4-3.2-5-5.2-6.6-6.6c-2.9-2.7-6.9-5.1-10.3-7.3
				c-0.9-0.5-1.7-1-2.7-1.4c-1.4-0.6-2.9-1-4.3-1.3c-6-1.5-12-3.1-18-4.6c-9.5-2.4-19.3-5.1-29.2-5.1c-6.6,0-13.2,0-19.8-0.1
				c-12.4-0.1-24.8-0.4-37.1-0.5c-0.2,0-0.4,0-0.5-0.1s-0.2-0.3-0.2-0.4c-0.9-3.8-0.9-7.9-0.1-11.7c0-0.2,0.1-0.4,0.3-0.6
				c0.2-0.2,0.5-0.3,0.7-0.3s0.4-0.1,0.6-0.1l2.9-11.4l4.7,10.2c0.5-0.1,1-0.1,1.5-0.2l3.4-10.9l3.3,10c0.6-0.1,1.2-0.2,1.9-0.3
				l3.7-10.3l2.7,9.3c0.8-0.1,1.6-0.2,2.4-0.4l4.1-8.9l3,7.8c0.9-0.1,1.7-0.3,2.6-0.4l3-7.4l3.2,6.5c3.4-0.5,6.9-1.1,10.3-1.6
				c0.1,0,0.3-0.1,0.3-0.1c0.1-0.1,0.1-0.2,0.1-0.4c0-3.7-0.1-7.4-0.1-11.1c0-0.1,0-0.3-0.1-0.4s-0.2-0.1-0.3-0.1
				c-4.2-0.5-8.4-1-12.6-1.5l-3.8,6.3l-3.6-7.2c-0.5-0.1-1.1-0.1-1.6-0.2l-5.1,7.4l-3.3-8.4c-0.4,0-0.8-0.1-1.2-0.1l-4.7,8.5
				l-2.8-9.4c-0.7-0.1-1.4-0.2-2-0.2c-1.4,3.1-4.1,9-4.3,9.1c-0.2,0.1-2.3-6.9-3.2-10c-0.7-0.1-1.4-0.2-2.1-0.2l-4,9.3l-4.9-10.3
				c-0.6-0.1-1.2-0.1-1.8-0.2c-0.3,0-1.3-2.3-1.5-2.6c-0.7-1.2-1.5-2.5-2.2-3.7c-0.3-0.5-0.6-1-0.7-1.5c-0.2-0.5-0.2-1.1-0.3-1.6
				c-0.2-2.1-0.4-4.2-0.6-6.3c0-0.1,0-0.2,0-0.3c0.1-0.1,0.1-0.1,0.2-0.1c3.6-1.5,7.2-3,10.8-4.6c0.2-0.1,0.4-0.2,0.6-0.1
				c0.2,0,0.4,0.1,0.6,0.3c0.6,0.5,1.2,0.9,1.9,1.3c0.4,0.3,0.9,0.6,1.4,0.8c1,0.3,2.6-0.4,3.6-0.6c1.1-0.2,2.3-0.5,3.5-0.7
				c3.1-0.7,6.2-1.3,9.3-2c7.4-1.6,14.8-3.1,22.2-4.7c5.4-1.1,10.8-2.3,16.1-3.4c0.6-0.1,1.2-0.2,1.8-0.4l2.1-8.4l46.9-8.7l8.5-49.2
				c4.4,7,8.8,14.1,13.2,21.1c3.5,5.6,7,11.2,10.5,16.9c3.4,5.4,6.3,11.9,10.8,16.4c0.6,0.6,6,4.7,5.9,4.9c4.8,4,9.6,8,14.4,12
				c3.8,3.1,7.5,6.4,11.2,9.6c4.3,3.7,0.3,0.3,9,8.7c3,2.9,6.9,6.4,7.9,7.9c14.2,21.7,36.6,55.7,49,78.5
				c-0.4-0.7-46.4,9.4-49.3,10.7C-300.6,262.6-310.2,264.1-318.7,267.7z"/>
		</g>
	</g>
</g>
</svg>
