<svg xmlns="http://www.w3.org/2000/svg" viewBox="0 0 342 373.79"><defs><style>.cls-1{fill:#222;stroke:#222;stroke-miterlimit:10;stroke-width:11px;}</style></defs><title>copy</title><g id="Layer_2" data-name="Layer 2"><path class="cls-1" d="M447.73,170.69" transform="translate(-190 -77)"/><path class="cls-1" d="M475.92,147.78" transform="translate(-190 -77)"/><path class="cls-1" d="M565.73,121.69" transform="translate(-190 -77)"/><rect class="cls-1" x="52.53" y="193.74" width="135.31" height="14"/><rect class="cls-1" x="52.53" y="234.74" width="135.31" height="14"/><rect class="cls-1" x="52.53" y="274.74" width="135.31" height="14"/><rect class="cls-1" x="52.53" y="312.74" width="135.31" height="14"/><path class="cls-1" d="M384.35,186.11l-36.9-33.61h-152V365.27l.25,79.63,230.75.38V226.69Zm24.26,41.8-63.11.32V170.39l28.7,25.32Zm-198.91,203-.2-65.65V166.5h122v75.81l81-.42V431.26Z" transform="translate(-190 -77)"/></g><g id="Layer_1" data-name="Layer 1"><path class="cls-1" d="M390.92,197.78" transform="translate(-190 -77)"/><path class="cls-1" d="M311,295" transform="translate(-190 -77)"/><path class="cls-1" d="M297,295" transform="translate(-190 -77)"/><path class="cls-1" d="M484,116,446.69,82.5H295.5v43h14v-29h122V172l81-.42V361l-60-.17v14l74,.2V156.42ZM445.5,158V100.12l28.88,25.32,33.47,32.21Z" transform="translate(-190 -77)"/></g></svg>