<svg id="Eye_Closed" data-name="Eye Closed" xmlns="http://www.w3.org/2000/svg" viewBox="0 0 216.02 214"><title>eye_closed</title><path d="M365,320.56l97.73-100.07L414.9,172a54.28,54.28,0,0,0-9.53,30.64c0,17.52,8.44,33.2,21.76,43.81L411,262.82a97.68,97.68,0,0,1-12.07-6.8c-16.65-11.09-25.82-25.29-25.82-40s9.17-28.92,25.82-40a96.92,96.92,0,0,1,12.81-7.14l-9.63-9.75c-25.55,13.14-42,33.74-42,56.9,0,22.94,16.15,43.38,41.29,56.54l-41.41,43V321h5Z" transform="translate(-360 -107)"/><path d="M534.64,272.6C559.83,259.44,576,239,576,216c0-23.19-16.5-43.8-42.11-56.95l-9.63,9.75A97.05,97.05,0,0,1,537.2,176C553.85,187.09,563,201.3,563,216s-9.17,28.92-25.82,40A97.73,97.73,0,0,1,525,262.86l-16.19-16.4c13.3-10.6,21.73-26.28,21.73-43.78a54.28,54.28,0,0,0-9.51-30.6l-47.79,48.4L571,319.56V320h5v-5.44Z" transform="translate(-360 -107)"/><path d="M366.2,112,468,215.15,569.8,112h.2v-5h-5.2l-45.23,45.83a156.89,156.89,0,0,0-103.11,0L371.2,107H366v5Z" transform="translate(-360 -107)"/><path d="M510.27,268.64a145.52,145.52,0,0,1-84.5,0l-10.11,10.24a156.49,156.49,0,0,0,104.73,0Z" transform="translate(-360 -107)"/><path d="M496.14,254.33,468,225.83l-28.15,28.52a67.2,67.2,0,0,0,56.29,0Z" transform="translate(-360 -107)"/></svg>