<?xml version="1.0" encoding="utf-8"?>
<!-- Generator: Adobe Illustrator 19.1.0, SVG Export Plug-In . SVG Version: 6.00 Build 0)  -->
<svg version="1.1" id="Layer_1" xmlns="http://www.w3.org/2000/svg" xmlns:xlink="http://www.w3.org/1999/xlink" x="0px" y="0px"
	 viewBox="0 0 1024 1024" style="enable-background:new 0 0 1024 1024;" xml:space="preserve">
<style type="text/css">
	.st0{fill:none;stroke:#000000;stroke-width:128;stroke-miterlimit:10;}
	.st1{fill:none;stroke:#222222;stroke-width:128;stroke-miterlimit:10;}
	.st2{fill:#222222;}
</style>
<path class="st0" d="M717.4,300.2"/>
<path class="st1" d="M725,406.5L597.6,284c-38.7-37.2-38.7-98.1,0-135.3l47-45.1c38.7-37.2,102-37.2,140.7,0l127.4,122.5
	c38.7,37.2,38.7,98.1,0,135.3l-47,45.1C827,443.7,763.7,443.7,725,406.5z"/>
<g>
	<g>
		<path class="st2" d="M601.6,309.5c-5,4.8-10,9.6-15,14.4C573,337,559.4,350,545.8,363.1c-19.9,19.2-39.9,38.3-59.8,57.5
			c-24.3,23.4-48.7,46.8-73,70.2c-26.5,25.5-53.1,51-79.6,76.5c-26.5,25.4-53,50.9-79.4,76.3c-24.5,23.6-49.1,47.1-73.6,70.7
			c-20.3,19.5-40.7,39.1-61,58.6c-14,13.4-28,26.9-42,40.3c-5.5,5.3-11,10.6-16.5,15.9c-3.4,3.2-6.7,6.4-10.1,9.7
			c-12.3,11.8-19.8,30.8-19.8,47.7c0,16.6,7.4,36.3,19.8,47.7c12.9,11.8,29.8,20.6,47.7,19.8c18.1-0.8,34.5-7,47.7-19.8
			c6.7-6.4,13.4-12.8,20.1-19.3c12.1-11.7,24.3-23.3,36.4-35c18.9-18.2,37.8-36.3,56.7-54.5c23.7-22.8,47.4-45.5,71.1-68.3
			c26.3-25.3,52.6-50.5,78.9-75.8c26.6-25.6,53.3-51.2,79.9-76.7c25.1-24.1,50.2-48.2,75.2-72.3c21.3-20.4,42.6-40.9,63.8-61.3
			c15.3-14.7,30.7-29.5,46-44.2c7.3-7,14.6-13.9,21.8-20.9c0.3-0.3,0.6-0.6,1-0.9c12.3-11.8,19.8-30.8,19.8-47.7
			c0-16.6-7.4-36.3-19.8-47.7c-12.9-11.8-29.8-20.6-47.7-19.8C631.2,290.5,614.9,296.8,601.6,309.5L601.6,309.5z"/>
	</g>
</g>
<path class="st0" d="M218.8,779.5"/>
<path class="st0" d="M296.3,847.3"/>
<g>
	<g>
		<path class="st2" d="M296.5,920.1c-21.4-20.4-42.7-40.8-64.1-61.2c-3.1-2.9-6.2-5.9-9.3-8.8c0,24.7,0,49.5,0,74.2
			c14.9-14.4,29.8-28.8,44.7-43.3c21.1-20.4,42.2-40.8,63.2-61.1c5.8-5.6,11.7-11.3,17.5-16.9c-24.7,0-49.5,0-74.2,0
			c21.4,20.4,42.7,40.8,64.1,61.2c3.1,2.9,6.2,5.9,9.3,8.8c9.9,9.4,23.3,15.4,37.1,15.4c12.9,0,28.3-5.7,37.1-15.4
			c9.2-10,16-23.1,15.4-37.1c-0.6-13.7-5.2-27.4-15.4-37.1c-21.4-20.4-42.7-40.8-64.1-61.2c-3.1-2.9-6.2-5.9-9.3-8.8
			c-20.8-19.8-53.4-20.1-74.2,0c-13.4,13-26.8,25.9-40.3,38.9c-22.8,22.1-45.7,44.2-68.5,66.2c-5.6,5.4-11.1,10.8-16.7,16.1
			c-20.1,19.4-20.3,54.9,0,74.2c21.4,20.4,42.7,40.8,64.1,61.2c3.1,2.9,6.2,5.9,9.3,8.8c9.9,9.4,23.3,15.4,37.1,15.4
			c12.9,0,28.3-5.7,37.1-15.4c9.2-10,16-23.1,15.4-37.1C311.3,943.5,306.7,929.9,296.5,920.1L296.5,920.1z"/>
	</g>
</g>
</svg>
