<?xml version="1.0" encoding="utf-8"?>
<!-- Generator: Adobe Illustrator 19.2.1, SVG Export Plug-In . SVG Version: 6.00 Build 0)  -->
<svg version="1.1" id="Layer_1" xmlns="http://www.w3.org/2000/svg" xmlns:xlink="http://www.w3.org/1999/xlink" x="0px" y="0px"
	 viewBox="0 0 250.4 250.4" style="enable-background:new 0 0 250.4 250.4;" xml:space="preserve">
<style type="text/css">
	.st0{display:none;}
	.st1{display:inline;fill:#FFFFFF;stroke:#000000;stroke-miterlimit:10;}
	.st2{display:inline;fill:#FE0000;stroke:#000000;stroke-miterlimit:10;}
	.st3{display:inline;fill:#222222;stroke:#000000;stroke-linecap:round;stroke-linejoin:round;}
	.st4{fill:#222222;}
	.st5{display:inline;}
	.st6{fill:#222222;stroke:#000000;stroke-miterlimit:10;}
	.st7{display:inline;fill:#222222;stroke:#000000;stroke-miterlimit:10;}
	.st8{fill:#48BD1F;}
	.st9{fill:none;stroke:#000000;stroke-miterlimit:10;}
</style>
<g id="Background" class="st0">
</g>
<g id="Layer_1_1_" class="st0">
	<polygon class="st1" points="1054.7,-275.3 934.7,-275.3 934.7,-395.3 877.7,-395.3 877.7,-275.3 757.7,-275.3 757.7,-218.3 
		877.7,-218.3 877.7,-98.3 934.7,-98.3 934.7,-218.3 1054.7,-218.3 	"/>
	<rect x="1122.9" y="-254.4" class="st1" width="296.8" height="56.8"/>
	<rect x="1242.9" y="-374.4" class="st1" width="56.8" height="296.8"/>
</g>
<g id="Remove_Red" class="st0">
	<polygon class="st2" points="198.1,-372 113.2,-287.1 28.3,-372 -12,-331.7 72.9,-246.8 -12,-161.9 28.3,-121.6 113.2,-206.5 
		198.1,-121.6 238.4,-161.9 153.5,-246.8 238.4,-331.7 	"/>
</g>
<g id="Refresh_1" class="st0">
	<path class="st3" d="M-140.2,170.7c-11.6,47-53.7,81.3-104,81.5c-59.4,0.3-107.8-47.8-108.1-107.2s47.5-107.8,106.9-108.1
		c13.5-0.1,26.3,2.4,38.1,6.8l-18.8,42.5l109.5-17.4l-60.3-93.1L-190.4,6c-17-6.7-35.6-10.2-54.9-10.1
		C-327.6-3.8-394,63.2-393.7,145.5s67.3,148.8,149.6,148.4c73.3-0.3,134-53.2,146.2-123.2H-140.2L-140.2,170.7z"/>
</g>
<g id="Remove_dg">
	<polygon class="st4" points="210.1,0 125.2,84.9 40.3,0 0,40.3 84.9,125.2 0,210.1 40.3,250.4 125.2,165.5 210.1,250.4 
		250.4,210.1 165.5,125.2 250.4,40.3 	"/>
</g>
<g id="Refresh_2" class="st0">
	<g class="st5">
		<path class="st6" d="M-356.9-209.1c12.1,62.8,66.4,110.7,132.1,111.6c28.5,0.4,55-8.1,77.1-22.9l-19.6-30
			c-16.3,11-36,17.2-57.1,17c-46-0.6-84.5-32.4-96-75.2l36.5,0.5l-54-78.8l-55.9,77.4L-356.9-209.1z"/>
		<path class="st6" d="M-96.9-265.1c-12.9-62.7-67.8-109.8-133.6-109.8c-28.5,0-54.9,8.8-76.8,24l20,29.7
			c16.2-11.2,35.7-17.7,56.8-17.7c46,0,84.9,31.2,97,73.9H-170l55,78l54.9-78.1L-96.9-265.1z"/>
	</g>
</g>
<g id="Add_DG" class="st0">
	<polygon class="st7" points="663.7,-254.3 543.7,-254.3 543.7,-374.3 486.7,-374.3 486.7,-254.3 366.7,-254.3 366.7,-197.3 
		486.7,-197.3 486.7,-77.3 543.7,-77.3 543.7,-197.3 663.7,-197.3 	"/>
</g>
<g id="Add_Green" class="st0">
	<g id="XMLID_2_" class="st5">
		<g>
			<polygon class="st8" points="525.7,153.3 525.7,273.3 468.7,273.3 468.7,153.3 348.7,153.3 348.7,96.3 468.7,96.3 468.7,-23.7 
				525.7,-23.7 525.7,96.3 645.7,96.3 645.7,153.3 			"/>
		</g>
		<g>
			<polygon class="st9" points="645.7,96.3 525.7,96.3 525.7,-23.7 468.7,-23.7 468.7,96.3 348.7,96.3 348.7,153.3 468.7,153.3 
				468.7,273.3 525.7,273.3 525.7,153.3 645.7,153.3 			"/>
		</g>
	</g>
</g>
</svg>
