<?xml version="1.0" encoding="utf-8"?>
<!-- Generator: Adobe Illustrator 19.2.1, SVG Export Plug-In . SVG Version: 6.00 Build 0)  -->
<svg version="1.1" id="Layer_1" xmlns="http://www.w3.org/2000/svg" xmlns:xlink="http://www.w3.org/1999/xlink" x="0px" y="0px"
	 viewBox="0 0 250.4 250.4" style="enable-background:new 0 0 250.4 250.4;" xml:space="preserve">
<style type="text/css">
	.st0{display:none;}
	.st1{display:inline;fill:#FFFFFF;stroke:#000000;stroke-miterlimit:10;}
	.st2{fill:#FE0000;}
	.st3{display:inline;fill:#222222;stroke:#000000;stroke-linecap:round;stroke-linejoin:round;}
	.st4{display:inline;fill:#222222;stroke:#000000;stroke-miterlimit:10;}
	.st5{display:inline;}
	.st6{fill:#222222;stroke:#000000;stroke-miterlimit:10;}
	.st7{fill:#48BD1F;}
</style>
<g id="Background" class="st0">
</g>
<g id="Layer_1_1_" class="st0">
	<polygon class="st1" points="1066.7,94.7 946.7,94.7 946.7,-25.3 889.7,-25.3 889.7,94.7 769.7,94.7 769.7,151.7 889.7,151.7 
		889.7,271.7 946.7,271.7 946.7,151.7 1066.7,151.7 	"/>
	<rect x="1135" y="115.6" class="st1" width="296.8" height="56.8"/>
	<rect x="1254.9" y="-4.4" class="st1" width="56.8" height="296.8"/>
</g>
<g id="Remove_Red">
	<polygon class="st2" points="210.1,0 125.2,84.9 40.3,0 0,40.3 84.9,125.2 0,210.1 40.3,250.4 125.2,165.5 210.1,250.4 
		250.4,210.1 165.5,125.2 250.4,40.3 	"/>
</g>
<g id="Refresh_1" class="st0">
	<path class="st3" d="M-128.2,540.7c-11.6,47-53.7,81.3-104,81.5c-59.4,0.3-107.8-47.8-108.1-107.2s47.5-107.8,106.9-108.1
		c13.5-0.1,26.3,2.4,38.1,6.8l-18.8,42.5l109.5-17.4l-60.3-93.1l-13.5,30.3c-17-6.7-35.6-10.2-54.9-10.1
		c-82.3,0.3-148.7,67.3-148.4,149.6c0.3,82.3,67.3,148.8,149.6,148.4c73.3-0.3,134-53.2,146.2-123.2L-128.2,540.7L-128.2,540.7z"/>
</g>
<g id="Remove_dg" class="st0">
	<polygon class="st4" points="222.1,370 137.2,454.9 52.3,370 12,410.3 96.9,495.2 12,580.1 52.3,620.4 137.2,535.5 222.1,620.4 
		262.4,580.1 177.5,495.2 262.4,410.3 	"/>
</g>
<g id="Refresh_2" class="st0">
	<g class="st5">
		<path class="st6" d="M-344.9,160.9c12.1,62.8,66.4,110.7,132.1,111.6c28.5,0.4,55-8.1,77.1-22.9l-19.6-30
			c-16.3,11-36,17.2-57.1,17c-46-0.6-84.5-32.4-96-75.2l36.5,0.5l-54-78.8l-55.9,77.4L-344.9,160.9z"/>
		<path class="st6" d="M-84.9,104.9C-97.8,42.2-152.7-4.9-218.5-4.9c-28.5,0-54.9,8.8-76.8,24l20,29.7
			c16.2-11.2,35.7-17.7,56.8-17.7c46,0,84.9,31.2,97,73.9H-158l55,78l54.9-78.1H-84.9z"/>
	</g>
</g>
<g id="Add_DG" class="st0">
	<polygon class="st4" points="675.7,115.7 555.7,115.7 555.7,-4.3 498.7,-4.3 498.7,115.7 378.7,115.7 378.7,172.7 498.7,172.7 
		498.7,292.7 555.7,292.7 555.7,172.7 675.7,172.7 	"/>
</g>
<g id="Add_Green" class="st0">
	<g id="XMLID_2_" class="st5">
		<g>
			<polygon class="st7" points="537.7,523.3 537.7,643.3 480.7,643.3 480.7,523.3 360.7,523.3 360.7,466.3 480.7,466.3 480.7,346.3 
				537.7,346.3 537.7,466.3 657.7,466.3 657.7,523.3 			"/>
		</g>
	</g>
</g>
</svg>
